<svg width="1440" height="616" viewBox="0 0 1440 616" fill="none" xmlns="http://www.w3.org/2000/svg">
<path d="M1365.84 613.058L1365.84 613.059L1365.84 613.054C1429.06 572.915 1459.32 523.581 1459.32 468.57C1459.32 420.576 1428.32 393.683 1394.44 393.683C1375.42 393.683 1359.89 400.396 1349.13 411.987C1338.36 423.576 1332.37 440.014 1332.37 459.425C1332.37 493.301 1352.81 517.429 1378.3 517.429C1380.2 517.429 1381.68 517.774 1382.81 518.391C1383.94 519.005 1384.75 519.899 1385.3 521.03C1386.39 523.31 1386.41 526.567 1385.71 530.421L1385.71 530.428L1385.71 530.436C1382.92 551.423 1371.77 565.424 1345.8 591.457L1345.8 591.457L1345.79 591.464C1342.93 594.516 1341.84 597.944 1342.07 601.233C1342.29 604.516 1343.82 607.639 1346.14 610.102C1350.79 615.026 1358.67 617.371 1365.84 613.058ZM1204.44 613.058L1204.45 613.054C1267.67 572.915 1297.92 523.581 1297.92 468.57C1297.92 444.583 1290.36 425.859 1278.45 413.129C1266.55 400.4 1250.33 393.683 1233.05 393.683C1214.37 393.683 1199.02 400.397 1188.34 411.988C1177.67 423.576 1171.68 440.014 1171.68 459.425C1171.68 493.294 1191.41 517.429 1216.91 517.429C1218.8 517.429 1220.28 517.774 1221.42 518.391C1222.55 519.005 1223.36 519.899 1223.9 521.03C1225 523.31 1225.01 526.567 1224.32 530.421L1224.31 530.434L1224.31 530.446C1222.22 551.426 1211.08 565.423 1185.11 591.457C1182.07 594.506 1180.85 597.931 1180.97 601.224C1181.09 604.509 1182.56 607.635 1184.84 610.1C1189.39 615.027 1197.27 617.37 1204.44 613.058L1204.44 613.058Z" stroke="white" stroke-width="0.634831"/>
<path d="M73.164 2.94156L73.164 2.94148L73.1575 2.94559C9.94008 43.085 -20.3174 92.4188 -20.3174 147.43C-20.3174 195.424 10.6824 222.317 44.5575 222.317C63.582 222.317 79.1074 215.604 89.875 204.013C100.64 192.424 106.625 175.986 106.625 156.575C106.625 122.699 86.1935 98.5713 60.6968 98.5713C58.8043 98.5713 57.325 98.2262 56.1884 97.6094C55.0559 96.9948 54.2459 96.101 53.7027 94.97C52.6077 92.6899 52.5914 89.4329 53.2903 85.5789L53.2917 85.5716L53.2926 85.5642C56.0838 64.5771 67.2332 50.5755 93.2003 24.5425L93.2004 24.5426L93.207 24.5356C96.072 21.4838 97.1579 18.0564 96.9324 14.7665C96.7073 11.4837 95.1786 8.36098 92.8556 5.89771C88.2126 0.9743 80.333 -1.37072 73.164 2.94156ZM234.558 2.94148L234.551 2.94559C171.334 43.085 141.076 92.4188 141.076 147.43C141.076 171.417 148.642 190.141 160.547 202.871C172.45 215.6 188.675 222.317 205.951 222.317C224.626 222.317 239.976 215.603 250.655 204.012C261.332 192.424 267.317 175.986 267.317 156.575C267.317 122.705 247.593 98.5713 222.09 98.5713C220.198 98.5713 218.719 98.2262 217.582 97.6094C216.45 96.9948 215.64 96.101 215.096 94.97C214.001 92.6899 213.985 89.4329 214.684 85.5789L214.686 85.5665L214.687 85.5538C216.78 64.5743 227.923 50.5773 253.892 24.5425C256.933 21.4945 258.155 18.0689 258.03 14.7763C257.907 11.4906 256.444 8.36499 254.164 5.89995C249.607 0.973187 241.726 -1.37026 234.558 2.94156L234.558 2.94148Z" stroke="white" stroke-width="0.634831"/>
<path d="M499.298 320.042C502.72 320.042 504.924 317.896 504.924 314.938C504.924 312.038 502.72 309.892 499.298 309.892C495.876 309.892 493.556 312.038 493.556 314.938C493.556 317.896 495.876 320.042 499.298 320.042ZM494.02 352H504.692C505.504 352 506.026 351.594 506.026 351.014V350.782C506.026 349.332 503.59 348.868 503.59 346.374V324.972C503.59 323.928 502.662 323.116 501.212 323.812L493.962 327.408C493.208 327.814 492.744 328.104 492.744 328.626V328.8C492.744 330.076 494.948 330.714 494.948 333.266V346.374C494.948 348.868 492.744 349.332 492.744 350.782V351.014C492.744 351.594 493.266 352 494.02 352ZM539.439 346.374L538.743 335.934C538.047 326.712 532.943 323.58 527.665 323.58C523.721 323.58 520.647 325.32 519.081 328.278V325.03C519.081 323.928 518.443 323.116 517.109 323.812L510.207 327.176C509.511 327.524 509.047 327.814 509.047 328.394V328.626C509.047 330.076 511.889 330.308 511.889 332.918V346.432C511.889 348.926 509.395 349.39 509.395 350.84V351.072C509.395 351.652 509.917 352.058 510.729 352.058H521.517C522.329 352.058 522.851 351.652 522.851 351.072V350.84C522.851 349.39 520.357 348.926 520.357 346.432V333.266C520.357 329.496 522.155 326.886 525.287 326.886C528.361 326.886 530.043 329.438 530.333 335.644L530.913 346.374C531.029 348.926 528.825 349.39 528.825 350.84V351.072C528.825 351.652 529.347 352.058 530.159 352.058H540.193C541.005 352.058 541.527 351.652 541.527 351.072V350.84C541.527 349.39 539.613 348.926 539.439 346.374ZM589.807 346.432L575.945 313.314C575.191 311.574 574.147 310.82 572.407 310.82H566.375C565.679 310.82 565.215 311.226 565.215 311.748V311.98C565.215 313.198 568.057 314.648 567.245 316.794L555.703 346.432C554.659 349.216 552.571 349.39 552.571 350.84V351.014C552.571 351.652 553.093 352 553.847 352H561.445C562.315 352 562.779 351.652 562.779 351.014V350.84C562.779 349.39 559.531 348.868 560.459 346.432L562.141 341.792H578.323L580.063 346.432C580.991 348.868 577.743 349.39 577.743 350.84V351.014C577.743 351.652 578.265 352 579.019 352H591.721C592.475 352 592.997 351.652 592.997 351.014V350.84C592.997 349.39 590.967 349.158 589.807 346.432ZM563.533 338.022L570.145 319.984L576.931 338.022H563.533ZM604.364 352.58C610.164 352.58 613.296 348.288 613.296 344.112C613.296 343.01 611.904 342.778 611.208 343.764C610.744 345.098 609.584 346.374 607.264 346.374C605.582 346.374 604.306 344.982 604.306 342.662V327.524H610.976C611.614 327.524 612.136 327.06 612.136 326.364V325.378C612.136 324.682 611.614 324.16 610.976 324.16H604.306L604.248 318.418C604.248 317.548 603.784 317.026 602.972 317.026H601.812C601.174 317.026 600.652 317.548 600.478 318.418C599.84 321.84 597.578 324.16 594.33 324.16H592.88C592.126 324.16 591.72 324.624 591.72 325.378V326.364C591.72 327.06 592.184 327.524 592.88 327.524H595.606V342.546C595.606 349.158 599.086 352.58 604.364 352.58ZM626.85 352.58C632.65 352.58 635.782 348.288 635.782 344.112C635.782 343.01 634.39 342.778 633.694 343.764C633.23 345.098 632.07 346.374 629.75 346.374C628.068 346.374 626.792 344.982 626.792 342.662V327.524H633.462C634.1 327.524 634.622 327.06 634.622 326.364V325.378C634.622 324.682 634.1 324.16 633.462 324.16H626.792L626.734 318.418C626.734 317.548 626.27 317.026 625.458 317.026H624.298C623.66 317.026 623.138 317.548 622.964 318.418C622.326 321.84 620.064 324.16 616.816 324.16H615.366C614.612 324.16 614.206 324.624 614.206 325.378V326.364C614.206 327.06 614.67 327.524 615.366 327.524H618.092V342.546C618.092 349.158 621.572 352.58 626.85 352.58ZM655.658 323.58C651.772 323.58 649.046 325.61 647.77 329.322V324.972C647.77 323.87 647.248 323.174 645.914 323.812L638.954 327.06C638.2 327.408 637.736 327.872 637.736 328.452V328.684C637.736 330.134 640.404 330.308 640.404 332.86V346.432C640.404 348.868 638.142 349.332 638.142 350.782V351.014C638.142 351.652 638.664 352 639.476 352H650.206C650.96 352 651.482 351.652 651.482 351.014V350.782C651.482 349.332 648.582 348.868 648.582 346.432V334.832C648.582 331.642 649.394 328.452 651.656 328.452C654.788 328.452 652.758 333.44 657.282 333.44C660.066 333.44 660.994 331.294 660.994 328.858C660.994 325.9 659.08 323.58 655.658 323.58ZM688.71 346.2L687.434 335.47C686.622 328.162 681.518 323.58 673.978 323.58C667.946 323.58 662.842 326.016 662.842 330.192C662.842 332.164 664.234 333.44 666.322 333.44C670.672 333.44 669.338 326.016 673.978 326.016C677.516 326.016 678.444 329.264 679.14 336.05L679.198 336.746C677.69 335.702 675.544 335.006 672.876 335.006C667.192 335.006 662.32 338.022 662.378 343.822C662.378 349.622 667.018 352.58 673.282 352.58C677.284 352.58 679.72 351.13 680.996 349.216C681.344 351.71 682.852 352.348 686.158 352.348C688.942 352.348 691.726 352 691.726 350.666C691.726 349.1 689.174 350.202 688.71 346.2ZM675.834 350.028C672.876 350.028 670.962 346.49 670.962 342.488C670.962 339.53 672.76 337.616 675.196 337.616C677.574 337.616 679.43 339.356 679.778 342.778L679.952 344.808C680.126 347.418 678.502 350.028 675.834 350.028ZM707.52 352.58C715.06 352.58 719.004 347.882 719.352 343.126C719.468 341.85 718.018 341.618 717.322 342.546C716.104 344.634 713.9 346.606 710.362 346.606C704.446 346.606 700.502 341.56 700.502 333.846C700.502 329.554 702.59 326.132 705.896 326.132C710.942 326.074 710.594 334.31 715.582 334.6C718.25 334.716 719.178 333.208 719.178 331.7C719.178 327.176 713.842 323.522 707.172 323.58C699.342 323.638 692.556 329.09 692.556 338.022C692.556 345.852 698.762 352.58 707.52 352.58ZM733.844 352.58C739.644 352.58 742.776 348.288 742.776 344.112C742.776 343.01 741.384 342.778 740.688 343.764C740.224 345.098 739.064 346.374 736.744 346.374C735.062 346.374 733.786 344.982 733.786 342.662V327.524H740.456C741.094 327.524 741.616 327.06 741.616 326.364V325.378C741.616 324.682 741.094 324.16 740.456 324.16H733.786L733.728 318.418C733.728 317.548 733.264 317.026 732.452 317.026H731.292C730.654 317.026 730.132 317.548 729.958 318.418C729.32 321.84 727.058 324.16 723.81 324.16H722.36C721.606 324.16 721.2 324.624 721.2 325.378V326.364C721.2 327.06 721.664 327.524 722.36 327.524H725.086V342.546C725.086 349.158 728.566 352.58 733.844 352.58ZM751.632 320.042C755.054 320.042 757.258 317.896 757.258 314.938C757.258 312.038 755.054 309.892 751.632 309.892C748.21 309.892 745.89 312.038 745.89 314.938C745.89 317.896 748.21 320.042 751.632 320.042ZM746.354 352H757.026C757.838 352 758.36 351.594 758.36 351.014V350.782C758.36 349.332 755.924 348.868 755.924 346.374V324.972C755.924 323.928 754.996 323.116 753.546 323.812L746.296 327.408C745.542 327.814 745.078 328.104 745.078 328.626V328.8C745.078 330.076 747.282 330.714 747.282 333.266V346.374C747.282 348.868 745.078 349.332 745.078 350.782V351.014C745.078 351.594 745.6 352 746.354 352ZM790.149 324.16H783.131C782.377 324.16 781.913 324.508 781.913 325.146V325.378C781.913 326.77 785.393 327.06 783.943 331.004L778.491 345.504L772.401 329.902C771.415 327.234 773.619 326.712 773.619 325.378V325.146C773.619 324.566 773.097 324.16 772.459 324.16H760.917C760.221 324.16 759.757 324.508 759.757 325.088V325.32C759.757 326.77 761.613 327.524 762.599 329.728L772.227 350.608C772.633 351.594 773.097 352 774.083 352H777.853C778.839 352 779.419 351.594 779.767 350.608L787.771 329.728C788.699 327.35 791.367 326.77 791.367 325.32V325.088C791.367 324.508 790.903 324.16 790.149 324.16ZM815.182 343.184C814.08 344.982 811.644 346.548 808.57 346.548C805.09 346.548 802.422 344.692 800.914 341.502L813.79 335.644C815.356 334.948 816.342 333.788 816.342 331.816C816.342 327.988 812.978 323.58 805.38 323.58C797.782 323.58 791.344 329.438 791.344 337.848C791.344 346.78 797.318 352.58 805.38 352.58C812.862 352.58 816.806 347.186 817.154 343.822C817.212 342.604 815.878 342.314 815.182 343.184ZM804.336 326.132C807.468 326.132 808.976 330.25 808.976 332.338C808.976 333.556 808.512 334.542 807.468 335.064L799.986 338.834C799.58 337.326 799.406 335.644 799.406 333.846C799.406 329.438 801.262 326.132 804.336 326.132ZM834.281 352H845.185C845.997 352 846.519 351.594 846.519 351.014V350.782C846.519 349.448 844.025 348.868 844.025 346.432V338.602H849.187C859.453 338.602 865.949 333.15 865.949 324.392C865.949 314.648 857.771 310.82 847.505 310.82H834.281C833.469 310.82 832.947 311.168 832.947 311.748V311.98C832.947 313.43 835.209 314.01 835.209 316.388V346.432C835.209 348.868 832.947 349.448 832.947 350.782V351.014C832.947 351.594 833.469 352 834.281 352ZM846.519 335.18C844.721 335.18 844.025 334.194 844.025 332.57V316.794C844.025 315.17 844.721 314.3 845.939 314.3H847.505C852.145 314.3 856.843 318.592 856.843 326.48C856.843 331.352 854.117 335.18 849.187 335.18H846.519ZM869.596 352H880.268C881.022 352 881.602 351.594 881.602 351.014V350.782C881.602 349.332 879.108 348.868 879.108 346.432V309.544C879.108 308.558 878.238 307.746 876.73 308.5L869.422 312.096C868.726 312.386 868.262 312.676 868.262 313.256V313.488C868.262 314.706 870.524 315.286 870.524 317.896V346.432C870.524 348.868 868.262 349.332 868.262 350.782V351.014C868.262 351.594 868.784 352 869.596 352ZM911.024 346.2L909.748 335.47C908.936 328.162 903.832 323.58 896.292 323.58C890.26 323.58 885.156 326.016 885.156 330.192C885.156 332.164 886.548 333.44 888.636 333.44C892.986 333.44 891.652 326.016 896.292 326.016C899.83 326.016 900.758 329.264 901.454 336.05L901.512 336.746C900.004 335.702 897.858 335.006 895.19 335.006C889.506 335.006 884.634 338.022 884.692 343.822C884.692 349.622 889.332 352.58 895.596 352.58C899.598 352.58 902.034 351.13 903.31 349.216C903.658 351.71 905.166 352.348 908.472 352.348C911.256 352.348 914.04 352 914.04 350.666C914.04 349.1 911.488 350.202 911.024 346.2ZM898.148 350.028C895.19 350.028 893.276 346.49 893.276 342.488C893.276 339.53 895.074 337.616 897.51 337.616C899.888 337.616 901.744 339.356 902.092 342.778L902.266 344.808C902.44 347.418 900.816 350.028 898.148 350.028ZM929.835 352.58C937.375 352.58 941.319 347.882 941.667 343.126C941.783 341.85 940.333 341.618 939.637 342.546C938.419 344.634 936.215 346.606 932.677 346.606C926.761 346.606 922.817 341.56 922.817 333.846C922.817 329.554 924.905 326.132 928.211 326.132C933.257 326.074 932.909 334.31 937.897 334.6C940.565 334.716 941.493 333.208 941.493 331.7C941.493 327.176 936.157 323.522 929.487 323.58C921.657 323.638 914.871 329.09 914.871 338.022C914.871 345.852 921.077 352.58 929.835 352.58ZM968.338 343.184C967.236 344.982 964.8 346.548 961.726 346.548C958.246 346.548 955.578 344.692 954.07 341.502L966.946 335.644C968.512 334.948 969.498 333.788 969.498 331.816C969.498 327.988 966.134 323.58 958.536 323.58C950.938 323.58 944.5 329.438 944.5 337.848C944.5 346.78 950.474 352.58 958.536 352.58C966.018 352.58 969.962 347.186 970.31 343.822C970.368 342.604 969.034 342.314 968.338 343.184ZM957.492 326.132C960.624 326.132 962.132 330.25 962.132 332.338C962.132 333.556 961.668 334.542 960.624 335.064L953.142 338.834C952.736 337.326 952.562 335.644 952.562 333.846C952.562 329.438 954.418 326.132 957.492 326.132ZM985.403 352.522C993.175 352.522 997.815 348.926 997.815 344.228C997.815 333.15 981.981 337.79 981.981 329.844C981.981 327.756 983.431 325.958 985.751 325.958C990.797 325.958 989.115 333.556 993.929 333.556C995.785 333.556 997.235 332.222 997.235 330.54C997.235 326.944 992.595 323.58 985.287 323.58C978.327 323.58 973.513 327.176 973.513 332.106C973.513 343.532 989.637 338.718 989.637 346.432C989.637 349.042 987.781 350.26 985.403 350.26C979.603 350.26 981.575 342.604 976.471 342.604C974.499 342.604 972.991 343.59 972.991 345.794C972.991 349.39 977.921 352.522 985.403 352.522ZM1006.66 352.58C1009.5 352.58 1011.94 351.014 1011.94 347.766C1011.94 344.518 1009.5 342.952 1006.66 342.952C1003.76 342.952 1001.32 344.518 1001.32 347.766C1001.32 351.014 1003.76 352.58 1006.66 352.58Z" fill="white"/>
<path d="M610.562 386.112V387.528H606.326V386.112H610.562ZM623.128 381.96C623.848 381.96 624.48 382.084 625.024 382.332C625.568 382.58 626.032 382.948 626.416 383.436L625.492 384.504C625.164 384.088 624.804 383.784 624.412 383.592C624.028 383.392 623.58 383.292 623.068 383.292C622.732 383.292 622.452 383.336 622.228 383.424C622.012 383.512 621.852 383.628 621.748 383.772C621.652 383.916 621.604 384.076 621.604 384.252C621.604 384.468 621.688 384.652 621.856 384.804C622.024 384.948 622.312 385.068 622.72 385.164L624.196 385.5C624.98 385.676 625.54 385.94 625.876 386.292C626.22 386.636 626.392 387.084 626.392 387.636C626.392 388.156 626.256 388.604 625.984 388.98C625.712 389.348 625.332 389.632 624.844 389.832C624.356 390.024 623.796 390.12 623.164 390.12C622.612 390.12 622.104 390.056 621.64 389.928C621.184 389.792 620.776 389.608 620.416 389.376C620.056 389.144 619.756 388.876 619.516 388.572L620.452 387.456C620.636 387.712 620.864 387.94 621.136 388.14C621.408 388.34 621.716 388.5 622.06 388.62C622.412 388.732 622.78 388.788 623.164 388.788C623.492 388.788 623.768 388.752 623.992 388.68C624.224 388.6 624.396 388.492 624.508 388.356C624.628 388.212 624.688 388.04 624.688 387.84C624.688 387.632 624.616 387.456 624.472 387.312C624.336 387.16 624.08 387.044 623.704 386.964L622.096 386.604C621.632 386.492 621.232 386.348 620.896 386.172C620.568 385.988 620.316 385.756 620.14 385.476C619.972 385.188 619.888 384.848 619.888 384.456C619.888 383.984 620.016 383.56 620.272 383.184C620.528 382.808 620.896 382.512 621.376 382.296C621.864 382.072 622.448 381.96 623.128 381.96ZM631.594 388.668H635.77V390H629.938V382.08H631.594V388.668ZM640.781 382.08V390H639.125V382.08H640.781ZM653.436 382.08V390H651.936V385.872L652.02 383.556H651.996L649.8 390H648.444L646.26 383.556H646.236L646.32 385.872V390H644.82V382.08H647.22L648.648 386.4L649.152 388.188H649.176L649.692 386.412L651.108 382.08H653.436ZM669.66 390H667.944L667.284 388.068H664.248L663.588 390H661.896L664.788 382.08H666.768L669.66 390ZM664.62 386.844H666.912L665.76 383.388L664.62 386.844ZM679.691 390H677.975L677.315 388.068H674.279L673.619 390H671.927L674.819 382.08H676.799L679.691 390ZM674.651 386.844H676.943L675.791 383.388L674.651 386.844ZM686.338 382.08C687.234 382.08 687.938 382.296 688.45 382.728C688.962 383.16 689.218 383.74 689.218 384.468C689.218 385.244 688.962 385.84 688.45 386.256C687.938 386.664 687.238 386.868 686.35 386.868L686.182 386.964H684.478V390H682.846V382.08H686.338ZM686.146 385.704C686.61 385.704 686.954 385.612 687.178 385.428C687.41 385.236 687.526 384.944 687.526 384.552C687.526 384.16 687.41 383.872 687.178 383.688C686.954 383.496 686.61 383.4 686.146 383.4H684.478V385.704H686.146ZM687.118 386.052L689.686 390H687.826L685.702 386.532L687.118 386.052ZM696.332 381.96C697.116 381.96 697.792 382.124 698.36 382.452C698.928 382.78 699.364 383.248 699.668 383.856C699.98 384.464 700.136 385.192 700.136 386.04C700.136 386.888 699.98 387.616 699.668 388.224C699.364 388.832 698.928 389.3 698.36 389.628C697.792 389.956 697.116 390.12 696.332 390.12C695.548 390.12 694.868 389.956 694.292 389.628C693.724 389.3 693.284 388.832 692.972 388.224C692.668 387.616 692.516 386.888 692.516 386.04C692.516 385.192 692.668 384.464 692.972 383.856C693.284 383.248 693.724 382.78 694.292 382.452C694.868 382.124 695.548 381.96 696.332 381.96ZM696.332 383.316C695.884 383.316 695.504 383.42 695.192 383.628C694.88 383.836 694.64 384.144 694.472 384.552C694.312 384.952 694.232 385.448 694.232 386.04C694.232 386.624 694.312 387.12 694.472 387.528C694.64 387.936 694.88 388.244 695.192 388.452C695.504 388.66 695.884 388.764 696.332 388.764C696.772 388.764 697.148 388.66 697.46 388.452C697.772 388.244 698.008 387.936 698.168 387.528C698.336 387.12 698.42 386.624 698.42 386.04C698.42 385.448 698.336 384.952 698.168 384.552C698.008 384.144 697.772 383.836 697.46 383.628C697.148 383.42 696.772 383.316 696.332 383.316ZM710.59 382.08V390H708.694L705.922 385.344L705.238 384.048H705.226L705.274 385.416V390H703.786V382.08H705.67L708.442 386.724L709.126 388.032H709.15L709.102 386.664V382.08H710.59ZM717.529 381.96C718.249 381.96 718.881 382.084 719.425 382.332C719.969 382.58 720.433 382.948 720.817 383.436L719.893 384.504C719.565 384.088 719.205 383.784 718.813 383.592C718.429 383.392 717.981 383.292 717.469 383.292C717.133 383.292 716.853 383.336 716.629 383.424C716.413 383.512 716.253 383.628 716.149 383.772C716.053 383.916 716.005 384.076 716.005 384.252C716.005 384.468 716.089 384.652 716.257 384.804C716.425 384.948 716.713 385.068 717.121 385.164L718.597 385.5C719.381 385.676 719.941 385.94 720.277 386.292C720.621 386.636 720.793 387.084 720.793 387.636C720.793 388.156 720.657 388.604 720.385 388.98C720.113 389.348 719.733 389.632 719.245 389.832C718.757 390.024 718.197 390.12 717.565 390.12C717.013 390.12 716.505 390.056 716.041 389.928C715.585 389.792 715.177 389.608 714.817 389.376C714.457 389.144 714.157 388.876 713.917 388.572L714.853 387.456C715.037 387.712 715.265 387.94 715.537 388.14C715.809 388.34 716.117 388.5 716.461 388.62C716.813 388.732 717.181 388.788 717.565 388.788C717.893 388.788 718.169 388.752 718.393 388.68C718.625 388.6 718.797 388.492 718.909 388.356C719.029 388.212 719.089 388.04 719.089 387.84C719.089 387.632 719.017 387.456 718.873 387.312C718.737 387.16 718.481 387.044 718.105 386.964L716.497 386.604C716.033 386.492 715.633 386.348 715.297 386.172C714.969 385.988 714.717 385.756 714.541 385.476C714.373 385.188 714.289 384.848 714.289 384.456C714.289 383.984 714.417 383.56 714.673 383.184C714.929 382.808 715.297 382.512 715.777 382.296C716.265 382.072 716.849 381.96 717.529 381.96ZM733.408 381.96C734.192 381.96 734.868 382.124 735.436 382.452C736.004 382.78 736.44 383.248 736.744 383.856C737.056 384.464 737.212 385.192 737.212 386.04C737.212 386.888 737.056 387.616 736.744 388.224C736.44 388.832 736.004 389.3 735.436 389.628C734.868 389.956 734.192 390.12 733.408 390.12C732.624 390.12 731.944 389.956 731.368 389.628C730.8 389.3 730.36 388.832 730.048 388.224C729.744 387.616 729.592 386.888 729.592 386.04C729.592 385.192 729.744 384.464 730.048 383.856C730.36 383.248 730.8 382.78 731.368 382.452C731.944 382.124 732.624 381.96 733.408 381.96ZM733.408 383.316C732.96 383.316 732.58 383.42 732.268 383.628C731.956 383.836 731.716 384.144 731.548 384.552C731.388 384.952 731.308 385.448 731.308 386.04C731.308 386.624 731.388 387.12 731.548 387.528C731.716 387.936 731.956 388.244 732.268 388.452C732.58 388.66 732.96 388.764 733.408 388.764C733.848 388.764 734.224 388.66 734.536 388.452C734.848 388.244 735.084 387.936 735.244 387.528C735.412 387.12 735.496 386.624 735.496 386.04C735.496 385.448 735.412 384.952 735.244 384.552C735.084 384.144 734.848 383.836 734.536 383.628C734.224 383.42 733.848 383.316 733.408 383.316ZM747.666 382.08V390H745.77L742.998 385.344L742.314 384.048H742.302L742.35 385.416V390H740.862V382.08H742.746L745.518 386.724L746.202 388.032H746.226L746.178 386.664V382.08H747.666ZM764.165 382.08V390H762.509V382.08H764.165ZM759.017 382.08V390H757.361V382.08H759.017ZM763.373 385.332V386.664H758.189V385.332H763.373ZM769.868 382.08V390H768.212V382.08H769.868ZM776.799 381.96C777.519 381.96 778.151 382.084 778.695 382.332C779.239 382.58 779.703 382.948 780.087 383.436L779.163 384.504C778.835 384.088 778.475 383.784 778.083 383.592C777.699 383.392 777.251 383.292 776.739 383.292C776.403 383.292 776.123 383.336 775.899 383.424C775.683 383.512 775.523 383.628 775.419 383.772C775.323 383.916 775.275 384.076 775.275 384.252C775.275 384.468 775.359 384.652 775.527 384.804C775.695 384.948 775.983 385.068 776.391 385.164L777.867 385.5C778.651 385.676 779.211 385.94 779.547 386.292C779.891 386.636 780.063 387.084 780.063 387.636C780.063 388.156 779.927 388.604 779.655 388.98C779.383 389.348 779.003 389.632 778.515 389.832C778.027 390.024 777.467 390.12 776.835 390.12C776.283 390.12 775.775 390.056 775.311 389.928C774.855 389.792 774.447 389.608 774.087 389.376C773.727 389.144 773.427 388.876 773.187 388.572L774.123 387.456C774.307 387.712 774.535 387.94 774.807 388.14C775.079 388.34 775.387 388.5 775.731 388.62C776.083 388.732 776.451 388.788 776.835 388.788C777.163 388.788 777.439 388.752 777.663 388.68C777.895 388.6 778.067 388.492 778.179 388.356C778.299 388.212 778.359 388.04 778.359 387.84C778.359 387.632 778.287 387.456 778.143 387.312C778.007 387.16 777.751 387.044 777.375 386.964L775.767 386.604C775.303 386.492 774.903 386.348 774.567 386.172C774.239 385.988 773.987 385.756 773.811 385.476C773.643 385.188 773.559 384.848 773.559 384.456C773.559 383.984 773.687 383.56 773.943 383.184C774.199 382.808 774.567 382.512 775.047 382.296C775.535 382.072 776.119 381.96 776.799 381.96ZM792.582 382.08C793.19 382.08 793.71 382.184 794.142 382.392C794.574 382.592 794.906 382.884 795.138 383.268C795.378 383.644 795.498 384.1 795.498 384.636C795.498 385.172 795.378 385.632 795.138 386.016C794.906 386.392 794.574 386.684 794.142 386.892C793.71 387.092 793.19 387.192 792.582 387.192H790.914V390H789.258V382.08H792.582ZM792.33 385.884C792.826 385.884 793.198 385.78 793.446 385.572C793.694 385.356 793.818 385.044 793.818 384.636C793.818 384.22 793.694 383.908 793.446 383.7C793.198 383.492 792.826 383.388 792.33 383.388H790.914V385.884H792.33ZM805.8 382.08V390H804.144V382.08H805.8ZM800.652 382.08V390H798.996V382.08H800.652ZM805.008 385.332V386.664H799.824V385.332H805.008ZM813.267 381.96C814.051 381.96 814.727 382.124 815.295 382.452C815.863 382.78 816.299 383.248 816.603 383.856C816.915 384.464 817.071 385.192 817.071 386.04C817.071 386.888 816.915 387.616 816.603 388.224C816.299 388.832 815.863 389.3 815.295 389.628C814.727 389.956 814.051 390.12 813.267 390.12C812.483 390.12 811.803 389.956 811.227 389.628C810.659 389.3 810.219 388.832 809.907 388.224C809.603 387.616 809.451 386.888 809.451 386.04C809.451 385.192 809.603 384.464 809.907 383.856C810.219 383.248 810.659 382.78 811.227 382.452C811.803 382.124 812.483 381.96 813.267 381.96ZM813.267 383.316C812.819 383.316 812.439 383.42 812.127 383.628C811.815 383.836 811.575 384.144 811.407 384.552C811.247 384.952 811.167 385.448 811.167 386.04C811.167 386.624 811.247 387.12 811.407 387.528C811.575 387.936 811.815 388.244 812.127 388.452C812.439 388.66 812.819 388.764 813.267 388.764C813.707 388.764 814.083 388.66 814.395 388.452C814.707 388.244 814.943 387.936 815.103 387.528C815.271 387.12 815.355 386.624 815.355 386.04C815.355 385.448 815.271 384.952 815.103 384.552C814.943 384.144 814.707 383.836 814.395 383.628C814.083 383.42 813.707 383.316 813.267 383.316ZM826.681 382.08V383.412H824.029V390H822.373V383.412H819.709V382.08H826.681ZM833.129 381.96C833.913 381.96 834.589 382.124 835.157 382.452C835.725 382.78 836.161 383.248 836.465 383.856C836.777 384.464 836.933 385.192 836.933 386.04C836.933 386.888 836.777 387.616 836.465 388.224C836.161 388.832 835.725 389.3 835.157 389.628C834.589 389.956 833.913 390.12 833.129 390.12C832.345 390.12 831.665 389.956 831.089 389.628C830.521 389.3 830.081 388.832 829.769 388.224C829.465 387.616 829.313 386.888 829.313 386.04C829.313 385.192 829.465 384.464 829.769 383.856C830.081 383.248 830.521 382.78 831.089 382.452C831.665 382.124 832.345 381.96 833.129 381.96ZM833.129 383.316C832.681 383.316 832.301 383.42 831.989 383.628C831.677 383.836 831.437 384.144 831.269 384.552C831.109 384.952 831.029 385.448 831.029 386.04C831.029 386.624 831.109 387.12 831.269 387.528C831.437 387.936 831.677 388.244 831.989 388.452C832.301 388.66 832.681 388.764 833.129 388.764C833.569 388.764 833.945 388.66 834.257 388.452C834.569 388.244 834.805 387.936 834.965 387.528C835.133 387.12 835.217 386.624 835.217 386.04C835.217 385.448 835.133 384.952 834.965 384.552C834.805 384.144 834.569 383.836 834.257 383.628C833.945 383.42 833.569 383.316 833.129 383.316ZM843.836 390.12C843.108 390.12 842.468 389.96 841.916 389.64C841.372 389.32 840.948 388.856 840.644 388.248C840.34 387.64 840.188 386.908 840.188 386.052C840.188 385.204 840.348 384.476 840.668 383.868C840.988 383.252 841.44 382.78 842.024 382.452C842.616 382.124 843.3 381.96 844.076 381.96C844.932 381.96 845.624 382.12 846.152 382.44C846.68 382.752 847.1 383.24 847.412 383.904L845.876 384.564C845.748 384.14 845.528 383.828 845.216 383.628C844.912 383.42 844.536 383.316 844.088 383.316C843.64 383.316 843.252 383.424 842.924 383.64C842.596 383.848 842.344 384.156 842.168 384.564C841.992 384.964 841.904 385.456 841.904 386.04C841.904 386.64 841.988 387.148 842.156 387.564C842.324 387.972 842.572 388.28 842.9 388.488C843.236 388.688 843.648 388.788 844.136 388.788C844.4 388.788 844.644 388.756 844.868 388.692C845.1 388.628 845.3 388.532 845.468 388.404C845.636 388.276 845.768 388.112 845.864 387.912C845.96 387.712 846.008 387.48 846.008 387.216V387.036H843.932V385.824H847.436V390H846.272L846.152 388.272L846.44 388.476C846.264 389.004 845.952 389.412 845.504 389.7C845.064 389.98 844.508 390.12 843.836 390.12ZM854.728 382.08C855.624 382.08 856.328 382.296 856.84 382.728C857.352 383.16 857.608 383.74 857.608 384.468C857.608 385.244 857.352 385.84 856.84 386.256C856.328 386.664 855.628 386.868 854.74 386.868L854.572 386.964H852.868V390H851.236V382.08H854.728ZM854.536 385.704C855 385.704 855.344 385.612 855.568 385.428C855.8 385.236 855.916 384.944 855.916 384.552C855.916 384.16 855.8 383.872 855.568 383.688C855.344 383.496 855 383.4 854.536 383.4H852.868V385.704H854.536ZM855.508 386.052L858.076 390H856.216L854.092 386.532L855.508 386.052ZM868.248 390H866.532L865.872 388.068H862.836L862.176 390H860.484L863.376 382.08H865.356L868.248 390ZM863.208 386.844H865.5L864.348 383.388L863.208 386.844ZM874.727 382.08C875.335 382.08 875.855 382.184 876.287 382.392C876.719 382.592 877.051 382.884 877.283 383.268C877.523 383.644 877.643 384.1 877.643 384.636C877.643 385.172 877.523 385.632 877.283 386.016C877.051 386.392 876.719 386.684 876.287 386.892C875.855 387.092 875.335 387.192 874.727 387.192H873.059V390H871.403V382.08H874.727ZM874.475 385.884C874.971 385.884 875.343 385.78 875.591 385.572C875.839 385.356 875.963 385.044 875.963 384.636C875.963 384.22 875.839 383.908 875.591 383.7C875.343 383.492 874.971 383.388 874.475 383.388H873.059V385.884H874.475ZM887.944 382.08V390H886.288V382.08H887.944ZM882.796 382.08V390H881.14V382.08H882.796ZM887.152 385.332V386.664H881.968V385.332H887.152ZM894.884 381.96C895.604 381.96 896.236 382.084 896.78 382.332C897.324 382.58 897.788 382.948 898.172 383.436L897.248 384.504C896.92 384.088 896.56 383.784 896.168 383.592C895.784 383.392 895.336 383.292 894.824 383.292C894.488 383.292 894.208 383.336 893.984 383.424C893.768 383.512 893.608 383.628 893.504 383.772C893.408 383.916 893.36 384.076 893.36 384.252C893.36 384.468 893.444 384.652 893.612 384.804C893.78 384.948 894.068 385.068 894.476 385.164L895.952 385.5C896.736 385.676 897.296 385.94 897.632 386.292C897.976 386.636 898.148 387.084 898.148 387.636C898.148 388.156 898.012 388.604 897.74 388.98C897.468 389.348 897.088 389.632 896.6 389.832C896.112 390.024 895.552 390.12 894.92 390.12C894.368 390.12 893.86 390.056 893.396 389.928C892.94 389.792 892.532 389.608 892.172 389.376C891.812 389.144 891.512 388.876 891.272 388.572L892.208 387.456C892.392 387.712 892.62 387.94 892.892 388.14C893.164 388.34 893.472 388.5 893.816 388.62C894.168 388.732 894.536 388.788 894.92 388.788C895.248 388.788 895.524 388.752 895.748 388.68C895.98 388.6 896.152 388.492 896.264 388.356C896.384 388.212 896.444 388.04 896.444 387.84C896.444 387.632 896.372 387.456 896.228 387.312C896.092 387.16 895.836 387.044 895.46 386.964L893.852 386.604C893.388 386.492 892.988 386.348 892.652 386.172C892.324 385.988 892.072 385.756 891.896 385.476C891.728 385.188 891.644 384.848 891.644 384.456C891.644 383.984 891.772 383.56 892.028 383.184C892.284 382.808 892.652 382.512 893.132 382.296C893.62 382.072 894.204 381.96 894.884 381.96Z" fill="white"/>
<path d="M579.571 241H576.815L572.499 230.236H556.119L551.803 241H549.047L562.775 206.68H565.843L579.571 241ZM557.055 227.844H571.563L564.283 209.228L557.055 227.844ZM586.939 207.772V234.136C586.939 235.765 587.321 237.013 588.083 237.88C588.881 238.712 590.025 239.128 591.515 239.128C592.486 239.128 593.335 238.972 594.063 238.66C594.826 238.313 595.502 237.828 596.091 237.204L597.079 239.336C596.421 239.995 595.589 240.532 594.583 240.948C593.578 241.329 592.451 241.52 591.203 241.52C589.851 241.52 588.655 241.277 587.615 240.792C586.575 240.272 585.761 239.492 585.171 238.452C584.617 237.412 584.339 236.095 584.339 234.5V208.5L586.939 207.772ZM596.663 215V217.236H579.139V215H596.663ZM603.724 207.772V234.136C603.724 235.765 604.105 237.013 604.868 237.88C605.665 238.712 606.809 239.128 608.3 239.128C609.27 239.128 610.12 238.972 610.848 238.66C611.61 238.313 612.286 237.828 612.876 237.204L613.864 239.336C613.205 239.995 612.373 240.532 611.368 240.948C610.362 241.329 609.236 241.52 607.988 241.52C606.636 241.52 605.44 241.277 604.4 240.792C603.36 240.272 602.545 239.492 601.956 238.452C601.401 237.412 601.124 236.095 601.124 234.5V208.5L603.724 207.772ZM613.448 215V217.236H595.924V215H613.448ZM617.969 241V215H620.153L620.465 220.46C621.124 218.623 622.181 217.167 623.637 216.092C625.093 215.017 626.844 214.48 628.889 214.48C629.582 214.48 630.206 214.549 630.761 214.688C631.316 214.827 631.766 215.052 632.113 215.364L631.541 217.652C631.16 217.409 630.744 217.219 630.293 217.08C629.842 216.941 629.166 216.872 628.265 216.872C626.948 216.872 625.7 217.288 624.521 218.12C623.342 218.917 622.389 220.044 621.661 221.5C620.933 222.921 620.569 224.568 620.569 226.44V241H617.969ZM651.833 223.892C651.833 221.639 651.227 219.888 650.013 218.64C648.8 217.392 647.067 216.768 644.813 216.768C642.837 216.768 641.139 217.201 639.717 218.068C638.296 218.9 637.239 220.304 636.545 222.28L634.413 220.928C635.176 218.883 636.441 217.305 638.209 216.196C640.012 215.052 642.231 214.48 644.865 214.48C646.772 214.48 648.436 214.827 649.857 215.52C651.313 216.179 652.44 217.167 653.237 218.484C654.035 219.801 654.433 221.448 654.433 223.424V236.424C654.433 238.261 655.265 239.18 656.929 239.18C657.657 239.18 658.281 239.059 658.801 238.816L658.645 240.896C658.056 241.208 657.293 241.364 656.357 241.364C655.56 241.364 654.815 241.208 654.121 240.896C653.428 240.584 652.856 240.064 652.405 239.336C651.989 238.608 651.781 237.62 651.781 236.372V234.968L652.509 234.916C652.197 236.407 651.504 237.655 650.429 238.66C649.389 239.631 648.176 240.359 646.789 240.844C645.403 241.295 644.016 241.52 642.629 241.52C641 241.52 639.544 241.26 638.261 240.74C636.979 240.22 635.973 239.475 635.245 238.504C634.517 237.499 634.153 236.268 634.153 234.812C634.153 232.871 634.795 231.311 636.077 230.132C637.395 228.919 639.232 228.087 641.589 227.636L652.353 225.504V227.688L642.889 229.56C640.844 229.976 639.319 230.583 638.313 231.38C637.308 232.177 636.805 233.269 636.805 234.656C636.805 236.077 637.343 237.204 638.417 238.036C639.492 238.833 641.017 239.232 642.993 239.232C643.999 239.232 645.021 239.093 646.061 238.816C647.101 238.539 648.055 238.105 648.921 237.516C649.823 236.892 650.533 236.129 651.053 235.228C651.573 234.292 651.833 233.165 651.833 231.848V223.892ZM673.62 214.48C675.388 214.48 676.965 214.757 678.352 215.312C679.738 215.867 680.917 216.664 681.888 217.704C682.858 218.744 683.604 220.009 684.124 221.5L681.68 222.644C681.125 220.772 680.154 219.333 678.768 218.328C677.416 217.288 675.682 216.768 673.568 216.768C671.661 216.768 669.98 217.219 668.524 218.12C667.068 218.987 665.941 220.269 665.144 221.968C664.346 223.632 663.948 225.643 663.948 228C663.948 230.323 664.346 232.333 665.144 234.032C665.941 235.731 667.05 237.031 668.472 237.932C669.893 238.799 671.574 239.232 673.516 239.232C674.972 239.232 676.289 238.989 677.468 238.504C678.681 238.019 679.669 237.308 680.432 236.372C681.229 235.436 681.749 234.327 681.992 233.044L684.384 233.876C683.933 235.471 683.188 236.84 682.148 237.984C681.142 239.128 679.912 240.012 678.456 240.636C677 241.225 675.37 241.52 673.568 241.52C671.21 241.52 669.096 240.983 667.224 239.908C665.386 238.833 663.948 237.291 662.908 235.28C661.868 233.235 661.348 230.808 661.348 228C661.348 225.192 661.868 222.783 662.908 220.772C663.982 218.727 665.438 217.167 667.276 216.092C669.148 215.017 671.262 214.48 673.62 214.48ZM694.626 207.772V234.136C694.626 235.765 695.007 237.013 695.77 237.88C696.567 238.712 697.711 239.128 699.202 239.128C700.173 239.128 701.022 238.972 701.75 238.66C702.513 238.313 703.189 237.828 703.778 237.204L704.766 239.336C704.107 239.995 703.275 240.532 702.27 240.948C701.265 241.329 700.138 241.52 698.89 241.52C697.538 241.52 696.342 241.277 695.302 240.792C694.262 240.272 693.447 239.492 692.858 238.452C692.303 237.412 692.026 236.095 692.026 234.5V208.5L694.626 207.772ZM704.35 215V217.236H686.826V215H704.35ZM710.172 209.956C709.513 209.956 708.976 209.765 708.56 209.384C708.178 208.968 707.988 208.431 707.988 207.772C707.988 207.113 708.178 206.593 708.56 206.212C708.976 205.796 709.513 205.588 710.172 205.588C710.83 205.588 711.35 205.796 711.732 206.212C712.148 206.593 712.356 207.113 712.356 207.772C712.356 208.431 712.148 208.968 711.732 209.384C711.35 209.765 710.83 209.956 710.172 209.956ZM711.472 215V241H708.872V215H711.472ZM737.5 215H740.256L729.388 241H726.788L715.92 215H718.832L728.14 238.296L737.5 215ZM754.978 241.52C752.586 241.52 750.454 240.983 748.582 239.908C746.71 238.833 745.236 237.291 744.162 235.28C743.122 233.235 742.602 230.808 742.602 228C742.602 225.192 743.122 222.783 744.162 220.772C745.236 218.727 746.675 217.167 748.478 216.092C750.28 215.017 752.343 214.48 754.666 214.48C757.023 214.48 759.034 215 760.698 216.04C762.362 217.08 763.644 218.536 764.546 220.408C765.447 222.245 765.898 224.377 765.898 226.804C765.898 227.116 765.88 227.428 765.846 227.74C765.846 228.017 765.828 228.277 765.794 228.52H744.214V226.18H764.65L763.35 226.544C763.315 223.563 762.518 221.188 760.958 219.42C759.432 217.652 757.318 216.768 754.614 216.768C752.742 216.768 751.095 217.219 749.674 218.12C748.252 218.987 747.143 220.269 746.346 221.968C745.548 223.632 745.15 225.643 745.15 228C745.15 230.323 745.548 232.333 746.346 234.032C747.178 235.731 748.322 237.031 749.778 237.932C751.268 238.799 752.984 239.232 754.926 239.232C756.936 239.232 758.652 238.799 760.074 237.932C761.53 237.065 762.656 235.869 763.454 234.344L765.534 235.54C764.91 236.788 764.078 237.863 763.038 238.764C761.998 239.631 760.802 240.307 759.45 240.792C758.098 241.277 756.607 241.52 754.978 241.52ZM799.704 206.68C802.096 206.68 804.159 207.096 805.892 207.928C807.625 208.725 808.96 209.869 809.896 211.36C810.867 212.851 811.352 214.636 811.352 216.716C811.352 218.831 810.867 220.633 809.896 222.124C808.96 223.615 807.625 224.776 805.892 225.608C804.159 226.405 802.096 226.804 799.704 226.804H790.916V241H788.316V206.68H799.704ZM799.392 224.36C802.408 224.36 804.696 223.701 806.256 222.384C807.816 221.032 808.596 219.143 808.596 216.716C808.596 214.289 807.816 212.417 806.256 211.1C804.696 209.748 802.408 209.072 799.392 209.072H790.916V224.36H799.392ZM827.116 241.52C824.724 241.52 822.592 240.983 820.72 239.908C818.848 238.833 817.374 237.291 816.3 235.28C815.26 233.235 814.74 230.808 814.74 228C814.74 225.192 815.26 222.783 816.3 220.772C817.374 218.727 818.813 217.167 820.616 216.092C822.418 215.017 824.481 214.48 826.804 214.48C829.161 214.48 831.172 215 832.836 216.04C834.5 217.08 835.782 218.536 836.684 220.408C837.585 222.245 838.036 224.377 838.036 226.804C838.036 227.116 838.018 227.428 837.984 227.74C837.984 228.017 837.966 228.277 837.932 228.52H816.352V226.18H836.788L835.488 226.544C835.453 223.563 834.656 221.188 833.096 219.42C831.57 217.652 829.456 216.768 826.752 216.768C824.88 216.768 823.233 217.219 821.812 218.12C820.39 218.987 819.281 220.269 818.484 221.968C817.686 223.632 817.288 225.643 817.288 228C817.288 230.323 817.686 232.333 818.484 234.032C819.316 235.731 820.46 237.031 821.916 237.932C823.406 238.799 825.122 239.232 827.064 239.232C829.074 239.232 830.79 238.799 832.212 237.932C833.668 237.065 834.794 235.869 835.592 234.344L837.672 235.54C837.048 236.788 836.216 237.863 835.176 238.764C834.136 239.631 832.94 240.307 831.588 240.792C830.236 241.277 828.745 241.52 827.116 241.52ZM855.021 214.48C857.448 214.48 859.58 215.017 861.417 216.092C863.289 217.167 864.745 218.727 865.785 220.772C866.86 222.783 867.397 225.192 867.397 228C867.397 230.808 866.86 233.235 865.785 235.28C864.745 237.291 863.289 238.833 861.417 239.908C859.58 240.983 857.448 241.52 855.021 241.52C852.594 241.52 850.445 240.983 848.573 239.908C846.736 238.833 845.28 237.291 844.205 235.28C843.165 233.235 842.645 230.808 842.645 228C842.645 225.192 843.165 222.783 844.205 220.772C845.28 218.727 846.736 217.167 848.573 216.092C850.445 215.017 852.594 214.48 855.021 214.48ZM855.021 216.716C853.045 216.716 851.329 217.167 849.873 218.068C848.417 218.969 847.273 220.269 846.441 221.968C845.644 223.632 845.245 225.643 845.245 228C845.245 230.323 845.644 232.333 846.441 234.032C847.273 235.731 848.417 237.031 849.873 237.932C851.329 238.833 853.045 239.284 855.021 239.284C856.997 239.284 858.713 238.833 860.169 237.932C861.625 237.031 862.752 235.731 863.549 234.032C864.381 232.333 864.797 230.323 864.797 228C864.797 225.643 864.381 223.632 863.549 221.968C862.752 220.269 861.625 218.969 860.169 218.068C858.713 217.167 856.997 216.716 855.021 216.716ZM873.791 251.92V215H876.131L876.339 222.228L875.975 221.812C876.426 220.321 877.119 219.021 878.055 217.912C879.026 216.803 880.204 215.953 881.591 215.364C882.978 214.775 884.486 214.48 886.115 214.48C888.334 214.48 890.327 215.017 892.095 216.092C893.863 217.167 895.267 218.709 896.307 220.72C897.347 222.731 897.867 225.157 897.867 228C897.867 230.808 897.347 233.235 896.307 235.28C895.267 237.291 893.846 238.833 892.043 239.908C890.275 240.983 888.264 241.52 886.011 241.52C883.619 241.52 881.539 240.896 879.771 239.648C878.003 238.365 876.772 236.649 876.079 234.5L876.391 234.032V251.92H873.791ZM885.699 239.232C888.646 239.232 890.968 238.227 892.667 236.216C894.4 234.205 895.267 231.467 895.267 228C895.267 224.533 894.418 221.795 892.719 219.784C891.02 217.773 888.715 216.768 885.803 216.768C883.966 216.768 882.336 217.236 880.915 218.172C879.528 219.073 878.419 220.373 877.587 222.072C876.79 223.736 876.391 225.712 876.391 228C876.391 230.253 876.79 232.229 877.587 233.928C878.384 235.627 879.476 236.944 880.863 237.88C882.284 238.781 883.896 239.232 885.699 239.232ZM906.729 203.04V234.864C906.729 236.459 907.006 237.585 907.561 238.244C908.115 238.903 908.982 239.232 910.161 239.232C910.889 239.232 911.461 239.18 911.877 239.076C912.327 238.972 912.847 238.799 913.437 238.556L913.073 240.844C912.622 241.052 912.102 241.208 911.513 241.312C910.958 241.451 910.334 241.52 909.641 241.52C907.803 241.52 906.417 241 905.481 239.96C904.579 238.885 904.129 237.221 904.129 234.968V203.04H906.729ZM927.971 241.52C925.579 241.52 923.447 240.983 921.575 239.908C919.703 238.833 918.23 237.291 917.155 235.28C916.115 233.235 915.595 230.808 915.595 228C915.595 225.192 916.115 222.783 917.155 220.772C918.23 218.727 919.668 217.167 921.471 216.092C923.274 215.017 925.336 214.48 927.659 214.48C930.016 214.48 932.027 215 933.691 216.04C935.355 217.08 936.638 218.536 937.539 220.408C938.44 222.245 938.891 224.377 938.891 226.804C938.891 227.116 938.874 227.428 938.839 227.74C938.839 228.017 938.822 228.277 938.787 228.52H917.207V226.18H937.643L936.343 226.544C936.308 223.563 935.511 221.188 933.951 219.42C932.426 217.652 930.311 216.768 927.607 216.768C925.735 216.768 924.088 217.219 922.667 218.12C921.246 218.987 920.136 220.269 919.339 221.968C918.542 223.632 918.143 225.643 918.143 228C918.143 230.323 918.542 232.333 919.339 234.032C920.171 235.731 921.315 237.031 922.771 237.932C924.262 238.799 925.978 239.232 927.919 239.232C929.93 239.232 931.646 238.799 933.067 237.932C934.523 237.065 935.65 235.869 936.447 234.344L938.527 235.54C937.903 236.788 937.071 237.863 936.031 238.764C934.991 239.631 933.795 240.307 932.443 240.792C931.091 241.277 929.6 241.52 927.971 241.52ZM505.251 293.52C502.998 293.52 500.97 292.983 499.167 291.908C497.364 290.833 495.943 289.291 494.903 287.28C493.898 285.235 493.395 282.808 493.395 280C493.395 277.123 493.932 274.679 495.007 272.668C496.082 270.657 497.538 269.132 499.375 268.092C501.212 267.017 503.24 266.48 505.459 266.48C507.886 266.48 509.948 267.121 511.647 268.404C513.38 269.687 514.542 271.472 515.131 273.76L514.819 273.968V255.04H517.419V293H515.079L514.923 285.772L515.235 285.668C514.923 287.332 514.282 288.753 513.311 289.932C512.375 291.111 511.196 292.012 509.775 292.636C508.388 293.225 506.88 293.52 505.251 293.52ZM505.563 291.232C507.4 291.232 509.012 290.781 510.399 289.88C511.786 288.944 512.86 287.609 513.623 285.876C514.42 284.143 514.819 282.115 514.819 279.792C514.819 277.504 514.42 275.545 513.623 273.916C512.86 272.252 511.786 270.987 510.399 270.12C509.047 269.219 507.47 268.768 505.667 268.768C502.686 268.768 500.328 269.773 498.595 271.784C496.862 273.795 495.995 276.533 495.995 280C495.995 283.467 496.844 286.205 498.543 288.216C500.276 290.227 502.616 291.232 505.563 291.232ZM536.265 266.48C538.692 266.48 540.824 267.017 542.661 268.092C544.533 269.167 545.989 270.727 547.029 272.772C548.104 274.783 548.641 277.192 548.641 280C548.641 282.808 548.104 285.235 547.029 287.28C545.989 289.291 544.533 290.833 542.661 291.908C540.824 292.983 538.692 293.52 536.265 293.52C533.838 293.52 531.689 292.983 529.817 291.908C527.98 290.833 526.524 289.291 525.449 287.28C524.409 285.235 523.889 282.808 523.889 280C523.889 277.192 524.409 274.783 525.449 272.772C526.524 270.727 527.98 269.167 529.817 268.092C531.689 267.017 533.838 266.48 536.265 266.48ZM536.265 268.716C534.289 268.716 532.573 269.167 531.117 270.068C529.661 270.969 528.517 272.269 527.685 273.968C526.888 275.632 526.489 277.643 526.489 280C526.489 282.323 526.888 284.333 527.685 286.032C528.517 287.731 529.661 289.031 531.117 289.932C532.573 290.833 534.289 291.284 536.265 291.284C538.241 291.284 539.957 290.833 541.413 289.932C542.869 289.031 543.996 287.731 544.793 286.032C545.625 284.333 546.041 282.323 546.041 280C546.041 277.643 545.625 275.632 544.793 273.968C543.996 272.269 542.869 270.969 541.413 270.068C539.957 269.167 538.241 268.716 536.265 268.716ZM556.335 261.956C555.676 261.956 555.139 261.765 554.723 261.384C554.342 260.968 554.151 260.431 554.151 259.772C554.151 259.113 554.342 258.593 554.723 258.212C555.139 257.796 555.676 257.588 556.335 257.588C556.994 257.588 557.514 257.796 557.895 258.212C558.311 258.593 558.519 259.113 558.519 259.772C558.519 260.431 558.311 260.968 557.895 261.384C557.514 261.765 556.994 261.956 556.335 261.956ZM557.635 267V293H555.035V267H557.635ZM565.827 293V267H568.167L568.375 273.5L567.959 273.136C568.444 271.715 569.172 270.519 570.143 269.548C571.114 268.543 572.275 267.78 573.627 267.26C574.979 266.74 576.435 266.48 577.995 266.48C579.936 266.48 581.652 266.844 583.143 267.572C584.634 268.3 585.795 269.375 586.627 270.796C587.494 272.217 587.927 274.003 587.927 276.152V293H585.327V276.984C585.327 274.141 584.616 272.061 583.195 270.744C581.808 269.427 579.988 268.768 577.735 268.768C576.106 268.768 574.58 269.149 573.159 269.912C571.772 270.64 570.628 271.715 569.727 273.136C568.86 274.557 568.427 276.291 568.427 278.336V293H565.827ZM617.393 262.216L618.017 264.504C617.982 264.504 617.948 264.504 617.913 264.504C617.878 264.504 617.826 264.504 617.757 264.504C616.058 264.504 614.741 264.955 613.805 265.856C612.904 266.723 612.453 267.953 612.453 269.548L610.789 268.716C610.789 267.399 611.066 266.255 611.621 265.284C612.176 264.313 612.938 263.568 613.909 263.048C614.88 262.493 615.972 262.216 617.185 262.216C617.254 262.216 617.289 262.216 617.289 262.216C617.324 262.216 617.358 262.216 617.393 262.216ZM609.177 290.348C611.742 290.348 613.753 290.885 615.209 291.96C616.665 293.035 617.393 294.473 617.393 296.276C617.393 297.871 616.856 299.257 615.781 300.436C614.741 301.615 613.302 302.533 611.465 303.192C609.628 303.851 607.53 304.18 605.173 304.18C601.256 304.18 598.257 303.504 596.177 302.152C594.097 300.835 593.057 299.171 593.057 297.16C593.057 295.704 593.577 294.439 594.617 293.364C595.692 292.289 597.252 291.648 599.297 291.44L599.089 291.908C597.98 291.596 596.992 291.076 596.125 290.348C595.293 289.62 594.877 288.58 594.877 287.228C594.877 285.772 595.414 284.593 596.489 283.692C597.598 282.756 599.054 282.219 600.857 282.08L603.613 283.016H602.521C600.926 283.12 599.644 283.519 598.673 284.212C597.737 284.871 597.269 285.737 597.269 286.812C597.269 287.991 597.72 288.875 598.621 289.464C599.557 290.053 600.736 290.348 602.157 290.348H609.177ZM605.173 301.996C607.218 301.996 608.969 301.753 610.425 301.268C611.881 300.783 612.99 300.124 613.753 299.292C614.55 298.495 614.949 297.593 614.949 296.588C614.949 295.375 614.412 294.404 613.337 293.676C612.297 292.948 610.702 292.584 608.553 292.584H601.169C599.54 292.584 598.188 292.965 597.113 293.728C596.038 294.491 595.501 295.513 595.501 296.796C595.501 298.356 596.35 299.604 598.049 300.54C599.782 301.511 602.157 301.996 605.173 301.996ZM604.809 266.48C606.854 266.48 608.657 266.844 610.217 267.572C611.812 268.265 613.042 269.253 613.909 270.536C614.776 271.784 615.209 273.257 615.209 274.956C615.209 276.62 614.776 278.111 613.909 279.428C613.042 280.711 611.812 281.716 610.217 282.444C608.657 283.137 606.854 283.484 604.809 283.484C601.516 283.484 598.933 282.704 597.061 281.144C595.224 279.549 594.305 277.487 594.305 274.956C594.305 273.257 594.738 271.784 595.605 270.536C596.506 269.253 597.737 268.265 599.297 267.572C600.892 266.844 602.729 266.48 604.809 266.48ZM604.809 268.612C602.521 268.612 600.649 269.201 599.193 270.38C597.737 271.524 597.009 273.049 597.009 274.956C597.009 276.863 597.737 278.405 599.193 279.584C600.649 280.763 602.521 281.352 604.809 281.352C607.097 281.352 608.952 280.763 610.373 279.584C611.829 278.405 612.557 276.863 612.557 274.956C612.557 273.049 611.829 271.524 610.373 270.38C608.952 269.201 607.097 268.612 604.809 268.612ZM662.157 293H659.401L655.085 282.236H638.705L634.389 293H631.633L645.361 258.68H648.429L662.157 293ZM639.641 279.844H654.149L646.869 261.228L639.641 279.844ZM669.526 259.772V286.136C669.526 287.765 669.907 289.013 670.67 289.88C671.467 290.712 672.611 291.128 674.102 291.128C675.073 291.128 675.922 290.972 676.65 290.66C677.413 290.313 678.089 289.828 678.678 289.204L679.666 291.336C679.007 291.995 678.175 292.532 677.17 292.948C676.165 293.329 675.038 293.52 673.79 293.52C672.438 293.52 671.242 293.277 670.202 292.792C669.162 292.272 668.347 291.492 667.758 290.452C667.203 289.412 666.926 288.095 666.926 286.5V260.5L669.526 259.772ZM679.25 267V269.236H661.726V267H679.25ZM686.31 259.772V286.136C686.31 287.765 686.691 289.013 687.454 289.88C688.251 290.712 689.395 291.128 690.886 291.128C691.857 291.128 692.706 290.972 693.434 290.66C694.197 290.313 694.873 289.828 695.462 289.204L696.45 291.336C695.791 291.995 694.959 292.532 693.954 292.948C692.949 293.329 691.822 293.52 690.574 293.52C689.222 293.52 688.026 293.277 686.986 292.792C685.946 292.272 685.131 291.492 684.542 290.452C683.987 289.412 683.71 288.095 683.71 286.5V260.5L686.31 259.772ZM696.034 267V269.236H678.51V267H696.034ZM700.556 293V267H702.74L703.052 272.46C703.71 270.623 704.768 269.167 706.224 268.092C707.68 267.017 709.43 266.48 711.476 266.48C712.169 266.48 712.793 266.549 713.348 266.688C713.902 266.827 714.353 267.052 714.7 267.364L714.128 269.652C713.746 269.409 713.33 269.219 712.88 269.08C712.429 268.941 711.753 268.872 710.852 268.872C709.534 268.872 708.286 269.288 707.108 270.12C705.929 270.917 704.976 272.044 704.248 273.5C703.52 274.921 703.156 276.568 703.156 278.44V293H700.556ZM734.42 275.892C734.42 273.639 733.813 271.888 732.6 270.64C731.387 269.392 729.653 268.768 727.4 268.768C725.424 268.768 723.725 269.201 722.304 270.068C720.883 270.9 719.825 272.304 719.132 274.28L717 272.928C717.763 270.883 719.028 269.305 720.796 268.196C722.599 267.052 724.817 266.48 727.452 266.48C729.359 266.48 731.023 266.827 732.444 267.52C733.9 268.179 735.027 269.167 735.824 270.484C736.621 271.801 737.02 273.448 737.02 275.424V288.424C737.02 290.261 737.852 291.18 739.516 291.18C740.244 291.18 740.868 291.059 741.388 290.816L741.232 292.896C740.643 293.208 739.88 293.364 738.944 293.364C738.147 293.364 737.401 293.208 736.708 292.896C736.015 292.584 735.443 292.064 734.992 291.336C734.576 290.608 734.368 289.62 734.368 288.372V286.968L735.096 286.916C734.784 288.407 734.091 289.655 733.016 290.66C731.976 291.631 730.763 292.359 729.376 292.844C727.989 293.295 726.603 293.52 725.216 293.52C723.587 293.52 722.131 293.26 720.848 292.74C719.565 292.22 718.56 291.475 717.832 290.504C717.104 289.499 716.74 288.268 716.74 286.812C716.74 284.871 717.381 283.311 718.664 282.132C719.981 280.919 721.819 280.087 724.176 279.636L734.94 277.504V279.688L725.476 281.56C723.431 281.976 721.905 282.583 720.9 283.38C719.895 284.177 719.392 285.269 719.392 286.656C719.392 288.077 719.929 289.204 721.004 290.036C722.079 290.833 723.604 291.232 725.58 291.232C726.585 291.232 727.608 291.093 728.648 290.816C729.688 290.539 730.641 290.105 731.508 289.516C732.409 288.892 733.12 288.129 733.64 287.228C734.16 286.292 734.42 285.165 734.42 283.848V275.892ZM756.206 266.48C757.974 266.48 759.552 266.757 760.938 267.312C762.325 267.867 763.504 268.664 764.474 269.704C765.445 270.744 766.19 272.009 766.71 273.5L764.266 274.644C763.712 272.772 762.741 271.333 761.354 270.328C760.002 269.288 758.269 268.768 756.154 268.768C754.248 268.768 752.566 269.219 751.11 270.12C749.654 270.987 748.528 272.269 747.73 273.968C746.933 275.632 746.534 277.643 746.534 280C746.534 282.323 746.933 284.333 747.73 286.032C748.528 287.731 749.637 289.031 751.058 289.932C752.48 290.799 754.161 291.232 756.102 291.232C757.558 291.232 758.876 290.989 760.054 290.504C761.268 290.019 762.256 289.308 763.018 288.372C763.816 287.436 764.336 286.327 764.578 285.044L766.97 285.876C766.52 287.471 765.774 288.84 764.734 289.984C763.729 291.128 762.498 292.012 761.042 292.636C759.586 293.225 757.957 293.52 756.154 293.52C753.797 293.52 751.682 292.983 749.81 291.908C747.973 290.833 746.534 289.291 745.494 287.28C744.454 285.235 743.934 282.808 743.934 280C743.934 277.192 744.454 274.783 745.494 272.772C746.569 270.727 748.025 269.167 749.862 268.092C751.734 267.017 753.849 266.48 756.206 266.48ZM777.213 259.772V286.136C777.213 287.765 777.594 289.013 778.357 289.88C779.154 290.712 780.298 291.128 781.789 291.128C782.759 291.128 783.609 290.972 784.337 290.66C785.099 290.313 785.775 289.828 786.365 289.204L787.353 291.336C786.694 291.995 785.862 292.532 784.857 292.948C783.851 293.329 782.725 293.52 781.477 293.52C780.125 293.52 778.929 293.277 777.889 292.792C776.849 292.272 776.034 291.492 775.445 290.452C774.89 289.412 774.613 288.095 774.613 286.5V260.5L777.213 259.772ZM786.937 267V269.236H769.413V267H786.937ZM792.758 261.956C792.1 261.956 791.562 261.765 791.146 261.384C790.765 260.968 790.574 260.431 790.574 259.772C790.574 259.113 790.765 258.593 791.146 258.212C791.562 257.796 792.1 257.588 792.758 257.588C793.417 257.588 793.937 257.796 794.318 258.212C794.734 258.593 794.942 259.113 794.942 259.772C794.942 260.431 794.734 260.968 794.318 261.384C793.937 261.765 793.417 261.956 792.758 261.956ZM794.058 267V293H791.458V267H794.058ZM820.086 267H822.842L811.974 293H809.374L798.506 267H801.418L810.726 290.296L820.086 267ZM837.564 293.52C835.172 293.52 833.04 292.983 831.168 291.908C829.296 290.833 827.823 289.291 826.748 287.28C825.708 285.235 825.188 282.808 825.188 280C825.188 277.192 825.708 274.783 826.748 272.772C827.823 270.727 829.262 269.167 831.064 268.092C832.867 267.017 834.93 266.48 837.252 266.48C839.61 266.48 841.62 267 843.284 268.04C844.948 269.08 846.231 270.536 847.132 272.408C848.034 274.245 848.484 276.377 848.484 278.804C848.484 279.116 848.467 279.428 848.432 279.74C848.432 280.017 848.415 280.277 848.38 280.52H826.8V278.18H847.236L845.936 278.544C845.902 275.563 845.104 273.188 843.544 271.42C842.019 269.652 839.904 268.768 837.2 268.768C835.328 268.768 833.682 269.219 832.26 270.12C830.839 270.987 829.73 272.269 828.932 273.968C828.135 275.632 827.736 277.643 827.736 280C827.736 282.323 828.135 284.333 828.932 286.032C829.764 287.731 830.908 289.031 832.364 289.932C833.855 290.799 835.571 291.232 837.512 291.232C839.523 291.232 841.239 290.799 842.66 289.932C844.116 289.065 845.243 287.869 846.04 286.344L848.12 287.54C847.496 288.788 846.664 289.863 845.624 290.764C844.584 291.631 843.388 292.307 842.036 292.792C840.684 293.277 839.194 293.52 837.564 293.52ZM892.881 258.68V261.072H880.349V293H877.749V261.072H865.217V258.68H892.881ZM896.352 293V255.04H898.952V272.304C899.715 270.467 900.945 269.045 902.644 268.04C904.343 267 906.301 266.48 908.52 266.48C910.461 266.48 912.177 266.844 913.668 267.572C915.159 268.265 916.32 269.34 917.152 270.796C918.019 272.217 918.452 273.985 918.452 276.1V293H915.852V276.932C915.852 274.124 915.141 272.061 913.72 270.744C912.333 269.392 910.513 268.716 908.26 268.716C906.631 268.716 905.105 269.097 903.684 269.86C902.297 270.623 901.153 271.715 900.252 273.136C899.385 274.557 898.952 276.291 898.952 278.336V293H896.352ZM927.69 261.956C927.031 261.956 926.494 261.765 926.078 261.384C925.697 260.968 925.506 260.431 925.506 259.772C925.506 259.113 925.697 258.593 926.078 258.212C926.494 257.796 927.031 257.588 927.69 257.588C928.349 257.588 928.869 257.796 929.25 258.212C929.666 258.593 929.874 259.113 929.874 259.772C929.874 260.431 929.666 260.968 929.25 261.384C928.869 261.765 928.349 261.956 927.69 261.956ZM928.99 267V293H926.39V267H928.99ZM937.182 293V267H939.522L939.73 273.5L939.314 273.136C939.799 271.715 940.527 270.519 941.498 269.548C942.469 268.543 943.63 267.78 944.982 267.26C946.334 266.74 947.79 266.48 949.35 266.48C951.291 266.48 953.007 266.844 954.498 267.572C955.989 268.3 957.15 269.375 957.982 270.796C958.849 272.217 959.282 274.003 959.282 276.152V293H956.682V276.984C956.682 274.141 955.971 272.061 954.55 270.744C953.163 269.427 951.343 268.768 949.09 268.768C947.461 268.768 945.935 269.149 944.514 269.912C943.127 270.64 941.983 271.715 941.082 273.136C940.215 274.557 939.782 276.291 939.782 278.336V293H937.182ZM988.748 262.216L989.372 264.504C989.337 264.504 989.303 264.504 989.268 264.504C989.233 264.504 989.181 264.504 989.112 264.504C987.413 264.504 986.096 264.955 985.16 265.856C984.259 266.723 983.808 267.953 983.808 269.548L982.144 268.716C982.144 267.399 982.421 266.255 982.976 265.284C983.531 264.313 984.293 263.568 985.264 263.048C986.235 262.493 987.327 262.216 988.54 262.216C988.609 262.216 988.644 262.216 988.644 262.216C988.679 262.216 988.713 262.216 988.748 262.216ZM980.532 290.348C983.097 290.348 985.108 290.885 986.564 291.96C988.02 293.035 988.748 294.473 988.748 296.276C988.748 297.871 988.211 299.257 987.136 300.436C986.096 301.615 984.657 302.533 982.82 303.192C980.983 303.851 978.885 304.18 976.528 304.18C972.611 304.18 969.612 303.504 967.532 302.152C965.452 300.835 964.412 299.171 964.412 297.16C964.412 295.704 964.932 294.439 965.972 293.364C967.047 292.289 968.607 291.648 970.652 291.44L970.444 291.908C969.335 291.596 968.347 291.076 967.48 290.348C966.648 289.62 966.232 288.58 966.232 287.228C966.232 285.772 966.769 284.593 967.844 283.692C968.953 282.756 970.409 282.219 972.212 282.08L974.968 283.016H973.876C972.281 283.12 970.999 283.519 970.028 284.212C969.092 284.871 968.624 285.737 968.624 286.812C968.624 287.991 969.075 288.875 969.976 289.464C970.912 290.053 972.091 290.348 973.512 290.348H980.532ZM976.528 301.996C978.573 301.996 980.324 301.753 981.78 301.268C983.236 300.783 984.345 300.124 985.108 299.292C985.905 298.495 986.304 297.593 986.304 296.588C986.304 295.375 985.767 294.404 984.692 293.676C983.652 292.948 982.057 292.584 979.908 292.584H972.524C970.895 292.584 969.543 292.965 968.468 293.728C967.393 294.491 966.856 295.513 966.856 296.796C966.856 298.356 967.705 299.604 969.404 300.54C971.137 301.511 973.512 301.996 976.528 301.996ZM976.164 266.48C978.209 266.48 980.012 266.844 981.572 267.572C983.167 268.265 984.397 269.253 985.264 270.536C986.131 271.784 986.564 273.257 986.564 274.956C986.564 276.62 986.131 278.111 985.264 279.428C984.397 280.711 983.167 281.716 981.572 282.444C980.012 283.137 978.209 283.484 976.164 283.484C972.871 283.484 970.288 282.704 968.416 281.144C966.579 279.549 965.66 277.487 965.66 274.956C965.66 273.257 966.093 271.784 966.96 270.536C967.861 269.253 969.092 268.265 970.652 267.572C972.247 266.844 974.084 266.48 976.164 266.48ZM976.164 268.612C973.876 268.612 972.004 269.201 970.548 270.38C969.092 271.524 968.364 273.049 968.364 274.956C968.364 276.863 969.092 278.405 970.548 279.584C972.004 280.763 973.876 281.352 976.164 281.352C978.452 281.352 980.307 280.763 981.728 279.584C983.184 278.405 983.912 276.863 983.912 274.956C983.912 273.049 983.184 271.524 981.728 270.38C980.307 269.201 978.452 268.612 976.164 268.612ZM1001.73 293.52C999.095 293.52 996.755 292.983 994.71 291.908C992.699 290.833 991.278 289.291 990.446 287.28L992.682 285.772C993.306 287.505 994.415 288.857 996.01 289.828C997.639 290.764 999.615 291.232 1001.94 291.232C1004.23 291.232 1006.01 290.781 1007.29 289.88C1008.61 288.979 1009.27 287.783 1009.27 286.292C1009.27 285.287 1008.94 284.42 1008.28 283.692C1007.66 282.929 1006.46 282.357 1004.69 281.976L998.61 280.676C996.114 280.156 994.329 279.324 993.254 278.18C992.214 277.001 991.694 275.58 991.694 273.916C991.694 272.529 992.11 271.281 992.942 270.172C993.774 269.063 994.918 268.179 996.374 267.52C997.865 266.827 999.598 266.48 1001.57 266.48C1004.17 266.48 1006.32 267 1008.02 268.04C1009.72 269.045 1010.92 270.571 1011.61 272.616L1009.43 274.02C1008.91 272.183 1007.94 270.848 1006.51 270.016C1005.13 269.184 1003.48 268.768 1001.57 268.768C1000.12 268.768 998.835 268.993 997.726 269.444C996.651 269.86 995.802 270.449 995.178 271.212C994.589 271.94 994.294 272.789 994.294 273.76C994.294 274.765 994.641 275.684 995.334 276.516C996.027 277.313 997.258 277.903 999.026 278.284L1005.27 279.636C1007.73 280.156 1009.44 280.953 1010.41 282.028C1011.38 283.068 1011.87 284.368 1011.87 285.928C1011.87 287.488 1011.45 288.84 1010.62 289.984C1009.79 291.128 1008.61 292.012 1007.09 292.636C1005.56 293.225 1003.78 293.52 1001.73 293.52Z" fill="white"/>
</svg>
