<svg width="93" height="12" viewBox="0 0 93 12" fill="none" xmlns="http://www.w3.org/2000/svg">
<path d="M0.326055 11V1.1H3.85106C5.02105 1.1 5.87605 1.345 6.41605 1.835C6.95605 2.325 7.22605 2.99 7.22605 3.83C7.22605 4.33 7.08106 4.785 6.79106 5.195C6.50106 5.595 6.09106 5.85 5.56105 5.96V5.975C6.15106 6.085 6.61606 6.355 6.95605 6.785C7.30606 7.205 7.48106 7.685 7.48106 8.225C7.48106 9.065 7.16606 9.74 6.53605 10.25C5.90605 10.75 5.00605 11 3.83605 11H0.326055ZM1.52605 9.875H4.12106C4.83105 9.875 5.35605 9.73 5.69605 9.44C6.04606 9.15 6.22106 8.745 6.22106 8.225C6.22106 7.695 6.04606 7.29 5.69605 7.01C5.35605 6.72 4.83105 6.575 4.12106 6.575H1.52605V9.875ZM1.52605 5.45H3.86605C5.26606 5.45 5.96606 4.91 5.96606 3.83C5.96606 2.76 5.26606 2.225 3.86605 2.225H1.52605V5.45ZM17.5694 11H16.2944L15.2444 8.255H10.7594L9.70938 11H8.44938L12.3044 1.1H13.7294L17.5694 11ZM11.1944 7.13H14.8094L12.9944 2.255L11.1944 7.13ZM26.9248 8.465C26.7148 9.025 26.4148 9.51 26.0248 9.92C25.6348 10.32 25.1748 10.625 24.6448 10.835C24.1248 11.045 23.5548 11.15 22.9348 11.15C21.9948 11.15 21.1798 10.945 20.4898 10.535C19.8098 10.115 19.2798 9.525 18.8998 8.765C18.5298 8.005 18.3448 7.1 18.3448 6.05C18.3448 5 18.5298 4.095 18.8998 3.335C19.2798 2.575 19.8098 1.99 20.4898 1.58C21.1798 1.16 21.9848 0.95 22.9048 0.95C23.5448 0.95 24.1148 1.04 24.6148 1.22C25.1148 1.39 25.5398 1.65 25.8898 2C26.2498 2.34 26.5348 2.76 26.7448 3.26L25.5598 3.815C25.3398 3.245 25.0198 2.815 24.5998 2.525C24.1898 2.225 23.6548 2.075 22.9948 2.075C22.3248 2.075 21.7348 2.235 21.2248 2.555C20.7148 2.865 20.3148 3.315 20.0248 3.905C19.7448 4.495 19.6048 5.21 19.6048 6.05C19.6048 6.88 19.7398 7.595 20.0098 8.195C20.2798 8.785 20.6648 9.24 21.1648 9.56C21.6648 9.87 22.2548 10.025 22.9348 10.025C23.5948 10.025 24.1698 9.86 24.6598 9.53C25.1498 9.19 25.5048 8.685 25.7248 8.015L26.9248 8.465ZM36.683 1.1L32.363 5.525L32.183 5.72L29.528 8.435V6.815L35.108 1.1H36.683ZM30.128 1.1V11H28.928V1.1H30.128ZM32.483 4.76L36.728 11H35.288L31.493 5.435L32.483 4.76ZM49.6435 1.1V2.225H46.1935V11H44.9935V2.225H41.5435V1.1H49.6435ZM55.0893 0.95C56.0293 0.95 56.8393 1.16 57.5193 1.58C58.2093 1.99 58.7393 2.575 59.1093 3.335C59.4893 4.095 59.6793 5 59.6793 6.05C59.6793 7.1 59.4893 8.005 59.1093 8.765C58.7393 9.525 58.2093 10.115 57.5193 10.535C56.8393 10.945 56.0293 11.15 55.0893 11.15C54.1493 11.15 53.3343 10.945 52.6443 10.535C51.9643 10.115 51.4343 9.525 51.0543 8.765C50.6843 8.005 50.4993 7.1 50.4993 6.05C50.4993 5 50.6843 4.095 51.0543 3.335C51.4343 2.575 51.9643 1.99 52.6443 1.58C53.3343 1.16 54.1493 0.95 55.0893 0.95ZM55.0893 2.075C54.4093 2.075 53.8193 2.235 53.3193 2.555C52.8193 2.865 52.4343 3.32 52.1643 3.92C51.8943 4.51 51.7593 5.22 51.7593 6.05C51.7593 6.88 51.8943 7.595 52.1643 8.195C52.4343 8.785 52.8193 9.24 53.3193 9.56C53.8193 9.87 54.4093 10.025 55.0893 10.025C55.7793 10.025 56.3693 9.87 56.8593 9.56C57.3593 9.24 57.7443 8.785 58.0143 8.195C58.2843 7.595 58.4193 6.88 58.4193 6.05C58.4193 5.22 58.2843 4.51 58.0143 3.92C57.7443 3.32 57.3593 2.865 56.8593 2.555C56.3693 2.235 55.7793 2.075 55.0893 2.075ZM73.3821 1.1V2.225H69.9321V11H68.7321V2.225H65.2821V1.1H73.3821ZM78.828 0.95C79.768 0.95 80.578 1.16 81.258 1.58C81.948 1.99 82.478 2.575 82.848 3.335C83.228 4.095 83.418 5 83.418 6.05C83.418 7.1 83.228 8.005 82.848 8.765C82.478 9.525 81.948 10.115 81.258 10.535C80.578 10.945 79.768 11.15 78.828 11.15C77.888 11.15 77.073 10.945 76.383 10.535C75.703 10.115 75.173 9.525 74.793 8.765C74.423 8.005 74.238 7.1 74.238 6.05C74.238 5 74.423 4.095 74.793 3.335C75.173 2.575 75.703 1.99 76.383 1.58C77.073 1.16 77.888 0.95 78.828 0.95ZM78.828 2.075C78.148 2.075 77.558 2.235 77.058 2.555C76.558 2.865 76.173 3.32 75.903 3.92C75.633 4.51 75.498 5.22 75.498 6.05C75.498 6.88 75.633 7.595 75.903 8.195C76.173 8.785 76.558 9.24 77.058 9.56C77.558 9.87 78.148 10.025 78.828 10.025C79.518 10.025 80.108 9.87 80.598 9.56C81.098 9.24 81.483 8.785 81.753 8.195C82.023 7.595 82.158 6.88 82.158 6.05C82.158 5.22 82.023 4.51 81.753 3.92C81.483 3.32 81.098 2.865 80.598 2.555C80.108 2.235 79.518 2.075 78.828 2.075ZM89.2537 1.1C89.9237 1.1 90.5037 1.225 90.9937 1.475C91.4937 1.715 91.8837 2.06 92.1637 2.51C92.4437 2.96 92.5837 3.495 92.5837 4.115C92.5837 4.735 92.4437 5.27 92.1637 5.72C91.8837 6.17 91.4937 6.52 90.9937 6.77C90.5037 7.01 89.9237 7.13 89.2537 7.13H86.9587V11H85.7587V1.1H89.2537ZM89.0737 6.005C89.8537 6.005 90.4237 5.845 90.7837 5.525C91.1437 5.195 91.3237 4.725 91.3237 4.115C91.3237 3.495 91.1437 3.025 90.7837 2.705C90.4237 2.385 89.8537 2.225 89.0737 2.225H86.9587V6.005H89.0737Z" fill="white"/>
</svg>
