<svg width="146" height="11" viewBox="0 0 146 11" fill="none" xmlns="http://www.w3.org/2000/svg">
<path d="M3.72813 8.1C3.04813 8.1 2.45146 7.95 1.93813 7.65C1.42479 7.35 1.02479 6.94333 0.738128 6.43C0.451461 5.91667 0.308128 5.34 0.308128 4.7C0.308128 4.05333 0.451461 3.47667 0.738128 2.97C1.02479 2.45667 1.42479 2.05 1.93813 1.75C2.45146 1.45 3.04813 1.3 3.72813 1.3C4.40813 1.3 5.0048 1.45 5.51813 1.75C6.03146 2.05 6.43146 2.45667 6.71813 2.97C7.0048 3.47667 7.14813 4.05333 7.14813 4.7C7.14813 5.34 7.0048 5.91667 6.71813 6.43C6.43146 6.94333 6.03146 7.35 5.51813 7.65C5.0048 7.95 4.40813 8.1 3.72813 8.1ZM3.72813 7.45C4.26813 7.45 4.74146 7.33 5.14813 7.09C5.5548 6.84333 5.87146 6.51333 6.09813 6.1C6.3248 5.68 6.43813 5.21333 6.43813 4.7C6.43813 4.18667 6.3248 3.72333 6.09813 3.31C5.87146 2.89 5.5548 2.56 5.14813 2.32C4.74146 2.07333 4.26813 1.95 3.72813 1.95C3.19479 1.95 2.72146 2.07333 2.30813 2.32C1.90146 2.56 1.58479 2.89 1.35813 3.31C1.13146 3.72333 1.01813 4.18667 1.01813 4.7C1.01813 5.21333 1.13146 5.68 1.35813 6.1C1.58479 6.51333 1.90146 6.84333 2.30813 7.09C2.72146 7.33 3.19479 7.45 3.72813 7.45ZM3.79813 6.57C3.23146 6.57 2.78479 6.40667 2.45813 6.08C2.13813 5.74667 1.97813 5.29333 1.97813 4.72C1.97813 4.14667 2.13813 3.69667 2.45813 3.37C2.78479 3.03667 3.23146 2.87 3.79813 2.87C4.19146 2.87 4.51813 2.95667 4.77813 3.13C5.03813 3.29667 5.23146 3.52667 5.35813 3.82L4.77813 4.11C4.69146 3.89667 4.56813 3.73667 4.40813 3.63C4.24813 3.52333 4.04146 3.47 3.78813 3.47C3.43479 3.47 3.15479 3.58 2.94813 3.8C2.74813 4.02 2.64813 4.32667 2.64813 4.72C2.64813 5.11333 2.74813 5.42 2.94813 5.64C3.15479 5.86 3.43479 5.97 3.78813 5.97C4.05479 5.97 4.27479 5.91667 4.44813 5.81C4.62813 5.69667 4.76146 5.52667 4.84813 5.3L5.39813 5.52C5.27146 5.84667 5.07479 6.10333 4.80813 6.29C4.54146 6.47667 4.20479 6.57 3.79813 6.57ZM17.2395 6.31C17.0995 6.68333 16.8995 7.00667 16.6395 7.28C16.3795 7.54667 16.0728 7.75 15.7195 7.89C15.3728 8.03 14.9928 8.1 14.5795 8.1C13.9528 8.1 13.4095 7.96333 12.9495 7.69C12.4961 7.41 12.1428 7.01667 11.8895 6.51C11.6428 6.00333 11.5195 5.4 11.5195 4.7C11.5195 4 11.6428 3.39667 11.8895 2.89C12.1428 2.38333 12.4961 1.99333 12.9495 1.72C13.4095 1.44 13.9461 1.3 14.5595 1.3C14.9861 1.3 15.3661 1.36 15.6995 1.48C16.0328 1.59333 16.3161 1.76667 16.5495 2C16.7895 2.22667 16.9795 2.50667 17.1195 2.84L16.3295 3.21C16.1828 2.83 15.9695 2.54333 15.6895 2.35C15.4161 2.15 15.0595 2.05 14.6195 2.05C14.1728 2.05 13.7795 2.15667 13.4395 2.37C13.0995 2.57667 12.8328 2.87667 12.6395 3.27C12.4528 3.66333 12.3595 4.14 12.3595 4.7C12.3595 5.25333 12.4495 5.73 12.6295 6.13C12.8095 6.52333 13.0661 6.82667 13.3995 7.04C13.7328 7.24667 14.1261 7.35 14.5795 7.35C15.0195 7.35 15.4028 7.24 15.7295 7.02C16.0561 6.79333 16.2928 6.45667 16.4395 6.01L17.2395 6.31ZM20.4949 2.9C20.9683 2.9 21.3849 3.00333 21.7449 3.21C22.1116 3.41667 22.3983 3.71667 22.6049 4.11C22.8116 4.49667 22.9149 4.96 22.9149 5.5C22.9149 6.04 22.8116 6.50667 22.6049 6.9C22.3983 7.28667 22.1116 7.58333 21.7449 7.79C21.3849 7.99667 20.9683 8.1 20.4949 8.1C20.0283 8.1 19.6116 7.99667 19.2449 7.79C18.8783 7.58333 18.5916 7.28667 18.3849 6.9C18.1783 6.50667 18.0749 6.04 18.0749 5.5C18.0749 4.96 18.1783 4.49667 18.3849 4.11C18.5916 3.71667 18.8783 3.41667 19.2449 3.21C19.6116 3.00333 20.0283 2.9 20.4949 2.9ZM20.4949 3.59C20.1549 3.59 19.8649 3.66667 19.6249 3.82C19.3849 3.97333 19.1983 4.19333 19.0649 4.48C18.9383 4.76 18.8749 5.1 18.8749 5.5C18.8749 5.89333 18.9383 6.23333 19.0649 6.52C19.1983 6.80667 19.3849 7.02667 19.6249 7.18C19.8649 7.33333 20.1549 7.41 20.4949 7.41C20.8349 7.41 21.1249 7.33333 21.3649 7.18C21.6049 7.02667 21.7883 6.80667 21.9149 6.52C22.0483 6.23333 22.1149 5.89333 22.1149 5.5C22.1149 5.1 22.0483 4.76 21.9149 4.48C21.7883 4.19333 21.6049 3.97333 21.3649 3.82C21.1249 3.66667 20.8349 3.59 20.4949 3.59ZM24.221 10.1V3H24.921L24.991 4.22L24.881 4.08C24.9677 3.84667 25.0977 3.64333 25.271 3.47C25.4443 3.29 25.6543 3.15 25.901 3.05C26.1477 2.95 26.4143 2.9 26.701 2.9C27.1077 2.9 27.481 3.00333 27.821 3.21C28.1677 3.41667 28.4443 3.71333 28.651 4.1C28.8577 4.48667 28.961 4.95333 28.961 5.5C28.961 6.04 28.8543 6.50667 28.641 6.9C28.4343 7.28667 28.1577 7.58333 27.811 7.79C27.4643 7.99667 27.0843 8.1 26.671 8.1C26.2577 8.1 25.8943 8 25.581 7.8C25.2743 7.59333 25.0543 7.33333 24.921 7.02L25.021 6.87V10.1H24.221ZM26.591 7.4C27.0843 7.4 27.4677 7.22667 27.741 6.88C28.021 6.53333 28.161 6.07333 28.161 5.5C28.161 4.92667 28.0243 4.46667 27.751 4.12C27.4843 3.77333 27.1077 3.6 26.621 3.6C26.301 3.6 26.021 3.68 25.781 3.84C25.541 3.99333 25.3543 4.21333 25.221 4.5C25.0877 4.78 25.021 5.11333 25.021 5.5C25.021 5.88 25.0843 6.21333 25.211 6.5C25.3443 6.78667 25.5277 7.01 25.761 7.17C26.001 7.32333 26.2777 7.4 26.591 7.4ZM34.2541 3L31.9041 8.84C31.7774 9.16667 31.6374 9.42333 31.4841 9.61C31.3374 9.80333 31.1707 9.94 30.9841 10.02C30.8041 10.1067 30.5941 10.15 30.3541 10.15C30.1274 10.15 29.9174 10.1167 29.7241 10.05C29.5374 9.99 29.3707 9.90667 29.2241 9.8L29.4441 9.1C29.5774 9.22 29.7174 9.30667 29.8641 9.36C30.0174 9.42 30.1674 9.45 30.3141 9.45C30.4874 9.45 30.6507 9.39667 30.8041 9.29C30.9574 9.18333 31.0974 8.96667 31.2241 8.64L31.4841 7.99L30.9841 6.8L29.3941 3H30.3041L31.5541 6.26L31.8641 7.15L32.2241 6.16L33.3941 3H34.2541ZM35.1003 8V3H35.7503L35.8603 3.82C36.0003 3.51333 36.2037 3.28333 36.4703 3.13C36.7437 2.97667 37.0737 2.9 37.4603 2.9C37.547 2.9 37.6403 2.90667 37.7403 2.92C37.847 2.93333 37.937 2.96 38.0103 3L37.8703 3.73C37.797 3.70333 37.717 3.68333 37.6303 3.67C37.5437 3.65667 37.4203 3.65 37.2603 3.65C37.0537 3.65 36.8437 3.71 36.6303 3.83C36.4237 3.95 36.2503 4.13333 36.1103 4.38C35.9703 4.62 35.9003 4.92667 35.9003 5.3V8H35.1003ZM39.3823 2.04C39.2023 2.04 39.0557 1.98667 38.9423 1.88C38.8357 1.76667 38.7823 1.62 38.7823 1.44C38.7823 1.26 38.8357 1.11667 38.9423 1.01C39.0557 0.896666 39.2023 0.84 39.3823 0.84C39.5623 0.84 39.7057 0.896666 39.8123 1.01C39.9257 1.11667 39.9823 1.26 39.9823 1.44C39.9823 1.62 39.9257 1.76667 39.8123 1.88C39.7057 1.98667 39.5623 2.04 39.3823 2.04ZM39.7823 3V8H38.9823V3H39.7823ZM45.6486 2.08L45.8286 2.79C45.8219 2.79 45.8119 2.79 45.7986 2.79C45.7853 2.79 45.7719 2.79 45.7586 2.79C45.4319 2.79 45.1786 2.85667 44.9986 2.99C44.8253 3.11667 44.7386 3.32333 44.7386 3.61L44.2486 3.36C44.2486 3.1 44.3086 2.87333 44.4286 2.68C44.5486 2.48667 44.7119 2.34 44.9186 2.24C45.1253 2.13333 45.3519 2.08 45.5986 2.08C45.6053 2.08 45.6119 2.08 45.6186 2.08C45.6319 2.08 45.6419 2.08 45.6486 2.08ZM44.1286 7.36C44.6019 7.36 44.9719 7.47 45.2386 7.69C45.5053 7.90333 45.6386 8.19 45.6386 8.55C45.6386 8.87667 45.5286 9.16 45.3086 9.4C45.0953 9.64 44.8053 9.82333 44.4386 9.95C44.0786 10.0833 43.6719 10.15 43.2186 10.15C42.4319 10.15 41.8419 10.0167 41.4486 9.75C41.0619 9.48333 40.8686 9.16333 40.8686 8.79C40.8686 8.52333 40.9553 8.28333 41.1286 8.07C41.3086 7.86333 41.6086 7.74667 42.0286 7.72L41.9586 7.87C41.7319 7.81 41.5386 7.71 41.3786 7.57C41.2253 7.42333 41.1486 7.21333 41.1486 6.94C41.1486 6.66667 41.2486 6.43333 41.4486 6.24C41.6553 6.04 41.9586 5.91667 42.3586 5.87L42.8886 6.14H42.7886C42.4619 6.17333 42.2286 6.25667 42.0886 6.39C41.9553 6.51667 41.8886 6.65667 41.8886 6.81C41.8886 6.99667 41.9553 7.13667 42.0886 7.23C42.2286 7.31667 42.4219 7.36 42.6686 7.36H44.1286ZM43.2086 9.48C43.5953 9.48 43.9119 9.44 44.1586 9.36C44.4119 9.28 44.5986 9.17667 44.7186 9.05C44.8386 8.92333 44.8986 8.78667 44.8986 8.64C44.8986 8.46 44.8253 8.31667 44.6786 8.21C44.5386 8.10333 44.2819 8.05 43.9086 8.05H42.3686C42.1553 8.05 41.9753 8.10333 41.8286 8.21C41.6819 8.32333 41.6086 8.47667 41.6086 8.67C41.6086 8.91667 41.7486 9.11333 42.0286 9.26C42.3153 9.40667 42.7086 9.48 43.2086 9.48ZM43.1386 2.9C43.5386 2.9 43.8919 2.97333 44.1986 3.12C44.5119 3.26 44.7553 3.45667 44.9286 3.71C45.1019 3.96333 45.1886 4.25667 45.1886 4.59C45.1886 4.91667 45.1019 5.21 44.9286 5.47C44.7553 5.72333 44.5119 5.92333 44.1986 6.07C43.8919 6.21 43.5386 6.28 43.1386 6.28C42.4786 6.28 41.9719 6.12333 41.6186 5.81C41.2653 5.49 41.0886 5.08333 41.0886 4.59C41.0886 4.25667 41.1753 3.96333 41.3486 3.71C41.5286 3.45667 41.7719 3.26 42.0786 3.12C42.3853 2.97333 42.7386 2.9 43.1386 2.9ZM43.1386 3.55C42.7919 3.55 42.5019 3.64667 42.2686 3.84C42.0353 4.02667 41.9186 4.27667 41.9186 4.59C41.9186 4.89667 42.0353 5.14667 42.2686 5.34C42.5019 5.53333 42.7919 5.63 43.1386 5.63C43.4853 5.63 43.7753 5.53333 44.0086 5.34C44.2419 5.14667 44.3586 4.89667 44.3586 4.59C44.3586 4.27667 44.2419 4.02667 44.0086 3.84C43.7753 3.64667 43.4853 3.55 43.1386 3.55ZM46.5609 8V0.7H47.3609V3.75C47.5342 3.45 47.7642 3.23333 48.0509 3.1C48.3375 2.96667 48.6509 2.9 48.9909 2.9C49.3509 2.9 49.6775 2.97 49.9709 3.11C50.2642 3.24333 50.4975 3.45 50.6709 3.73C50.8509 4.01 50.9409 4.36667 50.9409 4.8V8H50.1409V5.08C50.1409 4.52667 50.0209 4.14333 49.7809 3.93C49.5475 3.71 49.2575 3.6 48.9109 3.6C48.6709 3.6 48.4309 3.65667 48.1909 3.77C47.9509 3.88333 47.7509 4.07 47.5909 4.33C47.4375 4.58333 47.3609 4.92333 47.3609 5.35V8H46.5609ZM53.6639 1.58V6.62C53.6639 6.86667 53.7339 7.05 53.8739 7.17C54.0139 7.29 54.1939 7.35 54.4139 7.35C54.6072 7.35 54.7739 7.31667 54.9139 7.25C55.0539 7.18333 55.1806 7.09333 55.2939 6.98L55.5739 7.65C55.4206 7.79 55.2372 7.9 55.0239 7.98C54.8172 8.06 54.5772 8.1 54.3039 8.1C54.0506 8.1 53.8139 8.05667 53.5939 7.97C53.3739 7.87667 53.1972 7.73333 53.0639 7.54C52.9372 7.34 52.8706 7.08 52.8639 6.76V1.8L53.6639 1.58ZM55.4839 3V3.69H51.8639V3H55.4839ZM62.9516 4.97V5.8H59.6516V4.97H62.9516ZM70.5974 1.3C71.2241 1.3 71.7641 1.44 72.2174 1.72C72.6774 1.99333 73.0308 2.38333 73.2774 2.89C73.5308 3.39667 73.6574 4 73.6574 4.7C73.6574 5.4 73.5308 6.00333 73.2774 6.51C73.0308 7.01667 72.6774 7.41 72.2174 7.69C71.7641 7.96333 71.2241 8.1 70.5974 8.1C69.9708 8.1 69.4274 7.96333 68.9674 7.69C68.5141 7.41 68.1608 7.01667 67.9074 6.51C67.6608 6.00333 67.5374 5.4 67.5374 4.7C67.5374 4 67.6608 3.39667 67.9074 2.89C68.1608 2.38333 68.5141 1.99333 68.9674 1.72C69.4274 1.44 69.9708 1.3 70.5974 1.3ZM70.5974 2.05C70.1441 2.05 69.7508 2.15667 69.4174 2.37C69.0841 2.57667 68.8274 2.88 68.6474 3.28C68.4674 3.67333 68.3774 4.14667 68.3774 4.7C68.3774 5.25333 68.4674 5.73 68.6474 6.13C68.8274 6.52333 69.0841 6.82667 69.4174 7.04C69.7508 7.24667 70.1441 7.35 70.5974 7.35C71.0574 7.35 71.4508 7.24667 71.7774 7.04C72.1108 6.82667 72.3674 6.52333 72.5474 6.13C72.7274 5.73 72.8174 5.25333 72.8174 4.7C72.8174 4.14667 72.7274 3.67333 72.5474 3.28C72.3674 2.88 72.1108 2.57667 71.7774 2.37C71.4508 2.15667 71.0574 2.05 70.5974 2.05ZM75.0191 8V3H75.7191L75.7891 4.12L75.6591 4.01C75.7657 3.74333 75.9091 3.53 76.0891 3.37C76.2691 3.20333 76.4757 3.08333 76.7091 3.01C76.9491 2.93667 77.1957 2.9 77.4491 2.9C77.8091 2.9 78.1357 2.97 78.4291 3.11C78.7224 3.24333 78.9557 3.45 79.1291 3.73C79.3091 4.01 79.3991 4.36667 79.3991 4.8V8H78.5991V5.08C78.5991 4.52667 78.4791 4.14333 78.2391 3.93C78.0057 3.71 77.7157 3.6 77.3691 3.6C77.1291 3.6 76.8891 3.65667 76.6491 3.77C76.4091 3.88333 76.2091 4.06667 76.0491 4.32C75.8957 4.57333 75.8191 4.91333 75.8191 5.34V8H75.0191ZM83.1005 8.1C82.6271 8.1 82.2038 7.99667 81.8305 7.79C81.4638 7.58333 81.1771 7.28667 80.9705 6.9C80.7638 6.50667 80.6605 6.04 80.6605 5.5C80.6605 4.96 80.7638 4.49667 80.9705 4.11C81.1771 3.71667 81.4605 3.41667 81.8205 3.21C82.1805 3.00333 82.5905 2.9 83.0505 2.9C83.5171 2.9 83.9138 3 84.2405 3.2C84.5738 3.4 84.8271 3.67333 85.0005 4.02C85.1738 4.36 85.2605 4.74333 85.2605 5.17C85.2605 5.28333 85.2571 5.38667 85.2505 5.48C85.2438 5.57333 85.2338 5.65667 85.2205 5.73H81.1805V5.02H84.8705L84.4605 5.1C84.4605 4.62 84.3271 4.25 84.0605 3.99C83.8005 3.73 83.4571 3.6 83.0305 3.6C82.7038 3.6 82.4205 3.67667 82.1805 3.83C81.9471 3.97667 81.7638 4.19333 81.6305 4.48C81.5038 4.76 81.4405 5.1 81.4405 5.5C81.4405 5.89333 81.5071 6.23333 81.6405 6.52C81.7738 6.80667 81.9605 7.02667 82.2005 7.18C82.4471 7.32667 82.7405 7.4 83.0805 7.4C83.4471 7.4 83.7438 7.33 83.9705 7.19C84.2038 7.05 84.3905 6.86 84.5305 6.62L85.1605 6.99C85.0338 7.21667 84.8705 7.41333 84.6705 7.58C84.4771 7.74667 84.2471 7.87667 83.9805 7.97C83.7205 8.05667 83.4271 8.1 83.1005 8.1ZM94.7998 8H93.9498L93.2498 6.17H90.2598L89.5598 8H88.7198L91.2898 1.4H92.2398L94.7998 8ZM90.5498 5.42H92.9598L91.7498 2.17L90.5498 5.42ZM99.5491 7.25H103.329V8H98.7491V1.4H99.5491V7.25ZM107.296 4.77C107.296 4.39667 107.196 4.11 106.996 3.91C106.796 3.70333 106.512 3.6 106.146 3.6C105.799 3.6 105.506 3.67667 105.266 3.83C105.026 3.97667 104.849 4.21667 104.736 4.55L104.086 4.15C104.219 3.77667 104.466 3.47667 104.826 3.25C105.186 3.01667 105.632 2.9 106.166 2.9C106.526 2.9 106.852 2.96333 107.146 3.09C107.439 3.21 107.669 3.39667 107.836 3.65C108.009 3.89667 108.096 4.21667 108.096 4.61V7.03C108.096 7.27 108.222 7.39 108.476 7.39C108.602 7.39 108.726 7.37333 108.846 7.34L108.806 7.97C108.672 8.03667 108.499 8.07 108.286 8.07C108.092 8.07 107.919 8.03333 107.766 7.96C107.612 7.88667 107.492 7.77667 107.406 7.63C107.319 7.47667 107.276 7.28667 107.276 7.06V6.96L107.476 6.99C107.396 7.25 107.259 7.46333 107.066 7.63C106.872 7.79 106.656 7.91 106.416 7.99C106.176 8.06333 105.939 8.1 105.706 8.1C105.412 8.1 105.139 8.05 104.886 7.95C104.632 7.85 104.429 7.7 104.276 7.5C104.129 7.29333 104.056 7.04 104.056 6.74C104.056 6.36667 104.179 6.06 104.426 5.82C104.679 5.57333 105.029 5.40667 105.476 5.32L107.456 4.93V5.59L105.846 5.92C105.519 5.98667 105.276 6.08 105.116 6.2C104.956 6.32 104.876 6.48667 104.876 6.7C104.876 6.90667 104.956 7.07667 105.116 7.21C105.282 7.33667 105.516 7.4 105.816 7.4C106.009 7.4 106.192 7.37667 106.366 7.33C106.546 7.27667 106.706 7.2 106.846 7.1C106.986 6.99333 107.096 6.86333 107.176 6.71C107.256 6.55 107.296 6.36333 107.296 6.15V4.77ZM112.29 8.1C112.01 8.1 111.75 8.05 111.51 7.95C111.27 7.85 111.063 7.71 110.89 7.53C110.716 7.35 110.586 7.14667 110.5 6.92L110.61 6.78L110.54 8H109.84V0.7H110.64V4.13L110.54 3.98C110.673 3.66667 110.896 3.41 111.21 3.21C111.53 3.00333 111.893 2.9 112.3 2.9C112.713 2.9 113.093 3.00333 113.44 3.21C113.786 3.41667 114.063 3.71333 114.27 4.1C114.476 4.48667 114.58 4.95333 114.58 5.5C114.58 6.04 114.473 6.50667 114.26 6.9C114.053 7.28667 113.776 7.58333 113.43 7.79C113.083 7.99667 112.703 8.1 112.29 8.1ZM112.21 7.4C112.703 7.4 113.086 7.22667 113.36 6.88C113.64 6.53333 113.78 6.07333 113.78 5.5C113.78 4.92667 113.643 4.46667 113.37 4.12C113.096 3.77333 112.713 3.6 112.22 3.6C111.906 3.6 111.63 3.68 111.39 3.84C111.156 4 110.973 4.22333 110.84 4.51C110.706 4.79667 110.64 5.13333 110.64 5.52C110.64 5.9 110.703 6.23333 110.83 6.52C110.963 6.8 111.146 7.01667 111.38 7.17C111.62 7.32333 111.896 7.4 112.21 7.4ZM117.709 8.1C117.223 8.1 116.773 7.99667 116.359 7.79C115.953 7.58333 115.639 7.29 115.419 6.91L116.099 6.42C116.246 6.72667 116.459 6.96667 116.739 7.14C117.026 7.31333 117.369 7.4 117.769 7.4C118.123 7.4 118.399 7.33333 118.599 7.2C118.799 7.06 118.899 6.88 118.899 6.66C118.899 6.52 118.853 6.39333 118.759 6.28C118.673 6.16 118.503 6.07333 118.249 6.02L117.049 5.77C116.563 5.67 116.213 5.50333 115.999 5.27C115.793 5.03667 115.689 4.74667 115.689 4.4C115.689 4.12667 115.766 3.87667 115.919 3.65C116.079 3.42333 116.303 3.24333 116.589 3.11C116.883 2.97 117.226 2.9 117.619 2.9C118.113 2.9 118.529 2.99667 118.869 3.19C119.209 3.38333 119.463 3.65667 119.629 4.01L118.959 4.45C118.846 4.15667 118.663 3.94333 118.409 3.81C118.156 3.67 117.893 3.6 117.619 3.6C117.379 3.6 117.173 3.63333 116.999 3.7C116.833 3.76667 116.703 3.86 116.609 3.98C116.523 4.09333 116.479 4.22333 116.479 4.37C116.479 4.51667 116.529 4.65333 116.629 4.78C116.729 4.9 116.916 4.98667 117.189 5.04L118.439 5.3C118.906 5.39333 119.233 5.54667 119.419 5.76C119.606 5.97333 119.699 6.23333 119.699 6.54C119.699 6.85333 119.616 7.13 119.449 7.37C119.283 7.60333 119.049 7.78333 118.749 7.91C118.449 8.03667 118.103 8.1 117.709 8.1ZM124.001 8V7.35C124.661 6.86333 125.211 6.43667 125.651 6.07C126.098 5.70333 126.454 5.37 126.721 5.07C126.988 4.77 127.178 4.48667 127.291 4.22C127.404 3.94667 127.461 3.66333 127.461 3.37C127.461 2.97667 127.334 2.66 127.081 2.42C126.834 2.17333 126.494 2.05 126.061 2.05C125.608 2.05 125.244 2.2 124.971 2.5C124.698 2.79333 124.538 3.18667 124.491 3.68L123.791 3.26C123.851 2.87333 123.974 2.53333 124.161 2.24C124.354 1.94667 124.611 1.71667 124.931 1.55C125.258 1.38333 125.644 1.3 126.091 1.3C126.431 1.3 126.734 1.35 127.001 1.45C127.274 1.55 127.508 1.69333 127.701 1.88C127.894 2.06 128.041 2.27667 128.141 2.53C128.248 2.78333 128.301 3.06333 128.301 3.37C128.301 3.78333 128.201 4.19 128.001 4.59C127.801 4.98333 127.471 5.39667 127.011 5.83C126.551 6.26333 125.928 6.74333 125.141 7.27V7.28C125.214 7.27333 125.314 7.27 125.441 7.27C125.574 7.26333 125.704 7.26 125.831 7.26C125.964 7.25333 126.064 7.25 126.131 7.25H128.441V8H124.001ZM132.001 8.1C131.254 8.1 130.658 7.81 130.211 7.23C129.764 6.65 129.541 5.80667 129.541 4.7C129.541 3.59333 129.764 2.75 130.211 2.17C130.658 1.59 131.254 1.3 132.001 1.3C132.754 1.3 133.351 1.59 133.791 2.17C134.238 2.75 134.461 3.59333 134.461 4.7C134.461 5.80667 134.238 6.65 133.791 7.23C133.351 7.81 132.754 8.1 132.001 8.1ZM132.001 7.38C132.354 7.38 132.651 7.28 132.891 7.08C133.138 6.87333 133.321 6.57 133.441 6.17C133.568 5.77 133.631 5.28 133.631 4.7C133.631 4.12 133.568 3.63 133.441 3.23C133.321 2.83 133.138 2.53 132.891 2.33C132.651 2.12333 132.354 2.02 132.001 2.02C131.648 2.02 131.348 2.12333 131.101 2.33C130.861 2.53 130.678 2.83 130.551 3.23C130.431 3.63 130.371 4.12 130.371 4.7C130.371 5.28 130.431 5.77 130.551 6.17C130.678 6.57 130.861 6.87333 131.101 7.08C131.348 7.28 131.648 7.38 132.001 7.38ZM135.652 8V7.35C136.312 6.86333 136.862 6.43667 137.302 6.07C137.748 5.70333 138.105 5.37 138.372 5.07C138.638 4.77 138.828 4.48667 138.942 4.22C139.055 3.94667 139.112 3.66333 139.112 3.37C139.112 2.97667 138.985 2.66 138.732 2.42C138.485 2.17333 138.145 2.05 137.712 2.05C137.258 2.05 136.895 2.2 136.622 2.5C136.348 2.79333 136.188 3.18667 136.142 3.68L135.442 3.26C135.502 2.87333 135.625 2.53333 135.812 2.24C136.005 1.94667 136.262 1.71667 136.582 1.55C136.908 1.38333 137.295 1.3 137.742 1.3C138.082 1.3 138.385 1.35 138.652 1.45C138.925 1.55 139.158 1.69333 139.352 1.88C139.545 2.06 139.692 2.27667 139.792 2.53C139.898 2.78333 139.952 3.06333 139.952 3.37C139.952 3.78333 139.852 4.19 139.652 4.59C139.452 4.98333 139.122 5.39667 138.662 5.83C138.202 6.26333 137.578 6.74333 136.792 7.27V7.28C136.865 7.27333 136.965 7.27 137.092 7.27C137.225 7.26333 137.355 7.26 137.482 7.26C137.615 7.25333 137.715 7.25 137.782 7.25H140.092V8H135.652ZM141.282 8V7.35C141.942 6.86333 142.492 6.43667 142.932 6.07C143.378 5.70333 143.735 5.37 144.002 5.07C144.268 4.77 144.458 4.48667 144.572 4.22C144.685 3.94667 144.742 3.66333 144.742 3.37C144.742 2.97667 144.615 2.66 144.362 2.42C144.115 2.17333 143.775 2.05 143.342 2.05C142.888 2.05 142.525 2.2 142.252 2.5C141.978 2.79333 141.818 3.18667 141.772 3.68L141.072 3.26C141.132 2.87333 141.255 2.53333 141.442 2.24C141.635 1.94667 141.892 1.71667 142.212 1.55C142.538 1.38333 142.925 1.3 143.372 1.3C143.712 1.3 144.015 1.35 144.282 1.45C144.555 1.55 144.788 1.69333 144.982 1.88C145.175 2.06 145.322 2.27667 145.422 2.53C145.528 2.78333 145.582 3.06333 145.582 3.37C145.582 3.78333 145.482 4.19 145.282 4.59C145.082 4.98333 144.752 5.39667 144.292 5.83C143.832 6.26333 143.208 6.74333 142.422 7.27V7.28C142.495 7.27333 142.595 7.27 142.722 7.27C142.855 7.26333 142.985 7.26 143.112 7.26C143.245 7.25333 143.345 7.25 143.412 7.25H145.722V8H141.282Z" fill="#5F5F5F"/>
</svg>
