<svg width="1225" height="113" viewBox="0 0 1225 113" fill="none" xmlns="http://www.w3.org/2000/svg">
<path d="M538.71 62.0367L555.431 43.1386C556.364 42.1276 556.597 41.661 556.597 40.8055V40.1056C556.597 39.2501 556.053 38.7835 555.042 38.7835H521.99C521.056 38.7835 520.512 39.1724 520.512 40.1834V43.2164C520.512 44.3052 521.134 44.7718 522.067 44.7718H548.742L534.199 62.6588C533.188 63.9031 533.811 65.4585 535.522 65.4585H536.377C544.076 65.4585 550.22 70.2803 550.22 79.3793C550.22 86.6897 545.243 91.5891 537.699 91.5891C527.045 91.5891 527.9 81.4791 523.156 81.4791C521.134 81.4791 519.89 82.8789 519.89 85.1343C519.89 88.7117 525.023 94.7777 537.466 94.7777C549.987 94.7777 557.142 87.3896 557.142 78.135C557.142 68.4915 549.52 62.27 538.71 62.0367ZM586.436 94.7777C598.957 94.7777 608.134 84.2788 608.134 66.4695C608.134 49.5157 598.568 38.0058 585.892 38.0058C571.971 38.0058 563.728 48.6603 563.728 66.0807C563.728 83.8122 573.449 94.7777 586.436 94.7777ZM587.447 91.6669C577.571 91.6669 570.649 79.6126 570.649 63.5143C570.649 49.438 576.482 41.1944 584.648 41.1944C594.369 41.1944 601.213 53.9486 601.213 69.5803C601.213 83.5011 595.302 91.6669 587.447 91.6669ZM637.625 94.7777C650.146 94.7777 659.322 84.2788 659.322 66.4695C659.322 49.5157 649.757 38.0058 637.08 38.0058C623.159 38.0058 614.916 48.6603 614.916 66.0807C614.916 83.8122 624.637 94.7777 637.625 94.7777ZM638.636 91.6669C628.759 91.6669 621.837 79.6126 621.837 63.5143C621.837 49.438 627.67 41.1944 635.836 41.1944C645.557 41.1944 652.401 53.9486 652.401 69.5803C652.401 83.5011 646.49 91.6669 638.636 91.6669ZM728.009 88.4784L727.153 73.5466C726.376 60.7146 720.387 55.8929 712.455 55.8929C706.855 55.8929 701.956 59.0814 700.012 64.4475C697.523 58.9259 692.468 55.8929 686.713 55.8929C681.736 55.8929 677.459 58.6926 675.203 62.8921V57.3705C675.203 56.2039 674.426 55.4262 672.948 56.2039L666.882 59.0036C666.104 59.3147 665.715 59.6258 665.715 60.1702V60.4035C665.715 61.8034 668.826 61.8811 668.826 64.9919V88.5561C668.826 91.2781 665.871 91.4336 665.871 92.8335V93.1445C665.871 93.7667 666.493 94.0778 667.426 94.0778H677.147C678.081 94.0778 678.703 93.7667 678.703 93.1445V92.8335C678.703 91.4336 675.67 91.2781 675.67 88.5561L675.592 69.4248C675.825 63.5921 679.714 58.9259 685.235 58.9259C690.602 58.9259 694.879 63.9809 694.879 72.6133V88.5561C694.879 91.2781 692.157 91.4336 692.157 92.8335V93.1445C692.157 93.7667 692.779 94.0778 693.79 94.0778H702.967C703.9 94.0778 704.445 93.7667 704.445 93.1445V92.8335C704.445 91.4336 701.723 91.2781 701.723 88.5561V73.0022C701.723 71.6801 701.645 70.358 701.412 69.1915C701.645 63.281 705.767 58.9259 710.666 58.9259C716.343 58.9259 719.843 62.8921 720.387 73.391L721.165 88.5561C721.243 91.2781 718.443 91.4336 718.443 92.8335V93.1445C718.443 93.7667 718.988 94.0778 719.999 94.0778H729.331C730.186 94.0778 730.886 93.7667 730.886 93.1445V92.8335C730.886 91.4336 728.164 91.2781 728.009 88.4784Z" fill="#AEC693"/>
<path d="M993.567 94H1004.69C1005.62 94 1006.09 93.6889 1006.09 93.0668V92.9112C1006.09 91.4336 1002.28 91.2781 1002.28 88.0895V45.6273C1002.28 42.1276 1004.22 41.7388 1004.22 40.1834C1004.22 38.9391 1002.98 38.0836 1000.88 39.0168L992.322 42.672C991.311 43.0609 990.845 43.4497 990.845 44.1496V44.383C990.845 46.7938 995.744 43.9941 995.744 48.6603V88.0895C995.744 91.2781 992.167 91.4336 992.167 92.9112V93.0668C992.167 93.6889 992.556 94 993.567 94ZM1035.88 94.7777C1048.4 94.7777 1057.58 84.2788 1057.58 66.4695C1057.58 49.5157 1048.01 38.0058 1035.34 38.0058C1021.41 38.0058 1013.17 48.6603 1013.17 66.0807C1013.17 83.8122 1022.89 94.7777 1035.88 94.7777ZM1036.89 91.6669C1027.01 91.6669 1020.09 79.6126 1020.09 63.5143C1020.09 49.438 1025.93 41.1944 1034.09 41.1944C1043.81 41.1944 1050.66 53.9486 1050.66 69.5803C1050.66 83.5011 1044.75 91.6669 1036.89 91.6669ZM1126.26 88.4784L1125.41 73.5466C1124.63 60.7146 1118.64 55.8929 1110.71 55.8929C1105.11 55.8929 1100.21 59.0814 1098.27 64.4475C1095.78 58.9259 1090.72 55.8929 1084.97 55.8929C1079.99 55.8929 1075.71 58.6926 1073.46 62.8921V57.3705C1073.46 56.2039 1072.68 55.4262 1071.2 56.2039L1065.14 59.0036C1064.36 59.3147 1063.97 59.6258 1063.97 60.1702V60.4035C1063.97 61.8034 1067.08 61.8811 1067.08 64.9919V88.5561C1067.08 91.2781 1064.13 91.4336 1064.13 92.8335V93.1445C1064.13 93.7667 1064.75 94.0778 1065.68 94.0778H1075.4C1076.34 94.0778 1076.96 93.7667 1076.96 93.1445V92.8335C1076.96 91.4336 1073.93 91.2781 1073.93 88.5561L1073.85 69.4248C1074.08 63.5921 1077.97 58.9259 1083.49 58.9259C1088.86 58.9259 1093.13 63.9809 1093.13 72.6133V88.5561C1093.13 91.2781 1090.41 91.4336 1090.41 92.8335V93.1445C1090.41 93.7667 1091.03 94.0778 1092.05 94.0778H1101.22C1102.16 94.0778 1102.7 93.7667 1102.7 93.1445V92.8335C1102.7 91.4336 1099.98 91.2781 1099.98 88.5561V73.0022C1099.98 71.6801 1099.9 70.358 1099.67 69.1915C1099.9 63.281 1104.02 58.9259 1108.92 58.9259C1114.6 58.9259 1118.1 62.8921 1118.64 73.391L1119.42 88.5561C1119.5 91.2781 1116.7 91.4336 1116.7 92.8335V93.1445C1116.7 93.7667 1117.24 94.0778 1118.25 94.0778H1127.59C1128.44 94.0778 1129.14 93.7667 1129.14 93.1445V92.8335C1129.14 91.4336 1126.42 91.2781 1126.26 88.4784ZM1140.29 49.2824C1143.33 49.2824 1145.35 47.3382 1145.35 44.4607C1145.35 41.5832 1143.33 39.5612 1140.29 39.5612C1137.1 39.5612 1135.08 41.5832 1135.08 44.4607C1135.08 47.3382 1137.1 49.2824 1140.29 49.2824ZM1135.78 94H1145.35C1146.28 94 1146.98 93.6112 1146.98 92.989V92.6779C1146.98 91.2003 1143.87 91.2003 1143.87 88.4784V57.2927C1143.87 56.2039 1143.09 55.4262 1141.46 56.2039L1135.47 59.1592C1134.77 59.548 1134.3 59.7813 1134.3 60.3257V60.4813C1134.3 61.6478 1137.1 62.27 1137.1 65.303V88.4784C1137.1 91.2003 1134.3 91.2003 1134.3 92.6779V92.989C1134.3 93.6112 1134.85 94 1135.78 94ZM1189.85 88.4006L1188.99 73.08C1188.21 61.0257 1181.83 55.8929 1174.21 55.8929C1168.85 55.8929 1164.34 58.6926 1162.08 63.0477V57.3705C1162.08 56.2039 1161.38 55.4262 1159.9 56.2039L1154.07 59.0036C1153.29 59.3147 1152.83 59.6258 1152.83 60.1702V60.4035C1152.83 61.8034 1156.09 61.6478 1156.09 64.9919V88.5561C1156.09 91.2781 1153.06 91.2781 1153.06 92.7557V93.0668C1153.06 93.6889 1153.68 94.0778 1154.62 94.0778H1164.34C1165.35 94.0778 1165.97 93.6889 1165.97 93.0668V92.7557C1165.97 91.2781 1162.86 91.2781 1162.86 88.5561V69.6581C1162.86 63.5143 1166.83 58.9259 1172.58 58.9259C1177.95 58.9259 1181.76 63.4365 1182.15 72.9244L1182.92 88.4784C1183.08 91.2781 1180.12 91.2781 1180.12 92.7557V93.0668C1180.12 93.6889 1180.75 94.0778 1181.76 94.0778H1191.01C1192.02 94.0778 1192.64 93.6889 1192.64 93.0668V92.7557C1192.64 91.2781 1190 91.2781 1189.85 88.4006Z" fill="#AEC693"/>
<path d="M570.568 12V3.492H569.104V12H570.568ZM581.727 12V3.492H580.287V9.528L576.423 3.492H574.587V12H576.027V5.556L580.227 12H581.727ZM591.851 4.848V3.492H584.879V4.848H587.639V12H589.079V4.848H591.851ZM600.268 12V10.656H596.452V8.4H599.908V7.092H596.452V4.836H600.268V3.492H595.012V12H600.268ZM608.273 12H609.905L607.985 8.496C609.173 8.208 609.905 7.284 609.905 6.072C609.905 4.632 608.885 3.492 607.241 3.492H603.977V12H605.429V8.64H606.485L608.273 12ZM605.429 7.368V4.764H606.977C607.865 4.764 608.441 5.28 608.441 6.072C608.441 6.852 607.865 7.368 606.977 7.368H605.429ZM614.886 12V3.492H613.422V12H614.886ZM619.865 7.74C619.865 5.688 621.281 4.668 622.709 4.668C624.149 4.668 625.565 5.688 625.565 7.74C625.565 9.792 624.149 10.812 622.709 10.812C621.281 10.812 619.865 9.792 619.865 7.74ZM618.389 7.74C618.389 10.536 620.477 12.18 622.709 12.18C624.941 12.18 627.041 10.536 627.041 7.74C627.041 4.956 624.941 3.312 622.709 3.312C620.477 3.312 618.389 4.956 618.389 7.74ZM634.838 12H636.47L634.55 8.496C635.738 8.208 636.47 7.284 636.47 6.072C636.47 4.632 635.45 3.492 633.806 3.492H630.542V12H631.994V8.64H633.05L634.838 12ZM631.994 7.368V4.764H633.542C634.43 4.764 635.006 5.28 635.006 6.072C635.006 6.852 634.43 7.368 633.542 7.368H631.994ZM650.763 12H652.335L649.023 3.492H647.355L644.043 12H645.567L646.359 9.864H649.959L650.763 12ZM648.159 5.052L649.455 8.532H646.863L648.159 5.052ZM659.75 12H661.382L659.462 8.496C660.65 8.208 661.382 7.284 661.382 6.072C661.382 4.632 660.362 3.492 658.718 3.492H655.454V12H656.906V8.64H657.962L659.75 12ZM656.906 7.368V4.764H658.454C659.342 4.764 659.918 5.28 659.918 6.072C659.918 6.852 659.342 7.368 658.454 7.368H656.906ZM670.155 12V10.656H666.339V8.4H669.795V7.092H666.339V4.836H670.155V3.492H664.899V12H670.155ZM679.684 12H681.256L677.944 3.492H676.276L672.964 12H674.488L675.28 9.864H678.88L679.684 12ZM677.08 5.052L678.376 8.532H675.784L677.08 5.052Z" fill="black"/>
<path d="M40.9111 82.179H40.3667C38.4224 82.179 38.0336 88.945 33.4452 88.945H8.63665C10.892 75.8797 38.7335 68.8804 38.7335 52.5488C38.7335 42.9831 31.3454 38.0058 21.5464 38.0058C10.0365 38.0058 3.34831 45.7828 3.34831 50.8378C3.34831 53.0932 4.9037 54.3375 7.00348 54.3375C12.1363 54.3375 10.8142 41.1944 21.9353 41.1944C26.6792 41.1944 31.7342 45.1606 31.7342 52.0044C31.7342 66.7028 2.72615 76.1907 2.72615 91.978V92.6001C2.72615 93.4556 3.34831 94 4.20377 94H37.9558C38.889 94 39.5112 93.3001 39.8223 92.3668L41.9998 83.6566C42.2331 82.7234 41.6888 82.179 40.9111 82.179ZM70.4119 94.7777C82.9328 94.7777 92.1096 84.2788 92.1096 66.4695C92.1096 49.5157 82.544 38.0058 69.8675 38.0058C55.9467 38.0058 47.7031 48.6603 47.7031 66.0807C47.7031 83.8122 57.4244 94.7777 70.4119 94.7777ZM71.4229 91.6669C61.5461 91.6669 54.6246 79.6126 54.6246 63.5143C54.6246 49.438 60.4574 41.1944 68.6232 41.1944C78.3444 41.1944 85.1881 53.9486 85.1881 69.5803C85.1881 83.5011 79.2776 91.6669 71.4229 91.6669ZM121.6 94.7777C134.121 94.7777 143.298 84.2788 143.298 66.4695C143.298 49.5157 133.732 38.0058 121.056 38.0058C107.135 38.0058 98.8914 48.6603 98.8914 66.0807C98.8914 83.8122 108.613 94.7777 121.6 94.7777ZM122.611 91.6669C112.734 91.6669 105.813 79.6126 105.813 63.5143C105.813 49.438 111.646 41.1944 119.811 41.1944C129.533 41.1944 136.376 53.9486 136.376 69.5803C136.376 83.5011 130.466 91.6669 122.611 91.6669ZM172.788 94.7777C185.309 94.7777 194.486 84.2788 194.486 66.4695C194.486 49.5157 184.92 38.0058 172.244 38.0058C158.323 38.0058 150.08 48.6603 150.08 66.0807C150.08 83.8122 159.801 94.7777 172.788 94.7777ZM173.799 91.6669C163.923 91.6669 157.001 79.6126 157.001 63.5143C157.001 49.438 162.834 41.1944 171 41.1944C180.721 41.1944 187.565 53.9486 187.565 69.5803C187.565 83.5011 181.654 91.6669 173.799 91.6669ZM263.173 88.4784L262.317 73.5466C261.539 60.7146 255.551 55.8929 247.619 55.8929C242.019 55.8929 237.12 59.0814 235.175 64.4475C232.687 58.9259 227.632 55.8929 221.877 55.8929C216.9 55.8929 212.622 58.6926 210.367 62.8921V57.3705C210.367 56.2039 209.589 55.4262 208.112 56.2039L202.046 59.0036C201.268 59.3147 200.879 59.6258 200.879 60.1702V60.4035C200.879 61.8034 203.99 61.8811 203.99 64.9919V88.5561C203.99 91.2781 201.035 91.4336 201.035 92.8335V93.1445C201.035 93.7667 201.657 94.0778 202.59 94.0778H212.311C213.244 94.0778 213.867 93.7667 213.867 93.1445V92.8335C213.867 91.4336 210.834 91.2781 210.834 88.5561L210.756 69.4248C210.989 63.5921 214.878 58.9259 220.399 58.9259C225.765 58.9259 230.043 63.9809 230.043 72.6133V88.5561C230.043 91.2781 227.321 91.4336 227.321 92.8335V93.1445C227.321 93.7667 227.943 94.0778 228.954 94.0778H238.131C239.064 94.0778 239.608 93.7667 239.608 93.1445V92.8335C239.608 91.4336 236.886 91.2781 236.886 88.5561V73.0022C236.886 71.6801 236.809 70.358 236.575 69.1915C236.809 63.281 240.93 58.9259 245.83 58.9259C251.507 58.9259 255.007 62.8921 255.551 73.391L256.329 88.5561C256.407 91.2781 253.607 91.4336 253.607 92.8335V93.1445C253.607 93.7667 254.151 94.0778 255.162 94.0778H264.495C265.35 94.0778 266.05 93.7667 266.05 93.1445V92.8335C266.05 91.4336 263.328 91.2781 263.173 88.4784Z" fill="#AEC693"/>
<path d="M284.665 56.0801H284.317C283.399 56.0801 283.304 58.6443 281.056 58.6443H272.161C273.554 53.9274 284.095 51.8063 284.095 45.3483C284.095 41.0745 280.803 39.2067 276.213 39.2067C271.527 39.2067 268.108 41.9293 268.108 44.6835C268.108 46.108 269.153 46.9311 270.451 46.9311C273.712 46.9311 272.984 41.1062 276.244 41.1062C277.669 41.1062 279.125 42.4991 279.125 44.9051C279.125 50.5084 267.919 54.3073 267.919 60.9237V61.3035C267.919 61.7151 268.298 62 268.678 62H283.494C283.905 62 284.159 61.6834 284.285 61.2719L285.235 56.7765C285.33 56.3967 285.077 56.0801 284.665 56.0801Z" fill="#AEC693"/>
<path d="M751.665 56.0801H751.317C750.399 56.0801 750.304 58.6443 748.056 58.6443H739.161C740.554 53.9274 751.095 51.8063 751.095 45.3483C751.095 41.0745 747.803 39.2067 743.213 39.2067C738.527 39.2067 735.108 41.9293 735.108 44.6835C735.108 46.108 736.153 46.9311 737.451 46.9311C740.712 46.9311 739.984 41.1062 743.244 41.1062C744.669 41.1062 746.125 42.4991 746.125 44.9051C746.125 50.5084 734.919 54.3073 734.919 60.9237V61.3035C734.919 61.7151 735.298 62 735.678 62H750.494C750.905 62 751.159 61.6834 751.285 61.2719L752.235 56.7765C752.33 56.3967 752.077 56.0801 751.665 56.0801Z" fill="#AEC693"/>
<path d="M98.3371 12V10.632H94.4371V3.492H92.9971V12H98.3371ZM107.606 12H109.178L105.866 3.492H104.198L100.886 12H102.41L103.202 9.864H106.802L107.606 12ZM105.002 5.052L106.298 8.532H103.706L105.002 5.052ZM119.437 12V3.492H117.997V9.528L114.133 3.492H112.297V12H113.737V5.556L117.937 12H119.437ZM124.893 10.68V4.812H126.417C127.893 4.812 129.105 5.772 129.105 7.764C129.105 9.732 127.881 10.68 126.405 10.68H124.893ZM126.453 12C128.757 12 130.605 10.488 130.605 7.764C130.605 5.028 128.781 3.492 126.465 3.492H123.453V12H126.453ZM144.869 12H146.441L143.129 3.492H141.461L138.149 12H139.673L140.465 9.864H144.065L144.869 12ZM142.265 5.052L143.561 8.532H140.969L142.265 5.052ZM153.857 12H155.489L153.569 8.496C154.757 8.208 155.489 7.284 155.489 6.072C155.489 4.632 154.469 3.492 152.825 3.492H149.561V12H151.013V8.64H152.069L153.857 12ZM151.013 7.368V4.764H152.561C153.449 4.764 154.025 5.28 154.025 6.072C154.025 6.852 153.449 7.368 152.561 7.368H151.013ZM164.262 12V10.656H160.446V8.4H163.902V7.092H160.446V4.836H164.262V3.492H159.006V12H164.262ZM173.79 12H175.362L172.05 3.492H170.382L167.07 12H168.594L169.386 9.864H172.986L173.79 12ZM171.186 5.052L172.482 8.532H169.89L171.186 5.052Z" fill="black"/>
<path d="M985.217 10.68V4.812H986.741C988.217 4.812 989.429 5.772 989.429 7.764C989.429 9.732 988.205 10.68 986.729 10.68H985.217ZM986.777 12C989.081 12 990.929 10.488 990.929 7.764C990.929 5.028 989.105 3.492 986.789 3.492H983.777V12H986.777ZM995.881 12V3.492H994.417V12H995.881ZM1005.49 5.484C1005.3 4.536 1004.52 3.312 1002.52 3.312C1000.93 3.312 999.625 4.488 999.625 5.916C999.625 7.188 1000.49 8.04 1001.79 8.304L1002.99 8.556C1003.72 8.712 1004.13 9.156 1004.13 9.708C1004.13 10.368 1003.6 10.884 1002.58 10.884C1001.35 10.884 1000.72 10.068 1000.63 9.18L999.289 9.564C999.421 10.788 1000.42 12.18 1002.58 12.18C1004.52 12.18 1005.59 10.92 1005.59 9.6C1005.59 8.4 1004.79 7.452 1003.29 7.152L1002.06 6.9C1001.4 6.756 1001.07 6.348 1001.07 5.808C1001.07 5.16 1001.67 4.584 1002.53 4.584C1003.67 4.584 1004.11 5.364 1004.2 5.892L1005.49 5.484ZM1015.14 4.848V3.492H1008.17V4.848H1010.93V12H1012.37V4.848H1015.14ZM1023.33 12H1024.91L1021.59 3.492H1019.93L1016.61 12H1018.14L1018.93 9.864H1022.53L1023.33 12ZM1020.73 5.052L1022.03 8.532H1019.43L1020.73 5.052ZM1035.16 12V3.492H1033.72V9.528L1029.86 3.492H1028.02V12H1029.46V5.556L1033.66 12H1035.16ZM1042.96 12.18C1045.13 12.18 1046.43 10.8 1046.81 9.36L1045.49 8.928C1045.2 9.888 1044.39 10.8 1042.96 10.8C1041.51 10.8 1040.14 9.744 1040.14 7.752C1040.14 5.688 1041.54 4.668 1042.95 4.668C1044.38 4.668 1045.17 5.496 1045.42 6.528L1046.78 6.072C1046.39 4.584 1045.11 3.312 1042.95 3.312C1040.74 3.312 1038.66 4.98 1038.66 7.752C1038.66 10.524 1040.67 12.18 1042.96 12.18ZM1055.51 12V10.656H1051.69V8.4H1055.15V7.092H1051.69V4.836H1055.51V3.492H1050.25V12H1055.51ZM1070.28 4.848V3.492H1063.31V4.848H1066.07V12H1067.51V4.848H1070.28ZM1074.13 7.74C1074.13 5.688 1075.55 4.668 1076.98 4.668C1078.42 4.668 1079.83 5.688 1079.83 7.74C1079.83 9.792 1078.42 10.812 1076.98 10.812C1075.55 10.812 1074.13 9.792 1074.13 7.74ZM1072.66 7.74C1072.66 10.536 1074.75 12.18 1076.98 12.18C1079.21 12.18 1081.31 10.536 1081.31 7.74C1081.31 4.956 1079.21 3.312 1076.98 3.312C1074.75 3.312 1072.66 4.956 1072.66 7.74ZM1099.13 12V3.492H1097.17L1094.45 9.984L1091.69 3.492H1089.77V12H1091.17V5.76L1093.8 12H1095.05L1097.7 5.736V12H1099.13ZM1104.11 7.74C1104.11 5.688 1105.53 4.668 1106.95 4.668C1108.39 4.668 1109.81 5.688 1109.81 7.74C1109.81 9.792 1108.39 10.812 1106.95 10.812C1105.53 10.812 1104.11 9.792 1104.11 7.74ZM1102.63 7.74C1102.63 10.536 1104.72 12.18 1106.95 12.18C1109.19 12.18 1111.29 10.536 1111.29 7.74C1111.29 4.956 1109.19 3.312 1106.95 3.312C1104.72 3.312 1102.63 4.956 1102.63 7.74ZM1121.93 12V3.492H1120.49V9.528L1116.62 3.492H1114.79V12H1116.23V5.556L1120.43 12H1121.93ZM1132.05 4.848V3.492H1125.08V4.848H1127.84V12H1129.28V4.848H1132.05ZM1140.47 12V10.656H1136.65V8.4H1140.11V7.092H1136.65V4.836H1140.47V3.492H1135.21V12H1140.47ZM1147.04 9.108V7.872H1143.66V9.108H1147.04ZM1154.37 12.18C1156.54 12.18 1157.83 10.8 1158.22 9.36L1156.9 8.928C1156.61 9.888 1155.79 10.8 1154.37 10.8C1152.91 10.8 1151.55 9.744 1151.55 7.752C1151.55 5.688 1152.95 4.668 1154.35 4.668C1155.78 4.668 1156.57 5.496 1156.83 6.528L1158.18 6.072C1157.8 4.584 1156.51 3.312 1154.35 3.312C1152.15 3.312 1150.07 4.98 1150.07 7.752C1150.07 10.524 1152.07 12.18 1154.37 12.18ZM1167.17 12H1168.75L1165.43 3.492H1163.77L1160.45 12H1161.98L1162.77 9.864H1166.37L1167.17 12ZM1164.57 5.052L1165.87 8.532H1163.27L1164.57 5.052ZM1176.16 12H1177.79L1175.87 8.496C1177.06 8.208 1177.79 7.284 1177.79 6.072C1177.79 4.632 1176.77 3.492 1175.13 3.492H1171.87V12H1173.32V8.64H1174.37L1176.16 12ZM1173.32 7.368V4.764H1174.87C1175.75 4.764 1176.33 5.28 1176.33 6.072C1176.33 6.852 1175.75 7.368 1174.87 7.368H1173.32ZM1186.65 12V10.632H1182.75V3.492H1181.31V12H1186.65ZM1190.57 7.74C1190.57 5.688 1191.98 4.668 1193.41 4.668C1194.85 4.668 1196.27 5.688 1196.27 7.74C1196.27 9.792 1194.85 10.812 1193.41 10.812C1191.98 10.812 1190.57 9.792 1190.57 7.74ZM1189.09 7.74C1189.09 10.536 1191.18 12.18 1193.41 12.18C1195.64 12.18 1197.74 10.536 1197.74 7.74C1197.74 4.956 1195.64 3.312 1193.41 3.312C1191.18 3.312 1189.09 4.956 1189.09 7.74Z" fill="black"/>
</svg>
