<svg width="450" height="180" viewBox="0 0 450 180" fill="none" xmlns="http://www.w3.org/2000/svg">
<path d="M129.686 137.698C139.807 137.698 148.533 132.533 148.533 123.458C148.533 103.355 120.332 112.988 120.332 97.9803C120.332 94.0016 122.915 90.7906 128.22 90.7906C138.411 90.7906 135.828 103.216 143.367 103.216C146.369 103.216 147.835 101.54 147.835 98.8878C147.904 93.0941 140.156 86.8119 128.429 86.8119C116.912 86.8119 109.932 92.9545 109.932 101.331C110.002 121.992 138.202 111.801 138.202 126.669C138.202 130.927 134.991 133.719 130.105 133.719C118.308 133.719 120.193 121.015 113.212 120.876C110.351 120.876 109.024 122.69 109.024 125.134C109.024 130.718 116.423 137.698 129.686 137.698ZM153.909 135.813C153.909 136.581 154.467 137 155.445 137H168.498C169.405 137 170.033 136.581 170.033 135.813V135.604C170.033 133.929 167.102 133.3 167.102 130.299V94.1412C167.102 91.2095 170.033 90.5812 170.033 88.8362V88.557C170.033 87.8589 169.405 87.4401 168.498 87.4401H155.445C154.467 87.4401 153.909 87.8589 153.909 88.557V88.8362C153.909 90.5812 156.562 91.2095 156.562 94.1412V130.299C156.562 133.3 153.909 133.929 153.909 135.604V135.813ZM178.212 137H210.322C211.718 137 212.206 136.302 212.485 134.976L214.3 125.203C214.51 124.226 214.021 123.668 213.114 123.668H212.276C209.275 123.668 208.227 132.742 202.992 132.742H192.941C190.916 132.742 190.009 130.927 190.009 128.833V94.1412C190.009 91.1397 193.011 90.651 193.011 88.8362V88.557C193.011 87.8589 192.312 87.4401 191.335 87.4401H178.212C177.235 87.4401 176.677 87.8589 176.677 88.557V88.8362C176.677 90.651 179.329 91.1397 179.329 94.1412V130.299C179.329 133.231 176.677 133.859 176.677 135.604V135.813C176.677 136.511 177.235 137 178.212 137ZM219.862 137H252.809C254.205 137 254.763 136.302 255.043 134.976L256.578 126.53C256.718 125.622 256.299 124.715 255.322 124.715H254.763C251.134 124.715 249.877 132.812 245.34 132.812H235.079C232.357 132.812 231.38 130.508 231.38 128.484L231.449 113.895H240.454C243.874 113.895 244.153 118.712 245.968 118.712H246.527C247.225 118.712 247.713 118.083 247.713 117.246V106.008C247.713 105.1 247.225 104.542 246.527 104.542H245.968C244.153 104.542 243.874 109.637 240.454 109.637H231.449V94.6298C231.449 92.3961 232.706 91.6283 234.242 91.6283H243.176C247.644 91.6283 249.668 99.3764 252.949 99.3764H253.367C254.345 99.3764 254.973 98.7481 254.763 97.5615L253.088 89.3946C252.879 87.9985 252.32 87.4401 250.924 87.4401H219.792C218.885 87.4401 218.257 87.8589 218.257 88.557V88.8362C218.257 90.5114 220.979 91.1397 220.979 94.211V130.229C220.979 133.3 218.257 133.859 218.257 135.604V135.813C218.257 136.581 218.885 137 219.862 137ZM306.364 87.4401H298.197C297.22 87.4401 296.592 87.9287 296.592 88.6268V88.8362C296.592 90.5812 299.593 91.2095 299.593 94.1412V123.877L274.743 89.3946C273.836 88.0683 272.998 87.4401 271.463 87.4401H262.737C261.76 87.4401 261.132 87.9287 261.132 88.6268V88.906C261.132 90.651 263.924 91.2095 263.924 94.211V130.159C263.924 133.231 261.132 133.859 261.132 135.604V135.813C261.132 136.581 261.76 137 262.737 137H270.834C271.812 137 272.44 136.581 272.44 135.813V135.604C272.44 133.859 269.299 133.231 269.299 130.159V99.167L295.894 134.836C296.941 136.302 297.708 137 298.965 137H302.246C303.921 137 304.968 135.953 304.968 134.208V94.1412C304.968 91.2095 307.969 90.5812 307.969 88.8362V88.6268C307.969 87.9287 307.341 87.4401 306.364 87.4401ZM335.957 137.698C348.522 137.698 354.874 129.392 355.641 120.596C355.851 118.432 353.408 118.014 352.291 119.48C350.197 123.179 346.148 128.275 339.098 128.275C330.652 128.275 322.485 119.131 322.485 105.31C322.485 96.5145 327.581 91.0699 333.165 91.0699C343.077 91.0699 342.798 104.681 350.336 104.681C353.478 104.681 355.292 102.797 355.292 100.005C355.292 93.4431 346.358 86.8119 335.399 86.8119C321.578 86.8119 312.224 97.2823 312.224 111.592C312.224 125.064 322.764 137.698 335.957 137.698ZM362.194 137H395.141C396.537 137 397.095 136.302 397.375 134.976L398.91 126.53C399.05 125.622 398.631 124.715 397.654 124.715H397.095C393.466 124.715 392.209 132.812 387.672 132.812H377.411C374.689 132.812 373.712 130.508 373.712 128.484L373.781 113.895H382.786C386.206 113.895 386.485 118.712 388.3 118.712H388.859C389.557 118.712 390.045 118.083 390.045 117.246V106.008C390.045 105.1 389.557 104.542 388.859 104.542H388.3C386.485 104.542 386.206 109.637 382.786 109.637H373.781V94.6298C373.781 92.3961 375.038 91.6283 376.573 91.6283H385.508C389.976 91.6283 392 99.3764 395.281 99.3764H395.699C396.677 99.3764 397.305 98.7481 397.095 97.5615L395.42 89.3946C395.211 87.9985 394.652 87.4401 393.256 87.4401H362.124C361.217 87.4401 360.589 87.8589 360.589 88.557V88.8362C360.589 90.5114 363.311 91.1397 363.311 94.211V130.229C363.311 133.3 360.589 133.859 360.589 135.604V135.813C360.589 136.581 361.217 137 362.194 137ZM409.188 137.698C412.608 137.698 415.54 135.813 415.54 131.904C415.54 127.995 412.608 126.111 409.188 126.111C405.698 126.111 402.766 127.995 402.766 131.904C402.766 135.813 405.698 137.698 409.188 137.698Z" fill="white"/>
<path d="M1.20755 115.209C0.901692 115.209 0.67925 115.167 0.540223 115.083C0.401197 115 0.331684 114.875 0.331684 114.708C0.359489 114.347 0.818276 114.082 1.70804 113.916C2.98709 113.665 3.90466 113.332 4.46077 112.915C5.04468 112.498 5.47566 111.83 5.75371 110.913L11.5094 92.0607C11.8709 90.9762 11.8848 90.2533 11.5511 89.8918C11.2174 89.5026 10.4945 89.2106 9.3823 89.016C8.99303 88.9604 8.72888 88.8769 8.58985 88.7657C8.45082 88.6267 8.38131 88.4599 8.38131 88.2652C8.40912 88.0984 8.54814 87.9733 8.79839 87.8899C9.07644 87.7786 9.42401 87.723 9.84109 87.723C10.1191 87.723 10.5501 87.7508 11.134 87.8064C11.7179 87.8343 12.3575 87.8621 13.0526 87.8899C13.7477 87.8899 14.3872 87.8899 14.9712 87.8899H21.7278C23.1459 87.8899 24.2442 87.8482 25.0228 87.7647C25.8291 87.6813 26.3991 87.6118 26.7328 87.5562C27.0943 87.4728 27.3167 87.4311 27.4001 87.4311C27.5391 87.4311 27.6643 87.5006 27.7755 87.6396C27.9145 87.7786 27.984 87.9316 27.984 88.0984C27.984 88.3208 27.8867 88.6823 27.6921 89.1828C27.5252 89.6555 27.3445 90.2255 27.1499 90.8928C26.983 91.5602 26.8579 92.2692 26.7745 93.0199C26.7467 93.298 26.6494 93.5065 26.4825 93.6456C26.3435 93.7568 26.2045 93.8124 26.0655 93.8124C25.9264 93.8124 25.8013 93.729 25.6901 93.5621C25.6067 93.3953 25.565 93.159 25.565 92.8531C25.565 91.4906 25.3981 90.5314 25.0645 89.9753C24.7308 89.4192 24.0218 89.1411 22.9374 89.1411H18.4746C17.8073 89.1411 17.3068 89.2801 16.9731 89.5582C16.6395 89.8084 16.3614 90.295 16.139 91.018L13.6365 99.151C13.4975 99.6237 13.4697 99.9573 13.5531 100.152C13.6643 100.319 13.9285 100.388 14.3455 100.361L19.0168 100.277C19.7398 100.249 20.3237 100.069 20.7686 99.7349C21.2412 99.4012 21.6583 98.9703 22.0198 98.442C22.2144 98.2195 22.423 97.9832 22.6454 97.7329C22.8679 97.4549 23.0903 97.3158 23.3127 97.3158C23.5352 97.3158 23.6603 97.4271 23.6881 97.6495C23.7159 97.8441 23.6603 98.0944 23.5213 98.4003C23.271 98.9286 23.0486 99.429 22.854 99.9017C22.6593 100.347 22.4925 100.792 22.3535 101.236C22.1866 101.709 22.0337 102.196 21.8947 102.696C21.7556 103.197 21.6166 103.753 21.4776 104.364C21.422 104.643 21.3386 104.879 21.2273 105.074C21.1439 105.268 21.0327 105.365 20.8937 105.365C20.6712 105.365 20.5044 105.226 20.3932 104.948C20.3098 104.67 20.2681 104.434 20.2681 104.239C20.2959 103.377 20.1707 102.752 19.8927 102.363C19.6424 101.973 19.281 101.779 18.8083 101.779L14.2204 101.695C13.8033 101.695 13.4419 101.765 13.136 101.904C12.8302 102.043 12.5938 102.376 12.427 102.905L10.3416 110.37C9.98011 111.677 9.9245 112.581 10.1747 113.081C10.4528 113.554 11.0645 113.79 12.0099 113.79H17.4319C18.0993 113.79 18.711 113.679 19.2671 113.457C19.8232 113.234 20.3237 112.97 20.7686 112.664C21.2412 112.331 21.6861 111.9 22.1032 111.371C22.5203 110.815 22.9374 110.217 23.3544 109.578C23.4657 109.411 23.5769 109.258 23.6881 109.119C23.7993 108.98 23.9384 108.911 24.1052 108.911C24.2442 108.911 24.3276 109.008 24.3554 109.203C24.411 109.369 24.4389 109.564 24.4389 109.787C24.4389 110.065 24.3276 110.496 24.1052 111.079C23.9106 111.663 23.6742 112.275 23.3962 112.915C23.1181 113.526 22.8401 114.027 22.562 114.416C22.423 114.666 22.2422 114.861 22.0198 115C21.8252 115.139 21.5749 115.209 21.2691 115.209C20.4349 115.209 19.5173 115.195 18.5163 115.167C17.5153 115.167 16.4865 115.153 15.4299 115.125C14.4012 115.097 13.3585 115.07 12.3019 115.042C11.2731 115.014 10.2582 115 9.25718 115C8.28399 114.972 7.38032 114.958 6.54616 114.958C5.90664 114.958 5.29492 114.972 4.71101 115C4.15491 115.056 3.5988 115.097 3.0427 115.125C2.48659 115.181 1.87488 115.209 1.20755 115.209ZM29.4102 115.626C29.2156 115.626 29.0071 115.556 28.7846 115.417C28.5622 115.278 28.3536 115.097 28.159 114.875C27.9922 114.625 27.867 114.36 27.7836 114.082C27.7002 113.777 27.728 113.499 27.867 113.248L32.4549 101.862C32.8998 100.833 32.872 100.319 32.3715 100.319C32.1491 100.319 31.871 100.347 31.5373 100.402C31.2037 100.458 30.8422 100.611 30.4529 100.861C30.0637 101.111 29.6466 101.514 29.2017 102.071C29.0905 102.182 28.9515 102.237 28.7846 102.237C28.6456 102.21 28.5483 102.098 28.4927 101.904C28.4927 101.709 28.5483 101.473 28.6595 101.195C28.7985 100.889 28.9515 100.597 29.1183 100.319C29.3129 100.013 29.4798 99.7766 29.6188 99.6098C30.1193 98.9703 30.7588 98.4559 31.5373 98.0666C32.3437 97.6773 33.2891 97.4688 34.3735 97.441C34.8184 97.441 35.1798 97.5661 35.4579 97.8163C35.7637 98.0388 35.9723 98.3307 36.0835 98.6922C36.1947 99.0537 36.1669 99.443 36.0001 99.86L33.4559 106.408C33.3725 106.603 33.4142 106.714 33.581 106.742C33.7479 106.77 33.873 106.7 33.9564 106.533C35.0408 104.67 36.1391 103.058 37.2513 101.695C38.3635 100.333 39.4479 99.29 40.5045 98.5671C41.5889 97.8163 42.6038 97.441 43.5492 97.441C44.3 97.441 44.8978 97.6912 45.3427 98.1917C45.8153 98.6644 46.0934 99.2761 46.1768 100.027C46.2602 100.75 46.1212 101.556 45.7597 102.446L42.1729 110.913C41.7558 111.858 41.8114 112.331 42.3397 112.331C42.6177 112.331 42.9653 112.219 43.3824 111.997C43.8273 111.775 44.2583 111.51 44.6753 111.205C45.1202 110.899 45.5095 110.607 45.8432 110.329C46.2046 110.051 46.441 109.856 46.5522 109.745C46.6356 109.689 46.7051 109.634 46.7607 109.578C46.8163 109.522 46.8719 109.495 46.9276 109.495C47.011 109.495 47.0944 109.536 47.1778 109.62C47.2612 109.703 47.3029 109.8 47.3029 109.912C47.3029 110.245 47.2056 110.551 47.011 110.829C46.2324 111.719 45.3983 112.525 44.5085 113.248C43.6187 113.971 42.7012 114.541 41.7558 114.958C40.8104 115.375 39.8789 115.584 38.9613 115.584C38.6833 115.584 38.3913 115.487 38.0855 115.292C37.8074 115.097 37.585 114.847 37.4182 114.541C37.2791 114.235 37.2791 113.929 37.4182 113.624C38.2523 111.677 39.1004 109.759 39.9623 107.868C40.8521 105.977 41.6724 104.059 42.4231 102.112C42.7846 101.195 42.9097 100.541 42.7985 100.152C42.6873 99.7627 42.4509 99.5542 42.0894 99.5264C41.7558 99.5264 41.3804 99.6793 40.9633 99.9852C40.5462 100.291 40.0736 100.722 39.5453 101.278C39.0448 101.834 38.5165 102.474 37.9604 103.197C37.6545 103.586 37.2374 104.17 36.7091 104.948C36.2086 105.727 35.6386 106.617 34.9991 107.618C34.3596 108.619 33.7062 109.661 33.0388 110.746C32.3993 111.83 31.7876 112.873 31.2037 113.874C30.8978 114.43 30.592 114.861 30.2861 115.167C30.0081 115.473 29.7161 115.626 29.4102 115.626ZM52.0892 115.584C51.8112 115.584 51.5053 115.473 51.1717 115.25C50.8658 115.028 50.6017 114.778 50.3792 114.5C50.1846 114.194 50.0873 113.929 50.0873 113.707C50.0873 113.318 50.129 112.984 50.2124 112.706C50.3236 112.4 50.4626 112.025 50.6295 111.58L54.5917 100.652C54.6751 100.374 54.6612 100.194 54.55 100.11C54.4388 99.9991 54.2998 99.9434 54.1329 99.9434L52.3812 99.86C51.9641 99.8322 51.7139 99.7488 51.6305 99.6098C51.547 99.443 51.5053 99.3039 51.5053 99.1927C51.5053 99.1371 51.5748 99.0259 51.7139 98.859C51.8807 98.6644 52.0892 98.4837 52.3395 98.3168C52.5897 98.1222 52.8539 98.0249 53.1319 98.0249H54.842C55.1756 98.0249 55.3981 97.9693 55.5093 97.8581C55.6483 97.7468 55.8012 97.5244 55.9681 97.1907L57.0108 95.0219C57.1776 94.7439 57.4139 94.438 57.7198 94.1043C58.0535 93.7707 58.401 93.4926 58.7625 93.2702C59.124 93.0199 59.402 92.8948 59.5967 92.8948C59.9025 92.8948 60.0972 93.0755 60.1806 93.437C60.264 93.7707 60.2501 94.1043 60.1389 94.438L59.0962 97.3576C59.0128 97.6356 59.0128 97.8163 59.0962 97.8998C59.2074 97.9554 59.3881 97.9832 59.6384 97.9832C60.1389 97.9832 60.6533 98.0249 61.1816 98.1083C61.7099 98.1917 62.1826 98.2612 62.5996 98.3168C63.1001 98.4003 63.406 98.4976 63.5172 98.6088C63.6284 98.72 63.684 98.859 63.684 99.0259C63.684 99.0815 63.6145 99.1927 63.4755 99.3595C63.3643 99.4986 63.1279 99.582 62.7665 99.6098C62.2382 99.6376 61.7238 99.6793 61.2233 99.7349C60.7506 99.7627 60.2223 99.7905 59.6384 99.8183C59.1657 99.8461 58.8181 99.9156 58.5957 100.027C58.401 100.138 58.262 100.305 58.1786 100.527L54.6751 110.204C54.5361 110.621 54.4666 110.968 54.4666 111.246C54.4666 111.497 54.5361 111.677 54.6751 111.788C54.8142 111.9 55.0088 111.955 55.259 111.955C55.6483 111.955 56.0793 111.802 56.552 111.497C57.0247 111.191 57.4835 110.843 57.9283 110.454C58.401 110.037 58.7903 109.675 59.0962 109.369C59.3186 109.147 59.5132 109.05 59.6801 109.077C59.8469 109.077 59.9303 109.133 59.9303 109.244C59.9859 109.383 59.972 109.564 59.8886 109.787C59.833 109.981 59.7357 110.19 59.5967 110.412C59.263 110.857 58.8598 111.33 58.3871 111.83C57.9144 112.303 57.3861 112.776 56.8022 113.248C56.2461 113.693 55.6761 114.096 55.0922 114.458C54.5083 114.791 53.9522 115.056 53.4239 115.25C52.9234 115.473 52.4785 115.584 52.0892 115.584ZM67.1191 115.626C66.4796 115.626 65.8122 115.403 65.1171 114.958C64.4498 114.513 63.8798 113.929 63.4071 113.207C62.9622 112.484 62.7397 111.761 62.7397 111.038C62.7397 109.508 63.0317 107.951 63.6156 106.366C64.2273 104.782 65.0476 103.322 66.0764 101.987C67.1052 100.625 68.273 99.5264 69.5798 98.6922C70.9145 97.858 72.3048 97.441 73.7506 97.441C74.9463 97.441 75.8499 97.6912 76.4616 98.1917C77.0734 98.6644 77.3792 99.2761 77.3792 100.027C77.3792 100.917 77.0873 101.695 76.5034 102.363C75.9472 103.002 75.1965 103.558 74.2511 104.031C73.3057 104.504 72.263 104.893 71.123 105.199C70.0108 105.504 68.8847 105.769 67.7447 105.991C67.6057 106.019 67.4944 106.061 67.411 106.116C67.3276 106.144 67.2581 106.227 67.2025 106.366C67.0635 106.839 66.9244 107.354 66.7854 107.91C66.6464 108.466 66.563 108.98 66.5352 109.453C66.5352 110.426 66.7437 111.218 67.1608 111.83C67.6057 112.414 68.2591 112.706 69.1211 112.706C70.0386 112.706 70.8311 112.484 71.4984 112.039C72.1657 111.566 72.7635 111.052 73.2918 110.496C73.5699 110.19 73.8062 110.037 74.0009 110.037C74.2789 110.037 74.418 110.176 74.418 110.454C74.418 110.509 74.418 110.579 74.418 110.662C74.418 110.746 74.3902 110.815 74.3345 110.871C73.7784 111.816 73.1389 112.65 72.416 113.373C71.693 114.069 70.8867 114.611 69.9969 115C69.135 115.417 68.1757 115.626 67.1191 115.626ZM68.0366 104.823C68.4537 104.768 69.0098 104.643 69.705 104.448C70.4001 104.253 71.0952 103.961 71.7904 103.572C72.5133 103.183 73.125 102.696 73.6255 102.112C74.126 101.528 74.3762 100.819 74.3762 99.9852C74.3762 99.6515 74.2789 99.3456 74.0843 99.0676C73.8897 98.7895 73.6116 98.6505 73.2501 98.6505C72.694 98.6505 72.1101 98.8729 71.4984 99.3178C70.8867 99.7627 70.3028 100.305 69.7467 100.944C69.1906 101.584 68.7318 102.237 68.3703 102.905C68.0088 103.572 67.8003 104.128 67.7447 104.573C67.7447 104.768 67.842 104.851 68.0366 104.823ZM80.1098 115.667C79.9151 115.667 79.6927 115.612 79.4425 115.5C79.22 115.389 79.0115 115.222 78.8168 115C78.65 114.805 78.5666 114.597 78.5666 114.374C78.5666 114.069 78.6361 113.721 78.7751 113.332C78.9142 112.915 79.0949 112.4 79.3173 111.788L83.2796 101.487C83.4186 101.153 83.4603 100.861 83.4047 100.611C83.3769 100.333 83.224 100.194 82.9459 100.194C82.501 100.194 82.0979 100.263 81.7364 100.402C81.3749 100.541 81.0552 100.708 80.7771 100.903C80.6103 101.014 80.4434 101.042 80.2766 100.986C80.1098 100.931 80.0264 100.792 80.0264 100.569C79.9986 100.235 80.1376 99.8739 80.4434 99.4847C80.7771 99.0954 81.1942 98.7478 81.6947 98.442C82.1118 98.1361 82.5984 97.8998 83.1545 97.7329C83.7106 97.5383 84.2667 97.441 84.8228 97.441C85.6013 97.441 86.1157 97.6495 86.366 98.0666C86.6162 98.4559 86.6857 98.9981 86.5745 99.6932C86.4911 100.361 86.2686 101.125 85.9072 101.987L84.1137 106.366C84.0025 106.561 84.0303 106.686 84.1972 106.742C84.3918 106.797 84.5308 106.742 84.6142 106.575C85.6708 104.712 86.7274 103.099 87.784 101.737C88.8684 100.347 89.8833 99.2622 90.8287 98.4837C91.8019 97.7051 92.6778 97.3158 93.4563 97.3158C94.2349 97.3158 94.791 97.5383 95.1246 97.9832C95.4861 98.4281 95.6668 98.9703 95.6668 99.6098C95.6668 100.194 95.5417 100.778 95.2915 101.362C95.069 101.945 94.7632 102.432 94.3739 102.821C94.0124 103.183 93.637 103.363 93.2478 103.363C92.9697 103.363 92.7612 103.224 92.6222 102.946C92.5109 102.668 92.4275 102.279 92.3719 101.779C92.3441 101.362 92.2607 101.014 92.1217 100.736C92.0104 100.43 91.8019 100.277 91.496 100.277C91.1346 100.277 90.7175 100.513 90.2448 100.986C89.7721 101.431 89.2021 102.14 88.5348 103.113C88.2567 103.503 87.8814 104.059 87.4087 104.782C86.936 105.477 86.4355 106.255 85.9072 107.117C85.3789 107.979 84.8506 108.841 84.3223 109.703C83.794 110.565 83.3352 111.344 82.9459 112.039C82.2786 113.234 81.7364 114.138 81.3193 114.75C80.9022 115.361 80.4991 115.667 80.1098 115.667Z" fill="white"/>
<path d="M226.468 20.4401H218.301C217.324 20.4401 216.696 20.9287 216.696 21.6268V21.8362C216.696 23.5812 219.697 24.2095 219.697 27.1412V56.8771L194.847 22.3946C193.94 21.0683 193.102 20.4401 191.567 20.4401H182.841C181.864 20.4401 181.236 20.9287 181.236 21.6268V21.906C181.236 23.651 184.028 24.2095 184.028 27.211V63.1593C184.028 66.2307 181.236 66.8589 181.236 68.6039V68.8134C181.236 69.5812 181.864 70 182.841 70H190.939C191.916 70 192.544 69.5812 192.544 68.8134V68.6039C192.544 66.8589 189.403 66.2307 189.403 63.1593V32.167L215.998 67.8361C217.045 69.302 217.813 70 219.069 70H222.35C224.025 70 225.072 68.953 225.072 67.2079V27.1412C225.072 24.2095 228.074 23.5812 228.074 21.8362V21.6268C228.074 20.9287 227.445 20.4401 226.468 20.4401ZM257.387 70.698C270.999 70.698 281.609 60.2276 281.609 45.4993C281.609 31.1199 271.208 19.7421 257.178 19.7421C242.589 19.7421 232.677 30.3521 232.677 45.3597C232.677 59.5994 243.357 70.698 257.387 70.698ZM260.319 66.1609C250.547 66.1609 242.938 51.3627 242.938 37.0531C242.938 29.3051 246.987 24.2793 253.409 24.2793C263.251 24.2793 270.999 39.8453 270.999 53.5266C270.999 60.7861 266.811 66.1609 260.319 66.1609ZM286.829 68.8134C286.829 69.5812 287.388 70 288.365 70H301.418C302.326 70 302.954 69.5812 302.954 68.8134V68.6039C302.954 66.9287 300.022 66.3005 300.022 63.2989V27.1412C300.022 24.2095 302.954 23.5812 302.954 21.8362V21.557C302.954 20.8589 302.326 20.4401 301.418 20.4401H288.365C287.388 20.4401 286.829 20.8589 286.829 21.557V21.8362C286.829 23.5812 289.482 24.2095 289.482 27.1412V63.2989C289.482 66.3005 286.829 66.9287 286.829 68.6039V68.8134ZM328.932 70.698C339.054 70.698 347.779 65.5326 347.779 56.4583C347.779 36.3551 319.579 45.9879 319.579 30.9803C319.579 27.0016 322.161 23.7906 327.466 23.7906C337.658 23.7906 335.075 36.2155 342.614 36.2155C345.615 36.2155 347.081 34.5403 347.081 31.8878C347.151 26.0941 339.403 19.8119 327.676 19.8119C316.158 19.8119 309.178 25.9545 309.178 34.3308C309.248 54.9924 337.448 44.8012 337.448 59.6692C337.448 63.9272 334.237 66.7193 329.351 66.7193C317.555 66.7193 319.439 54.0152 312.459 53.8756C309.597 53.8756 308.271 55.6905 308.271 58.1335C308.271 63.7178 315.67 70.698 328.932 70.698ZM354.691 70H387.638C389.034 70 389.593 69.302 389.872 67.9757L391.407 59.5296C391.547 58.6222 391.128 57.7147 390.151 57.7147H389.593C385.963 57.7147 384.706 65.8118 380.169 65.8118H369.908C367.186 65.8118 366.209 63.5084 366.209 61.4841L366.278 46.8953H375.283C378.703 46.8953 378.983 51.7117 380.797 51.7117H381.356C382.054 51.7117 382.542 51.0835 382.542 50.2458V39.0076C382.542 38.1002 382.054 37.5418 381.356 37.5418H380.797C378.983 37.5418 378.703 42.6374 375.283 42.6374H366.278V27.6298C366.278 25.3961 367.535 24.6283 369.071 24.6283H378.005C382.473 24.6283 384.497 32.3764 387.778 32.3764H388.196C389.174 32.3764 389.802 31.7481 389.593 30.5615L387.917 22.3946C387.708 20.9985 387.149 20.4401 385.753 20.4401H354.621C353.714 20.4401 353.086 20.8589 353.086 21.557V21.8362C353.086 23.5114 355.808 24.1397 355.808 27.211V63.2291C355.808 66.3005 353.086 66.8589 353.086 68.6039V68.8134C353.086 69.5812 353.714 70 354.691 70ZM401.685 70.698C405.105 70.698 408.037 68.8134 408.037 64.9044C408.037 60.9955 405.105 59.1108 401.685 59.1108C398.195 59.1108 395.263 60.9955 395.263 64.9044C395.263 68.8134 398.195 70.698 401.685 70.698Z" fill="white"/>
<path d="M65.2075 65.2085C64.9017 65.2085 64.6792 65.1668 64.5402 65.0834C64.4012 65 64.3317 64.8749 64.3317 64.708C64.3595 64.3466 64.8183 64.0824 65.708 63.9156C66.9871 63.6653 67.9047 63.3317 68.4608 62.9146C69.0447 62.4975 69.4757 61.8302 69.7537 60.9126L75.5094 42.0607C75.8709 40.9762 75.8848 40.2533 75.5511 39.8918C75.2174 39.5026 74.4945 39.2106 73.3823 39.016C72.993 38.9604 72.7289 38.8769 72.5898 38.7657C72.4508 38.6267 72.3813 38.4599 72.3813 38.2652C72.4091 38.0984 72.5481 37.9733 72.7984 37.8899C73.0764 37.7786 73.424 37.723 73.8411 37.723C74.1191 37.723 74.5501 37.7508 75.134 37.8064C75.7179 37.8343 76.3575 37.8621 77.0526 37.8899C77.7477 37.8899 78.3872 37.8899 78.9712 37.8899H85.7278C87.1459 37.8899 88.2442 37.8482 89.0228 37.7647C89.8291 37.6813 90.3991 37.6118 90.7328 37.5562C91.0943 37.4728 91.3167 37.4311 91.4001 37.4311C91.5391 37.4311 91.6643 37.5006 91.7755 37.6396C91.9145 37.7786 91.984 37.9316 91.984 38.0984C91.984 38.3208 91.8867 38.6823 91.6921 39.1828C91.5252 39.6555 91.3445 40.2255 91.1499 40.8928C90.983 41.5602 90.8579 42.2692 90.7745 43.0199C90.7467 43.298 90.6494 43.5065 90.4825 43.6456C90.3435 43.7568 90.2045 43.8124 90.0655 43.8124C89.9264 43.8124 89.8013 43.729 89.6901 43.5621C89.6067 43.3953 89.565 43.159 89.565 42.8531C89.565 41.4906 89.3981 40.5314 89.0645 39.9753C88.7308 39.4192 88.0218 39.1411 86.9374 39.1411H82.4746C81.8073 39.1411 81.3068 39.2801 80.9731 39.5582C80.6395 39.8084 80.3614 40.295 80.139 41.018L77.6365 49.151C77.4975 49.6237 77.4697 49.9573 77.5531 50.152C77.6643 50.3188 77.9285 50.3883 78.3455 50.3605L83.0168 50.2771C83.7398 50.2493 84.3237 50.0686 84.7686 49.7349C85.2412 49.4012 85.6583 48.9703 86.0198 48.442C86.2144 48.2195 86.423 47.9832 86.6454 47.7329C86.8679 47.4549 87.0903 47.3158 87.3127 47.3158C87.5352 47.3158 87.6603 47.4271 87.6881 47.6495C87.7159 47.8441 87.6603 48.0944 87.5213 48.4003C87.271 48.9286 87.0486 49.429 86.854 49.9017C86.6593 50.3466 86.4925 50.7915 86.3535 51.2364C86.1866 51.7091 86.0337 52.1957 85.8947 52.6962C85.7556 53.1967 85.6166 53.7528 85.4776 54.3645C85.422 54.6425 85.3386 54.8789 85.2273 55.0735C85.1439 55.2682 85.0327 55.3655 84.8937 55.3655C84.6712 55.3655 84.5044 55.2264 84.3932 54.9484C84.3098 54.6703 84.2681 54.434 84.2681 54.2394C84.2959 53.3774 84.1707 52.7518 83.8927 52.3625C83.6424 51.9732 83.281 51.7786 82.8083 51.7786L78.2204 51.6952C77.8033 51.6952 77.4419 51.7647 77.136 51.9037C76.8302 52.0427 76.5938 52.3764 76.427 52.9047L74.3416 60.3704C73.9801 61.6773 73.9245 62.5809 74.1747 63.0814C74.4528 63.5541 75.0645 63.7905 76.0099 63.7905H81.4319C82.0993 63.7905 82.711 63.6792 83.2671 63.4568C83.8232 63.2344 84.3237 62.9702 84.7686 62.6644C85.2412 62.3307 85.6861 61.8997 86.1032 61.3714C86.5203 60.8153 86.9374 60.2175 87.3544 59.578C87.4657 59.4111 87.5769 59.2582 87.6881 59.1192C87.7993 58.9802 87.9384 58.9106 88.1052 58.9106C88.2442 58.9106 88.3276 59.008 88.3554 59.2026C88.411 59.3694 88.4389 59.5641 88.4389 59.7865C88.4389 60.0646 88.3276 60.4955 88.1052 61.0795C87.9106 61.6634 87.6742 62.2751 87.3962 62.9146C87.1181 63.5263 86.8401 64.0268 86.562 64.4161C86.423 64.6663 86.2422 64.861 86.0198 65C85.8252 65.139 85.5749 65.2085 85.2691 65.2085C84.4349 65.2085 83.5173 65.1946 82.5163 65.1668C81.5153 65.1668 80.4865 65.1529 79.4299 65.1251C78.4012 65.0973 77.3585 65.0695 76.3019 65.0417C75.2731 65.0139 74.2582 65 73.2572 65C72.284 64.9722 71.3803 64.9583 70.5462 64.9583C69.9066 64.9583 69.2949 64.9722 68.711 65C68.1549 65.0556 67.5988 65.0973 67.0427 65.1251C66.4866 65.1807 65.8749 65.2085 65.2075 65.2085ZM91.7002 65.5839C90.8939 65.5839 90.2265 65.3754 89.6982 64.9583C89.1421 64.5412 88.8641 64.0129 88.8641 63.3734C88.8641 62.7061 89.017 62.1917 89.3229 61.8302C89.6287 61.4409 89.9346 61.2463 90.2404 61.2463C90.4351 61.2463 90.6436 61.3436 90.8661 61.5382C91.1163 61.7329 91.3805 61.9553 91.6585 62.2056C91.9922 62.4836 92.3675 62.7756 92.7846 63.0814C93.2295 63.3873 93.7439 63.5402 94.3278 63.5402C94.9673 63.5402 95.4678 63.3178 95.8293 62.8729C96.1908 62.428 96.3854 61.9275 96.4132 61.3714C96.4132 60.8153 96.2742 60.1897 95.9961 59.4946C95.7181 58.7716 95.3705 58.0765 94.9534 57.4092C94.5364 56.7418 94.1888 56.0745 93.9107 55.4072C93.6327 54.712 93.4937 54.1003 93.4937 53.572C93.4937 52.7657 93.7161 52.001 94.161 51.2781C94.6337 50.5552 95.2037 49.9017 95.871 49.3178C96.5661 48.7339 97.2474 48.2751 97.9147 47.9415C98.582 47.6078 99.1103 47.441 99.4996 47.441C100 47.441 100.473 47.5661 100.918 47.8163C101.39 48.0666 101.78 48.3446 102.085 48.6505C102.391 48.9564 102.544 49.2344 102.544 49.4847C102.544 49.7071 102.433 49.9713 102.211 50.2771C102.016 50.583 101.78 50.861 101.502 51.1113C101.224 51.3337 100.973 51.4449 100.751 51.4449C100.556 51.4449 100.362 51.3615 100.167 51.1947C100 51 99.8194 50.7915 99.6247 50.5691C99.4301 50.3466 99.1798 50.152 98.874 49.9852C98.5959 49.7905 98.2623 49.6932 97.873 49.6932C97.4559 49.6932 97.0944 49.86 96.7886 50.1937C96.5105 50.5274 96.3715 50.9444 96.3715 51.4449C96.3715 51.6674 96.4549 52.001 96.6217 52.4459C96.8164 52.8908 97.0388 53.3496 97.2891 53.8223C97.5393 54.295 97.7896 54.7399 98.0398 55.1569C98.5125 55.8799 98.9018 56.6445 99.2076 57.4509C99.5135 58.2294 99.6664 58.9524 99.6664 59.6197C99.6664 60.3704 99.4162 61.1073 98.9157 61.8302C98.443 62.5253 97.8174 63.1649 97.0388 63.7488C96.2603 64.3049 95.3983 64.7498 94.4529 65.0834C93.5354 65.4171 92.6178 65.5839 91.7002 65.5839ZM106.884 65.6256C106.216 65.6256 105.549 65.4171 104.882 65C104.242 64.5551 103.7 63.9712 103.255 63.2483C102.838 62.5253 102.643 61.7051 102.671 60.7875C102.699 59.6475 102.88 58.4658 103.213 57.2423C103.547 56.0189 104.02 54.8233 104.631 53.6554C105.243 52.4876 105.994 51.4449 106.884 50.5274C107.773 49.582 108.788 48.8312 109.928 48.2751C111.068 47.719 112.319 47.441 113.682 47.441C114.544 47.441 115.211 47.6217 115.684 47.9832C116.184 48.3168 116.435 48.72 116.435 49.1927C116.435 49.6654 116.282 50.152 115.976 50.6525C115.67 51.1252 115.35 51.3615 115.017 51.3615C114.794 51.3615 114.599 51.2642 114.433 51.0696C114.294 50.8749 114.127 50.5969 113.932 50.2354C113.738 49.8739 113.487 49.5542 113.181 49.2761C112.903 48.9703 112.556 48.8173 112.139 48.8173C111.499 48.8173 110.846 49.1788 110.178 49.9017C109.511 50.5969 108.886 51.5005 108.302 52.6128C107.745 53.725 107.287 54.9206 106.925 56.1996C106.592 57.4787 106.411 58.6743 106.383 59.7865C106.383 60.7319 106.592 61.427 107.009 61.8719C107.426 62.289 107.996 62.4975 108.719 62.4975C109.553 62.4975 110.262 62.3307 110.846 61.997C111.43 61.6356 111.972 61.1768 112.472 60.6207C112.639 60.4538 112.778 60.3287 112.889 60.2453C113.001 60.1619 113.126 60.1202 113.265 60.1202C113.515 60.1202 113.64 60.287 113.64 60.6207C113.64 61.0099 113.446 61.4826 113.056 62.0387C112.695 62.5948 112.18 63.1509 111.513 63.7071C110.874 64.2632 110.151 64.7219 109.344 65.0834C108.566 65.4449 107.745 65.6256 106.884 65.6256ZM117.687 65.5839C117.354 65.5839 117.006 65.4866 116.644 65.292C116.283 65.0973 115.991 64.861 115.769 64.5829C115.546 64.2771 115.435 63.9712 115.435 63.6653C115.435 62.72 115.727 61.6356 116.311 60.4121C116.923 59.1887 117.812 57.854 118.98 56.4082C120.176 54.9345 121.622 53.3774 123.318 51.7369C124.708 50.43 125.89 49.429 126.863 48.7339C127.864 48.011 128.601 47.6495 129.073 47.6495C129.63 47.6495 130.172 47.9137 130.7 48.442C131.006 48.8312 131.145 49.012 131.117 48.9842C131.117 48.9564 131.131 48.9425 131.159 48.9425C131.214 48.9425 131.256 48.9286 131.284 48.9007C131.34 48.8729 131.381 48.8034 131.409 48.6922C131.743 48.1361 131.951 47.7885 132.035 47.6495C132.118 47.4827 132.146 47.3993 132.118 47.3993C132.257 47.1212 132.48 46.9822 132.785 46.9822C133.091 46.9822 133.411 47.0517 133.745 47.1907C134.078 47.3019 134.356 47.4549 134.579 47.6495C134.801 47.8163 134.913 47.9971 134.913 48.1917C134.913 48.3307 134.829 48.6088 134.662 49.0259L130.2 61.0377C129.866 61.8997 130.033 62.3307 130.7 62.3307C131.145 62.3307 131.701 62.0943 132.368 61.6217C133.063 61.1212 133.703 60.5234 134.287 59.8282C134.343 59.7726 134.398 59.7309 134.454 59.7031C134.509 59.6753 134.565 59.6614 134.621 59.6614C134.732 59.6614 134.815 59.7031 134.871 59.7865C134.926 59.8699 134.954 59.9951 134.954 60.1619C134.954 60.4399 134.732 60.8848 134.287 61.4965C133.87 62.1083 133.383 62.6644 132.827 63.1649C131.965 63.9434 131.103 64.5412 130.241 64.9583C129.379 65.3754 128.629 65.5839 127.989 65.5839C127.655 65.5839 127.322 65.4866 126.988 65.292C126.654 65.0973 126.376 64.861 126.154 64.5829C125.931 64.3049 125.82 64.0129 125.82 63.7071C125.82 63.4568 125.904 63.137 126.07 62.7478C126.015 62.859 126.029 62.7895 126.112 62.5392C126.223 62.289 126.376 61.9414 126.571 61.4965C126.793 61.0238 127.016 60.5373 127.238 60.0368C127.461 59.5363 127.655 59.0914 127.822 58.7021C127.961 58.4519 128.003 58.2711 127.947 58.1599C127.92 58.0209 127.836 58.0348 127.697 58.2016C126.084 59.9811 124.68 61.427 123.485 62.5392C122.289 63.6236 121.232 64.4022 120.315 64.8749C119.397 65.3476 118.521 65.5839 117.687 65.5839ZM120.774 62.3307C121.33 62.3307 122.178 61.8441 123.318 60.8709C124.458 59.8977 125.723 58.5909 127.113 56.9504C128.114 55.7826 128.893 54.726 129.449 53.7806C130.033 52.8074 130.325 52.0845 130.325 51.6118C130.325 51.3893 130.116 51.0974 129.699 50.7359C129.477 50.5691 129.254 50.4439 129.032 50.3605C128.809 50.2493 128.629 50.1937 128.49 50.1937C127.989 50.1937 127.322 50.4439 126.488 50.9444C125.681 51.4449 124.93 52.0288 124.235 52.6962C123.429 53.4747 122.664 54.3784 121.941 55.4072C121.218 56.4082 120.635 57.4092 120.19 58.4102C119.745 59.3833 119.522 60.2036 119.522 60.8709C119.522 61.3158 119.634 61.6773 119.856 61.9553C120.078 62.2056 120.384 62.3307 120.774 62.3307ZM132.125 76.9285C132.014 76.9285 131.889 76.8868 131.75 76.8033C131.611 76.7477 131.541 76.6504 131.541 76.5114C131.569 76.2889 131.708 76.1082 131.958 75.9692C132.208 75.8302 132.445 75.7328 132.667 75.6772C133.362 75.5382 133.891 75.3575 134.252 75.135C134.586 74.9404 134.864 74.5511 135.086 73.9672L142.802 51.7786C142.913 51.4449 142.983 51.1808 143.011 50.9861C143.066 50.7637 143.039 50.6108 142.927 50.5274C142.844 50.4161 142.663 50.3883 142.385 50.4439C141.746 50.5552 141.189 50.6803 140.717 50.8193C140.272 50.9583 139.757 51.153 139.174 51.4032C138.951 51.5144 138.729 51.5422 138.506 51.4866C138.312 51.431 138.214 51.292 138.214 51.0696C138.214 50.8193 138.298 50.6247 138.465 50.4856C138.631 50.3188 138.812 50.1937 139.007 50.1103C139.452 49.8878 140.036 49.6098 140.758 49.2761C141.509 48.9147 142.427 48.5671 143.511 48.2334C143.706 48.1778 143.873 48.0805 144.012 47.9415C144.179 47.8024 144.304 47.58 144.387 47.2741C144.804 45.9395 145.249 44.9802 145.722 44.3963C146.194 43.7846 146.778 43.4787 147.473 43.4787C147.807 43.4787 148.057 43.576 148.224 43.7707C148.419 43.9653 148.461 44.2712 148.349 44.6882L147.724 46.8571C147.64 47.1351 147.626 47.3437 147.682 47.4827C147.738 47.6217 147.821 47.6773 147.932 47.6495C148.294 47.5661 148.627 47.5105 148.933 47.4827C149.239 47.4549 149.559 47.441 149.893 47.441C151.311 47.441 152.451 47.6773 153.313 48.15C154.175 48.5949 154.8 49.2344 155.189 50.0686C155.579 50.8749 155.773 51.7786 155.773 52.7796C155.773 54.1698 155.454 55.6157 154.814 57.1172C154.202 58.5909 153.354 59.9811 152.27 61.288C151.213 62.567 150.018 63.6097 148.683 64.4161C147.348 65.1946 145.958 65.5839 144.512 65.5839C144.179 65.5839 143.845 65.4866 143.511 65.292C143.178 65.1251 142.872 64.9583 142.594 64.7915C142.316 64.5968 142.093 64.5412 141.926 64.6246C141.759 64.6802 141.593 64.9722 141.426 65.5005L138.84 73.5501C138.645 74.1062 138.701 74.5372 139.007 74.8431C139.34 75.1767 139.897 75.3992 140.675 75.5104C140.925 75.5382 141.176 75.5938 141.426 75.6772C141.676 75.7884 141.801 75.9692 141.801 76.2194C141.801 76.3863 141.676 76.4975 141.426 76.5531C141.203 76.6365 140.953 76.6782 140.675 76.6782C140.258 76.6782 139.785 76.6643 139.257 76.6365C138.729 76.6365 138.228 76.6365 137.756 76.6365C137.283 76.6365 136.894 76.6504 136.588 76.6782C135.893 76.7338 135.17 76.7894 134.419 76.845C133.668 76.9007 132.903 76.9285 132.125 76.9285ZM145.013 64.1241C145.624 64.1241 146.32 63.7905 147.098 63.1231C147.877 62.4558 148.627 61.58 149.35 60.4955C150.073 59.4111 150.671 58.2433 151.144 56.9921C151.644 55.713 151.894 54.4757 151.894 53.2801C151.894 51.7508 151.603 50.6942 151.019 50.1103C150.435 49.5264 149.642 49.2205 148.641 49.1927C148.419 49.1927 148.196 49.1927 147.974 49.1927C147.752 49.1927 147.501 49.2205 147.223 49.2761L143.47 60.5373C143.33 60.9821 143.247 61.427 143.219 61.8719C143.219 62.289 143.289 62.6505 143.428 62.9563C143.567 63.3178 143.748 63.6097 143.97 63.8322C144.22 64.0268 144.568 64.1241 145.013 64.1241ZM161.137 65.6256C160.498 65.6256 159.831 65.4032 159.135 64.9583C158.468 64.5134 157.898 63.9295 157.425 63.2066C156.98 62.4836 156.758 61.7607 156.758 61.0377C156.758 59.5085 157.05 57.9514 157.634 56.3665C158.246 54.7816 159.066 53.3218 160.095 51.9871C161.123 50.6247 162.291 49.5264 163.598 48.6922C164.933 47.858 166.323 47.441 167.769 47.441C168.965 47.441 169.868 47.6912 170.48 48.1917C171.092 48.6644 171.398 49.2761 171.398 50.0269C171.398 50.9166 171.106 51.6952 170.522 52.3625C169.966 53.002 169.215 53.5581 168.269 54.0308C167.324 54.5035 166.281 54.8928 165.141 55.1986C164.029 55.5045 162.903 55.7687 161.763 55.9911C161.624 56.0189 161.513 56.0606 161.429 56.1162C161.346 56.144 161.276 56.2274 161.221 56.3665C161.082 56.8392 160.943 57.3536 160.804 57.9097C160.665 58.4658 160.581 58.9802 160.553 59.4528C160.553 60.426 160.762 61.2185 161.179 61.8302C161.624 62.4141 162.277 62.7061 163.139 62.7061C164.057 62.7061 164.849 62.4836 165.517 62.0387C166.184 61.566 166.782 61.0517 167.31 60.4955C167.588 60.1897 167.825 60.0368 168.019 60.0368C168.297 60.0368 168.436 60.1758 168.436 60.4538C168.436 60.5094 168.436 60.579 168.436 60.6624C168.436 60.7458 168.408 60.8153 168.353 60.8709C167.797 61.8163 167.157 62.6505 166.434 63.3734C165.711 64.0685 164.905 64.6107 164.015 65C163.153 65.4171 162.194 65.6256 161.137 65.6256ZM162.055 54.8233C162.472 54.7677 163.028 54.6425 163.723 54.4479C164.418 54.2533 165.114 53.9613 165.809 53.572C166.532 53.1828 167.143 52.6962 167.644 52.1123C168.144 51.5283 168.395 50.8193 168.395 49.9852C168.395 49.6515 168.297 49.3456 168.103 49.0676C167.908 48.7895 167.63 48.6505 167.268 48.6505C166.712 48.6505 166.128 48.8729 165.517 49.3178C164.905 49.7627 164.321 50.3049 163.765 50.9444C163.209 51.584 162.75 52.2374 162.389 52.9047C162.027 53.572 161.819 54.1281 161.763 54.573C161.763 54.7677 161.86 54.8511 162.055 54.8233Z" fill="white"/>
</svg>
