<svg width="522" height="51" viewBox="0 0 522 51" fill="none" xmlns="http://www.w3.org/2000/svg">
<path d="M1.144 40.192C0.952 40.72 1.096 41.152 1.048 41.632C0.904 42.976 1.048 44.176 1.48 45.328C1.72 46 2.248 46.432 2.632 46.96C3.16 47.776 3.976 48.16 4.888 48.4C5.944 48.688 7.144 48.544 8.296 48.16C8.488 48.112 8.68 48.016 8.872 47.968C9.976 47.824 11.032 47.536 11.992 46.864C12.088 46.816 12.184 46.768 12.28 46.72C13.912 46.144 15.304 45.088 16.792 44.176C17.608 43.648 18.376 43.12 19.096 42.496C19.96 41.632 21.064 41.104 21.928 40.288C22.36 39.856 22.936 39.616 23.368 39.184C24.136 38.416 25 37.84 25.72 37.024C26.824 35.92 28.12 34.96 28.984 33.664C29.128 33.472 29.32 33.328 29.512 33.184C29.8 32.992 30.04 32.752 30.28 32.512C30.856 31.984 31.192 31.36 31.672 30.784C32.488 29.872 33.448 29.056 34.12 28.048C34.744 27.184 35.464 26.368 36.088 25.504C37 24.304 37.768 23.104 38.584 21.856C39.064 21.088 39.448 20.272 39.832 19.504C40.024 19.12 40.12 18.736 40.36 18.4C40.648 18.064 40.792 17.632 40.936 17.248C41.08 16.912 41.224 16.576 41.368 16.288C41.752 15.376 42.28 14.464 42.232 13.552C42.232 13.36 42.28 13.12 42.376 12.928C42.808 11.92 42.76 10.96 42.76 10.048C42.76 8.992 42.76 7.888 42.088 7.072C42.04 7.024 42.04 6.976 42.04 6.928C41.944 5.776 41.32 5.056 40.6 4.384C39.688 3.568 38.584 3.04 37.528 2.368C36.568 1.792 35.512 1.408 34.36 1.168C33.448 0.975999 32.44 1.168 31.48 1.264C31.432 1.264 31.384 1.264 31.336 1.312C30.856 1.6 30.376 1.744 29.896 1.936C29.176 2.224 28.792 2.704 28.648 3.376C28.6 3.616 28.6 3.856 28.36 4.048C27.784 4.528 27.208 5.056 26.536 5.44C25.384 6.016 24.52 6.976 23.512 7.744C23.416 7.792 23.32 7.936 23.224 8.032C23.128 8.128 23.032 8.272 22.888 8.368C21.976 8.848 21.304 9.712 20.488 10.336C19.864 10.768 19.24 11.248 18.856 11.92C18.616 12.304 18.328 12.592 18.04 12.88C17.608 13.312 17.176 13.696 16.744 14.08C16.072 14.752 15.4 15.424 14.824 16.144C14.392 16.72 13.96 17.296 13.432 17.824C12.376 18.88 11.512 20.032 10.648 21.184C9.688 22.48 8.824 23.872 7.864 25.168C7.336 25.888 6.76 26.608 6.472 27.424C6.424 27.616 6.232 27.808 6.088 28C5.8 28.384 5.56 28.72 5.368 29.152C4.744 30.448 3.784 31.648 3.448 33.04C3.448 33.04 3.4 33.136 3.352 33.136C2.488 34.288 2.44 35.584 1.864 36.736C1.768 36.88 1.768 37.072 1.768 37.264C1.672 38.224 1.384 39.232 1.144 40.192ZM39.448 14.272C39.256 15.424 38.584 16.672 38.056 17.92C37.96 18.16 37.816 18.304 37.672 18.544C37.096 19.408 36.52 20.272 36.088 21.184C35.944 21.568 35.656 21.904 35.416 22.24C34.696 23.296 34.024 24.4 33.208 25.408C32.92 25.792 32.488 26.08 32.2 26.512C31.336 27.808 30.136 28.912 29.176 30.16C28.936 30.496 28.648 30.832 28.264 31.072C27.928 31.312 27.64 31.648 27.4 31.984C27.16 32.272 26.872 32.512 26.584 32.752C26.392 32.944 26.2 33.136 26.008 33.328C25.336 34.096 24.664 34.912 23.752 35.488C23.128 35.92 22.552 36.448 22.072 37.024C21.928 37.216 21.784 37.408 21.64 37.504C20.776 38.128 20.008 38.896 19.096 39.424C18.664 39.664 18.376 40.096 17.992 40.336C16.936 41.056 15.88 41.776 14.824 42.496C13.384 43.552 11.8 44.128 10.264 44.848C9.4 45.28 8.584 45.376 7.72 45.568C7.096 45.712 6.472 45.616 5.896 45.472C4.936 45.28 4.504 44.608 4.072 43.936C3.976 43.696 3.88 43.456 3.832 43.216C3.784 41.968 3.736 40.768 3.832 39.52C3.88 38.992 4.168 38.512 4.216 38.032C4.36 37.12 4.648 36.16 5.032 35.296C5.272 34.72 5.56 34.192 5.8 33.664C6.04 33.088 6.232 32.512 6.52 31.984C7.048 31.072 7.432 30.16 8.056 29.296C8.728 28.48 9.16 27.52 9.784 26.608C10.168 26.08 10.6 25.552 10.792 24.976C11.992 23.776 12.664 22.192 13.912 20.992C14.296 20.128 15.256 19.648 15.688 18.832C16.408 18.352 16.648 17.488 17.224 16.96C18.28 15.952 19.144 14.752 20.296 13.84C20.392 13.792 20.488 13.696 20.536 13.648C21.4 12.448 22.744 11.728 23.752 10.672C24.568 9.904 25.432 9.328 26.296 8.656C26.92 8.128 27.544 7.6 28.264 7.216C29.176 6.688 29.992 6.064 30.904 5.584C31.72 5.104 32.536 4.816 33.4 4.72C33.736 4.672 33.88 4.768 34.024 4.96C34.312 5.488 34.84 5.632 35.512 5.344C35.992 5.152 36.328 5.2 36.616 5.44C37 5.776 37.384 6.064 37.864 6.208C38.008 6.208 38.104 6.352 38.2 6.496C38.248 6.544 38.248 6.64 38.344 6.688C38.92 7.024 39.208 7.552 39.4 8.176C39.784 9.328 40.216 10.336 39.928 11.68C39.784 12.496 39.736 13.264 39.448 14.272ZM45.085 23.392C45.037 23.344 44.989 23.344 44.941 23.296C45.469 22.624 45.901 21.904 46.573 21.28C46.909 20.992 47.197 20.704 47.389 20.32C47.821 19.6 47.677 18.736 47.101 18.448C46.477 18.208 45.373 18.64 44.941 19.312C44.605 19.888 44.125 20.368 43.837 20.992C43.741 21.232 43.549 21.424 43.357 21.616C43.021 21.808 42.829 22.096 42.589 22.432C42.301 22.912 42.013 23.44 41.629 23.824C40.957 24.448 40.621 25.168 39.949 25.744C39.805 25.888 39.709 26.08 39.613 26.272C39.469 26.512 39.325 26.752 39.085 26.944C38.557 27.52 38.365 28.24 37.693 28.768C37.693 28.768 37.645 28.816 37.645 28.864C37.501 29.248 37.261 29.536 36.973 29.824C36.157 30.832 36.061 31.552 36.541 32.32C36.877 32.848 37.405 32.944 38.077 32.56C38.653 32.224 39.325 31.888 39.709 31.216C39.757 31.12 39.853 30.976 39.949 30.928C40.765 30.496 41.293 29.728 41.965 29.152C42.925 28.336 43.789 27.52 44.701 26.704C45.613 25.888 46.621 25.216 47.485 24.304C48.109 23.68 48.733 23.104 49.549 22.72C49.645 22.672 49.741 22.576 49.837 22.528C50.413 22 51.133 21.616 51.709 21.088C51.757 21.04 51.853 21.04 51.901 21.136C51.757 21.376 51.565 21.616 51.325 21.856C50.605 22.624 50.077 23.44 49.453 24.256C48.685 25.312 48.061 26.416 47.341 27.472C46.861 28.192 46.669 29.008 46.141 29.68C46.045 29.776 46.045 29.92 46.045 30.064C45.853 30.928 45.997 31.696 46.333 32.368C46.765 33.184 47.533 33.232 48.493 32.704C48.685 32.608 48.829 32.56 49.021 32.512C49.693 32.224 50.413 31.84 50.941 31.264C51.517 30.688 52.141 30.256 52.765 29.728C52.957 29.584 53.149 29.44 53.293 29.296C54.109 28.384 55.117 27.712 55.981 26.896C56.893 26.032 57.853 25.216 58.813 24.4C59.341 23.968 59.773 23.392 59.917 22.768C60.061 22.24 59.917 21.856 59.485 21.616C59.053 21.424 58.621 21.52 58.141 21.904C57.661 22.24 57.229 22.624 56.797 23.008C56.269 23.44 55.885 24.016 55.309 24.352C54.781 24.688 54.349 25.12 53.917 25.552C53.581 25.888 53.245 26.224 52.861 26.512C52.141 27.136 51.469 27.808 50.701 28.384C50.173 28.816 49.693 29.248 49.069 29.584C49.069 29.344 49.165 29.152 49.261 28.96C49.741 28.24 50.173 27.472 50.653 26.704C51.181 25.936 51.949 25.216 52.237 24.304C52.285 24.256 52.381 24.16 52.429 24.064C53.245 23.008 54.349 22.144 54.973 20.944C55.069 20.848 55.165 20.8 55.261 20.656C55.741 20.08 56.221 19.456 56.509 18.784C57.037 17.68 56.845 17.008 56.029 16.672C55.645 16.48 55.213 16.528 54.781 16.72C53.485 17.2 52.285 18.016 51.037 18.688C50.365 19.072 49.837 19.648 49.213 20.128C48.637 20.512 48.061 20.896 47.581 21.328C47.245 21.616 46.957 21.904 46.621 22.048C46.237 22.192 45.997 22.432 45.709 22.72C45.517 22.96 45.277 23.152 45.085 23.392ZM56.3778 28.816C56.7617 27.76 57.1938 26.8 57.9618 25.888C58.7298 24.976 59.4978 24.016 60.4098 23.2C61.0338 22.576 61.7058 22 62.4258 21.52C63.2418 20.992 64.0098 20.32 64.9218 20.128C65.3538 20.08 65.6898 20.08 65.9297 20.368C66.1218 20.704 65.9778 21.088 65.6898 21.376C65.1138 22 65.0178 22.624 65.1138 23.248C65.1618 23.68 65.3058 24.016 65.7378 24.112C66.1698 24.256 66.6018 24.016 66.9858 23.632C68.1858 22.576 68.5698 21.328 68.8578 20.032C68.9538 19.648 68.8098 19.312 68.6178 19.024C68.3298 18.64 67.9938 18.256 67.5618 17.92C67.0818 17.488 66.5058 17.392 65.8338 17.44C64.8738 17.488 63.9138 17.872 63.0018 18.304C62.3298 18.64 61.7058 19.12 61.0818 19.552C60.6018 19.936 60.0258 20.176 59.6418 20.656C58.7778 21.616 57.8178 22.48 56.9058 23.344C56.4258 23.824 55.9458 24.352 55.6578 24.928C55.3218 25.6 54.8898 26.224 54.5058 26.896C54.1218 27.664 53.7378 28.48 53.5938 29.296C53.3537 30.448 53.2097 31.6 53.7378 32.608C53.9778 33.088 54.2178 33.568 54.6978 33.808C55.4658 34.288 56.2818 34.624 57.3858 34.384C57.8658 34.24 58.3458 34.048 58.7778 34C60.0258 33.904 61.1298 33.136 62.2338 32.464C63.2418 31.888 64.2978 31.216 65.3058 30.592C66.0738 30.16 66.7938 29.728 67.4178 29.104C67.8498 28.624 68.4258 28.336 68.9538 28.048C69.2418 27.904 69.4818 27.712 69.7698 27.568C70.6818 26.992 71.4498 26.224 72.3138 25.648C72.6978 25.36 73.0818 25.072 73.4658 24.784C73.8498 24.496 74.0898 24.112 74.2338 23.728C74.4738 23.104 74.3778 22.528 73.9938 22.288C73.5618 22.096 72.8418 22.192 72.3618 22.672C71.9298 23.056 71.4978 23.344 71.0178 23.632C70.7298 23.824 70.4418 24.064 70.2018 24.304C69.6738 24.88 69.0018 25.264 68.3298 25.6C67.9938 25.744 67.7538 25.936 67.4658 26.176C67.2738 26.368 67.0338 26.656 66.7938 26.8C65.8818 27.28 65.0658 28 64.2018 28.48C63.1458 29.104 62.0898 29.776 61.0338 30.496C59.9297 31.168 58.8258 31.648 57.6258 31.792C57.0498 31.84 56.6658 31.648 56.3778 31.216C55.8978 30.496 56.2338 29.632 56.3778 28.816ZM81.9033 17.488C81.2313 17.536 80.7032 17.584 80.1753 17.68C79.4073 17.824 78.6873 17.968 77.9673 18.496C77.9193 18.544 77.8233 18.544 77.7753 18.544C77.3913 18.64 77.1033 18.832 76.7673 19.024C76.0473 19.456 75.2793 19.936 74.6553 20.56C74.5113 20.752 74.3672 20.848 74.1753 20.944C73.4073 21.328 72.7833 21.952 72.2553 22.576C71.6793 23.2 71.1033 23.872 70.5753 24.544C69.4233 26.032 68.7033 27.664 68.2233 29.344C68.1753 29.488 68.1753 29.632 68.1753 29.776C68.2233 30.352 68.2713 30.928 68.3193 31.504C68.3193 31.696 68.3193 31.888 68.3673 32.032C68.7513 33.52 70.0473 33.856 71.3913 34.144C71.5353 34.192 71.6793 34.144 71.8233 34.096C72.0633 34.096 72.2553 34.048 72.4953 34.048C73.4073 33.904 74.3193 34 75.2313 33.424C75.3753 33.328 75.5673 33.328 75.7113 33.328C75.9513 33.28 76.1433 33.232 76.3833 33.088C77.2473 32.464 78.3033 32.464 79.1193 31.648C79.2153 31.504 79.3593 31.504 79.5033 31.456C80.6553 30.976 81.7593 30.352 82.7673 29.584C83.3913 29.152 83.9673 28.768 84.5913 28.48C84.8793 28.336 85.1673 28.192 85.4553 28.048C86.7033 27.184 87.9513 26.32 89.1513 25.408C89.7273 24.976 90.2073 24.496 90.7353 23.968C91.2633 23.392 91.3113 22.816 91.0713 22.24C90.8313 21.664 90.2073 21.568 89.5353 21.952C89.2953 22.144 88.9593 22.336 88.7673 22.576C88.3353 23.152 87.7113 23.584 87.0873 23.968C86.4153 24.496 85.7433 25.024 84.9753 25.408C84.5913 25.6 84.1593 25.888 83.8233 26.224C83.5353 26.464 83.1993 26.704 82.9113 26.848C82.0953 27.136 81.3753 27.712 80.6553 28.144C79.7913 28.624 79.0713 29.296 78.1593 29.584C77.3433 29.872 76.6233 30.304 75.9033 30.688C75.7113 30.784 75.5193 30.928 75.3273 30.976C74.1753 31.312 72.9753 31.504 71.8713 31.408C71.4873 31.36 71.2473 31.216 71.1033 30.928C70.7193 29.872 70.9113 28.816 71.4873 27.664C71.5833 27.472 71.7273 27.424 71.8713 27.472C72.0153 27.52 72.1593 27.616 72.3033 27.616C72.9753 27.76 73.5993 28.048 74.3672 27.904C74.7993 27.856 75.2313 27.808 75.6633 27.76C76.2873 27.712 76.9113 27.664 77.5353 27.184C77.6313 27.136 77.7753 27.088 77.8713 27.04C78.7833 26.8 79.6473 26.368 80.4633 25.792C80.8953 25.456 81.3273 25.168 81.7593 24.88C82.2873 24.496 82.7673 23.968 83.2953 23.488C83.3433 23.488 83.3433 23.44 83.3913 23.392C83.5353 23.008 83.8713 22.768 84.1113 22.432C85.0233 21.376 85.1673 20.224 84.7833 19.312C84.3033 18.16 83.3913 17.296 81.9033 17.488ZM80.8473 20.128C80.9913 20.128 81.1353 20.128 81.3273 20.128C82.0953 20.176 82.3353 20.704 81.8073 21.376C81.5193 21.856 81.1833 22.336 80.7032 22.72C79.5033 23.824 78.1113 24.592 76.5753 25.024C75.7593 25.264 75.0872 25.264 74.3672 25.168C74.1753 25.12 73.9353 25.072 73.7913 25.024C73.5033 24.88 73.4553 24.736 73.7433 24.496C74.6073 23.68 75.3273 22.72 76.3833 22.144C76.6713 22 76.9113 21.808 77.1513 21.616C77.5833 21.232 78.0153 20.896 78.5433 20.8C78.6393 20.752 78.7353 20.752 78.7833 20.704C79.4553 20.224 80.1273 20.08 80.8473 20.128ZM103.899 29.44C103.995 29.632 103.899 29.776 103.851 29.872C103.467 30.736 103.419 31.552 103.515 32.368C103.563 32.512 103.611 32.656 103.707 32.752C104.331 33.328 105.195 33.664 106.155 33.472C107.019 33.328 107.883 32.896 108.603 32.368C109.851 31.456 111.051 30.544 112.155 29.536C113.883 27.952 115.659 26.464 117.387 24.928C118.059 24.352 118.779 23.776 118.923 22.864C119.019 22.288 118.971 21.904 118.491 21.664C118.059 21.424 117.531 21.472 117.003 21.856C116.667 22.096 116.331 22.336 116.091 22.624C115.851 23.008 115.467 23.296 115.131 23.584C113.979 24.592 112.779 25.552 111.723 26.704C111.387 27.088 111.003 27.424 110.571 27.664C110.235 27.808 109.947 28.048 109.707 28.336C109.515 28.576 109.275 28.768 109.035 28.912C108.699 29.104 108.411 29.344 108.171 29.632C107.739 30.016 107.259 30.304 106.635 30.64C106.827 29.92 106.971 29.296 107.307 28.72C108.315 26.992 109.419 25.36 110.763 23.872C111.723 22.768 112.539 21.568 113.595 20.512C114.027 20.08 114.459 19.6 114.891 19.12C115.371 18.64 115.563 17.824 115.323 17.344C115.083 16.912 114.555 16.816 113.835 17.104C113.643 17.152 113.451 17.248 113.259 17.392C112.971 17.584 112.731 17.776 112.443 18.016C111.291 19.216 109.851 20.08 108.651 21.184C107.211 22.576 105.579 23.776 104.187 25.168C103.899 25.456 103.611 25.792 103.323 26.032C102.123 26.8 101.115 27.856 99.9629 28.72C99.3389 29.152 98.7629 29.68 98.0429 30.064C98.0909 29.536 98.1869 29.152 98.4749 28.768C99.3389 27.568 100.203 26.368 101.067 25.216C101.547 24.592 101.979 23.92 102.507 23.392C103.419 22.576 103.899 21.424 104.955 20.704C105.003 20.656 105.051 20.56 105.099 20.512C105.243 20.128 105.579 19.888 105.963 19.648C106.683 19.12 107.259 18.256 106.875 17.488C106.443 16.672 105.147 16.672 104.331 17.488C103.323 18.4 102.651 19.552 101.691 20.416C101.643 20.464 101.595 20.512 101.595 20.56C101.307 21.184 100.827 21.616 100.395 22.096C99.8189 22.672 99.4829 23.344 99.0029 23.92C98.0429 25.216 96.9389 26.464 96.1709 27.904C96.0749 28.096 95.9309 28.288 95.7869 28.48C94.9709 29.584 94.3469 30.736 94.2029 31.984C94.0589 33.376 94.8749 34 96.2189 33.76C96.7949 33.664 97.4189 33.52 98.0429 33.376C98.8589 33.184 99.6749 32.944 100.347 32.224C100.395 32.128 100.491 32.128 100.539 32.08C101.307 31.744 101.883 31.12 102.507 30.544C102.939 30.16 103.371 29.776 103.899 29.44ZM121.056 21.28C121.296 20.752 121.68 20.272 121.824 19.696C121.968 19.312 121.92 18.976 121.68 18.736C121.296 18.304 120.528 18.4 119.904 18.832C119.52 19.168 119.232 19.504 118.896 19.888C118.032 20.992 117.456 22.24 116.448 23.248C116.448 23.296 116.448 23.296 116.448 23.296C116.016 23.824 115.776 24.4 115.44 24.928C115.056 25.504 114.528 25.984 114.096 26.56C113.136 27.904 112.272 29.344 111.264 30.688C110.304 32.08 109.44 33.472 108.432 34.816C107.952 35.392 107.616 36.064 107.232 36.64C106.704 37.552 106.272 38.56 105.504 39.328C105.408 39.424 105.36 39.52 105.312 39.568C105.024 40.336 104.448 40.96 104.016 41.584C103.248 42.736 102.624 43.888 101.808 44.992C101.184 45.808 100.848 46.72 100.272 47.536C99.7442 48.208 99.4562 48.976 99.1202 49.696C98.8322 50.416 99.2162 50.992 99.9362 50.944C100.512 50.944 100.992 50.656 101.376 50.128C102 49.312 102.48 48.448 103.008 47.584C103.776 46.288 104.64 45.04 105.456 43.792C106.416 42.352 107.28 40.816 108.384 39.424C109.008 38.656 109.488 37.888 109.92 37.072C110.208 36.448 110.64 35.872 111.072 35.296C111.552 34.528 112.176 33.808 112.56 32.992C112.8 32.512 113.04 31.936 113.664 31.648C113.808 31.696 113.808 31.792 113.856 31.888C114.336 32.896 115.008 33.808 115.872 34.48C116.16 34.672 116.448 34.864 116.832 34.912C117.888 35.056 118.944 35.008 120 34.192C120.192 34.048 120.384 33.952 120.576 33.856C120.816 33.76 121.056 33.616 121.296 33.376C122.256 32.512 123.312 31.648 124.224 30.688C124.944 30.016 125.712 29.536 126.576 29.104C126.768 29.008 127.008 28.912 127.152 28.768C127.488 28.48 127.872 28.336 128.208 28.096C128.928 27.616 129.744 27.28 130.368 26.752C131.328 26.032 132.528 25.6 133.344 24.64C134.112 24.304 134.496 23.536 134.976 22.96C135.504 22.24 135.168 21.52 134.4 21.52C133.728 21.52 133.152 21.76 132.576 22.24C131.424 23.248 130.176 24.16 128.736 24.928C128.832 24.544 128.928 24.256 129.12 23.968C129.6 23.152 129.696 22.336 130.08 21.52C130.128 21.376 130.08 21.184 130.128 21.04C130.272 20.416 129.936 19.984 129.936 19.456C129.888 19.072 129.696 18.88 129.456 18.688C128.736 18.16 127.824 18.16 126.912 18.4C125.376 18.736 123.888 19.312 122.592 20.416C122.112 20.8 121.584 21.04 121.056 21.28ZM127.344 21.76C127.104 22.816 126.528 23.824 125.904 24.784C125.472 25.408 125.088 25.984 124.704 26.56C123.552 28.144 122.112 28.912 120.384 29.2C119.376 29.344 118.368 29.44 117.36 29.488C116.832 29.488 116.496 29.152 116.016 28.96C115.872 28.912 115.92 28.672 116.064 28.528C116.304 28.288 116.592 28.048 116.832 27.808C118.416 26.56 120 25.264 121.536 23.92C121.968 23.536 122.496 23.2 123.024 22.912C124.032 22.288 125.04 21.712 126 21.136C126.432 20.896 126.816 20.944 127.152 20.992C127.536 21.088 127.392 21.424 127.344 21.76ZM142.085 26.224C142.181 26.08 142.229 25.984 142.277 25.888C142.709 25.312 143.045 24.688 143.573 24.112C144.053 23.584 144.197 22.96 144.485 22.384C144.965 21.472 144.965 20.704 144.965 19.888C145.013 19.12 144.821 18.544 144.245 18.16C144.149 18.112 144.101 17.92 144.005 17.824C143.621 17.152 142.997 16.912 142.133 17.056C141.605 17.104 141.077 17.2 140.549 17.296C139.733 17.44 138.917 17.728 138.197 18.256C137.573 18.688 136.949 19.12 136.277 19.504C135.797 19.792 135.269 20.032 134.933 20.464C134.501 21.04 133.973 21.472 133.445 21.904C133.301 22.048 133.109 22.192 132.965 22.336C132.437 22.96 131.909 23.584 131.429 24.208C130.997 24.736 130.517 25.264 130.325 25.936C130.229 26.128 130.133 26.272 129.941 26.416C129.749 26.656 129.605 26.896 129.461 27.136C128.981 28.144 128.501 29.104 128.357 30.208C128.309 30.784 128.453 31.312 128.357 31.888C128.213 32.752 128.645 33.328 129.173 33.664C130.325 34.432 131.813 34.384 133.301 33.664C134.261 33.232 135.125 32.56 135.989 32.032C136.565 31.648 137.141 31.312 137.621 30.832C138.053 30.4 138.581 30.064 139.013 29.68C139.205 29.488 139.445 29.44 139.637 29.392C140.933 29.296 142.229 28.864 143.477 28.288C144.725 27.664 146.021 27.136 147.269 26.464C147.893 26.08 148.469 25.648 149.093 25.36C149.957 25.024 150.629 24.352 151.301 23.68C151.973 23.056 152.069 21.952 151.493 21.52C150.965 21.088 150.101 21.376 149.477 22.192C149.285 22.432 149.045 22.672 148.757 22.816C147.989 23.2 147.269 23.68 146.549 24.16C145.973 24.496 145.397 24.832 144.773 25.072C144.197 25.264 143.573 25.504 143.045 25.888C142.757 26.032 142.469 26.224 142.085 26.224ZM137.957 21.424C136.949 22.336 136.661 23.488 136.277 24.496C135.893 25.408 135.749 26.368 136.085 27.232C136.133 27.472 136.181 27.76 136.325 28C136.661 28.48 136.517 28.624 136.085 29.008C135.221 29.824 134.357 30.64 133.205 30.976C132.821 31.12 132.389 31.36 131.957 31.456C131.141 31.6 130.901 31.36 131.045 30.64C131.189 30.016 131.333 29.392 131.477 28.768C131.525 28.432 131.669 28.048 131.957 27.712C132.245 27.376 132.245 26.944 132.533 26.608C133.205 25.696 133.877 24.784 134.645 23.968C135.461 23.152 136.373 22.288 137.333 21.616C137.477 21.472 137.621 21.376 137.957 21.424ZM138.869 26.224C138.581 25.792 138.725 25.216 138.869 24.64C139.301 23.296 140.309 22.192 141.365 21.136C141.509 21.04 141.653 20.944 141.749 20.848C141.941 20.752 142.085 20.608 142.229 20.704C142.373 20.8 142.277 20.944 142.229 21.088C142.085 22.096 141.509 23.008 140.885 23.92C140.357 24.64 139.877 25.408 139.157 26.08C139.109 26.128 139.013 26.224 138.869 26.224ZM152.194 23.392C152.146 23.344 152.098 23.344 152.05 23.296C152.578 22.624 153.01 21.904 153.682 21.28C154.018 20.992 154.306 20.704 154.498 20.32C154.93 19.6 154.786 18.736 154.21 18.448C153.586 18.208 152.482 18.64 152.05 19.312C151.714 19.888 151.234 20.368 150.946 20.992C150.85 21.232 150.658 21.424 150.466 21.616C150.13 21.808 149.938 22.096 149.698 22.432C149.41 22.912 149.122 23.44 148.738 23.824C148.066 24.448 147.73 25.168 147.058 25.744C146.914 25.888 146.818 26.08 146.722 26.272C146.578 26.512 146.434 26.752 146.194 26.944C145.666 27.52 145.474 28.24 144.802 28.768C144.802 28.768 144.754 28.816 144.754 28.864C144.61 29.248 144.37 29.536 144.082 29.824C143.266 30.832 143.17 31.552 143.65 32.32C143.986 32.848 144.514 32.944 145.186 32.56C145.762 32.224 146.434 31.888 146.818 31.216C146.866 31.12 146.962 30.976 147.058 30.928C147.874 30.496 148.402 29.728 149.074 29.152C150.034 28.336 150.898 27.52 151.81 26.704C152.722 25.888 153.73 25.216 154.594 24.304C155.218 23.68 155.842 23.104 156.658 22.72C156.754 22.672 156.85 22.576 156.946 22.528C157.522 22 158.242 21.616 158.818 21.088C158.866 21.04 158.962 21.04 159.01 21.136C158.866 21.376 158.674 21.616 158.434 21.856C157.714 22.624 157.186 23.44 156.562 24.256C155.794 25.312 155.17 26.416 154.45 27.472C153.97 28.192 153.778 29.008 153.25 29.68C153.154 29.776 153.154 29.92 153.154 30.064C152.962 30.928 153.106 31.696 153.442 32.368C153.874 33.184 154.642 33.232 155.602 32.704C155.794 32.608 155.938 32.56 156.13 32.512C156.802 32.224 157.522 31.84 158.05 31.264C158.626 30.688 159.25 30.256 159.874 29.728C160.066 29.584 160.258 29.44 160.402 29.296C161.218 28.384 162.226 27.712 163.09 26.896C164.002 26.032 164.962 25.216 165.922 24.4C166.45 23.968 166.882 23.392 167.026 22.768C167.17 22.24 167.026 21.856 166.594 21.616C166.162 21.424 165.73 21.52 165.25 21.904C164.77 22.24 164.338 22.624 163.906 23.008C163.378 23.44 162.994 24.016 162.418 24.352C161.89 24.688 161.458 25.12 161.026 25.552C160.69 25.888 160.354 26.224 159.97 26.512C159.25 27.136 158.578 27.808 157.81 28.384C157.282 28.816 156.802 29.248 156.178 29.584C156.178 29.344 156.274 29.152 156.37 28.96C156.85 28.24 157.282 27.472 157.762 26.704C158.29 25.936 159.058 25.216 159.346 24.304C159.394 24.256 159.49 24.16 159.538 24.064C160.354 23.008 161.458 22.144 162.082 20.944C162.178 20.848 162.274 20.8 162.37 20.656C162.85 20.08 163.33 19.456 163.618 18.784C164.146 17.68 163.954 17.008 163.138 16.672C162.754 16.48 162.322 16.528 161.89 16.72C160.594 17.2 159.394 18.016 158.146 18.688C157.474 19.072 156.946 19.648 156.322 20.128C155.746 20.512 155.17 20.896 154.69 21.328C154.354 21.616 154.066 21.904 153.73 22.048C153.346 22.192 153.106 22.432 152.818 22.72C152.626 22.96 152.386 23.152 152.194 23.392ZM186.265 20.896C186.121 20.56 186.121 20.176 186.121 19.84C186.121 19.312 185.929 18.976 185.545 18.688C184.729 18.016 183.625 17.968 182.521 18.016C182.329 18.016 182.137 18.112 181.945 18.16C180.985 18.544 180.025 18.928 179.209 19.696C178.969 19.936 178.681 20.128 178.393 20.32C177.577 20.848 176.905 21.616 176.233 22.336C175.753 22.816 175.225 23.344 174.745 23.872C173.593 25.024 172.537 26.224 171.577 27.52C170.617 28.72 169.945 30.064 169.129 31.312C168.745 31.84 168.601 32.416 168.505 32.992C168.409 33.28 168.457 33.568 168.601 33.76C169.129 34.672 169.993 34.912 171.193 34.576C172.105 34.336 172.969 33.856 173.689 33.328C174.985 32.368 176.281 31.456 177.577 30.496C178.921 29.536 180.169 28.432 181.513 27.52C181.705 27.376 181.849 27.136 182.185 27.088C182.137 27.424 181.945 27.712 181.705 28C181.513 28.288 181.321 28.528 181.225 28.816C181.129 29.344 180.841 29.824 180.553 30.352C179.881 31.696 179.833 32.896 180.649 33.904C181.321 34.72 182.281 34.816 183.529 34.192C185.113 33.376 186.553 32.224 187.849 30.976C189.433 29.44 191.161 28.048 192.745 26.512C193.561 25.744 194.425 25.024 195.289 24.304C195.817 23.824 196.153 23.296 196.441 22.72C196.921 21.952 196.393 21.232 195.529 21.472C195.001 21.568 194.473 21.808 194.041 22.24C193.657 22.624 193.273 23.104 192.841 23.44C191.881 24.16 191.113 25.12 190.057 25.84C189.865 25.936 189.721 26.128 189.577 26.32C189.097 26.848 188.569 27.28 187.993 27.712C187.465 28.144 186.937 28.576 186.457 29.056C185.497 30.064 184.441 30.832 183.337 31.552C183.193 31.648 183.049 31.744 182.953 31.648C182.809 31.6 182.905 31.408 182.953 31.264C183.241 30.4 183.433 29.536 184.057 28.672C184.729 27.712 185.353 26.752 186.121 25.792C186.457 25.312 186.985 24.928 187.321 24.448C187.849 23.536 188.665 22.816 189.385 22.048C189.961 21.424 190.489 20.752 190.921 20.08C191.305 19.504 191.161 18.976 190.681 18.736C190.297 18.592 189.913 18.592 189.481 18.784C188.953 19.024 188.377 19.264 187.945 19.696C187.417 20.128 186.841 20.464 186.265 20.896ZM171.673 31.648C171.673 31.456 171.769 31.312 171.865 31.216C172.681 30.16 173.305 29.056 174.217 28.048C174.601 27.616 174.841 27.04 175.273 26.608C176.089 25.792 176.905 24.976 177.721 24.16C178.201 23.68 178.681 23.104 179.209 22.624C179.977 22 180.793 21.568 181.561 20.992C181.849 20.8 182.185 20.752 182.521 20.704C183.193 20.608 183.385 20.752 183.433 21.376C183.481 21.664 183.577 21.952 183.481 22.24C183.289 22.768 183.145 23.344 182.473 23.632C181.705 24.544 180.601 25.12 179.737 25.936C179.593 26.032 179.497 26.176 179.353 26.224C178.633 26.512 178.153 27.088 177.577 27.568C176.665 28.288 175.753 29.104 174.697 29.68C174.313 29.872 174.025 30.16 173.689 30.448C173.209 30.928 172.585 31.264 172.009 31.6C171.913 31.648 171.817 31.696 171.673 31.648ZM210.289 14.992C209.521 16 208.849 17.056 208.033 18.016C207.505 18.64 206.929 19.216 206.689 19.984C206.641 20.08 206.593 20.176 206.497 20.272C205.249 21.424 204.817 23.008 203.713 24.256C203.665 24.352 203.617 24.4 203.617 24.496C203.329 25.264 202.705 25.984 202.273 26.752C201.793 27.616 201.505 28.48 200.977 29.344C200.929 29.488 200.881 29.68 200.833 29.824C200.785 30.496 200.593 31.168 200.449 31.888C200.353 32.32 200.449 32.704 200.737 32.944C200.881 33.04 200.977 33.184 201.073 33.328C201.553 33.808 202.513 33.904 203.281 33.424C203.617 33.232 203.905 33.088 204.289 32.992C204.481 32.944 204.673 32.848 204.817 32.704C206.065 31.696 207.457 30.88 208.705 29.968C209.665 29.248 210.577 28.528 211.537 27.856C212.497 27.088 213.361 26.176 214.369 25.504C214.513 25.408 216.001 23.488 216.097 23.296C216.145 23.2 216.145 23.152 216.193 23.056C216.385 22.528 216.289 22.096 215.953 21.856C215.569 21.664 214.993 21.712 214.513 22.144C213.745 22.864 212.833 23.488 212.113 24.304C211.537 24.928 210.769 25.408 210.097 25.984C208.993 26.896 207.841 27.76 206.689 28.576C205.729 29.248 204.769 29.872 203.761 30.496C203.521 30.64 203.377 30.64 203.425 30.352C203.521 29.92 203.569 29.536 203.809 29.152C204.865 27.184 205.873 25.216 207.121 23.296C208.033 21.952 209.185 20.752 209.953 19.312C210.145 19.024 210.433 18.736 210.673 18.496C211.201 17.872 211.681 17.2 212.161 16.528C212.497 16 212.929 15.472 213.409 14.992C213.745 14.656 214.129 14.56 214.513 14.608C214.801 14.656 215.089 14.704 215.377 14.656C217.441 14.608 219.457 14.512 221.425 14.464C222.145 14.464 222.769 14.512 223.489 14.512C223.873 14.512 224.305 14.32 224.689 14.368C225.841 14.56 227.089 14.56 228.289 14.608C229.057 14.608 229.777 14.704 230.497 14.8C231.361 14.896 232.273 15.04 233.089 15.232C233.521 15.328 233.857 15.424 234.145 15.664C234.529 16 235.009 16.096 235.585 15.904C236.305 15.712 236.785 15.04 236.593 14.464C236.257 13.6 235.777 12.928 234.817 12.688C234.337 12.592 233.857 12.448 233.377 12.4C231.697 12.208 230.065 11.968 228.337 12.016C228.097 12.016 227.857 11.968 227.617 11.92C226.609 11.728 225.457 11.824 224.353 11.776C223.681 11.728 222.961 11.872 222.241 11.872C220.753 11.824 219.217 11.872 217.729 11.872C217.297 11.872 216.865 11.968 216.481 12.016C216.337 12.016 216.145 12.016 216.097 11.92C216.049 11.728 216.193 11.584 216.337 11.44C216.481 11.296 216.625 11.2 216.769 11.104C217.009 10.864 217.297 10.624 217.441 10.336C217.681 9.904 217.921 9.712 218.401 9.616C218.977 9.52 219.313 9.088 219.457 8.512C219.697 7.648 219.217 6.832 218.401 6.64C218.017 6.592 217.585 6.688 217.297 7.024C216.817 7.6 216.097 7.936 215.761 8.656C215.713 8.752 215.617 8.896 215.521 8.944C214.849 9.376 214.465 10.048 214.033 10.672C213.793 11.056 213.457 11.392 213.169 11.728C212.977 11.968 212.737 12.064 212.449 12.112C211.777 12.16 211.057 12.304 210.433 12.304C209.329 12.256 208.177 12.544 207.025 12.688C205.969 12.88 204.865 13.12 203.761 13.312C203.089 13.456 202.513 13.744 201.889 14.032C201.457 14.272 201.169 14.704 201.169 15.136C201.121 16.096 202.273 16.72 203.137 16.192C203.521 15.952 203.953 15.856 204.337 15.808C205.057 15.664 205.729 15.376 206.449 15.424C206.593 15.424 206.785 15.328 206.929 15.28C208.081 14.848 209.137 15.04 210.241 14.944C210.241 14.944 210.241 14.944 210.289 14.992ZM219.958 18.784C220.198 17.824 219.91 17.296 219.238 17.248C218.662 17.248 218.038 17.44 217.606 17.968C216.886 18.88 216.07 19.792 215.302 20.704C214.822 21.328 214.438 22 213.958 22.624C213.382 23.296 212.95 24.064 212.326 24.736C212.182 24.928 212.086 25.168 211.99 25.36C211.51 26.368 210.886 27.328 210.262 28.288C209.446 29.488 209.062 30.64 209.062 31.84C209.11 32.56 209.35 33.136 210.118 33.28C210.31 33.328 210.502 33.376 210.694 33.472C211.222 33.664 211.846 33.616 212.422 33.232C213.334 32.704 214.246 32.176 215.11 31.504C215.686 31.072 216.166 30.544 216.742 30.16C218.038 29.344 219.142 28.288 220.294 27.328C220.918 26.8 221.494 26.272 222.07 25.792C222.79 25.216 223.558 24.64 224.182 23.968C224.662 23.392 224.806 22.768 224.566 22.384C224.134 21.712 222.838 21.808 222.166 22.576C221.974 22.816 221.782 23.056 221.494 23.248C220.294 24.016 219.238 25.024 218.182 25.984C216.886 27.184 215.446 28.192 214.15 29.344C213.958 29.488 213.766 29.632 213.526 29.728C213.286 29.872 213.046 30.016 212.806 30.208C212.566 30.448 212.278 30.736 212.038 30.544C211.798 30.4 211.99 30.064 212.134 29.776C212.278 29.392 212.566 29.056 212.758 28.624C213.19 27.616 213.862 26.704 214.534 25.792C215.494 24.544 216.502 23.248 217.366 21.952C217.798 21.328 218.278 20.656 218.902 20.224C219.526 19.792 219.814 19.312 219.958 18.784ZM220.918 11.776C220.87 12.016 220.726 12.304 220.582 12.544C219.958 13.504 220.054 14.704 220.726 15.28C221.302 15.808 221.926 15.712 222.79 14.992C223.51 14.368 223.654 13.936 223.27 13.216C223.174 12.976 223.126 12.832 223.222 12.544C223.558 11.92 223.846 11.296 224.374 10.72C224.95 10.096 225.478 9.424 226.102 8.848C226.678 8.32 226.726 7.456 226.39 7.024C226.006 6.64 225.334 6.688 224.614 7.168C224.182 7.456 223.846 7.792 223.51 8.176C223.03 8.752 222.502 9.28 221.83 9.568C221.158 9.808 220.87 10.288 220.966 10.912C220.966 11.2 221.014 11.44 220.918 11.776ZM229.451 22.864C229.451 23.2 229.259 23.44 229.067 23.68C228.635 24.112 228.155 24.496 227.819 24.976C226.907 26.224 226.091 27.52 225.563 28.912C225.131 29.968 225.899 30.976 226.907 30.736C227.771 30.592 228.539 30.208 229.307 29.632C230.171 28.912 230.987 28.096 231.947 27.424C232.139 27.28 232.283 27.136 232.475 26.944C233.531 25.936 234.635 25.024 235.883 24.256C235.931 24.4 235.739 24.496 235.643 24.64C235.163 25.312 234.539 25.984 234.155 26.704C233.963 27.04 233.819 27.376 233.579 27.664C233.051 28.336 232.715 29.008 232.379 29.776C231.995 30.736 232.091 31.504 232.187 32.32C232.331 33.088 233.291 33.616 234.155 33.472C234.683 33.424 235.259 33.28 235.787 32.992C236.843 32.464 237.851 31.936 238.811 31.168C239.819 30.4 240.635 29.392 241.787 28.816C241.931 28.72 242.075 28.576 242.219 28.432C243.035 27.712 243.851 26.944 244.715 26.224C245.099 25.888 245.531 25.6 245.867 25.264C246.491 24.64 247.019 23.968 247.643 23.392C247.979 23.104 248.219 22.672 248.219 22.288C248.219 21.424 247.307 21.04 246.395 21.568C246.011 21.808 245.675 22.144 245.339 22.48C244.475 23.248 243.659 24.064 242.795 24.832C241.595 25.888 240.347 26.848 239.195 27.904C238.571 28.432 237.899 28.912 237.275 29.44C236.651 29.968 235.883 30.352 235.163 30.64C234.971 30.736 234.731 30.736 234.827 30.496C235.019 30.064 235.019 29.488 235.403 29.152C236.219 28.336 236.507 27.28 237.275 26.464C237.995 25.648 238.523 24.736 239.195 23.872C239.867 22.96 240.539 22.048 241.115 21.088C241.307 20.752 241.451 20.464 241.547 20.128C241.643 19.744 241.595 19.408 241.355 19.168C240.971 18.784 240.059 18.736 239.387 19.024C238.571 19.312 237.899 19.84 237.179 20.32C236.651 20.608 236.123 20.848 235.691 21.232C234.395 22.336 233.003 23.248 231.803 24.448C231.467 24.736 231.083 25.072 230.699 25.36C231.131 24.736 231.515 24.16 231.995 23.632C233.099 22.48 233.915 21.136 234.923 19.936C235.259 19.552 235.595 19.168 235.835 18.784C236.315 18.112 236.459 17.248 236.075 16.912C235.691 16.576 235.115 16.384 234.539 16.528C233.771 16.672 233.003 17.056 232.379 17.536C231.563 18.208 230.843 18.928 229.883 19.408C229.691 19.504 229.499 19.696 229.355 19.84C228.971 20.224 228.587 20.512 228.203 20.848C227.483 21.424 226.811 22 226.139 22.672C225.515 23.296 224.795 23.872 224.075 24.4C224.795 23.584 225.371 22.672 226.139 21.856C226.811 21.088 227.435 20.272 228.107 19.456C228.683 18.688 228.539 17.776 227.819 17.392C227.243 17.104 226.667 17.392 226.043 18.256C225.995 18.304 225.947 18.4 225.899 18.448C225.275 19.12 224.555 19.792 224.123 20.608C224.075 20.704 223.931 20.752 223.883 20.848C223.739 20.992 223.547 21.136 223.403 21.28C222.347 22.576 221.435 23.968 220.331 25.264C219.947 25.696 219.755 26.176 219.419 26.608C218.843 27.28 218.411 28.048 217.883 28.72C217.307 29.44 217.067 30.256 216.539 30.976C216.203 31.504 216.107 31.984 216.059 32.512C216.059 33.136 216.299 33.568 216.875 33.76C217.499 33.904 218.075 33.616 218.603 33.184C218.891 32.944 219.179 32.656 219.419 32.416C220.283 31.648 221.243 30.976 221.915 30.064C222.827 28.864 223.979 27.904 225.035 26.848C226.187 25.696 227.435 24.688 228.539 23.536C228.779 23.248 229.019 23.008 229.451 22.864ZM255.622 17.488C254.95 17.536 254.422 17.584 253.894 17.68C253.126 17.824 252.406 17.968 251.686 18.496C251.638 18.544 251.542 18.544 251.494 18.544C251.11 18.64 250.822 18.832 250.486 19.024C249.766 19.456 248.998 19.936 248.374 20.56C248.23 20.752 248.086 20.848 247.894 20.944C247.126 21.328 246.502 21.952 245.974 22.576C245.398 23.2 244.822 23.872 244.294 24.544C243.142 26.032 242.422 27.664 241.942 29.344C241.894 29.488 241.894 29.632 241.894 29.776C241.942 30.352 241.99 30.928 242.038 31.504C242.038 31.696 242.038 31.888 242.086 32.032C242.47 33.52 243.766 33.856 245.11 34.144C245.254 34.192 245.398 34.144 245.542 34.096C245.782 34.096 245.974 34.048 246.214 34.048C247.126 33.904 248.038 34 248.95 33.424C249.094 33.328 249.286 33.328 249.43 33.328C249.67 33.28 249.862 33.232 250.102 33.088C250.966 32.464 252.022 32.464 252.838 31.648C252.934 31.504 253.078 31.504 253.222 31.456C254.374 30.976 255.478 30.352 256.486 29.584C257.11 29.152 257.686 28.768 258.31 28.48C258.598 28.336 258.886 28.192 259.174 28.048C260.422 27.184 261.67 26.32 262.87 25.408C263.446 24.976 263.926 24.496 264.454 23.968C264.982 23.392 265.03 22.816 264.79 22.24C264.55 21.664 263.926 21.568 263.254 21.952C263.014 22.144 262.678 22.336 262.486 22.576C262.054 23.152 261.43 23.584 260.806 23.968C260.134 24.496 259.462 25.024 258.694 25.408C258.31 25.6 257.878 25.888 257.542 26.224C257.254 26.464 256.918 26.704 256.63 26.848C255.814 27.136 255.094 27.712 254.374 28.144C253.51 28.624 252.79 29.296 251.878 29.584C251.062 29.872 250.342 30.304 249.622 30.688C249.43 30.784 249.238 30.928 249.046 30.976C247.894 31.312 246.694 31.504 245.59 31.408C245.206 31.36 244.966 31.216 244.822 30.928C244.438 29.872 244.63 28.816 245.206 27.664C245.302 27.472 245.446 27.424 245.59 27.472C245.734 27.52 245.878 27.616 246.022 27.616C246.694 27.76 247.318 28.048 248.086 27.904C248.518 27.856 248.95 27.808 249.382 27.76C250.006 27.712 250.63 27.664 251.254 27.184C251.35 27.136 251.494 27.088 251.59 27.04C252.502 26.8 253.366 26.368 254.182 25.792C254.614 25.456 255.046 25.168 255.478 24.88C256.006 24.496 256.486 23.968 257.014 23.488C257.062 23.488 257.062 23.44 257.11 23.392C257.254 23.008 257.59 22.768 257.83 22.432C258.742 21.376 258.886 20.224 258.502 19.312C258.022 18.16 257.11 17.296 255.622 17.488ZM254.566 20.128C254.71 20.128 254.854 20.128 255.046 20.128C255.814 20.176 256.054 20.704 255.526 21.376C255.238 21.856 254.902 22.336 254.422 22.72C253.222 23.824 251.83 24.592 250.294 25.024C249.478 25.264 248.806 25.264 248.086 25.168C247.894 25.12 247.654 25.072 247.51 25.024C247.222 24.88 247.174 24.736 247.462 24.496C248.326 23.68 249.046 22.72 250.102 22.144C250.39 22 250.63 21.808 250.87 21.616C251.302 21.232 251.734 20.896 252.262 20.8C252.358 20.752 252.454 20.752 252.502 20.704C253.174 20.224 253.846 20.08 254.566 20.128ZM261.512 36.16C261.752 36.16 261.992 36.112 262.232 36.016C263.096 35.728 263.672 35.056 264.152 34.336C264.776 33.424 264.536 32.704 264.152 32.032C263.912 31.6 263.24 31.504 262.712 31.744C261.848 32.128 261.128 32.656 260.552 33.424C259.64 34.72 260.168 36.16 261.512 36.16ZM266.809 36.16C267.049 36.16 267.289 36.112 267.529 36.016C268.393 35.728 268.969 35.056 269.449 34.336C270.073 33.424 269.833 32.704 269.449 32.032C269.209 31.6 268.537 31.504 268.009 31.744C267.145 32.128 266.425 32.656 265.849 33.424C264.937 34.72 265.465 36.16 266.809 36.16ZM272.105 36.16C272.346 36.16 272.586 36.112 272.826 36.016C273.69 35.728 274.266 35.056 274.746 34.336C275.37 33.424 275.13 32.704 274.746 32.032C274.506 31.6 273.834 31.504 273.306 31.744C272.442 32.128 271.722 32.656 271.146 33.424C270.234 34.72 270.762 36.16 272.105 36.16ZM277.402 36.16C277.642 36.16 277.882 36.112 278.122 36.016C278.986 35.728 279.562 35.056 280.042 34.336C280.666 33.424 280.426 32.704 280.042 32.032C279.802 31.6 279.13 31.504 278.602 31.744C277.738 32.128 277.018 32.656 276.442 33.424C275.53 34.72 276.058 36.16 277.402 36.16ZM289.371 27.136C289.323 27.616 289.131 27.904 288.891 28.144C288.651 28.384 288.507 28.672 288.363 28.912C287.883 29.632 287.643 30.4 287.355 31.12C287.019 31.984 286.971 32.704 287.211 33.424C287.355 34.048 288.027 34.528 288.747 34.336C289.707 34.048 290.715 33.712 291.531 32.896C292.011 32.368 292.539 31.888 293.115 31.504C293.979 30.928 294.747 30.16 295.515 29.44C296.235 28.672 297.051 27.952 297.771 27.184C298.395 26.56 299.067 25.936 299.739 25.312C300.315 24.688 300.939 24.016 301.563 23.392C302.331 22.672 303.195 22 303.963 21.184C304.731 20.32 305.547 19.504 306.603 18.784C306.123 19.552 305.739 20.272 305.211 20.896C304.635 21.568 304.203 22.336 303.675 23.056C303.051 23.872 302.427 24.688 301.995 25.6C301.899 25.84 301.707 26.08 301.515 26.32C300.987 27.04 300.315 27.712 299.979 28.48C299.403 29.632 298.395 30.64 297.867 31.84C297.579 32.416 297.243 33.088 296.763 33.568C296.187 34.192 295.803 34.864 295.323 35.488C294.651 36.496 294.027 37.552 293.451 38.608C293.211 39.04 292.923 39.424 292.635 39.856C291.963 40.816 291.339 41.824 291.003 42.88C290.763 43.6 290.427 44.272 289.995 44.944C289.371 45.952 289.035 47.008 288.507 48.016C288.267 48.544 288.555 49.168 289.083 49.408C289.467 49.6 290.043 49.456 290.427 49.024C290.859 48.496 291.291 47.968 291.579 47.392C292.203 46 292.923 44.608 293.691 43.312C293.835 43.024 293.979 42.736 294.123 42.496C294.459 41.68 294.891 40.864 295.467 40.144C295.995 39.472 296.571 38.8 296.715 37.984C296.715 37.888 296.811 37.792 296.811 37.696C297.147 37.072 297.531 36.448 297.963 35.872C298.779 34.72 299.499 33.568 300.267 32.416C301.083 31.216 301.755 29.968 302.667 28.864C302.859 28.672 303.003 28.48 303.099 28.24C303.435 27.328 304.203 26.656 304.731 25.792C305.259 24.88 305.931 23.968 306.603 23.104C307.131 22.384 307.467 21.568 308.091 20.896C308.859 19.984 309.579 19.024 310.155 18.016C310.251 17.824 310.347 17.584 310.539 17.44C311.019 17.056 311.355 16.576 311.643 16.096C312.123 15.328 312.699 14.656 313.275 13.984C313.899 13.264 314.475 12.544 314.907 11.776C315.435 10.912 316.155 10.528 316.971 10.672C317.547 10.768 318.075 10.912 318.651 10.864C320.043 10.816 321.387 10.96 322.731 11.056C324.651 11.2 326.571 11.152 328.443 11.392C330.651 11.68 333.003 11.632 335.163 12.064C336.123 12.256 337.131 12.304 338.043 12.64C338.331 12.736 338.571 12.832 338.715 13.072C339.003 13.6 339.435 13.696 340.011 13.456C340.683 13.168 341.115 12.64 341.211 12.016C341.259 11.536 341.163 11.104 340.827 10.816C340.443 10.528 340.011 10.24 339.483 10.096C338.955 9.952 338.427 9.856 337.851 9.76C336.987 9.616 336.123 9.376 335.259 9.28C333.915 9.136 332.523 9.136 331.227 8.8C330.795 8.704 330.267 8.848 329.835 8.8C328.059 8.608 326.331 8.272 324.411 8.512C324.315 8.512 324.267 8.56 324.219 8.512C323.307 8.176 322.251 8.32 321.243 8.272C320.667 8.224 320.139 8.08 319.563 8.176C319.083 8.272 318.699 8.176 318.219 8.08C318.651 7.264 319.275 6.592 319.851 5.92C320.763 4.864 321.771 3.856 322.683 2.8C323.355 2.08 323.355 1.456 322.779 0.927999C322.251 0.495999 321.627 0.543999 320.955 1.216C319.851 2.368 318.795 3.616 317.595 4.72C316.923 5.344 316.299 6.016 315.675 6.64C315.387 6.88 315.051 7.12 314.859 7.456C314.619 7.84 314.331 7.936 313.947 8.032C312.939 8.272 312.027 8.032 311.019 8.128C310.923 8.128 310.779 8.08 310.683 8.08C310.443 7.936 310.155 7.936 309.819 7.984C308.811 8.128 307.851 8.032 306.939 8.032C305.835 7.984 304.731 8.176 303.627 8.176C302.859 8.224 302.043 8.464 301.323 8.272C301.131 8.224 300.891 8.272 300.651 8.32C300.219 8.416 299.787 8.416 299.355 8.416C298.731 8.464 298.059 8.464 297.435 8.608C296.235 8.992 295.083 9.04 293.931 9.232C292.827 9.376 291.771 9.616 290.667 9.952C289.707 10.288 288.795 10.768 288.315 11.824C288.027 12.496 287.979 12.928 288.411 13.264C288.939 13.696 289.611 13.888 290.331 13.936C291.147 13.984 291.867 13.504 292.107 12.736C292.251 12.208 292.539 12.064 292.971 11.92C293.931 11.68 294.891 11.584 295.803 11.44C297.483 11.2 299.115 11.056 300.747 10.864C300.891 10.864 301.083 10.864 301.227 10.864C301.995 11.008 302.859 10.864 303.675 10.72C303.963 10.672 304.299 10.624 304.587 10.672C304.875 10.72 305.163 10.72 305.499 10.672C305.883 10.576 306.219 10.624 306.555 10.624C307.227 10.672 307.851 10.768 308.523 10.672C309.387 10.576 310.107 10.816 310.971 10.624C311.259 10.576 311.211 10.768 311.115 10.96C311.067 11.056 310.971 11.152 310.875 11.2C309.579 12.16 308.667 13.552 307.323 14.464C307.275 14.464 307.275 14.512 307.275 14.512C306.411 15.712 305.211 16.624 304.203 17.68C302.667 19.408 300.795 20.8 299.259 22.576C299.211 22.624 299.163 22.672 299.115 22.72C298.251 23.632 297.291 24.352 296.379 25.216C295.851 25.744 295.419 26.416 294.747 26.8C294.603 26.896 294.459 27.088 294.363 27.232C293.883 28 293.067 28.48 292.443 29.104C291.915 29.584 291.339 30.016 290.763 30.448C290.667 30.544 290.523 30.688 290.379 30.64C290.283 30.4 290.379 30.208 290.523 29.968C291.051 29.152 291.579 28.336 292.203 27.52C292.635 27.04 292.827 26.464 293.307 26.032C293.643 25.744 293.931 25.456 294.123 25.12C294.699 24.304 295.515 23.584 296.139 22.816C296.667 22.144 297.243 21.568 297.675 20.896C297.723 20.8 297.771 20.752 297.819 20.704C298.491 20.224 298.875 19.504 299.403 18.928C299.931 18.304 299.835 17.392 299.259 17.008C298.683 16.624 298.011 16.816 297.387 17.44C297.243 17.632 297.099 17.824 296.859 17.968C296.235 18.304 295.659 18.784 295.131 19.36C295.083 19.456 294.987 19.504 294.843 19.456C294.795 19.36 294.795 19.168 294.747 19.072C294.075 17.536 293.067 17.008 291.243 17.488H291.195C289.563 17.968 288.123 18.784 286.779 19.936C285.867 20.656 285.051 21.424 284.235 22.24C283.515 22.864 282.891 23.584 282.267 24.304C281.163 25.456 280.299 26.752 279.243 27.952C278.235 29.104 277.659 30.448 276.939 31.744C276.651 32.32 276.507 32.896 276.459 33.472C276.411 34.48 277.611 35.392 278.667 35.008C279.243 34.816 279.819 34.576 280.347 34.288C281.835 33.472 283.179 32.368 284.475 31.264C284.763 31.024 285.003 30.688 285.291 30.496C286.011 30.064 286.587 29.488 287.211 28.912C287.835 28.288 288.555 27.76 289.371 27.136ZM291.963 21.712C291.963 21.904 291.867 22 291.723 22.096C290.955 22.768 290.187 23.536 289.323 24.16C288.411 24.88 287.547 25.648 286.635 26.368C286.299 26.656 285.963 26.896 285.723 27.28C285.531 27.52 285.291 27.712 285.051 27.808C284.619 28.048 284.235 28.336 283.899 28.672C283.419 29.152 282.939 29.632 282.315 29.968C281.931 30.16 281.595 30.592 281.307 30.88C280.971 31.216 280.539 31.504 280.155 31.744C280.011 31.84 279.867 31.888 279.771 31.792C279.675 31.696 279.723 31.552 279.771 31.456C280.443 30.736 280.683 29.824 281.403 29.104C281.787 28.672 282.123 28.24 282.411 27.76C282.939 26.944 283.659 26.272 284.283 25.552C284.955 24.832 285.627 24.112 286.347 23.392C286.587 23.152 286.923 22.912 287.163 22.672C287.595 22.288 288.027 21.856 288.459 21.472C289.323 20.8 290.331 20.32 291.339 19.936C291.723 19.792 292.011 19.984 292.011 20.368C292.011 20.8 291.771 21.328 291.963 21.712ZM329.882 28.192C330.266 28.192 330.65 28.288 331.082 28.144C331.898 27.904 332.714 27.664 333.53 27.472C334.778 27.088 336.026 26.56 337.226 25.888C337.994 25.504 338.762 25.216 339.434 24.688C340.058 24.304 340.49 23.824 340.826 23.2C341.21 22.576 341.162 22.096 340.682 21.76C340.154 21.424 339.578 21.472 339.002 22.048C338.378 22.624 337.706 23.056 336.986 23.344C336.026 23.824 335.114 24.304 334.106 24.64C333.53 24.784 332.954 24.976 332.378 25.264C332.138 25.408 331.754 25.456 331.658 25.216C331.562 24.976 331.802 24.688 331.994 24.496C332.042 24.448 332.138 24.4 332.186 24.352C332.474 24.16 332.666 23.92 332.858 23.632C333.194 23.152 333.578 22.72 333.914 22.288C334.73 21.088 335.546 19.84 335.45 18.496C335.402 17.68 334.826 16.864 334.01 16.816C332.954 16.72 331.85 16.768 330.89 17.776C330.794 17.92 330.65 17.968 330.506 18.064C330.074 18.496 329.45 18.736 329.114 19.264C328.49 20.08 327.77 20.896 327.29 21.856C326.522 23.44 326.234 24.88 326.57 26.32C326.666 26.656 326.57 26.848 326.33 27.136C325.898 27.616 325.37 27.904 324.938 28.336C323.834 29.392 322.586 30.16 321.386 31.024C321.146 31.216 320.906 31.408 320.666 31.264C320.474 31.12 320.618 30.832 320.714 30.64C320.858 30.304 321.002 29.968 321.098 29.632C321.386 28.96 321.578 28.192 321.962 27.568C322.826 26.176 323.45 24.688 324.266 23.296C325.082 22 325.754 20.704 326.666 19.456C327.05 18.976 327.29 18.496 327.386 17.968C327.53 17.344 327.338 16.912 326.81 16.72C326.33 16.576 325.706 16.816 325.274 17.392C324.122 18.88 323.114 20.464 322.202 22.048C321.722 22.912 321.29 23.776 320.762 24.688C320.138 25.744 319.514 26.896 319.082 28C318.65 28.96 318.266 29.968 317.978 30.928C317.786 31.648 317.882 32.272 317.882 32.944C317.882 33.04 317.93 33.184 318.026 33.28C318.554 33.952 319.898 34.192 320.906 33.856C321.626 33.568 322.25 33.088 322.922 32.8C324.218 32.128 325.178 31.024 326.378 30.256C326.906 29.584 327.626 29.104 328.298 28.576C328.586 28.336 328.874 28.192 329.258 28.192C329.45 28.24 329.642 28.192 329.882 28.192ZM329.258 23.968C329.402 22.816 329.93 21.808 330.842 20.896C331.178 20.56 331.37 20.128 331.802 19.84C331.994 19.696 332.282 19.456 332.474 19.6C332.714 19.744 332.522 20.08 332.378 20.272C331.802 21.04 331.418 21.856 330.65 22.528C330.362 22.768 330.122 23.104 329.882 23.392C329.738 23.584 329.594 23.872 329.258 23.968ZM344.74 18.784C344.98 17.824 344.692 17.296 344.02 17.248C343.444 17.248 342.82 17.44 342.388 17.968C341.668 18.88 340.852 19.792 340.084 20.704C339.604 21.328 339.22 22 338.74 22.624C338.164 23.296 337.732 24.064 337.108 24.736C336.964 24.928 336.868 25.168 336.772 25.36C336.292 26.368 335.668 27.328 335.044 28.288C334.228 29.488 333.844 30.64 333.844 31.84C333.892 32.56 334.132 33.136 334.9 33.28C335.092 33.328 335.284 33.376 335.476 33.472C336.004 33.664 336.628 33.616 337.204 33.232C338.116 32.704 339.028 32.176 339.892 31.504C340.468 31.072 340.948 30.544 341.524 30.16C342.82 29.344 343.924 28.288 345.076 27.328C345.7 26.8 346.276 26.272 346.852 25.792C347.572 25.216 348.34 24.64 348.964 23.968C349.444 23.392 349.588 22.768 349.348 22.384C348.916 21.712 347.62 21.808 346.948 22.576C346.756 22.816 346.564 23.056 346.276 23.248C345.076 24.016 344.02 25.024 342.964 25.984C341.668 27.184 340.228 28.192 338.932 29.344C338.74 29.488 338.548 29.632 338.308 29.728C338.068 29.872 337.828 30.016 337.588 30.208C337.348 30.448 337.06 30.736 336.82 30.544C336.58 30.4 336.772 30.064 336.916 29.776C337.06 29.392 337.348 29.056 337.54 28.624C337.972 27.616 338.644 26.704 339.316 25.792C340.276 24.544 341.284 23.248 342.148 21.952C342.58 21.328 343.06 20.656 343.684 20.224C344.308 19.792 344.596 19.312 344.74 18.784ZM345.7 11.776C345.652 12.016 345.508 12.304 345.364 12.544C344.74 13.504 344.836 14.704 345.508 15.28C346.084 15.808 346.708 15.712 347.572 14.992C348.292 14.368 348.436 13.936 348.052 13.216C347.956 12.976 347.908 12.832 348.004 12.544C348.34 11.92 348.628 11.296 349.156 10.72C349.732 10.096 350.26 9.424 350.884 8.848C351.46 8.32 351.508 7.456 351.172 7.024C350.788 6.64 350.116 6.688 349.396 7.168C348.964 7.456 348.628 7.792 348.292 8.176C347.812 8.752 347.284 9.28 346.612 9.568C345.94 9.808 345.652 10.288 345.748 10.912C345.748 11.2 345.796 11.44 345.7 11.776ZM351.256 31.312C351.208 31.888 351.112 32.368 350.872 32.896C350.632 33.472 350.44 34.048 350.344 34.576C350.2 35.536 350.056 36.448 349.864 37.408C349.672 38.32 349.576 39.184 349.528 40.048C349.528 40.624 349.528 41.152 349.96 41.488C351.064 42.4 351.784 42.256 352.936 41.488C353.56 41.104 353.896 40.672 353.848 40.192C353.848 39.712 353.416 39.328 352.84 39.28C352.264 39.28 352.264 39.28 352.264 38.752C352.312 38.464 352.36 38.224 352.408 37.984C352.552 37.216 352.744 36.496 352.744 35.776C352.792 35.2 352.888 34.576 353.176 34.048C353.656 32.944 353.8 31.84 354.328 30.736C354.76 29.968 355.048 29.104 355.528 28.288C355.816 27.712 356.248 27.184 356.824 26.848C357.112 26.656 357.352 26.464 357.592 26.224C357.736 26.032 357.832 25.84 358.024 25.696C358.744 25.264 359.272 24.688 359.848 24.112C360.376 23.632 360.856 23.104 361.432 22.672C361.912 22.336 362.392 21.952 362.824 21.52C363.304 21.04 363.784 20.512 364.312 20.08C365.128 19.456 365.512 18.544 366.376 18.016C366.472 17.92 366.52 17.776 366.616 17.68C366.712 17.536 366.808 17.392 367 17.296C367.432 16.96 367.768 16.576 368.104 16.144C368.344 15.76 368.632 15.424 369.016 15.136C369.496 14.704 369.976 14.272 370.264 13.648C370.36 13.456 370.504 13.36 370.6 13.216C371.368 12.4 372.088 11.584 372.712 10.624C373.096 10.048 373.384 9.376 373.912 8.8C374.008 8.656 374.104 8.512 374.152 8.32C374.248 7.696 374.584 7.072 374.728 6.448C374.92 5.68 374.872 5.056 374.296 4.624C373.624 4.192 372.904 4.096 372.04 4.576C370.888 5.248 369.688 5.728 368.824 6.832C368.776 6.832 368.776 6.88 368.728 6.88C367.768 7.6 366.952 8.56 366.184 9.472C365.8 9.904 365.512 10.384 364.984 10.72C364.744 10.816 364.6 11.008 364.504 11.248C364.36 11.536 364.12 11.776 363.88 12.064C363.352 12.784 362.776 13.456 362.152 14.128C361.864 14.464 361.528 14.8 361.24 15.184C360.52 16.288 359.896 17.44 358.888 18.352C358.84 18.4 358.744 18.496 358.696 18.592C358.168 19.552 357.4 20.368 356.968 21.376C356.872 21.568 356.728 21.76 356.584 21.952C356.2 22.288 355.912 22.72 355.72 23.152C355.672 23.344 355.528 23.536 355.384 23.68C354.856 24.304 354.52 25.024 354.136 25.744C353.8 26.368 353.368 26.8 352.792 27.232C352.168 27.616 351.544 28 351.016 28.576C350.824 28.768 350.632 28.912 350.392 29.056C350.152 29.152 349.864 29.248 349.672 29.392C349 30.016 348.184 30.352 347.368 30.784C346.504 31.216 346.408 31.12 346.264 30.256C346.216 30.064 346.264 29.872 346.312 29.68C346.456 29.152 346.744 28.624 346.792 28.048C346.792 27.856 346.936 27.616 347.08 27.472C347.56 27.04 347.752 26.512 348.04 26.032C348.376 25.36 348.568 24.64 349.144 24.016C349.24 23.92 349.288 23.776 349.336 23.632C349.432 23.392 349.576 23.2 349.72 23.008C350.44 22.192 350.824 21.184 351.592 20.368C351.688 20.272 351.736 20.128 351.832 20.032C352.264 19.072 352.984 18.256 353.656 17.488C354.52 16.432 355.288 15.28 356.248 14.272C356.92 13.6 357.496 12.784 358.168 12.064C358.84 11.344 359.56 10.672 360.232 9.952C360.472 9.616 360.76 9.424 361.144 9.28C362.008 8.944 362.392 8.176 362.2 7.264C362.056 6.592 361.528 6.4 360.712 6.688C359.896 6.976 359.272 7.504 358.6 8.08C357.976 8.656 357.544 9.328 356.92 9.904C356.248 10.48 355.72 11.248 355.24 11.968C354.952 12.304 354.76 12.64 354.424 12.928C353.704 13.504 353.128 14.224 352.648 14.944C352.12 15.664 351.544 16.336 350.968 17.056C350.632 17.488 350.2 17.92 349.912 18.4C349.432 19.312 348.664 20.128 348.28 21.088C348.232 21.136 348.184 21.232 348.136 21.28C347.464 22 347.128 22.912 346.456 23.632C346.36 23.728 346.36 23.824 346.312 23.92C345.784 25.168 345.112 26.368 344.392 27.616C344.2 28 343.96 28.384 343.912 28.768C343.864 29.296 343.72 29.824 343.576 30.304C343.288 31.408 343.624 32.224 344.104 33.04C344.2 33.232 344.44 33.376 344.632 33.424C345.4 33.616 346.216 33.808 347.08 33.52C348.232 33.136 349.384 32.656 350.392 31.84C350.632 31.648 350.92 31.504 351.256 31.312ZM371.608 7.6C371.704 7.888 371.56 8.08 371.416 8.272C370.984 8.848 370.552 9.472 370.216 10.096C369.544 11.104 368.632 11.872 367.912 12.832C367.384 13.552 366.664 14.08 366.184 14.848C366.184 14.896 366.136 14.944 366.088 14.992C365.224 15.664 364.6 16.576 363.688 17.296C363.16 17.68 362.824 18.256 362.392 18.736C361.912 19.312 361.24 19.696 360.808 20.224C360.664 20.176 360.616 20.08 360.664 20.032C361.432 19.312 361.768 18.4 362.392 17.632C363.304 16.624 364.072 15.52 364.936 14.464C365.896 13.36 366.856 12.208 367.72 11.056C368.008 10.72 368.296 10.432 368.632 10.192C369.208 9.712 369.784 9.184 370.264 8.656C370.696 8.272 371.128 7.936 371.608 7.6ZM375.874 20.896C375.73 20.56 375.73 20.176 375.73 19.84C375.73 19.312 375.538 18.976 375.154 18.688C374.338 18.016 373.234 17.968 372.13 18.016C371.938 18.016 371.746 18.112 371.554 18.16C370.594 18.544 369.634 18.928 368.818 19.696C368.578 19.936 368.29 20.128 368.002 20.32C367.186 20.848 366.514 21.616 365.842 22.336C365.362 22.816 364.834 23.344 364.354 23.872C363.202 25.024 362.146 26.224 361.186 27.52C360.226 28.72 359.554 30.064 358.738 31.312C358.354 31.84 358.21 32.416 358.114 32.992C358.018 33.28 358.066 33.568 358.21 33.76C358.738 34.672 359.602 34.912 360.802 34.576C361.714 34.336 362.578 33.856 363.298 33.328C364.594 32.368 365.89 31.456 367.186 30.496C368.53 29.536 369.778 28.432 371.122 27.52C371.314 27.376 371.458 27.136 371.794 27.088C371.746 27.424 371.554 27.712 371.314 28C371.122 28.288 370.93 28.528 370.834 28.816C370.738 29.344 370.45 29.824 370.162 30.352C369.49 31.696 369.442 32.896 370.258 33.904C370.93 34.72 371.89 34.816 373.138 34.192C374.722 33.376 376.162 32.224 377.458 30.976C379.042 29.44 380.77 28.048 382.354 26.512C383.17 25.744 384.034 25.024 384.898 24.304C385.426 23.824 385.762 23.296 386.05 22.72C386.53 21.952 386.002 21.232 385.138 21.472C384.61 21.568 384.082 21.808 383.65 22.24C383.266 22.624 382.882 23.104 382.45 23.44C381.49 24.16 380.722 25.12 379.666 25.84C379.474 25.936 379.33 26.128 379.186 26.32C378.706 26.848 378.178 27.28 377.602 27.712C377.074 28.144 376.546 28.576 376.066 29.056C375.106 30.064 374.05 30.832 372.946 31.552C372.802 31.648 372.658 31.744 372.562 31.648C372.418 31.6 372.514 31.408 372.562 31.264C372.85 30.4 373.042 29.536 373.666 28.672C374.338 27.712 374.962 26.752 375.73 25.792C376.066 25.312 376.594 24.928 376.93 24.448C377.458 23.536 378.274 22.816 378.994 22.048C379.57 21.424 380.098 20.752 380.53 20.08C380.914 19.504 380.77 18.976 380.29 18.736C379.906 18.592 379.522 18.592 379.09 18.784C378.562 19.024 377.986 19.264 377.554 19.696C377.026 20.128 376.45 20.464 375.874 20.896ZM361.282 31.648C361.282 31.456 361.378 31.312 361.474 31.216C362.29 30.16 362.914 29.056 363.826 28.048C364.21 27.616 364.45 27.04 364.882 26.608C365.698 25.792 366.514 24.976 367.33 24.16C367.81 23.68 368.29 23.104 368.818 22.624C369.586 22 370.402 21.568 371.17 20.992C371.458 20.8 371.794 20.752 372.13 20.704C372.802 20.608 372.994 20.752 373.042 21.376C373.09 21.664 373.186 21.952 373.09 22.24C372.898 22.768 372.754 23.344 372.082 23.632C371.314 24.544 370.21 25.12 369.346 25.936C369.202 26.032 369.106 26.176 368.962 26.224C368.242 26.512 367.762 27.088 367.186 27.568C366.274 28.288 365.362 29.104 364.306 29.68C363.922 29.872 363.634 30.16 363.298 30.448C362.818 30.928 362.194 31.264 361.618 31.6C361.522 31.648 361.426 31.696 361.282 31.648ZM421.882 6.448C421.69 7.12 421.354 7.648 420.922 8.08C420.49 8.56 420.154 9.04 419.914 9.568C419.818 9.76 419.674 9.904 419.53 10.096C418.954 10.96 418.09 11.68 417.754 12.64C417.754 12.736 417.658 12.784 417.61 12.832C416.794 13.6 416.266 14.56 415.594 15.472C414.826 16.48 414.058 17.488 413.338 18.496C412.378 19.888 411.514 21.28 410.458 22.624C410.17 23.056 409.738 23.392 409.498 23.872C408.586 25.216 407.626 26.56 406.666 27.904C406.474 28.192 406.33 28.528 406.09 28.768C405.274 29.488 404.89 30.4 404.266 31.216C403.69 31.984 403.018 32.8 402.634 33.712C402.538 33.904 402.298 34.096 402.154 34.288C401.722 34.672 401.386 35.152 401.146 35.584C400.858 36.064 400.522 36.496 400.186 36.928C399.946 37.216 399.802 37.504 399.61 37.792C399.034 38.464 398.602 39.232 398.026 39.904C397.258 40.816 396.586 41.776 396.01 42.736C395.722 43.312 395.386 43.792 394.906 44.272C394.618 44.56 394.33 44.896 394.138 45.232C393.994 45.52 393.802 45.808 393.61 46.048C392.986 46.672 392.698 47.44 392.122 48.064C391.978 48.208 391.882 48.4 391.786 48.592C391.498 49.216 391.594 49.696 392.122 49.984C392.602 50.272 393.274 50.128 393.706 49.648C394.282 49.024 394.858 48.352 395.338 47.68C395.77 46.96 396.202 46.288 396.73 45.568C397.402 44.656 398.17 43.792 398.842 42.832C399.514 41.872 400.234 40.912 400.906 39.952C401.386 39.232 401.914 38.512 402.442 37.792C402.778 37.36 403.018 36.832 403.402 36.496C404.026 35.872 404.41 35.152 404.842 34.528C405.562 33.472 406.474 32.56 407.002 31.408C407.05 31.264 407.194 31.12 407.338 30.976C407.77 30.592 408.058 30.112 408.346 29.632C408.538 29.296 408.778 28.96 409.018 28.624C409.45 28.048 409.978 27.472 410.41 26.8C410.842 26.08 411.418 25.36 411.898 24.592C412.138 24.208 412.618 23.872 412.81 23.44C413.29 22.48 414.106 21.712 414.682 20.8C415.402 19.6 416.314 18.496 417.178 17.392C417.994 16.24 418.81 15.088 419.626 13.936C420.538 12.688 421.546 11.536 422.314 10.192C422.794 9.328 423.61 8.56 424.09 7.696C424.282 7.408 424.474 7.12 424.666 6.832C424.858 6.496 425.146 6.304 425.53 6.208C425.818 6.16 426.154 6.112 426.442 6.112C426.874 6.16 427.306 6.064 427.738 6.016C428.554 5.872 429.322 5.776 430.138 5.776C431.482 5.728 432.826 5.728 434.218 5.536C434.506 5.488 434.842 5.44 435.13 5.44C435.898 5.44 436.666 5.488 437.482 5.392C438.538 5.248 439.498 5.344 440.554 5.248C441.082 5.248 441.61 5.104 442.09 5.2C443.194 5.344 444.394 5.104 445.498 5.104C445.834 5.104 446.17 5.056 446.506 4.912C447.466 4.528 447.946 3.472 447.466 2.944C447.13 2.56 446.602 2.32 446.026 2.464C444.874 2.704 443.866 2.416 442.714 2.608C441.706 2.8 440.794 2.464 439.738 2.8C439.69 2.848 439.594 2.848 439.546 2.8C438.874 2.56 438.106 2.8 437.338 2.8C436.234 2.896 435.13 2.752 433.93 2.992C433.786 3.04 433.594 2.992 433.45 2.992C432.442 2.944 431.338 3.328 430.378 3.184C430.33 3.136 430.234 3.184 430.138 3.184C429.37 3.28 428.602 3.328 427.786 3.376C427.45 3.424 427.306 3.28 427.402 2.896C427.498 2.656 427.45 2.416 427.354 2.176C427.162 1.312 426.442 1.216 425.53 1.84C425.146 2.128 424.81 2.464 424.522 2.896C424.33 3.184 424.09 3.616 423.706 3.616C423.082 3.664 422.41 3.904 421.786 3.952C420.682 4 419.626 4.096 418.522 4.24C416.506 4.528 414.538 4.576 412.522 4.816C410.698 5.008 408.874 5.152 407.098 5.392C406.618 5.44 406.186 5.68 405.706 5.68C404.65 5.68 403.594 6.064 402.538 6.208C401.866 6.304 401.194 6.64 400.474 6.688C400.282 6.688 400.09 6.784 399.946 6.928C399.61 7.12 399.322 7.36 399.034 7.552C398.41 8.032 397.882 9.232 398.074 9.808C398.458 10.672 398.89 11.536 399.754 12.016C400.378 12.4 400.858 12.88 401.242 13.408C401.386 13.6 401.578 13.744 401.818 13.84C402.346 14.032 402.922 13.84 403.402 13.312C403.882 12.784 403.978 12.304 403.69 11.824C403.546 11.584 403.354 11.344 403.162 11.152C402.634 10.528 401.818 10.192 401.434 9.472C401.386 9.328 401.146 9.28 401.29 9.088C401.386 8.896 401.578 8.896 401.77 8.848C402.298 8.704 402.874 8.704 403.402 8.608C404.41 8.416 405.418 8.272 406.378 8.128C407.146 8.032 407.914 7.984 408.682 7.888C409.354 7.792 410.074 7.6 410.698 7.552C411.898 7.552 413.098 7.264 414.25 7.168C415.306 7.12 416.41 7.024 417.466 6.928C418.09 6.88 418.714 6.88 419.338 6.688C420.202 6.448 421.018 6.496 421.882 6.448ZM428.796 20.896C428.652 20.56 428.652 20.176 428.652 19.84C428.652 19.312 428.46 18.976 428.076 18.688C427.26 18.016 426.156 17.968 425.052 18.016C424.86 18.016 424.668 18.112 424.476 18.16C423.516 18.544 422.556 18.928 421.74 19.696C421.5 19.936 421.212 20.128 420.924 20.32C420.108 20.848 419.436 21.616 418.764 22.336C418.284 22.816 417.756 23.344 417.276 23.872C416.124 25.024 415.068 26.224 414.108 27.52C413.148 28.72 412.476 30.064 411.66 31.312C411.276 31.84 411.132 32.416 411.036 32.992C410.94 33.28 410.988 33.568 411.132 33.76C411.66 34.672 412.524 34.912 413.724 34.576C414.636 34.336 415.5 33.856 416.22 33.328C417.516 32.368 418.812 31.456 420.108 30.496C421.452 29.536 422.7 28.432 424.044 27.52C424.236 27.376 424.38 27.136 424.716 27.088C424.668 27.424 424.476 27.712 424.236 28C424.044 28.288 423.852 28.528 423.756 28.816C423.66 29.344 423.372 29.824 423.084 30.352C422.412 31.696 422.364 32.896 423.18 33.904C423.852 34.72 424.812 34.816 426.06 34.192C427.644 33.376 429.084 32.224 430.38 30.976C431.964 29.44 433.692 28.048 435.276 26.512C436.092 25.744 436.956 25.024 437.82 24.304C438.348 23.824 438.684 23.296 438.972 22.72C439.452 21.952 438.924 21.232 438.06 21.472C437.532 21.568 437.004 21.808 436.572 22.24C436.188 22.624 435.804 23.104 435.372 23.44C434.412 24.16 433.644 25.12 432.588 25.84C432.396 25.936 432.252 26.128 432.108 26.32C431.628 26.848 431.1 27.28 430.524 27.712C429.996 28.144 429.468 28.576 428.988 29.056C428.028 30.064 426.972 30.832 425.868 31.552C425.724 31.648 425.58 31.744 425.484 31.648C425.34 31.6 425.436 31.408 425.484 31.264C425.772 30.4 425.964 29.536 426.588 28.672C427.26 27.712 427.884 26.752 428.652 25.792C428.988 25.312 429.516 24.928 429.852 24.448C430.38 23.536 431.196 22.816 431.916 22.048C432.492 21.424 433.02 20.752 433.452 20.08C433.836 19.504 433.692 18.976 433.212 18.736C432.828 18.592 432.444 18.592 432.012 18.784C431.484 19.024 430.908 19.264 430.476 19.696C429.948 20.128 429.372 20.464 428.796 20.896ZM414.204 31.648C414.204 31.456 414.3 31.312 414.396 31.216C415.212 30.16 415.836 29.056 416.748 28.048C417.132 27.616 417.372 27.04 417.804 26.608C418.62 25.792 419.436 24.976 420.252 24.16C420.732 23.68 421.212 23.104 421.74 22.624C422.508 22 423.324 21.568 424.092 20.992C424.38 20.8 424.716 20.752 425.052 20.704C425.724 20.608 425.916 20.752 425.964 21.376C426.012 21.664 426.108 21.952 426.012 22.24C425.82 22.768 425.676 23.344 425.004 23.632C424.236 24.544 423.132 25.12 422.268 25.936C422.124 26.032 422.028 26.176 421.884 26.224C421.164 26.512 420.684 27.088 420.108 27.568C419.196 28.288 418.284 29.104 417.228 29.68C416.844 29.872 416.556 30.16 416.22 30.448C415.74 30.928 415.116 31.264 414.54 31.6C414.444 31.648 414.348 31.696 414.204 31.648ZM443.482 22.864C443.482 23.2 443.29 23.44 443.098 23.68C442.666 24.112 442.186 24.496 441.85 24.976C440.938 26.224 440.122 27.52 439.594 28.912C439.162 29.968 439.93 30.976 440.938 30.736C441.802 30.592 442.57 30.208 443.338 29.632C444.202 28.912 445.018 28.096 445.978 27.424C446.17 27.28 446.314 27.136 446.506 26.944C447.562 25.936 448.666 25.024 449.914 24.256C449.962 24.4 449.77 24.496 449.674 24.64C449.194 25.312 448.57 25.984 448.186 26.704C447.994 27.04 447.85 27.376 447.61 27.664C447.082 28.336 446.746 29.008 446.41 29.776C446.026 30.736 446.122 31.504 446.218 32.32C446.362 33.088 447.322 33.616 448.186 33.472C448.714 33.424 449.29 33.28 449.818 32.992C450.874 32.464 451.882 31.936 452.842 31.168C453.85 30.4 454.666 29.392 455.818 28.816C455.962 28.72 456.106 28.576 456.25 28.432C457.066 27.712 457.882 26.944 458.746 26.224C459.13 25.888 459.562 25.6 459.898 25.264C460.522 24.64 461.05 23.968 461.674 23.392C462.01 23.104 462.25 22.672 462.25 22.288C462.25 21.424 461.338 21.04 460.426 21.568C460.042 21.808 459.706 22.144 459.37 22.48C458.506 23.248 457.69 24.064 456.826 24.832C455.626 25.888 454.378 26.848 453.226 27.904C452.602 28.432 451.93 28.912 451.306 29.44C450.682 29.968 449.914 30.352 449.194 30.64C449.002 30.736 448.762 30.736 448.858 30.496C449.05 30.064 449.05 29.488 449.434 29.152C450.25 28.336 450.538 27.28 451.306 26.464C452.026 25.648 452.554 24.736 453.226 23.872C453.898 22.96 454.57 22.048 455.146 21.088C455.338 20.752 455.482 20.464 455.578 20.128C455.674 19.744 455.626 19.408 455.386 19.168C455.002 18.784 454.09 18.736 453.418 19.024C452.602 19.312 451.93 19.84 451.21 20.32C450.682 20.608 450.154 20.848 449.722 21.232C448.426 22.336 447.034 23.248 445.834 24.448C445.498 24.736 445.114 25.072 444.73 25.36C445.162 24.736 445.546 24.16 446.026 23.632C447.13 22.48 447.946 21.136 448.954 19.936C449.29 19.552 449.626 19.168 449.866 18.784C450.346 18.112 450.49 17.248 450.106 16.912C449.722 16.576 449.146 16.384 448.57 16.528C447.802 16.672 447.034 17.056 446.41 17.536C445.594 18.208 444.874 18.928 443.914 19.408C443.722 19.504 443.53 19.696 443.386 19.84C443.002 20.224 442.618 20.512 442.234 20.848C441.514 21.424 440.842 22 440.17 22.672C439.546 23.296 438.826 23.872 438.106 24.4C438.826 23.584 439.402 22.672 440.17 21.856C440.842 21.088 441.466 20.272 442.138 19.456C442.714 18.688 442.57 17.776 441.85 17.392C441.274 17.104 440.698 17.392 440.074 18.256C440.026 18.304 439.978 18.4 439.93 18.448C439.306 19.12 438.586 19.792 438.154 20.608C438.106 20.704 437.962 20.752 437.914 20.848C437.77 20.992 437.578 21.136 437.434 21.28C436.378 22.576 435.466 23.968 434.362 25.264C433.978 25.696 433.786 26.176 433.45 26.608C432.874 27.28 432.442 28.048 431.914 28.72C431.338 29.44 431.098 30.256 430.57 30.976C430.234 31.504 430.138 31.984 430.09 32.512C430.09 33.136 430.33 33.568 430.906 33.76C431.53 33.904 432.106 33.616 432.634 33.184C432.922 32.944 433.21 32.656 433.45 32.416C434.314 31.648 435.274 30.976 435.946 30.064C436.858 28.864 438.01 27.904 439.066 26.848C440.218 25.696 441.466 24.688 442.57 23.536C442.81 23.248 443.05 23.008 443.482 22.864ZM470.421 20.896C470.277 20.56 470.277 20.176 470.277 19.84C470.277 19.312 470.085 18.976 469.701 18.688C468.885 18.016 467.781 17.968 466.677 18.016C466.485 18.016 466.293 18.112 466.101 18.16C465.141 18.544 464.181 18.928 463.365 19.696C463.125 19.936 462.837 20.128 462.549 20.32C461.733 20.848 461.061 21.616 460.389 22.336C459.909 22.816 459.381 23.344 458.901 23.872C457.749 25.024 456.693 26.224 455.733 27.52C454.773 28.72 454.101 30.064 453.285 31.312C452.901 31.84 452.757 32.416 452.661 32.992C452.565 33.28 452.613 33.568 452.757 33.76C453.285 34.672 454.149 34.912 455.349 34.576C456.261 34.336 457.125 33.856 457.845 33.328C459.141 32.368 460.437 31.456 461.733 30.496C463.077 29.536 464.325 28.432 465.669 27.52C465.861 27.376 466.005 27.136 466.341 27.088C466.293 27.424 466.101 27.712 465.861 28C465.669 28.288 465.477 28.528 465.381 28.816C465.285 29.344 464.997 29.824 464.709 30.352C464.037 31.696 463.989 32.896 464.805 33.904C465.477 34.72 466.437 34.816 467.685 34.192C469.269 33.376 470.709 32.224 472.005 30.976C473.589 29.44 475.317 28.048 476.901 26.512C477.717 25.744 478.581 25.024 479.445 24.304C479.973 23.824 480.309 23.296 480.597 22.72C481.077 21.952 480.549 21.232 479.685 21.472C479.157 21.568 478.629 21.808 478.197 22.24C477.813 22.624 477.429 23.104 476.997 23.44C476.037 24.16 475.269 25.12 474.213 25.84C474.021 25.936 473.877 26.128 473.733 26.32C473.253 26.848 472.725 27.28 472.149 27.712C471.621 28.144 471.093 28.576 470.613 29.056C469.653 30.064 468.597 30.832 467.493 31.552C467.349 31.648 467.205 31.744 467.109 31.648C466.965 31.6 467.061 31.408 467.109 31.264C467.397 30.4 467.589 29.536 468.213 28.672C468.885 27.712 469.509 26.752 470.277 25.792C470.613 25.312 471.141 24.928 471.477 24.448C472.005 23.536 472.821 22.816 473.541 22.048C474.117 21.424 474.645 20.752 475.077 20.08C475.461 19.504 475.317 18.976 474.837 18.736C474.453 18.592 474.069 18.592 473.637 18.784C473.109 19.024 472.533 19.264 472.101 19.696C471.573 20.128 470.997 20.464 470.421 20.896ZM455.829 31.648C455.829 31.456 455.925 31.312 456.021 31.216C456.837 30.16 457.461 29.056 458.373 28.048C458.757 27.616 458.997 27.04 459.429 26.608C460.245 25.792 461.061 24.976 461.877 24.16C462.357 23.68 462.837 23.104 463.365 22.624C464.133 22 464.949 21.568 465.717 20.992C466.005 20.8 466.341 20.752 466.677 20.704C467.349 20.608 467.541 20.752 467.589 21.376C467.637 21.664 467.733 21.952 467.637 22.24C467.445 22.768 467.301 23.344 466.629 23.632C465.861 24.544 464.757 25.12 463.893 25.936C463.749 26.032 463.653 26.176 463.509 26.224C462.789 26.512 462.309 27.088 461.733 27.568C460.821 28.288 459.909 29.104 458.853 29.68C458.469 29.872 458.181 30.16 457.845 30.448C457.365 30.928 456.741 31.264 456.165 31.6C456.069 31.648 455.973 31.696 455.829 31.648ZM480.835 23.392C480.787 23.344 480.739 23.344 480.691 23.296C481.219 22.624 481.651 21.904 482.323 21.28C482.659 20.992 482.947 20.704 483.139 20.32C483.571 19.6 483.427 18.736 482.851 18.448C482.227 18.208 481.123 18.64 480.691 19.312C480.355 19.888 479.875 20.368 479.587 20.992C479.491 21.232 479.299 21.424 479.107 21.616C478.771 21.808 478.579 22.096 478.339 22.432C478.051 22.912 477.763 23.44 477.379 23.824C476.707 24.448 476.371 25.168 475.699 25.744C475.555 25.888 475.459 26.08 475.363 26.272C475.219 26.512 475.075 26.752 474.835 26.944C474.307 27.52 474.115 28.24 473.443 28.768C473.443 28.768 473.395 28.816 473.395 28.864C473.251 29.248 473.011 29.536 472.723 29.824C471.907 30.832 471.811 31.552 472.291 32.32C472.627 32.848 473.155 32.944 473.827 32.56C474.403 32.224 475.075 31.888 475.459 31.216C475.507 31.12 475.603 30.976 475.699 30.928C476.515 30.496 477.043 29.728 477.715 29.152C478.675 28.336 479.539 27.52 480.451 26.704C481.363 25.888 482.371 25.216 483.235 24.304C483.859 23.68 484.483 23.104 485.299 22.72C485.395 22.672 485.491 22.576 485.587 22.528C486.163 22 486.883 21.616 487.459 21.088C487.507 21.04 487.603 21.04 487.651 21.136C487.507 21.376 487.315 21.616 487.075 21.856C486.355 22.624 485.827 23.44 485.203 24.256C484.435 25.312 483.811 26.416 483.091 27.472C482.611 28.192 482.419 29.008 481.891 29.68C481.795 29.776 481.795 29.92 481.795 30.064C481.603 30.928 481.747 31.696 482.083 32.368C482.515 33.184 483.283 33.232 484.243 32.704C484.435 32.608 484.579 32.56 484.771 32.512C485.443 32.224 486.163 31.84 486.691 31.264C487.267 30.688 487.891 30.256 488.515 29.728C488.707 29.584 488.899 29.44 489.043 29.296C489.859 28.384 490.867 27.712 491.731 26.896C492.643 26.032 493.603 25.216 494.563 24.4C495.091 23.968 495.523 23.392 495.667 22.768C495.811 22.24 495.667 21.856 495.235 21.616C494.803 21.424 494.371 21.52 493.891 21.904C493.411 22.24 492.979 22.624 492.547 23.008C492.019 23.44 491.635 24.016 491.059 24.352C490.531 24.688 490.099 25.12 489.667 25.552C489.331 25.888 488.995 26.224 488.611 26.512C487.891 27.136 487.219 27.808 486.451 28.384C485.923 28.816 485.443 29.248 484.819 29.584C484.819 29.344 484.915 29.152 485.011 28.96C485.491 28.24 485.923 27.472 486.403 26.704C486.931 25.936 487.699 25.216 487.987 24.304C488.035 24.256 488.131 24.16 488.179 24.064C488.995 23.008 490.099 22.144 490.723 20.944C490.819 20.848 490.915 20.8 491.011 20.656C491.491 20.08 491.971 19.456 492.259 18.784C492.787 17.68 492.595 17.008 491.779 16.672C491.395 16.48 490.963 16.528 490.531 16.72C489.235 17.2 488.035 18.016 486.787 18.688C486.115 19.072 485.587 19.648 484.963 20.128C484.387 20.512 483.811 20.896 483.331 21.328C482.995 21.616 482.707 21.904 482.371 22.048C481.987 22.192 481.747 22.432 481.459 22.72C481.267 22.96 481.027 23.152 480.835 23.392ZM500.384 25.696C500.432 25.84 500.384 25.936 500.336 25.984C499.712 26.656 499.28 27.376 498.8 28.096C497.792 29.584 497.12 31.12 496.832 32.8C496.496 34.864 497.936 35.392 499.52 35.152C500.816 34.96 502.064 34.288 503.264 33.52C503.504 33.328 503.792 33.136 504.08 33.04C504.416 32.896 504.752 32.656 505.088 32.416C505.664 31.888 506.24 31.36 506.816 30.88C508.064 29.92 509.312 28.96 510.32 27.76C510.896 26.992 511.616 26.272 512.144 25.456C513.008 24.208 513.632 22.912 513.872 21.568C513.968 21.04 514.112 20.896 514.64 20.848C515.072 20.848 515.504 20.704 515.936 20.656C516.752 20.56 517.568 20.464 518.336 20.656C518.576 20.752 518.624 20.896 518.432 21.184C517.952 21.856 517.52 22.48 516.992 23.152C516.224 24.112 515.36 25.024 514.64 26.032C514.16 26.608 513.68 27.184 513.152 27.76C512.576 28.384 511.952 28.96 511.616 29.776C511.568 29.872 511.424 30.016 511.328 30.112C510.272 31.168 509.408 32.32 508.64 33.52C508.304 34 507.872 34.384 507.536 34.864C506.624 36.208 505.904 37.6 505.184 38.944C504.8 39.712 504.368 40.432 504.224 41.248C504.224 41.392 504.128 41.584 504.032 41.728C503.456 42.928 503.504 43.984 503.936 44.944C504.128 45.328 504.464 45.52 504.944 45.52C505.76 45.52 506.528 45.088 507.248 44.608C507.776 44.32 508.064 43.552 507.968 43.072C507.92 42.544 507.584 42.352 506.864 42.4C506.48 42.4 506.48 42.352 506.576 41.968C506.912 40.816 507.536 39.712 508.16 38.608C508.592 37.744 508.976 36.88 509.696 36.16C509.696 36.112 509.744 36.064 509.744 36.016C510.176 35.152 510.896 34.384 511.424 33.568C511.808 33.04 512.384 32.56 512.768 32.032C513.68 30.736 514.784 29.584 515.744 28.336C516.752 26.992 518.048 25.888 518.864 24.448C518.912 24.304 519.056 24.208 519.152 24.064C520.208 23.104 520.832 21.904 521.6 20.8C521.744 20.608 521.792 20.368 521.792 20.176C521.888 18.448 521.408 17.872 519.728 17.824C519.68 17.824 519.584 17.824 519.536 17.824C518.24 17.872 516.896 18.016 515.6 18.112C515.168 18.16 514.784 18.16 514.352 18.304C513.68 18.496 513.008 18.544 512.432 18.304C511.952 18.064 511.376 18.208 510.848 18.592C510.128 19.072 509.888 19.792 510.272 20.32C510.464 20.56 510.704 20.752 510.992 20.944C511.184 21.088 511.328 21.28 511.232 21.568C511.088 22.144 510.944 22.768 510.608 23.296C510.176 23.968 509.744 24.64 509.264 25.312C508.976 25.744 508.592 25.984 508.304 26.368C507.632 27.184 506.912 27.952 506 28.528C505.856 28.624 505.712 28.768 505.616 28.912C505.376 29.248 505.088 29.44 504.752 29.68C504.08 30.16 503.264 30.496 502.64 31.216C502.544 31.312 502.4 31.408 502.256 31.408C501.872 31.456 501.536 31.696 501.2 31.888C500.864 32.128 500.432 32.272 500.048 32.416C499.616 32.56 499.424 32.416 499.568 32.032C499.808 31.456 499.904 30.88 500.288 30.352C500.624 29.92 500.864 29.44 501.152 28.96C501.584 28.288 501.968 27.568 502.496 26.944C502.688 26.656 502.976 26.464 503.168 26.128C503.456 25.504 503.936 24.976 504.416 24.448C504.56 24.256 504.752 24.064 504.848 23.872C505.232 23.152 505.712 22.528 506.336 21.952C506.72 21.568 507.008 21.136 507.152 20.656C507.296 20.08 507.2 19.648 506.768 19.36C506.336 19.072 505.856 19.024 505.28 19.312C504.944 19.504 504.608 19.696 504.272 19.888C503.84 20.128 503.696 20.08 503.552 19.744C503.504 19.648 503.504 19.504 503.408 19.36C503.12 18.88 502.976 18.256 502.304 18.064C501.824 17.92 501.248 17.92 500.672 18.016C499.472 18.256 498.416 18.832 497.456 19.696C497.264 19.888 497.024 20.08 496.784 20.128C496.112 20.32 495.584 20.704 495.152 21.28C495.056 21.424 494.912 21.568 494.72 21.664C494 22.096 493.52 22.768 492.944 23.344C492.752 23.584 492.512 23.776 492.32 23.968C491.36 24.976 490.256 25.888 489.536 27.088C489.344 27.376 489.104 27.712 488.816 27.952C488.336 28.336 488.048 28.816 487.76 29.296C487.616 29.536 487.472 29.728 487.328 29.968C486.752 30.592 486.512 31.36 486.128 32.128C485.984 32.464 485.888 32.848 485.84 33.232C485.744 33.952 486.08 34.432 486.56 34.768C486.752 34.96 487.088 34.912 487.376 34.816C487.904 34.576 488.432 34.384 488.912 34.048C490.544 32.992 492.08 31.792 493.568 30.592C494.432 29.92 495.248 29.152 496.208 28.624C496.784 28.288 497.312 27.856 497.84 27.376C498.032 27.232 498.272 27.04 498.512 26.944C498.848 26.752 499.184 26.56 499.472 26.272C499.712 26.032 500 25.84 500.384 25.696ZM490.016 30.448C490.4 29.728 490.736 28.96 491.408 28.384C492.128 27.712 492.752 26.992 493.328 26.224C493.52 25.984 493.808 25.792 494 25.6C494.432 25.12 494.96 24.736 495.296 24.16C495.728 23.536 496.448 23.2 497.072 22.72C497.408 22.48 497.744 22.288 498.032 22C498.656 21.376 499.424 21.088 500.192 20.752C500.72 20.464 500.912 20.608 500.912 21.136C500.912 21.376 500.912 21.568 500.912 21.76C500.96 22.288 500.912 22.384 500.384 22.72C499.136 23.536 497.888 24.4 496.736 25.36C496.544 25.504 496.352 25.648 496.16 25.792C495.968 25.888 495.728 25.984 495.584 26.128C494.72 26.992 493.616 27.52 492.752 28.384C492.656 28.528 492.512 28.624 492.368 28.672C491.456 29.056 490.736 29.728 490.016 30.448Z" fill="white"/>
</svg>
