<svg width="130" height="20" viewBox="0 0 130 20" fill="none" xmlns="http://www.w3.org/2000/svg">
<path d="M9.47311 19.26C14.4911 19.26 18.3131 14.996 18.3131 9.874C18.3131 4.674 14.6211 0.279999 9.29111 0.279999C3.93511 0.279999 0.217111 4.336 0.217111 9.718C0.217111 14.736 3.98711 19.26 9.47311 19.26ZM10.0451 18.142C5.59911 18.142 2.55711 13.488 2.55711 8.132C2.55711 4.31 4.97511 1.398 8.48511 1.398C12.9311 1.398 15.9731 5.922 15.9731 11.434C15.9731 14.944 13.5291 18.142 10.0451 18.142ZM28.8551 19.26C32.9371 19.26 35.7971 16.348 35.7971 11.85V2.36C35.7971 1.45 36.8631 1.398 36.8631 0.929999V0.852C36.8631 0.643999 36.6291 0.539999 36.3171 0.539999H34.0291C33.7171 0.539999 33.4831 0.643999 33.4831 0.852V0.929999C33.4831 1.398 34.4711 1.45 34.4711 2.36V11.824C34.4711 15.958 32.0271 18.142 29.2971 18.142C26.0471 18.142 23.8891 15.672 23.8891 11.824V2.36C23.8891 1.45 24.8771 1.398 24.8771 0.929999V0.852C24.8771 0.643999 24.6691 0.539999 24.3571 0.539999H21.0811C20.7691 0.539999 20.5611 0.643999 20.5611 0.852V0.929999C20.5611 1.398 21.4971 1.45 21.4971 2.36V11.824C21.4971 16.348 24.5131 19.26 28.8551 19.26ZM44.1886 19H47.4386C47.7766 19 47.9846 18.896 47.9846 18.688V18.636C47.9846 18.142 46.9706 18.116 46.9706 17.18V1.658H50.5586C51.8586 1.658 52.1966 4.466 52.9506 4.466H53.2106C53.4446 4.466 53.6006 4.31 53.5226 3.972L52.9506 1.112C52.8726 0.747999 52.6906 0.539999 52.2746 0.539999H39.3526C38.9366 0.539999 38.7546 0.747999 38.7026 1.112L38.2866 3.946C38.2346 4.31 38.3646 4.466 38.6246 4.466H38.8586C39.6126 4.466 39.7686 1.658 41.0946 1.658H44.6306V17.18C44.6306 18.116 43.6686 18.142 43.6686 18.636V18.688C43.6686 18.896 43.8766 19 44.1886 19ZM55.899 19H62.529C67.885 19 72.097 15.49 72.097 9.614C72.097 4.18 67.339 0.539999 61.593 0.539999H55.899C55.587 0.539999 55.353 0.643999 55.353 0.852V0.903999C55.353 1.398 56.315 1.424 56.315 2.36V17.18C56.315 18.09 55.353 18.142 55.353 18.636V18.688C55.353 18.896 55.587 19 55.899 19ZM59.851 17.934C59.097 17.934 58.629 17.414 58.629 16.504V2.438C58.629 1.866 58.941 1.606 59.357 1.606H61.177C65.571 1.606 69.679 5.038 69.679 10.446C69.679 15.23 66.351 17.934 62.373 17.934H59.851ZM83.3344 19.26C88.3524 19.26 92.1744 14.996 92.1744 9.874C92.1744 4.674 88.4824 0.279999 83.1524 0.279999C77.7964 0.279999 74.0784 4.336 74.0784 9.718C74.0784 14.736 77.8484 19.26 83.3344 19.26ZM83.9064 18.142C79.4604 18.142 76.4184 13.488 76.4184 8.132C76.4184 4.31 78.8364 1.398 82.3464 1.398C86.7924 1.398 89.8344 5.922 89.8344 11.434C89.8344 14.944 87.3904 18.142 83.9064 18.142ZM103.418 19.26C108.436 19.26 112.258 14.996 112.258 9.874C112.258 4.674 108.566 0.279999 103.236 0.279999C97.8804 0.279999 94.1624 4.336 94.1624 9.718C94.1624 14.736 97.9324 19.26 103.418 19.26ZM103.99 18.142C99.5444 18.142 96.5024 13.488 96.5024 8.132C96.5024 4.31 98.9204 1.398 102.43 1.398C106.876 1.398 109.918 5.922 109.918 11.434C109.918 14.944 107.474 18.142 103.99 18.142ZM128.236 17.18L124.076 11.434C126.936 10.628 128.47 8.626 128.47 6.26C128.444 2.334 125.064 0.539999 120.618 0.539999H115.288C114.976 0.539999 114.768 0.643999 114.768 0.852V0.903999C114.768 1.398 115.704 1.424 115.704 2.36V17.18C115.704 18.116 114.768 18.142 114.768 18.636V18.688C114.768 18.896 114.976 19 115.288 19H118.564C118.876 19 119.084 18.896 119.084 18.688V18.636C119.084 18.142 118.07 18.116 118.07 17.18V11.876L121.19 11.824C121.424 11.824 121.632 11.824 121.84 11.798L125.74 17.18C126.338 18.142 125.22 18.142 125.22 18.636V18.688C125.22 18.896 125.428 19 125.74 19H129.354C129.666 19 129.874 18.896 129.874 18.688V18.636C129.874 18.142 128.938 18.168 128.236 17.18ZM120.956 10.784H119.162C118.46 10.784 118.07 10.42 118.07 9.562V2.49C118.07 1.944 118.278 1.606 118.746 1.606H120.488C123.4 1.606 126.052 3.166 126.052 6.598C126.052 9.224 123.972 10.784 120.956 10.784Z" fill="white"/>
</svg>
