<svg width="162" height="20" viewBox="0 0 162 20" fill="none" xmlns="http://www.w3.org/2000/svg">
<path d="M9.91363 9.094C12.0716 8.6 13.4236 7.144 13.4236 5.142C13.4236 2.464 10.9016 0.539999 6.66363 0.539999H0.995634C0.683634 0.539999 0.475634 0.643999 0.475634 0.852V0.903999C0.475634 1.398 1.41163 1.45 1.41163 2.36V17.18C1.41163 18.09 0.475634 18.142 0.475634 18.61V18.688C0.475634 18.896 0.683634 19 0.995634 19H8.11963C12.2536 19 15.2176 17.18 15.2176 13.93C15.2176 11.356 13.3456 9.536 9.91363 9.094ZM3.77763 2.49C3.77763 1.866 4.08963 1.632 4.55763 1.632L6.61163 1.606C9.44563 1.606 11.2916 3.062 11.2916 5.532C11.2916 7.352 9.78363 8.678 7.46963 8.678H4.76563C4.16763 8.678 3.75163 8.288 3.75163 7.69L3.77763 2.49ZM7.91163 17.934H4.86963C4.21963 17.934 3.77763 17.44 3.77763 16.686V9.744H6.84563C10.7456 9.744 12.7996 11.824 12.7996 14.32C12.7996 16.764 10.9016 17.934 7.91163 17.934ZM32.1241 17.18L25.4161 1.398C25.1561 0.773999 24.8181 0.539999 24.1941 0.539999H22.6861C22.4261 0.539999 22.3221 0.669999 22.3221 0.825998V0.903999C22.3221 1.32 23.4401 1.658 23.1281 2.438L17.3561 17.18C16.9921 18.168 16.1341 18.142 16.1341 18.636V18.688C16.1341 18.896 16.3161 19 16.6541 19H19.1241C19.4621 19 19.6701 18.896 19.6701 18.688V18.636C19.6701 18.142 18.4221 18.09 18.7861 17.18L19.9301 14.112H28.3541L29.6021 17.18C29.9401 18.09 28.7181 18.142 28.7181 18.636V18.688C28.7181 18.896 28.9001 19 29.2121 19H32.8781C33.1901 19 33.3721 18.896 33.3721 18.688V18.636C33.3721 18.142 32.5401 18.142 32.1241 17.18ZM20.3721 12.994L24.0121 3.348L27.9121 12.994H20.3721ZM37.3497 19H40.5997C40.9377 19 41.1457 18.896 41.1457 18.688V18.636C41.1457 18.142 40.1317 18.116 40.1317 17.18V1.658H43.7197C45.0197 1.658 45.3577 4.466 46.1117 4.466H46.3717C46.6057 4.466 46.7617 4.31 46.6837 3.972L46.1117 1.112C46.0337 0.747999 45.8517 0.539999 45.4357 0.539999H32.5137C32.0977 0.539999 31.9157 0.747999 31.8637 1.112L31.4477 3.946C31.3957 4.31 31.5257 4.466 31.7857 4.466H32.0197C32.7737 4.466 32.9297 1.658 34.2557 1.658H37.7917V17.18C37.7917 18.116 36.8297 18.142 36.8297 18.636V18.688C36.8297 18.896 37.0377 19 37.3497 19ZM49.0601 19H52.3101C52.6221 19 52.8301 18.896 52.8301 18.688V18.636C52.8301 18.142 51.8421 18.116 51.8421 17.18V10.16H62.0341L62.0081 17.18C62.0081 18.116 61.0721 18.142 61.0721 18.636V18.688C61.0721 18.896 61.2801 19 61.5921 19H64.8421C65.1801 19 65.3881 18.896 65.3881 18.688V18.636C65.3881 18.142 64.3741 18.116 64.3741 17.18V2.36C64.3741 1.424 65.3881 1.398 65.3881 0.903999V0.852C65.3881 0.643999 65.1801 0.539999 64.8421 0.539999H61.5921C61.2801 0.539999 61.0721 0.643999 61.0721 0.852V0.903999C61.0721 1.398 62.0081 1.424 62.0081 2.36L62.0341 9.016H51.8161L51.8421 2.36C51.8421 1.424 52.8301 1.398 52.8301 0.903999V0.852C52.8301 0.643999 52.6221 0.539999 52.3101 0.539999H49.0601C48.7481 0.539999 48.5401 0.643999 48.5401 0.852V0.903999C48.5401 1.398 49.4761 1.424 49.4761 2.36V17.18C49.4761 18.116 48.5401 18.142 48.5401 18.636V18.688C48.5401 18.896 48.7481 19 49.0601 19ZM81.9397 17.18L77.7797 11.434C80.6397 10.628 82.1737 8.626 82.1737 6.26C82.1477 2.334 78.7677 0.539999 74.3217 0.539999H68.9917C68.6797 0.539999 68.4717 0.643999 68.4717 0.852V0.903999C68.4717 1.398 69.4077 1.424 69.4077 2.36V17.18C69.4077 18.116 68.4717 18.142 68.4717 18.636V18.688C68.4717 18.896 68.6797 19 68.9917 19H72.2677C72.5797 19 72.7877 18.896 72.7877 18.688V18.636C72.7877 18.142 71.7737 18.116 71.7737 17.18V11.876L74.8937 11.824C75.1277 11.824 75.3357 11.824 75.5437 11.798L79.4437 17.18C80.0417 18.142 78.9237 18.142 78.9237 18.636V18.688C78.9237 18.896 79.1317 19 79.4437 19H83.0577C83.3697 19 83.5777 18.896 83.5777 18.688V18.636C83.5777 18.142 82.6417 18.168 81.9397 17.18ZM74.6597 10.784H72.8657C72.1637 10.784 71.7737 10.42 71.7737 9.562V2.49C71.7737 1.944 71.9817 1.606 72.4497 1.606H74.1917C77.1037 1.606 79.7557 3.166 79.7557 6.598C79.7557 9.224 77.6757 10.784 74.6597 10.784ZM93.812 19.26C98.83 19.26 102.652 14.996 102.652 9.874C102.652 4.674 98.96 0.279999 93.63 0.279999C88.274 0.279999 84.556 4.336 84.556 9.718C84.556 14.736 88.326 19.26 93.812 19.26ZM94.384 18.142C89.938 18.142 86.896 13.488 86.896 8.132C86.896 4.31 89.314 1.398 92.824 1.398C97.27 1.398 100.312 5.922 100.312 11.434C100.312 14.944 97.868 18.142 94.384 18.142ZM113.896 19.26C118.914 19.26 122.736 14.996 122.736 9.874C122.736 4.674 119.044 0.279999 113.714 0.279999C108.358 0.279999 104.64 4.336 104.64 9.718C104.64 14.736 108.41 19.26 113.896 19.26ZM114.468 18.142C110.022 18.142 106.98 13.488 106.98 8.132C106.98 4.31 109.398 1.398 112.908 1.398C117.354 1.398 120.396 5.922 120.396 11.434C120.396 14.944 117.952 18.142 114.468 18.142ZM145.141 17.102L142.437 2.62C142.229 1.502 143.321 1.424 143.321 0.903999V0.825998C143.321 0.643999 143.139 0.539999 142.931 0.539999H141.085C140.591 0.539999 140.305 0.773999 140.149 1.19L134.923 15.906L129.853 1.216C129.697 0.773999 129.333 0.539999 128.839 0.539999H127.123C126.837 0.539999 126.681 0.669999 126.681 0.877999V0.929999C126.681 1.476 127.695 1.502 127.539 2.412L125.017 17.102C124.835 18.09 123.977 18.142 123.977 18.636V18.688C123.977 18.896 124.185 19 124.497 19H126.863C127.175 19 127.383 18.896 127.383 18.688V18.636C127.383 18.142 126.213 18.09 126.395 17.102L128.631 3.816L133.909 18.454C134.065 18.818 134.273 18.974 134.611 18.974C134.975 18.974 135.131 18.792 135.287 18.428L140.513 4.128L142.801 17.102C143.009 18.116 141.943 18.142 141.943 18.636V18.688C141.943 18.896 142.151 19 142.463 19H145.661C145.999 19 146.207 18.896 146.207 18.688V18.636C146.207 18.142 145.349 18.116 145.141 17.102ZM154.803 19.26C158.443 19.26 161.459 17.336 161.459 14.216C161.459 6.364 150.331 10.888 150.331 4.83C150.331 2.854 151.735 1.32 154.361 1.32C159.145 1.32 158.157 5.584 160.107 5.584C160.809 5.584 161.173 5.168 161.173 4.544C161.173 2.75 158.859 0.305999 154.439 0.305999C150.305 0.305999 147.965 2.49 147.965 5.376C147.965 13.176 159.067 8.288 159.067 14.762C159.067 16.816 157.377 18.246 154.907 18.246C149.681 18.246 150.331 13.722 148.459 13.644C147.809 13.644 147.471 14.086 147.471 14.684C147.471 16.27 149.707 19.26 154.803 19.26Z" fill="white"/>
</svg>
