<svg width="171" height="20" viewBox="0 0 171 20" fill="none" xmlns="http://www.w3.org/2000/svg">
<path d="M0.543867 19H11.8539C12.2439 19 12.4259 18.792 12.5039 18.402L13.1539 15.542C13.2319 15.23 13.1019 15.074 12.8679 15.074H12.6599C11.7499 15.074 11.4379 17.934 9.92987 17.934H4.15787C3.61187 17.934 3.32587 17.518 3.32587 16.92V2.36C3.32587 1.398 4.33987 1.424 4.33987 0.903999V0.852C4.33987 0.643999 4.13187 0.539999 3.81987 0.539999H0.543867C0.231867 0.539999 0.0238672 0.643999 0.0238672 0.852V0.903999C0.0238672 1.424 0.959867 1.398 0.959867 2.36V17.18C0.959867 18.09 0.0238672 18.142 0.0238672 18.636V18.688C0.0238672 18.87 0.231867 19 0.543867 19ZM14.9789 18.688C14.9789 18.896 15.1869 19 15.4989 19H18.7489C19.0609 19 19.2689 18.896 19.2689 18.688V18.636C19.2689 18.168 18.2809 18.142 18.2809 17.206V2.36C18.2809 1.424 19.2689 1.398 19.2689 0.903999V0.852C19.2689 0.643999 19.0609 0.539999 18.7489 0.539999H15.4989C15.1869 0.539999 14.9789 0.643999 14.9789 0.852V0.903999C14.9789 1.398 15.9149 1.424 15.9149 2.36V17.206C15.9149 18.142 14.9789 18.168 14.9789 18.636V18.688ZM38.4616 0.539999H35.7576C35.3936 0.539999 35.2376 0.643999 35.2376 0.825998V0.903999C35.2376 1.372 36.6676 1.45 36.3036 2.36L30.6356 16.426L24.6036 2.386C24.2136 1.45 25.5656 1.398 25.5656 0.903999V0.852C25.5656 0.643999 25.3316 0.539999 25.0196 0.539999H21.3016C20.9636 0.539999 20.7556 0.643999 20.7556 0.852V0.903999C20.7556 1.398 21.4576 1.346 21.9256 2.386L29.2056 18.35C29.4136 18.792 29.6996 19 30.0896 19C30.5056 19 30.7916 18.844 31.0256 18.324L37.7336 2.36C38.1756 1.32 38.9556 1.372 38.9556 0.903999V0.825998C38.9556 0.643999 38.7736 0.539999 38.4616 0.539999ZM40.5727 18.688C40.5727 18.896 40.7807 19 41.0927 19H44.3427C44.6547 19 44.8627 18.896 44.8627 18.688V18.636C44.8627 18.168 43.8747 18.142 43.8747 17.206V2.36C43.8747 1.424 44.8627 1.398 44.8627 0.903999V0.852C44.8627 0.643999 44.6547 0.539999 44.3427 0.539999H41.0927C40.7807 0.539999 40.5727 0.643999 40.5727 0.852V0.903999C40.5727 1.398 41.5087 1.424 41.5087 2.36V17.206C41.5087 18.142 40.5727 18.168 40.5727 18.636V18.688ZM63.9774 0.539999H61.6114C61.2734 0.539999 61.0654 0.669999 61.0654 0.877999V0.929999C61.0654 1.398 62.1314 1.424 62.1314 2.36V15.984L51.3414 1.06C51.1074 0.722 50.8214 0.539999 50.4054 0.539999H48.4294C48.0914 0.539999 47.9094 0.669999 47.9094 0.877999V0.982C47.9094 1.476 48.8974 1.476 48.8974 2.386V17.102C48.8974 18.064 47.9094 18.142 47.9094 18.636V18.688C47.9094 18.896 48.0914 19 48.4294 19H50.7954C51.1074 19 51.3414 18.896 51.3414 18.688V18.636C51.3414 18.142 50.2234 18.064 50.2234 17.102V3.192L61.3254 18.324C61.6634 18.844 61.8974 19 62.1574 19H62.8074C63.2234 19 63.4574 18.74 63.4574 18.298V2.36C63.4574 1.424 64.4974 1.398 64.4974 0.929999V0.877999C64.4974 0.669999 64.2894 0.539999 63.9774 0.539999ZM75.8086 19.26C78.5126 19.26 80.6706 18.454 82.0226 17.336C82.5426 16.92 82.6986 16.634 82.6986 16.088V12.058C82.6986 11.018 84.2326 11.07 84.2326 10.628V10.524C84.2326 10.316 84.0246 10.186 83.7126 10.186L79.2666 10.16C78.9546 10.16 78.7206 10.29 78.7206 10.524V10.628C78.7206 11.07 80.4886 11.018 80.4886 12.058V16.556C79.5786 17.206 78.0966 17.674 76.4326 17.674C72.6366 17.674 69.1266 13.722 69.1266 8.444C69.1266 4.414 71.7006 1.372 74.8466 1.372C79.5786 1.372 79.6306 6.208 81.5806 6.208C82.2566 6.208 82.6986 5.766 82.6986 5.09C82.6986 3.192 79.9166 0.305999 75.5226 0.305999C70.6606 0.305999 66.8126 4.102 66.8126 9.848C66.8126 14.944 71.0246 19.26 75.8086 19.26ZM98.6949 19.26C102.335 19.26 105.351 17.336 105.351 14.216C105.351 6.364 94.2229 10.888 94.2229 4.83C94.2229 2.854 95.6269 1.32 98.2529 1.32C103.037 1.32 102.049 5.584 103.999 5.584C104.701 5.584 105.065 5.168 105.065 4.544C105.065 2.75 102.751 0.305999 98.3309 0.305999C94.1969 0.305999 91.8569 2.49 91.8569 5.376C91.8569 13.176 102.959 8.288 102.959 14.762C102.959 16.816 101.269 18.246 98.7989 18.246C93.5729 18.246 94.2229 13.722 92.3509 13.644C91.7009 13.644 91.3629 14.086 91.3629 14.684C91.3629 16.27 93.5989 19.26 98.6949 19.26ZM108.352 19H111.602C111.914 19 112.122 18.87 112.122 18.662V18.61C112.122 18.168 111.108 18.116 111.108 17.18V12.734H113.786C118.544 12.734 121.378 10.524 121.378 6.546C121.378 2.23 117.53 0.539999 113.188 0.539999H108.352C108.014 0.539999 107.806 0.643999 107.806 0.852V0.929999C107.806 1.398 108.768 1.502 108.768 2.36V17.18C108.768 18.116 107.806 18.168 107.806 18.61V18.662C107.806 18.87 108.014 19 108.352 19ZM112.044 11.668C111.42 11.668 111.108 11.33 111.108 10.732V2.438C111.108 1.892 111.316 1.606 111.784 1.606H113.188C116.178 1.606 118.96 3.322 118.96 7.118C118.96 9.978 116.958 11.668 113.786 11.668H112.044ZM136.866 17.18L130.158 1.398C129.898 0.773999 129.56 0.539999 128.936 0.539999H127.428C127.168 0.539999 127.064 0.669999 127.064 0.825998V0.903999C127.064 1.32 128.182 1.658 127.87 2.438L122.098 17.18C121.734 18.168 120.876 18.142 120.876 18.636V18.688C120.876 18.896 121.058 19 121.396 19H123.866C124.204 19 124.412 18.896 124.412 18.688V18.636C124.412 18.142 123.164 18.09 123.528 17.18L124.672 14.112H133.096L134.344 17.18C134.682 18.09 133.46 18.142 133.46 18.636V18.688C133.46 18.896 133.642 19 133.954 19H137.62C137.932 19 138.114 18.896 138.114 18.688V18.636C138.114 18.142 137.282 18.142 136.866 17.18ZM125.114 12.994L128.754 3.348L132.654 12.994H125.114ZM146.945 19.26C151.261 19.26 153.705 16.27 154.277 13.202C154.433 12.448 153.627 12.344 153.315 12.864C152.509 14.788 150.715 17.18 147.595 17.18C143.929 17.18 140.523 13.54 140.523 8.288C140.523 4.18 143.201 1.372 146.217 1.372C150.975 1.372 150.819 6.234 152.769 6.234C153.497 6.234 153.913 5.792 153.913 5.116C153.913 3.244 150.923 0.305999 146.815 0.305999C141.823 0.305999 138.183 4.128 138.183 9.588C138.183 14.736 142.369 19.26 146.945 19.26ZM157.026 19H168.726C169.142 19 169.324 18.792 169.402 18.402L170.026 15.776C170.078 15.49 169.948 15.256 169.714 15.256H169.558C168.648 15.256 168.206 17.934 166.828 17.934H160.718C160.068 17.934 159.756 17.414 159.756 16.816L159.782 10.082H164.514C165.502 10.082 165.476 11.564 166.022 11.564H166.126C166.334 11.564 166.464 11.382 166.464 11.122V7.924C166.464 7.638 166.334 7.482 166.126 7.482H166.022C165.476 7.482 165.502 9.016 164.514 9.016H159.782V2.49C159.782 1.866 160.042 1.606 160.51 1.606H166.022C167.374 1.606 167.998 4.206 168.804 4.206H168.934C169.194 4.206 169.324 4.05 169.246 3.686L168.622 1.112C168.544 0.747999 168.388 0.539999 167.972 0.539999H156.948C156.662 0.539999 156.48 0.643999 156.48 0.825998V0.903999C156.48 1.372 157.442 1.398 157.442 2.386V17.154C157.442 18.142 156.48 18.142 156.48 18.636V18.688C156.48 18.896 156.714 19 157.026 19Z" fill="white"/>
</svg>
