<svg width="146" height="20" viewBox="0 0 146 20" fill="none" xmlns="http://www.w3.org/2000/svg">
<path d="M10.1065 9.094C12.2645 8.6 13.6165 7.144 13.6165 5.142C13.6165 2.464 11.0945 0.539999 6.85651 0.539999H1.18851C0.876505 0.539999 0.668505 0.643999 0.668505 0.852V0.903999C0.668505 1.398 1.60451 1.45 1.60451 2.36V17.18C1.60451 18.09 0.668505 18.142 0.668505 18.61V18.688C0.668505 18.896 0.876505 19 1.18851 19H8.31251C12.4465 19 15.4105 17.18 15.4105 13.93C15.4105 11.356 13.5385 9.536 10.1065 9.094ZM3.97051 2.49C3.97051 1.866 4.28251 1.632 4.75051 1.632L6.80451 1.606C9.63851 1.606 11.4845 3.062 11.4845 5.532C11.4845 7.352 9.97651 8.678 7.66251 8.678H4.95851C4.36051 8.678 3.94451 8.288 3.94451 7.69L3.97051 2.49ZM8.10451 17.934H5.06251C4.41251 17.934 3.97051 17.44 3.97051 16.686V9.744H7.03851C10.9385 9.744 12.9925 11.824 12.9925 14.32C12.9925 16.764 11.0945 17.934 8.10451 17.934ZM18.3018 19H30.0018C30.4178 19 30.5998 18.792 30.6778 18.402L31.3018 15.776C31.3538 15.49 31.2238 15.256 30.9898 15.256H30.8338C29.9238 15.256 29.4818 17.934 28.1038 17.934H21.9938C21.3438 17.934 21.0318 17.414 21.0318 16.816L21.0578 10.082H25.7898C26.7778 10.082 26.7518 11.564 27.2978 11.564H27.4018C27.6098 11.564 27.7398 11.382 27.7398 11.122V7.924C27.7398 7.638 27.6098 7.482 27.4018 7.482H27.2978C26.7518 7.482 26.7778 9.016 25.7898 9.016H21.0578V2.49C21.0578 1.866 21.3178 1.606 21.7858 1.606H27.2978C28.6498 1.606 29.2738 4.206 30.0798 4.206H30.2098C30.4698 4.206 30.5998 4.05 30.5218 3.686L29.8978 1.112C29.8198 0.747999 29.6638 0.539999 29.2478 0.539999H18.2238C17.9378 0.539999 17.7558 0.643999 17.7558 0.825998V0.903999C17.7558 1.372 18.7178 1.398 18.7178 2.386V17.154C18.7178 18.142 17.7558 18.142 17.7558 18.636V18.688C17.7558 18.896 17.9898 19 18.3018 19ZM33.8916 19H40.5216C45.8776 19 50.0896 15.49 50.0896 9.614C50.0896 4.18 45.3316 0.539999 39.5856 0.539999H33.8916C33.5796 0.539999 33.3456 0.643999 33.3456 0.852V0.903999C33.3456 1.398 34.3076 1.424 34.3076 2.36V17.18C34.3076 18.09 33.3456 18.142 33.3456 18.636V18.688C33.3456 18.896 33.5796 19 33.8916 19ZM37.8436 17.934C37.0896 17.934 36.6216 17.414 36.6216 16.504V2.438C36.6216 1.866 36.9336 1.606 37.3496 1.606H39.1696C43.5636 1.606 47.6716 5.038 47.6716 10.446C47.6716 15.23 44.3436 17.934 40.3656 17.934H37.8436ZM66.0349 17.18L61.8749 11.434C64.7349 10.628 66.2689 8.626 66.2689 6.26C66.2429 2.334 62.8629 0.539999 58.4169 0.539999H53.0869C52.7749 0.539999 52.5669 0.643999 52.5669 0.852V0.903999C52.5669 1.398 53.5029 1.424 53.5029 2.36V17.18C53.5029 18.116 52.5669 18.142 52.5669 18.636V18.688C52.5669 18.896 52.7749 19 53.0869 19H56.3629C56.6749 19 56.8829 18.896 56.8829 18.688V18.636C56.8829 18.142 55.8689 18.116 55.8689 17.18V11.876L58.9889 11.824C59.2229 11.824 59.4309 11.824 59.6389 11.798L63.5389 17.18C64.1369 18.142 63.0189 18.142 63.0189 18.636V18.688C63.0189 18.896 63.2269 19 63.5389 19H67.1529C67.4649 19 67.6729 18.896 67.6729 18.688V18.636C67.6729 18.142 66.7369 18.168 66.0349 17.18ZM58.7549 10.784H56.9609C56.2589 10.784 55.8689 10.42 55.8689 9.562V2.49C55.8689 1.944 56.0769 1.606 56.5449 1.606H58.2869C61.1989 1.606 63.8509 3.166 63.8509 6.598C63.8509 9.224 61.7709 10.784 58.7549 10.784ZM77.9072 19.26C82.9252 19.26 86.7472 14.996 86.7472 9.874C86.7472 4.674 83.0552 0.279999 77.7252 0.279999C72.3692 0.279999 68.6512 4.336 68.6512 9.718C68.6512 14.736 72.4212 19.26 77.9072 19.26ZM78.4792 18.142C74.0332 18.142 70.9912 13.488 70.9912 8.132C70.9912 4.31 73.4092 1.398 76.9192 1.398C81.3652 1.398 84.4072 5.922 84.4072 11.434C84.4072 14.944 81.9632 18.142 78.4792 18.142ZM97.9912 19.26C103.009 19.26 106.831 14.996 106.831 9.874C106.831 4.674 103.139 0.279999 97.8092 0.279999C92.4532 0.279999 88.7352 4.336 88.7352 9.718C88.7352 14.736 92.5052 19.26 97.9912 19.26ZM98.5632 18.142C94.1172 18.142 91.0752 13.488 91.0752 8.132C91.0752 4.31 93.4932 1.398 97.0032 1.398C101.449 1.398 104.491 5.922 104.491 11.434C104.491 14.944 102.047 18.142 98.5632 18.142ZM129.236 17.102L126.532 2.62C126.324 1.502 127.416 1.424 127.416 0.903999V0.825998C127.416 0.643999 127.234 0.539999 127.026 0.539999H125.18C124.686 0.539999 124.4 0.773999 124.244 1.19L119.018 15.906L113.948 1.216C113.792 0.773999 113.428 0.539999 112.934 0.539999H111.218C110.932 0.539999 110.776 0.669999 110.776 0.877999V0.929999C110.776 1.476 111.79 1.502 111.634 2.412L109.112 17.102C108.93 18.09 108.072 18.142 108.072 18.636V18.688C108.072 18.896 108.28 19 108.592 19H110.958C111.27 19 111.478 18.896 111.478 18.688V18.636C111.478 18.142 110.308 18.09 110.49 17.102L112.726 3.816L118.004 18.454C118.16 18.818 118.368 18.974 118.706 18.974C119.07 18.974 119.226 18.792 119.382 18.428L124.608 4.128L126.896 17.102C127.104 18.116 126.038 18.142 126.038 18.636V18.688C126.038 18.896 126.246 19 126.558 19H129.756C130.094 19 130.302 18.896 130.302 18.688V18.636C130.302 18.142 129.444 18.116 129.236 17.102ZM138.898 19.26C142.538 19.26 145.554 17.336 145.554 14.216C145.554 6.364 134.426 10.888 134.426 4.83C134.426 2.854 135.83 1.32 138.456 1.32C143.24 1.32 142.252 5.584 144.202 5.584C144.904 5.584 145.268 5.168 145.268 4.544C145.268 2.75 142.954 0.305999 138.534 0.305999C134.4 0.305999 132.06 2.49 132.06 5.376C132.06 13.176 143.162 8.288 143.162 14.762C143.162 16.816 141.472 18.246 139.002 18.246C133.776 18.246 134.426 13.722 132.554 13.644C131.904 13.644 131.566 14.086 131.566 14.684C131.566 16.27 133.802 19.26 138.898 19.26Z" fill="white"/>
</svg>
