<svg width="1440" height="641" viewBox="0 0 1440 641" fill="none" xmlns="http://www.w3.org/2000/svg">
<path d="M572.463 318.316L566.895 288.678C566.431 286.01 569.099 285.488 569.099 283.98V283.748C569.099 283.168 568.577 282.82 567.881 282.82H561.211C559.877 282.82 559.007 283.458 558.543 284.734L549.263 312.052L539.867 284.734C539.403 283.458 538.417 282.82 537.025 282.82H530.645C529.891 282.82 529.427 283.226 529.427 283.806V283.98C529.427 285.488 531.921 286.01 531.573 288.446L526.759 318.316C526.353 320.868 524.439 321.39 524.439 322.84V323.014C524.439 323.652 524.903 324 525.715 324H532.269C533.081 324 533.545 323.652 533.545 323.014V322.84C533.545 321.39 531.051 320.868 531.457 318.316L535.169 294.246L545.899 322.434C546.363 323.478 547.001 323.942 548.045 323.942C549.089 323.942 549.553 323.42 549.901 322.376L559.703 295.29L563.763 318.316C564.227 320.868 561.733 321.39 561.733 322.84V323.014C561.733 323.652 562.313 324 563.067 324H573.507C574.319 324 574.841 323.652 574.841 323.014V322.84C574.841 321.39 572.927 320.868 572.463 318.316ZM592.225 324.58C600.693 324.58 606.957 318.432 606.957 310.196C606.957 301.96 600.287 295.58 591.355 295.58C583.235 295.58 576.333 301.496 576.333 309.906C576.333 317.968 582.887 324.58 592.225 324.58ZM593.269 322.028C587.991 322.028 584.859 312.516 584.859 306.6C584.859 301.09 586.715 298.132 590.195 298.132C595.125 298.132 598.257 307.296 598.257 313.618C598.257 318.954 596.401 322.028 593.269 322.028ZM622.447 324.522C630.219 324.522 634.859 320.926 634.859 316.228C634.859 305.15 619.025 309.79 619.025 301.844C619.025 299.756 620.475 297.958 622.795 297.958C627.841 297.958 626.159 305.556 630.973 305.556C632.829 305.556 634.279 304.222 634.279 302.54C634.279 298.944 629.639 295.58 622.331 295.58C615.371 295.58 610.557 299.176 610.557 304.106C610.557 315.532 626.681 310.718 626.681 318.432C626.681 321.042 624.825 322.26 622.447 322.26C616.647 322.26 618.619 314.604 613.515 314.604C611.543 314.604 610.035 315.59 610.035 317.794C610.035 321.39 614.965 324.522 622.447 324.522ZM649.334 324.58C655.134 324.58 658.266 320.288 658.266 316.112C658.266 315.01 656.874 314.778 656.178 315.764C655.714 317.098 654.554 318.374 652.234 318.374C650.552 318.374 649.276 316.982 649.276 314.662V299.524H655.946C656.584 299.524 657.106 299.06 657.106 298.364V297.378C657.106 296.682 656.584 296.16 655.946 296.16H649.276L649.218 290.418C649.218 289.548 648.754 289.026 647.942 289.026H646.782C646.144 289.026 645.622 289.548 645.448 290.418C644.81 293.84 642.548 296.16 639.3 296.16H637.85C637.096 296.16 636.69 296.624 636.69 297.378V298.364C636.69 299.06 637.154 299.524 637.85 299.524H640.576V314.546C640.576 321.158 644.056 324.58 649.334 324.58ZM697.693 301.844C702.043 300.858 704.885 297.61 704.885 293.202C704.885 287.344 699.781 282.82 689.689 282.82H674.609C673.797 282.82 673.333 283.168 673.333 283.748V283.98C673.333 285.43 675.537 285.952 675.537 288.388V318.432C675.537 320.868 673.333 321.39 673.333 322.782V323.014C673.333 323.652 673.797 324 674.609 324H690.791C702.507 324 708.887 319.36 708.887 312.4C708.887 306.832 704.653 302.772 697.693 301.844ZM684.237 288.968C684.237 286.938 685.339 286.358 686.673 286.358H689.399C694.155 286.358 697.229 289.316 697.229 294.536C697.229 298.016 694.851 300.51 691.197 300.51H687.137C685.397 300.51 684.237 299.408 684.237 297.726V288.968ZM691.777 320.462H688.007C685.745 320.462 684.237 318.664 684.237 316.286V303.932H688.297C695.837 303.932 699.781 309.094 699.781 313.734C699.781 317.968 697.055 320.462 691.777 320.462ZM735.6 315.184C734.498 316.982 732.062 318.548 728.988 318.548C725.508 318.548 722.84 316.692 721.332 313.502L734.208 307.644C735.774 306.948 736.76 305.788 736.76 303.816C736.76 299.988 733.396 295.58 725.798 295.58C718.2 295.58 711.762 301.438 711.762 309.848C711.762 318.78 717.736 324.58 725.798 324.58C733.28 324.58 737.224 319.186 737.572 315.822C737.63 314.604 736.296 314.314 735.6 315.184ZM724.754 298.132C727.886 298.132 729.394 302.25 729.394 304.338C729.394 305.556 728.93 306.542 727.886 307.064L720.404 310.834C719.998 309.326 719.824 307.644 719.824 305.846C719.824 301.438 721.68 298.132 724.754 298.132ZM766.758 318.2L765.482 307.47C764.67 300.162 759.566 295.58 752.026 295.58C745.994 295.58 740.89 298.016 740.89 302.192C740.89 304.164 742.282 305.44 744.37 305.44C748.72 305.44 747.386 298.016 752.026 298.016C755.564 298.016 756.492 301.264 757.188 308.05L757.246 308.746C755.738 307.702 753.592 307.006 750.924 307.006C745.24 307.006 740.368 310.022 740.426 315.822C740.426 321.622 745.066 324.58 751.33 324.58C755.332 324.58 757.768 323.13 759.044 321.216C759.392 323.71 760.9 324.348 764.206 324.348C766.99 324.348 769.774 324 769.774 322.666C769.774 321.1 767.222 322.202 766.758 318.2ZM753.882 322.028C750.924 322.028 749.01 318.49 749.01 314.488C749.01 311.53 750.808 309.616 753.244 309.616C755.622 309.616 757.478 311.356 757.826 314.778L758 316.808C758.174 319.418 756.55 322.028 753.882 322.028ZM799.772 318.084V296.856C799.772 295.87 799.076 295.638 797.568 295.812L790.144 296.914C789.448 297.03 788.984 297.552 788.984 298.132V298.306C788.984 299.582 791.304 300.162 791.304 302.714V314.488C791.304 318.606 789.1 321.274 786.316 321.274C783.126 321.274 781.502 318.78 781.502 313.386L781.676 296.856C781.676 295.87 780.806 295.638 779.298 295.812L771.99 296.914C771.236 297.03 770.772 297.552 770.772 298.132V298.306C770.772 299.582 773.034 300.162 773.034 302.714V312.516C773.034 320.462 777.848 324.58 783.822 324.58C787.824 324.58 790.666 323.13 792.232 320.578C792.406 323.42 794.088 324.348 797.394 324.348C800.642 324.348 802.556 324 802.556 322.666C802.556 320.52 799.772 322.666 799.772 318.084ZM816.707 324.58C822.507 324.58 825.639 320.288 825.639 316.112C825.639 315.01 824.247 314.778 823.551 315.764C823.087 317.098 821.927 318.374 819.607 318.374C817.925 318.374 816.649 316.982 816.649 314.662V299.524H823.319C823.957 299.524 824.479 299.06 824.479 298.364V297.378C824.479 296.682 823.957 296.16 823.319 296.16H816.649L816.591 290.418C816.591 289.548 816.127 289.026 815.315 289.026H814.155C813.517 289.026 812.995 289.548 812.821 290.418C812.183 293.84 809.921 296.16 806.673 296.16H805.223C804.469 296.16 804.063 296.624 804.063 297.378V298.364C804.063 299.06 804.527 299.524 805.223 299.524H807.949V314.546C807.949 321.158 811.429 324.58 816.707 324.58ZM834.495 292.042C837.917 292.042 840.121 289.896 840.121 286.938C840.121 284.038 837.917 281.892 834.495 281.892C831.073 281.892 828.753 284.038 828.753 286.938C828.753 289.896 831.073 292.042 834.495 292.042ZM829.217 324H839.889C840.701 324 841.223 323.594 841.223 323.014V322.782C841.223 321.332 838.787 320.868 838.787 318.374V296.972C838.787 295.928 837.859 295.116 836.409 295.812L829.159 299.408C828.405 299.814 827.941 300.104 827.941 300.626V300.8C827.941 302.076 830.145 302.714 830.145 305.266V318.374C830.145 320.868 827.941 321.332 827.941 322.782V323.014C827.941 323.594 828.463 324 829.217 324ZM859.382 281.486C851.784 281.486 848.246 286.358 848.246 292.506V296.16H844.128C843.432 296.16 842.91 296.682 842.91 297.32V298.422C842.91 299.06 843.432 299.524 844.128 299.524H848.246V318.374C848.246 320.868 845.926 321.332 845.926 322.782V323.014C845.926 323.594 846.39 324 847.144 324H858.454C859.092 324 859.556 323.594 859.556 323.014V322.782C859.556 321.332 856.656 320.868 856.656 318.374V299.524H863.5C864.138 299.524 864.66 299.06 864.66 298.422V297.32C864.66 296.682 864.138 296.16 863.5 296.16H856.424C854.916 291.694 853.524 283.922 857.7 283.922C862.224 283.98 858.57 291.288 864.892 291.288C867.096 291.288 868.14 289.664 868.14 288.272C868.14 284.618 864.196 281.486 859.382 281.486ZM894.701 318.084V296.856C894.701 295.87 894.005 295.638 892.497 295.812L885.073 296.914C884.377 297.03 883.913 297.552 883.913 298.132V298.306C883.913 299.582 886.233 300.162 886.233 302.714V314.488C886.233 318.606 884.029 321.274 881.245 321.274C878.055 321.274 876.431 318.78 876.431 313.386L876.605 296.856C876.605 295.87 875.735 295.638 874.227 295.812L866.919 296.914C866.165 297.03 865.701 297.552 865.701 298.132V298.306C865.701 299.582 867.963 300.162 867.963 302.714V312.516C867.963 320.462 872.777 324.58 878.751 324.58C882.753 324.58 885.595 323.13 887.161 320.578C887.335 323.42 889.017 324.348 892.323 324.348C895.571 324.348 897.485 324 897.485 322.666C897.485 320.52 894.701 322.666 894.701 318.084ZM901.369 324H912.041C912.795 324 913.375 323.594 913.375 323.014V322.782C913.375 321.332 910.881 320.868 910.881 318.432V281.544C910.881 280.558 910.011 279.746 908.503 280.5L901.195 284.096C900.499 284.386 900.035 284.676 900.035 285.256V285.488C900.035 286.706 902.297 287.286 902.297 289.896V318.432C902.297 320.868 900.035 321.332 900.035 322.782V323.014C900.035 323.594 900.557 324 901.369 324Z" fill="white"/>
<path d="M609.272 346.68V381H606.776V355.416L607.088 349.176H607.036L594.504 381H592.112L579.58 349.176H579.528L579.84 355.416V381H577.344V346.68H581.244L591.592 372.68L593.308 377.932H593.36L595.024 372.732L605.372 346.68H609.272ZM633.889 363.892C633.889 361.639 633.282 359.888 632.069 358.64C630.855 357.392 629.122 356.768 626.869 356.768C624.893 356.768 623.194 357.201 621.773 358.068C620.351 358.9 619.294 360.304 618.601 362.28L616.469 360.928C617.231 358.883 618.497 357.305 620.265 356.196C622.067 355.052 624.286 354.48 626.921 354.48C628.827 354.48 630.491 354.827 631.913 355.52C633.369 356.179 634.495 357.167 635.293 358.484C636.09 359.801 636.489 361.448 636.489 363.424V376.424C636.489 378.261 637.321 379.18 638.985 379.18C639.713 379.18 640.337 379.059 640.857 378.816L640.701 380.896C640.111 381.208 639.349 381.364 638.413 381.364C637.615 381.364 636.87 381.208 636.177 380.896C635.483 380.584 634.911 380.064 634.461 379.336C634.045 378.608 633.837 377.62 633.837 376.372V374.968L634.565 374.916C634.253 376.407 633.559 377.655 632.485 378.66C631.445 379.631 630.231 380.359 628.845 380.844C627.458 381.295 626.071 381.52 624.685 381.52C623.055 381.52 621.599 381.26 620.317 380.74C619.034 380.22 618.029 379.475 617.301 378.504C616.573 377.499 616.209 376.268 616.209 374.812C616.209 372.871 616.85 371.311 618.133 370.132C619.45 368.919 621.287 368.087 623.645 367.636L634.409 365.504V367.688L624.945 369.56C622.899 369.976 621.374 370.583 620.369 371.38C619.363 372.177 618.861 373.269 618.861 374.656C618.861 376.077 619.398 377.204 620.473 378.036C621.547 378.833 623.073 379.232 625.049 379.232C626.054 379.232 627.077 379.093 628.117 378.816C629.157 378.539 630.11 378.105 630.977 377.516C631.878 376.892 632.589 376.129 633.109 375.228C633.629 374.292 633.889 373.165 633.889 371.848V363.892ZM653.959 381.52C651.325 381.52 648.985 380.983 646.939 379.908C644.929 378.833 643.507 377.291 642.675 375.28L644.911 373.772C645.535 375.505 646.645 376.857 648.239 377.828C649.869 378.764 651.845 379.232 654.167 379.232C656.455 379.232 658.241 378.781 659.523 377.88C660.841 376.979 661.499 375.783 661.499 374.292C661.499 373.287 661.17 372.42 660.511 371.692C659.887 370.929 658.691 370.357 656.923 369.976L650.839 368.676C648.343 368.156 646.558 367.324 645.483 366.18C644.443 365.001 643.923 363.58 643.923 361.916C643.923 360.529 644.339 359.281 645.171 358.172C646.003 357.063 647.147 356.179 648.603 355.52C650.094 354.827 651.827 354.48 653.803 354.48C656.403 354.48 658.553 355 660.251 356.04C661.95 357.045 663.146 358.571 663.839 360.616L661.655 362.02C661.135 360.183 660.165 358.848 658.743 358.016C657.357 357.184 655.71 356.768 653.803 356.768C652.347 356.768 651.065 356.993 649.955 357.444C648.881 357.86 648.031 358.449 647.407 359.212C646.818 359.94 646.523 360.789 646.523 361.76C646.523 362.765 646.87 363.684 647.563 364.516C648.257 365.313 649.487 365.903 651.255 366.284L657.495 367.636C659.957 368.156 661.673 368.953 662.643 370.028C663.614 371.068 664.099 372.368 664.099 373.928C664.099 375.488 663.683 376.84 662.851 377.984C662.019 379.128 660.841 380.012 659.315 380.636C657.79 381.225 656.005 381.52 653.959 381.52ZM674.65 347.772V374.136C674.65 375.765 675.032 377.013 675.794 377.88C676.592 378.712 677.736 379.128 679.226 379.128C680.197 379.128 681.046 378.972 681.774 378.66C682.537 378.313 683.213 377.828 683.802 377.204L684.79 379.336C684.132 379.995 683.3 380.532 682.294 380.948C681.289 381.329 680.162 381.52 678.914 381.52C677.562 381.52 676.366 381.277 675.326 380.792C674.286 380.272 673.472 379.492 672.882 378.452C672.328 377.412 672.05 376.095 672.05 374.5V348.5L674.65 347.772ZM684.374 355V357.236H666.85V355H684.374ZM699.504 381.52C697.112 381.52 694.98 380.983 693.108 379.908C691.236 378.833 689.763 377.291 688.688 375.28C687.648 373.235 687.128 370.808 687.128 368C687.128 365.192 687.648 362.783 688.688 360.772C689.763 358.727 691.201 357.167 693.004 356.092C694.807 355.017 696.869 354.48 699.192 354.48C701.549 354.48 703.56 355 705.224 356.04C706.888 357.08 708.171 358.536 709.072 360.408C709.973 362.245 710.424 364.377 710.424 366.804C710.424 367.116 710.407 367.428 710.372 367.74C710.372 368.017 710.355 368.277 710.32 368.52H688.74V366.18H709.176L707.876 366.544C707.841 363.563 707.044 361.188 705.484 359.42C703.959 357.652 701.844 356.768 699.14 356.768C697.268 356.768 695.621 357.219 694.2 358.12C692.779 358.987 691.669 360.269 690.872 361.968C690.075 363.632 689.676 365.643 689.676 368C689.676 370.323 690.075 372.333 690.872 374.032C691.704 375.731 692.848 377.031 694.304 377.932C695.795 378.799 697.511 379.232 699.452 379.232C701.463 379.232 703.179 378.799 704.6 377.932C706.056 377.065 707.183 375.869 707.98 374.344L710.06 375.54C709.436 376.788 708.604 377.863 707.564 378.764C706.524 379.631 705.328 380.307 703.976 380.792C702.624 381.277 701.133 381.52 699.504 381.52ZM716.801 381V355H718.985L719.297 360.46C719.956 358.623 721.013 357.167 722.469 356.092C723.925 355.017 725.676 354.48 727.721 354.48C728.415 354.48 729.039 354.549 729.593 354.688C730.148 354.827 730.599 355.052 730.945 355.364L730.373 357.652C729.992 357.409 729.576 357.219 729.125 357.08C728.675 356.941 727.999 356.872 727.097 356.872C725.78 356.872 724.532 357.288 723.353 358.12C722.175 358.917 721.221 360.044 720.493 361.5C719.765 362.921 719.401 364.568 719.401 366.44V381H716.801ZM735.414 391.92V355H737.754L737.962 362.228L737.598 361.812C738.048 360.321 738.742 359.021 739.678 357.912C740.648 356.803 741.827 355.953 743.214 355.364C744.6 354.775 746.108 354.48 747.738 354.48C749.956 354.48 751.95 355.017 753.718 356.092C755.486 357.167 756.89 358.709 757.93 360.72C758.97 362.731 759.49 365.157 759.49 368C759.49 370.808 758.97 373.235 757.93 375.28C756.89 377.291 755.468 378.833 753.666 379.908C751.898 380.983 749.887 381.52 747.634 381.52C745.242 381.52 743.162 380.896 741.394 379.648C739.626 378.365 738.395 376.649 737.702 374.5L738.014 374.032V391.92H735.414ZM747.322 379.232C750.268 379.232 752.591 378.227 754.29 376.216C756.023 374.205 756.89 371.467 756.89 368C756.89 364.533 756.04 361.795 754.342 359.784C752.643 357.773 750.338 356.768 747.426 356.768C745.588 356.768 743.959 357.236 742.538 358.172C741.151 359.073 740.042 360.373 739.21 362.072C738.412 363.736 738.014 365.712 738.014 368C738.014 370.253 738.412 372.229 739.21 373.928C740.007 375.627 741.099 376.944 742.486 377.88C743.907 378.781 745.519 379.232 747.322 379.232ZM767.259 349.956C766.601 349.956 766.063 349.765 765.647 349.384C765.266 348.968 765.075 348.431 765.075 347.772C765.075 347.113 765.266 346.593 765.647 346.212C766.063 345.796 766.601 345.588 767.259 345.588C767.918 345.588 768.438 345.796 768.819 346.212C769.235 346.593 769.443 347.113 769.443 347.772C769.443 348.431 769.235 348.968 768.819 349.384C768.438 349.765 767.918 349.956 767.259 349.956ZM768.559 355V381H765.959V355H768.559ZM787.36 381.52C784.968 381.52 782.836 380.983 780.964 379.908C779.092 378.833 777.618 377.291 776.544 375.28C775.504 373.235 774.984 370.808 774.984 368C774.984 365.192 775.504 362.783 776.544 360.772C777.618 358.727 779.057 357.167 780.86 356.092C782.662 355.017 784.725 354.48 787.048 354.48C789.405 354.48 791.416 355 793.08 356.04C794.744 357.08 796.026 358.536 796.928 360.408C797.829 362.245 798.28 364.377 798.28 366.804C798.28 367.116 798.262 367.428 798.228 367.74C798.228 368.017 798.21 368.277 798.176 368.52H776.596V366.18H797.032L795.732 366.544C795.697 363.563 794.9 361.188 793.34 359.42C791.814 357.652 789.7 356.768 786.996 356.768C785.124 356.768 783.477 357.219 782.056 358.12C780.634 358.987 779.525 360.269 778.728 361.968C777.93 363.632 777.532 365.643 777.532 368C777.532 370.323 777.93 372.333 778.728 374.032C779.56 375.731 780.704 377.031 782.16 377.932C783.65 378.799 785.366 379.232 787.308 379.232C789.318 379.232 791.034 378.799 792.456 377.932C793.912 377.065 795.038 375.869 795.836 374.344L797.916 375.54C797.292 376.788 796.46 377.863 795.42 378.764C794.38 379.631 793.184 380.307 791.832 380.792C790.48 381.277 788.989 381.52 787.36 381.52ZM815.161 354.48C816.929 354.48 818.506 354.757 819.893 355.312C821.279 355.867 822.458 356.664 823.429 357.704C824.399 358.744 825.145 360.009 825.665 361.5L823.221 362.644C822.666 360.772 821.695 359.333 820.309 358.328C818.957 357.288 817.223 356.768 815.109 356.768C813.202 356.768 811.521 357.219 810.065 358.12C808.609 358.987 807.482 360.269 806.685 361.968C805.887 363.632 805.489 365.643 805.489 368C805.489 370.323 805.887 372.333 806.685 374.032C807.482 375.731 808.591 377.031 810.013 377.932C811.434 378.799 813.115 379.232 815.057 379.232C816.513 379.232 817.83 378.989 819.009 378.504C820.222 378.019 821.21 377.308 821.973 376.372C822.77 375.436 823.29 374.327 823.533 373.044L825.925 373.876C825.474 375.471 824.729 376.84 823.689 377.984C822.683 379.128 821.453 380.012 819.997 380.636C818.541 381.225 816.911 381.52 815.109 381.52C812.751 381.52 810.637 380.983 808.765 379.908C806.927 378.833 805.489 377.291 804.449 375.28C803.409 373.235 802.889 370.808 802.889 368C802.889 365.192 803.409 362.783 804.449 360.772C805.523 358.727 806.979 357.167 808.817 356.092C810.689 355.017 812.803 354.48 815.161 354.48ZM842.459 381.52C840.067 381.52 837.935 380.983 836.063 379.908C834.191 378.833 832.718 377.291 831.643 375.28C830.603 373.235 830.083 370.808 830.083 368C830.083 365.192 830.603 362.783 831.643 360.772C832.718 358.727 834.157 357.167 835.959 356.092C837.762 355.017 839.825 354.48 842.147 354.48C844.505 354.48 846.515 355 848.179 356.04C849.843 357.08 851.126 358.536 852.027 360.408C852.929 362.245 853.379 364.377 853.379 366.804C853.379 367.116 853.362 367.428 853.327 367.74C853.327 368.017 853.31 368.277 853.275 368.52H831.695V366.18H852.131L850.831 366.544C850.797 363.563 849.999 361.188 848.439 359.42C846.914 357.652 844.799 356.768 842.095 356.768C840.223 356.768 838.577 357.219 837.155 358.12C835.734 358.987 834.625 360.269 833.827 361.968C833.03 363.632 832.631 365.643 832.631 368C832.631 370.323 833.03 372.333 833.827 374.032C834.659 375.731 835.803 377.031 837.259 377.932C838.75 378.799 840.466 379.232 842.407 379.232C844.418 379.232 846.134 378.799 847.555 377.932C849.011 377.065 850.138 375.869 850.935 374.344L853.015 375.54C852.391 376.788 851.559 377.863 850.519 378.764C849.479 379.631 848.283 380.307 846.931 380.792C845.579 381.277 844.089 381.52 842.459 381.52ZM860.595 376.736C861.288 376.736 861.843 376.961 862.259 377.412C862.709 377.828 862.935 378.383 862.935 379.076C862.935 379.769 862.709 380.341 862.259 380.792C861.843 381.208 861.288 381.416 860.595 381.416C859.901 381.416 859.329 381.208 858.879 380.792C858.463 380.341 858.255 379.769 858.255 379.076C858.255 378.383 858.463 377.828 858.879 377.412C859.329 376.961 859.901 376.736 860.595 376.736Z" fill="white"/>
<path d="M567.813 229.68V264H565.317V238.416L565.629 232.176H565.577L553.045 264H550.653L538.121 232.176H538.069L538.381 238.416V264H535.885V229.68H539.785L550.133 255.68L551.849 260.932H551.901L553.565 255.732L563.913 229.68H567.813ZM597.311 238L584.727 268.784C584.103 270.379 583.427 271.644 582.699 272.58C581.971 273.516 581.156 274.175 580.255 274.556C579.354 274.972 578.314 275.18 577.135 275.18C576.095 275.18 575.142 275.024 574.275 274.712C573.408 274.4 572.698 273.967 572.143 273.412L572.975 271.176C573.495 271.8 574.119 272.233 574.847 272.476C575.575 272.753 576.32 272.892 577.083 272.892C578.192 272.892 579.18 272.563 580.047 271.904C580.914 271.28 581.728 270.032 582.491 268.16L584.207 264L581.451 257.552L573.235 238H576.199L584.155 257.708L585.455 261.192L586.859 257.448L594.503 238H597.311ZM637.251 233.216L637.875 235.504C637.841 235.504 637.806 235.504 637.771 235.504C637.737 235.504 637.685 235.504 637.615 235.504C635.917 235.504 634.599 235.955 633.663 236.856C632.762 237.723 632.311 238.953 632.311 240.548L630.647 239.716C630.647 238.399 630.925 237.255 631.479 236.284C632.034 235.313 632.797 234.568 633.767 234.048C634.738 233.493 635.83 233.216 637.043 233.216C637.113 233.216 637.147 233.216 637.147 233.216C637.182 233.216 637.217 233.216 637.251 233.216ZM629.035 261.348C631.601 261.348 633.611 261.885 635.067 262.96C636.523 264.035 637.251 265.473 637.251 267.276C637.251 268.871 636.714 270.257 635.639 271.436C634.599 272.615 633.161 273.533 631.323 274.192C629.486 274.851 627.389 275.18 625.031 275.18C621.114 275.18 618.115 274.504 616.035 273.152C613.955 271.835 612.915 270.171 612.915 268.16C612.915 266.704 613.435 265.439 614.475 264.364C615.55 263.289 617.11 262.648 619.155 262.44L618.947 262.908C617.838 262.596 616.85 262.076 615.983 261.348C615.151 260.62 614.735 259.58 614.735 258.228C614.735 256.772 615.273 255.593 616.347 254.692C617.457 253.756 618.913 253.219 620.715 253.08L623.471 254.016H622.379C620.785 254.12 619.502 254.519 618.531 255.212C617.595 255.871 617.127 256.737 617.127 257.812C617.127 258.991 617.578 259.875 618.479 260.464C619.415 261.053 620.594 261.348 622.015 261.348H629.035ZM625.031 272.996C627.077 272.996 628.827 272.753 630.283 272.268C631.739 271.783 632.849 271.124 633.611 270.292C634.409 269.495 634.807 268.593 634.807 267.588C634.807 266.375 634.27 265.404 633.195 264.676C632.155 263.948 630.561 263.584 628.411 263.584H621.027C619.398 263.584 618.046 263.965 616.971 264.728C615.897 265.491 615.359 266.513 615.359 267.796C615.359 269.356 616.209 270.604 617.907 271.54C619.641 272.511 622.015 272.996 625.031 272.996ZM624.667 237.48C626.713 237.48 628.515 237.844 630.075 238.572C631.67 239.265 632.901 240.253 633.767 241.536C634.634 242.784 635.067 244.257 635.067 245.956C635.067 247.62 634.634 249.111 633.767 250.428C632.901 251.711 631.67 252.716 630.075 253.444C628.515 254.137 626.713 254.484 624.667 254.484C621.374 254.484 618.791 253.704 616.919 252.144C615.082 250.549 614.163 248.487 614.163 245.956C614.163 244.257 614.597 242.784 615.463 241.536C616.365 240.253 617.595 239.265 619.155 238.572C620.75 237.844 622.587 237.48 624.667 237.48ZM624.667 239.612C622.379 239.612 620.507 240.201 619.051 241.38C617.595 242.524 616.867 244.049 616.867 245.956C616.867 247.863 617.595 249.405 619.051 250.584C620.507 251.763 622.379 252.352 624.667 252.352C626.955 252.352 628.81 251.763 630.231 250.584C631.687 249.405 632.415 247.863 632.415 245.956C632.415 244.049 631.687 242.524 630.231 241.38C628.81 240.201 626.955 239.612 624.667 239.612ZM657.357 246.892C657.357 244.639 656.751 242.888 655.537 241.64C654.324 240.392 652.591 239.768 650.337 239.768C648.361 239.768 646.663 240.201 645.241 241.068C643.82 241.9 642.763 243.304 642.069 245.28L639.937 243.928C640.7 241.883 641.965 240.305 643.733 239.196C645.536 238.052 647.755 237.48 650.389 237.48C652.296 237.48 653.96 237.827 655.381 238.52C656.837 239.179 657.964 240.167 658.761 241.484C659.559 242.801 659.957 244.448 659.957 246.424V259.424C659.957 261.261 660.789 262.18 662.453 262.18C663.181 262.18 663.805 262.059 664.325 261.816L664.169 263.896C663.58 264.208 662.817 264.364 661.881 264.364C661.084 264.364 660.339 264.208 659.645 263.896C658.952 263.584 658.38 263.064 657.929 262.336C657.513 261.608 657.305 260.62 657.305 259.372V257.968L658.033 257.916C657.721 259.407 657.028 260.655 655.953 261.66C654.913 262.631 653.7 263.359 652.313 263.844C650.927 264.295 649.54 264.52 648.153 264.52C646.524 264.52 645.068 264.26 643.785 263.74C642.503 263.22 641.497 262.475 640.769 261.504C640.041 260.499 639.677 259.268 639.677 257.812C639.677 255.871 640.319 254.311 641.601 253.132C642.919 251.919 644.756 251.087 647.113 250.636L657.877 248.504V250.688L648.413 252.56C646.368 252.976 644.843 253.583 643.837 254.38C642.832 255.177 642.329 256.269 642.329 257.656C642.329 259.077 642.867 260.204 643.941 261.036C645.016 261.833 646.541 262.232 648.517 262.232C649.523 262.232 650.545 262.093 651.585 261.816C652.625 261.539 653.579 261.105 654.445 260.516C655.347 259.892 656.057 259.129 656.577 258.228C657.097 257.292 657.357 256.165 657.357 254.848V246.892ZM668.64 264V238H670.824L671.136 243.46C671.794 241.623 672.852 240.167 674.308 239.092C675.764 238.017 677.514 237.48 679.56 237.48C680.253 237.48 680.877 237.549 681.432 237.688C681.986 237.827 682.437 238.052 682.784 238.364L682.212 240.652C681.83 240.409 681.414 240.219 680.964 240.08C680.513 239.941 679.837 239.872 678.936 239.872C677.618 239.872 676.37 240.288 675.192 241.12C674.013 241.917 673.06 243.044 672.332 244.5C671.604 245.921 671.24 247.568 671.24 249.44V264H668.64ZM696.173 264.52C693.92 264.52 691.892 263.983 690.089 262.908C688.286 261.833 686.865 260.291 685.825 258.28C684.82 256.235 684.317 253.808 684.317 251C684.317 248.123 684.854 245.679 685.929 243.668C687.004 241.657 688.46 240.132 690.297 239.092C692.134 238.017 694.162 237.48 696.381 237.48C698.808 237.48 700.87 238.121 702.569 239.404C704.302 240.687 705.464 242.472 706.053 244.76L705.741 244.968V226.04H708.341V264H706.001L705.845 256.772L706.157 256.668C705.845 258.332 705.204 259.753 704.233 260.932C703.297 262.111 702.118 263.012 700.697 263.636C699.31 264.225 697.802 264.52 696.173 264.52ZM696.485 262.232C698.322 262.232 699.934 261.781 701.321 260.88C702.708 259.944 703.782 258.609 704.545 256.876C705.342 255.143 705.741 253.115 705.741 250.792C705.741 248.504 705.342 246.545 704.545 244.916C703.782 243.252 702.708 241.987 701.321 241.12C699.969 240.219 698.392 239.768 696.589 239.768C693.608 239.768 691.25 240.773 689.517 242.784C687.784 244.795 686.917 247.533 686.917 251C686.917 254.467 687.766 257.205 689.465 259.216C691.198 261.227 693.538 262.232 696.485 262.232ZM727.187 264.52C724.795 264.52 722.663 263.983 720.791 262.908C718.919 261.833 717.446 260.291 716.371 258.28C715.331 256.235 714.811 253.808 714.811 251C714.811 248.192 715.331 245.783 716.371 243.772C717.446 241.727 718.884 240.167 720.687 239.092C722.49 238.017 724.552 237.48 726.875 237.48C729.232 237.48 731.243 238 732.907 239.04C734.571 240.08 735.854 241.536 736.755 243.408C737.656 245.245 738.107 247.377 738.107 249.804C738.107 250.116 738.09 250.428 738.055 250.74C738.055 251.017 738.038 251.277 738.003 251.52H716.423V249.18H736.859L735.559 249.544C735.524 246.563 734.727 244.188 733.167 242.42C731.642 240.652 729.527 239.768 726.823 239.768C724.951 239.768 723.304 240.219 721.883 241.12C720.462 241.987 719.352 243.269 718.555 244.968C717.758 246.632 717.359 248.643 717.359 251C717.359 253.323 717.758 255.333 718.555 257.032C719.387 258.731 720.531 260.031 721.987 260.932C723.478 261.799 725.194 262.232 727.135 262.232C729.146 262.232 730.862 261.799 732.283 260.932C733.739 260.065 734.866 258.869 735.663 257.344L737.743 258.54C737.119 259.788 736.287 260.863 735.247 261.764C734.207 262.631 733.011 263.307 731.659 263.792C730.307 264.277 728.816 264.52 727.187 264.52ZM744.484 264V238H746.824L747.032 244.5L746.616 244.136C747.102 242.715 747.83 241.519 748.8 240.548C749.771 239.543 750.932 238.78 752.284 238.26C753.636 237.74 755.092 237.48 756.652 237.48C758.594 237.48 760.31 237.844 761.8 238.572C763.291 239.3 764.452 240.375 765.284 241.796C766.151 243.217 766.584 245.003 766.584 247.152V264H763.984V247.984C763.984 245.141 763.274 243.061 761.852 241.744C760.466 240.427 758.646 239.768 756.392 239.768C754.763 239.768 753.238 240.149 751.816 240.912C750.43 241.64 749.286 242.715 748.384 244.136C747.518 245.557 747.084 247.291 747.084 249.336V264H744.484ZM791.083 232.956C790.425 232.956 789.887 232.765 789.471 232.384C789.09 231.968 788.899 231.431 788.899 230.772C788.899 230.113 789.09 229.593 789.471 229.212C789.887 228.796 790.425 228.588 791.083 228.588C791.742 228.588 792.262 228.796 792.643 229.212C793.059 229.593 793.267 230.113 793.267 230.772C793.267 231.431 793.059 231.968 792.643 232.384C792.262 232.765 791.742 232.956 791.083 232.956ZM792.383 238V264H789.783V238H792.383ZM809.363 264.52C806.729 264.52 804.389 263.983 802.343 262.908C800.333 261.833 798.911 260.291 798.079 258.28L800.315 256.772C800.939 258.505 802.049 259.857 803.643 260.828C805.273 261.764 807.249 262.232 809.571 262.232C811.859 262.232 813.645 261.781 814.927 260.88C816.245 259.979 816.903 258.783 816.903 257.292C816.903 256.287 816.574 255.42 815.915 254.692C815.291 253.929 814.095 253.357 812.327 252.976L806.243 251.676C803.747 251.156 801.962 250.324 800.887 249.18C799.847 248.001 799.327 246.58 799.327 244.916C799.327 243.529 799.743 242.281 800.575 241.172C801.407 240.063 802.551 239.179 804.007 238.52C805.498 237.827 807.231 237.48 809.207 237.48C811.807 237.48 813.957 238 815.655 239.04C817.354 240.045 818.55 241.571 819.243 243.616L817.059 245.02C816.539 243.183 815.569 241.848 814.147 241.016C812.761 240.184 811.114 239.768 809.207 239.768C807.751 239.768 806.469 239.993 805.359 240.444C804.285 240.86 803.435 241.449 802.811 242.212C802.222 242.94 801.927 243.789 801.927 244.76C801.927 245.765 802.274 246.684 802.967 247.516C803.661 248.313 804.891 248.903 806.659 249.284L812.899 250.636C815.361 251.156 817.077 251.953 818.047 253.028C819.018 254.068 819.503 255.368 819.503 256.928C819.503 258.488 819.087 259.84 818.255 260.984C817.423 262.128 816.245 263.012 814.719 263.636C813.194 264.225 811.409 264.52 809.363 264.52ZM840.999 264V238H843.339L843.495 243.408C844.258 241.536 845.489 240.08 847.187 239.04C848.921 238 850.845 237.48 852.959 237.48C855.213 237.48 857.154 238.017 858.783 239.092C860.447 240.167 861.591 241.744 862.215 243.824C862.666 242.507 863.394 241.38 864.399 240.444C865.405 239.473 866.583 238.728 867.935 238.208C869.287 237.688 870.691 237.428 872.147 237.428C873.95 237.428 875.579 237.792 877.035 238.52C878.526 239.213 879.705 240.288 880.571 241.744C881.473 243.165 881.923 244.951 881.923 247.1V263.948H879.323V247.36C879.323 244.795 878.63 242.888 877.243 241.64C875.891 240.357 874.089 239.716 871.835 239.716C870.206 239.716 868.698 240.115 867.311 240.912C865.925 241.675 864.815 242.767 863.983 244.188C863.186 245.575 862.787 247.187 862.787 249.024V264H860.187V247.412C860.187 244.847 859.494 242.94 858.107 241.692C856.721 240.409 854.918 239.768 852.699 239.768C851.139 239.768 849.666 240.149 848.279 240.912C846.893 241.675 845.766 242.767 844.899 244.188C844.033 245.609 843.599 247.308 843.599 249.284V264H840.999ZM909.705 238L897.121 268.784C896.497 270.379 895.821 271.644 895.093 272.58C894.365 273.516 893.55 274.175 892.649 274.556C891.748 274.972 890.708 275.18 889.529 275.18C888.489 275.18 887.536 275.024 886.669 274.712C885.802 274.4 885.092 273.967 884.537 273.412L885.369 271.176C885.889 271.8 886.513 272.233 887.241 272.476C887.969 272.753 888.714 272.892 889.477 272.892C890.586 272.892 891.574 272.563 892.441 271.904C893.308 271.28 894.122 270.032 894.885 268.16L896.601 264L893.845 257.552L885.629 238H888.593L896.549 257.708L897.849 261.192L899.253 257.448L906.897 238H909.705Z" fill="white"/>
<path d="M660.334 412.136V413.492H654.058V412.136H660.334ZM676.718 413.816C676.566 414.328 676.326 414.756 675.998 415.1C675.67 415.444 675.282 415.7 674.834 415.868C674.386 416.036 673.894 416.12 673.358 416.12C672.574 416.12 671.894 415.956 671.318 415.628C670.75 415.3 670.31 414.832 669.998 414.224C669.694 413.616 669.542 412.888 669.542 412.04C669.542 411.192 669.694 410.464 669.998 409.856C670.31 409.248 670.75 408.78 671.318 408.452C671.894 408.124 672.566 407.96 673.334 407.96C673.878 407.96 674.37 408.036 674.81 408.188C675.25 408.332 675.622 408.556 675.926 408.86C676.238 409.164 676.466 409.548 676.61 410.012L675.11 410.648C674.974 410.168 674.766 409.828 674.486 409.628C674.206 409.42 673.846 409.316 673.406 409.316C672.974 409.316 672.594 409.42 672.266 409.628C671.946 409.836 671.698 410.144 671.522 410.552C671.346 410.952 671.258 411.448 671.258 412.04C671.258 412.624 671.338 413.12 671.498 413.528C671.666 413.936 671.91 414.244 672.23 414.452C672.55 414.66 672.942 414.764 673.406 414.764C673.838 414.764 674.21 414.648 674.522 414.416C674.842 414.184 675.066 413.832 675.194 413.36L676.718 413.816ZM681.766 414.668H685.942V416H680.11V408.08H681.766V414.668ZM696.173 416H694.457L693.797 414.068H690.761L690.101 416H688.409L691.301 408.08H693.281L696.173 416ZM691.133 412.844H693.425L692.273 409.388L691.133 412.844ZM705.635 408.08V412.88C705.635 413.96 705.347 414.772 704.771 415.316C704.195 415.852 703.355 416.12 702.251 416.12C701.147 416.12 700.307 415.852 699.731 415.316C699.155 414.772 698.867 413.96 698.867 412.88V408.08H700.523V412.808C700.523 413.472 700.663 413.964 700.943 414.284C701.231 414.604 701.667 414.764 702.251 414.764C702.835 414.764 703.267 414.604 703.547 414.284C703.827 413.964 703.967 413.472 703.967 412.808V408.08H705.635ZM712.582 408.08C713.822 408.08 714.782 408.424 715.462 409.112C716.142 409.792 716.482 410.768 716.482 412.04C716.482 413.304 716.142 414.28 715.462 414.968C714.782 415.656 713.822 416 712.582 416H709.522V408.08H712.582ZM712.498 414.68C713.25 414.68 713.814 414.456 714.19 414.008C714.574 413.552 714.766 412.896 714.766 412.04C714.766 411.184 714.574 410.532 714.19 410.084C713.814 409.628 713.25 409.4 712.498 409.4H711.178V414.68H712.498ZM720.127 416V408.08H726.067V409.412H721.783V411.38H725.155V412.652H721.783V414.668H726.235V416H720.127ZM743.965 408.08V416H742.465V411.872L742.549 409.556H742.525L740.329 416H738.973L736.789 409.556H736.765L736.849 411.872V416H735.349V408.08H737.749L739.177 412.4L739.681 414.188H739.705L740.221 412.412L741.637 408.08H743.965ZM751.425 407.96C752.209 407.96 752.885 408.124 753.453 408.452C754.021 408.78 754.457 409.248 754.761 409.856C755.073 410.464 755.229 411.192 755.229 412.04C755.229 412.888 755.073 413.616 754.761 414.224C754.457 414.832 754.021 415.3 753.453 415.628C752.885 415.956 752.209 416.12 751.425 416.12C750.641 416.12 749.961 415.956 749.385 415.628C748.817 415.3 748.377 414.832 748.065 414.224C747.761 413.616 747.609 412.888 747.609 412.04C747.609 411.192 747.761 410.464 748.065 409.856C748.377 409.248 748.817 408.78 749.385 408.452C749.961 408.124 750.641 407.96 751.425 407.96ZM751.425 409.316C750.977 409.316 750.597 409.42 750.285 409.628C749.973 409.836 749.733 410.144 749.565 410.552C749.405 410.952 749.325 411.448 749.325 412.04C749.325 412.624 749.405 413.12 749.565 413.528C749.733 413.936 749.973 414.244 750.285 414.452C750.597 414.66 750.977 414.764 751.425 414.764C751.865 414.764 752.241 414.66 752.553 414.452C752.865 414.244 753.101 413.936 753.261 413.528C753.429 413.12 753.513 412.624 753.513 412.04C753.513 411.448 753.429 410.952 753.261 410.552C753.101 410.144 752.865 409.836 752.553 409.628C752.241 409.42 751.865 409.316 751.425 409.316ZM765.683 408.08V416H763.787L761.015 411.344L760.331 410.048H760.319L760.367 411.416V416H758.879V408.08H760.763L763.535 412.724L764.219 414.032H764.243L764.195 412.664V408.08H765.683ZM769.731 416V408.08H775.671V409.412H771.387V411.38H774.759V412.652H771.387V414.668H775.839V416H769.731ZM785.568 408.08V409.412H782.916V416H781.26V409.412H778.596V408.08H785.568Z" fill="white"/>
<path d="M1346.84 638.058L1346.84 638.059L1346.84 638.054C1410.06 597.915 1440.32 548.581 1440.32 493.57C1440.32 445.576 1409.32 418.683 1375.44 418.683C1356.42 418.683 1340.89 425.396 1330.13 436.987C1319.36 448.576 1313.37 465.014 1313.37 484.425C1313.37 518.301 1333.81 542.429 1359.3 542.429C1361.2 542.429 1362.68 542.774 1363.81 543.391C1364.94 544.005 1365.75 544.899 1366.3 546.03C1367.39 548.31 1367.41 551.567 1366.71 555.421L1366.71 555.428L1366.71 555.436C1363.92 576.423 1352.77 590.424 1326.8 616.457L1326.8 616.457L1326.79 616.464C1323.93 619.516 1322.84 622.944 1323.07 626.233C1323.29 629.516 1324.82 632.639 1327.14 635.102C1331.79 640.026 1339.67 642.371 1346.84 638.058ZM1205.44 638.058L1205.45 638.054C1268.67 597.915 1298.92 548.581 1298.92 493.57C1298.92 469.583 1291.36 450.859 1279.45 438.129C1267.55 425.4 1251.33 418.683 1234.05 418.683C1215.37 418.683 1200.02 425.397 1189.34 436.988C1178.67 448.576 1172.68 465.014 1172.68 484.425C1172.68 518.294 1192.41 542.429 1217.91 542.429C1219.8 542.429 1221.28 542.774 1222.42 543.391C1223.55 544.005 1224.36 544.899 1224.9 546.03C1226 548.31 1226.01 551.567 1225.32 555.421L1225.31 555.434L1225.31 555.446C1223.22 576.426 1212.08 590.423 1186.11 616.457C1183.07 619.506 1181.85 622.931 1181.97 626.224C1182.09 629.509 1183.56 632.635 1185.84 635.1C1190.39 640.027 1198.27 642.37 1205.44 638.058L1205.44 638.058Z" stroke="white" stroke-width="0.634831"/>
<path d="M72.164 2.94156L72.164 2.94148L72.1575 2.94559C8.94008 43.085 -21.3174 92.4188 -21.3174 147.43C-21.3174 195.424 9.68242 222.317 43.5575 222.317C62.582 222.317 78.1074 215.604 88.875 204.013C99.6402 192.424 105.625 175.986 105.625 156.575C105.625 122.699 85.1935 98.5713 59.6968 98.5713C57.8043 98.5713 56.325 98.2262 55.1884 97.6094C54.0559 96.9948 53.2459 96.101 52.7027 94.97C51.6077 92.6899 51.5914 89.4329 52.2903 85.5789L52.2917 85.5716L52.2926 85.5642C55.0838 64.5771 66.2332 50.5755 92.2003 24.5425L92.2004 24.5426L92.207 24.5356C95.072 21.4838 96.1579 18.0564 95.9324 14.7665C95.7073 11.4837 94.1786 8.36098 91.8556 5.89771C87.2126 0.9743 79.333 -1.37072 72.164 2.94156ZM213.558 2.94148L213.551 2.94559C150.334 43.085 120.076 92.4188 120.076 147.43C120.076 171.417 127.642 190.141 139.547 202.871C151.45 215.6 167.675 222.317 184.951 222.317C203.626 222.317 218.976 215.603 229.656 204.012C240.332 192.424 246.317 175.986 246.317 156.575C246.317 122.705 226.593 98.5713 201.09 98.5713C199.198 98.5713 197.719 98.2262 196.582 97.6094C195.45 96.9948 194.64 96.101 194.096 94.97C193.001 92.6899 192.985 89.4329 193.684 85.5789L193.686 85.5665L193.687 85.5538C195.78 64.5744 206.923 50.5773 232.892 24.5425C235.933 21.4945 237.155 18.0689 237.03 14.7763C236.907 11.4906 235.444 8.36499 233.164 5.89995C228.607 0.973188 220.726 -1.37026 213.558 2.94156L213.558 2.94148Z" stroke="white" stroke-width="0.634831"/>
</svg>
