<svg width="138" height="15" viewBox="0 0 138 15" fill="none" xmlns="http://www.w3.org/2000/svg">
<path d="M42.1375 5.484C41.9455 4.536 41.1655 3.312 39.1615 3.312C37.5775 3.312 36.2695 4.488 36.2695 5.916C36.2695 7.188 37.1335 8.04 38.4295 8.304L39.6295 8.556C40.3615 8.712 40.7695 9.156 40.7695 9.708C40.7695 10.368 40.2415 10.884 39.2215 10.884C37.9975 10.884 37.3615 10.068 37.2775 9.18L35.9335 9.564C36.0655 10.788 37.0615 12.18 39.2215 12.18C41.1655 12.18 42.2335 10.92 42.2335 9.6C42.2335 8.4 41.4295 7.452 39.9295 7.152L38.7055 6.9C38.0455 6.756 37.7095 6.348 37.7095 5.808C37.7095 5.16 38.3095 4.584 39.1735 4.584C40.3135 4.584 40.7575 5.364 40.8415 5.892L42.1375 5.484ZM50.9291 12H52.7411L49.2611 7.248L52.7051 3.492H50.8091L47.1491 7.572V3.492H45.7091V12H47.1491V9.552L48.2771 8.316L50.9291 12ZM57.368 12V3.492H55.904V12H57.368ZM62.8279 7.404V4.764H64.3279C65.2399 4.764 65.7919 5.28 65.7919 6.096C65.7919 6.9 65.2399 7.404 64.3279 7.404H62.8279ZM64.5439 8.676C66.1759 8.676 67.2559 7.584 67.2559 6.084C67.2559 4.596 66.1759 3.492 64.5439 3.492H61.3879V12H62.8279V8.676H64.5439ZM77.0072 12V3.492H75.5432V12H77.0072ZM88.1671 12V3.492H86.7271V9.528L82.8631 3.492H81.0271V12H82.4671V5.556L86.6671 12H88.1671ZM98.2909 4.848V3.492H91.3189V4.848H94.0789V12H95.5189V4.848H98.2909ZM105.748 12H107.38L105.46 8.496C106.648 8.208 107.38 7.284 107.38 6.072C107.38 4.632 106.36 3.492 104.716 3.492H101.452V12H102.904V8.64H103.96L105.748 12ZM102.904 7.368V4.764H104.452C105.34 4.764 105.916 5.28 105.916 6.072C105.916 6.852 105.34 7.368 104.452 7.368H102.904ZM111.798 7.74C111.798 5.688 113.214 4.668 114.642 4.668C116.082 4.668 117.498 5.688 117.498 7.74C117.498 9.792 116.082 10.812 114.642 10.812C113.214 10.812 111.798 9.792 111.798 7.74ZM110.322 7.74C110.322 10.536 112.41 12.18 114.642 12.18C116.874 12.18 118.974 10.536 118.974 7.74C118.974 4.956 116.874 3.312 114.642 3.312C112.41 3.312 110.322 4.956 110.322 7.74Z" fill="black"/>
<path d="M10.0987 6.43501L1.06939 0.278648C0.859824 0.135449 0.588273 0.120629 0.364355 0.238973C0.140219 0.357316 0 0.590121 0 0.84368V13.1564C0 13.4102 0.140219 13.6427 0.364355 13.7611C0.46468 13.8142 0.574574 13.8404 0.684031 13.8404C0.819027 13.8404 0.953777 13.8003 1.06936 13.7218L10.0987 7.56548C10.2857 7.43803 10.3974 7.22667 10.3974 7.00023C10.3974 6.7738 10.2854 6.56246 10.0987 6.43501ZM1.36809 11.862V2.13786L8.49896 7.00002L1.36809 11.862Z" fill="black"/>
<path d="M13.316 0.935059C12.9382 0.935059 12.632 1.24128 12.632 1.61909V12.3813C12.632 12.7591 12.9382 13.0653 13.316 13.0653C13.694 13.0653 14 12.7591 14 12.3813V1.61909C14 1.24128 13.6938 0.935059 13.316 0.935059Z" fill="black"/>
</svg>
