<svg width="364" height="146" viewBox="0 0 364 146" fill="none" xmlns="http://www.w3.org/2000/svg">
<path d="M7.616 32H11.616C12.032 32 12.288 31.872 12.288 31.616V31.552C12.288 30.944 11.04 30.912 11.04 29.76V10.656H15.456C17.056 10.656 17.472 14.112 18.4 14.112H18.72C19.008 14.112 19.2 13.92 19.104 13.504L18.4 9.984C18.304 9.536 18.08 9.28 17.568 9.28H1.664C1.152 9.28 0.928 9.536 0.864 9.984L0.352 13.472C0.288 13.92 0.448 14.112 0.768 14.112H1.056C1.984 14.112 2.176 10.656 3.808 10.656H8.16V29.76C8.16 30.912 6.976 30.944 6.976 31.552V31.616C6.976 31.872 7.232 32 7.616 32ZM35.6928 29.696L35.3408 23.264C35.0528 18.432 32.4288 16.32 29.2928 16.32C27.2448 16.32 25.5168 17.312 24.5248 18.848L24.5888 8.48C24.5888 8 24.2368 7.776 23.6608 8.064L21.0368 9.216C20.7488 9.344 20.5888 9.504 20.5888 9.76V9.856C20.5888 10.368 21.8048 10.432 21.8048 11.68V29.76C21.8048 30.88 20.6208 30.848 20.6208 31.488V31.584C20.6208 31.84 20.8448 32 21.2288 32H25.2288C25.6128 32 25.9008 31.84 25.9008 31.584V31.488C25.9008 30.848 24.6208 30.88 24.6208 29.76V21.984C24.6208 19.456 26.2528 17.568 28.6208 17.568C30.8288 17.568 32.3968 19.424 32.5568 23.2L32.8768 29.728C32.9408 30.848 31.7248 30.88 31.7248 31.488V31.616C31.7248 31.872 31.9808 32 32.3648 32H36.2048C36.5888 32 36.8448 31.872 36.8448 31.616V31.488C36.8448 30.88 35.7888 30.848 35.6928 29.696ZM51.7363 27.488C51.0323 29.024 49.5283 30.272 47.1603 30.272C44.5683 30.272 42.6163 28.608 41.8802 25.856L50.7443 22.944C51.7043 22.624 52.2483 22.08 52.2483 21.056C52.2483 18.848 50.1363 16.32 46.2963 16.32C42.0403 16.32 38.7443 19.68 38.7443 24.192C38.7443 29.184 42.0403 32.32 46.1683 32.32C50.1683 32.32 52.2803 29.664 52.6643 27.744C52.7603 27.136 52.0243 27.04 51.7363 27.488ZM45.8163 17.344C48.0243 17.344 49.5603 19.68 49.5603 21.12C49.5603 21.664 49.3363 22.016 48.7923 22.24L41.6562 24.8C41.5603 24.288 41.5283 23.744 41.5283 23.168C41.5283 19.904 43.2243 17.344 45.8163 17.344ZM63.2475 32H67.2475C67.6315 32 67.8875 31.872 67.8875 31.616V31.552C67.8875 30.944 66.6715 30.912 66.6715 29.76V21.12H79.2155L79.1835 29.76C79.1835 30.912 78.0315 30.944 78.0315 31.552V31.616C78.0315 31.872 78.2875 32 78.6715 32H82.6715C83.0875 32 83.3435 31.872 83.3435 31.616V31.552C83.3435 30.944 82.0955 30.912 82.0955 29.76V11.52C82.0955 10.368 83.3435 10.336 83.3435 9.728V9.664C83.3435 9.408 83.0875 9.28 82.6715 9.28H78.6715C78.2875 9.28 78.0315 9.408 78.0315 9.664V9.728C78.0315 10.336 79.1835 10.368 79.1835 11.52L79.2155 19.712H66.6395L66.6715 11.52C66.6715 10.368 67.8875 10.336 67.8875 9.728V9.664C67.8875 9.408 67.6315 9.28 67.2475 9.28H63.2475C62.8635 9.28 62.6075 9.408 62.6075 9.664V9.728C62.6075 10.336 63.7595 10.368 63.7595 11.52V29.76C63.7595 30.912 62.6075 30.944 62.6075 31.552V31.616C62.6075 31.872 62.8635 32 63.2475 32ZM88.965 13.6C90.213 13.6 91.045 12.8 91.045 11.616C91.045 10.432 90.213 9.6 88.965 9.6C87.653 9.6 86.821 10.432 86.821 11.616C86.821 12.8 87.653 13.6 88.965 13.6ZM87.109 32H91.045C91.429 32 91.717 31.84 91.717 31.584V31.456C91.717 30.848 90.437 30.848 90.437 29.728V16.896C90.437 16.448 90.117 16.128 89.445 16.448L86.981 17.664C86.693 17.824 86.501 17.92 86.501 18.144V18.208C86.501 18.688 87.653 18.944 87.653 20.192V29.728C87.653 30.848 86.501 30.848 86.501 31.456V31.584C86.501 31.84 86.725 32 87.109 32ZM107.754 16.64C103.722 16.64 103.37 16.32 101.194 16.32C96.9383 16.32 94.1223 19.04 94.1223 22.784C94.1223 26.24 97.1302 28.992 100.97 28.992C101.386 28.992 101.77 28.96 102.186 28.928C104.362 29.12 105.738 30.528 105.738 32.576C105.738 34.72 103.978 36.16 101.354 36.16C96.0103 36.128 97.0343 31.104 95.0503 31.104C94.2183 31.104 93.8663 31.68 93.8663 32.32C93.8663 34.368 96.2343 37.184 101.162 37.184C105.482 37.184 108.586 35.36 108.586 32.384C108.586 30.496 107.21 28.96 104.426 28.352C106.794 27.328 108.266 25.248 108.266 22.592C108.266 20.96 107.402 19.2 106.026 18.176C106.986 17.92 108.074 18.048 108.65 17.44C109.034 17.12 108.842 16.64 107.754 16.64ZM101.482 27.936C98.8903 27.936 96.9062 25.056 96.9062 21.632C96.9062 19.2 98.3783 17.344 100.682 17.344C103.53 17.344 105.482 20.256 105.482 23.584C105.482 26.048 103.946 27.936 101.482 27.936ZM126.13 29.696L125.778 23.264C125.49 18.432 122.866 16.32 119.73 16.32C117.682 16.32 115.954 17.312 114.962 18.848L115.026 8.48C115.026 8 114.674 7.776 114.098 8.064L111.474 9.216C111.186 9.344 111.026 9.504 111.026 9.76V9.856C111.026 10.368 112.242 10.432 112.242 11.68V29.76C112.242 30.88 111.058 30.848 111.058 31.488V31.584C111.058 31.84 111.282 32 111.666 32H115.666C116.05 32 116.338 31.84 116.338 31.584V31.488C116.338 30.848 115.058 30.88 115.058 29.76V21.984C115.058 19.456 116.69 17.568 119.058 17.568C121.266 17.568 122.834 19.424 122.994 23.2L123.314 29.728C123.378 30.848 122.162 30.88 122.162 31.488V31.616C122.162 31.872 122.418 32 122.802 32H126.642C127.026 32 127.282 31.872 127.282 31.616V31.488C127.282 30.88 126.226 30.848 126.13 29.696ZM142.174 27.488C141.47 29.024 139.966 30.272 137.598 30.272C135.006 30.272 133.054 28.608 132.318 25.856L141.182 22.944C142.142 22.624 142.686 22.08 142.686 21.056C142.686 18.848 140.574 16.32 136.734 16.32C132.478 16.32 129.182 19.68 129.182 24.192C129.182 29.184 132.478 32.32 136.606 32.32C140.606 32.32 142.718 29.664 143.102 27.744C143.198 27.136 142.462 27.04 142.174 27.488ZM136.254 17.344C138.462 17.344 139.998 19.68 139.998 21.12C139.998 21.664 139.774 22.016 139.23 22.24L132.094 24.8C131.998 24.288 131.966 23.744 131.966 23.168C131.966 19.904 133.662 17.344 136.254 17.344ZM151.426 32.288C155.394 32.288 157.89 30.368 157.89 27.968C157.89 21.568 148.13 24.704 148.13 20.096C148.13 18.496 149.57 17.312 151.426 17.312C155.362 17.312 154.562 21.216 156.386 21.216C157.026 21.216 157.538 20.736 157.538 20.096C157.538 18.368 155.266 16.32 151.298 16.32C147.778 16.32 145.282 18.24 145.282 20.704C145.282 27.008 155.074 23.84 155.074 28.544C155.074 30.368 153.474 31.36 151.426 31.36C147.138 31.36 148.161 27.456 146.178 27.456C145.442 27.456 144.93 27.872 144.93 28.64C144.93 30.144 147.17 32.288 151.426 32.288ZM165.694 32.32C168.254 32.32 169.79 30.4 169.79 28.416C169.79 27.84 169.022 27.808 168.83 28.288C168.702 29.376 167.87 30.208 166.462 30.208C165.278 30.208 164.446 29.28 164.446 27.52V17.92H168.862C169.118 17.92 169.342 17.728 169.342 17.44V17.12C169.342 16.864 169.118 16.64 168.862 16.64H164.446L164.414 13.6C164.414 13.184 164.286 12.96 163.902 12.96H163.582C163.294 12.96 163.07 13.184 163.038 13.6C162.878 15.424 162.142 16.64 160.606 16.64H159.454C159.134 16.64 158.974 16.832 158.974 17.12V17.44C158.974 17.728 159.166 17.92 159.454 17.92H161.566V27.488C161.566 30.752 163.23 32.32 165.694 32.32ZM186.752 32.32C191.264 32.32 194.304 28.864 194.304 24.448C194.304 19.968 190.976 16.32 186.176 16.32C181.792 16.32 178.4 19.648 178.4 24.096C178.4 28.448 181.664 32.32 186.752 32.32ZM187.136 31.264C183.616 31.264 181.248 27.296 181.248 23.2C181.248 19.616 183.136 17.376 185.856 17.376C189.12 17.376 191.488 20.928 191.488 25.408C191.488 28.992 189.632 31.264 187.136 31.264ZM203.575 8.416C200.183 8.416 198.359 10.72 198.359 13.856V16.64H195.703C195.415 16.64 195.223 16.864 195.223 17.088V17.504C195.223 17.728 195.415 17.92 195.703 17.92H198.359V29.728C198.359 30.88 197.143 30.912 197.143 31.52V31.616C197.143 31.84 197.303 32 197.623 32H202.135C202.423 32 202.615 31.84 202.615 31.616V31.52C202.615 30.912 201.175 30.88 201.175 29.728V17.92H205.623C205.879 17.92 206.071 17.728 206.071 17.504V17.088C206.071 16.864 205.879 16.64 205.623 16.64H201.175V15.776C200.503 12.48 200.919 9.408 203.127 9.44C205.975 9.472 204.119 12.672 206.615 12.672C207.383 12.672 207.799 12.096 207.799 11.552C207.799 9.824 205.815 8.416 203.575 8.416ZM222.674 32.32C227.154 32.32 230.866 29.952 230.866 26.112C230.866 16.448 217.17 22.016 217.17 14.56C217.17 12.128 218.898 10.24 222.13 10.24C228.018 10.24 226.802 15.488 229.202 15.488C230.066 15.488 230.514 14.976 230.514 14.208C230.514 12 227.666 8.992 222.226 8.992C217.138 8.992 214.258 11.68 214.258 15.232C214.258 24.832 227.922 18.816 227.922 26.784C227.922 29.312 225.842 31.072 222.802 31.072C216.37 31.072 217.17 25.504 214.866 25.408C214.066 25.408 213.65 25.952 213.65 26.688C213.65 28.64 216.402 32.32 222.674 32.32ZM238.85 32.32C241.41 32.32 242.946 30.4 242.946 28.416C242.946 27.84 242.178 27.808 241.986 28.288C241.858 29.376 241.026 30.208 239.618 30.208C238.434 30.208 237.602 29.28 237.602 27.52V17.92H242.018C242.274 17.92 242.498 17.728 242.498 17.44V17.12C242.498 16.864 242.274 16.64 242.018 16.64H237.602L237.57 13.6C237.57 13.184 237.442 12.96 237.058 12.96H236.738C236.45 12.96 236.226 13.184 236.194 13.6C236.034 15.424 235.298 16.64 233.762 16.64H232.61C232.29 16.64 232.13 16.832 232.13 17.12V17.44C232.13 17.728 232.322 17.92 232.61 17.92H234.722V27.488C234.722 30.752 236.386 32.32 238.85 32.32ZM257.649 29.44L257.009 23.072C256.593 18.848 254.225 16.32 250.289 16.32C246.801 16.32 244.625 18.112 244.625 19.808C244.625 20.544 245.105 20.992 245.873 20.992C247.473 20.992 246.961 17.344 250.289 17.344C252.849 17.344 253.873 19.392 254.225 23.168L254.289 24.032C253.425 23.232 252.049 22.752 250.353 22.752C247.025 22.752 244.465 24.416 244.497 27.488C244.497 30.56 246.929 32.32 250.449 32.32C252.785 32.32 254.321 31.424 255.057 30.08C255.185 31.84 255.953 32.192 257.393 32.192C258.577 32.192 259.441 32 259.441 31.52C259.441 30.72 257.841 31.424 257.649 29.44ZM251.153 31.296C248.849 31.296 247.312 29.44 247.312 27.104C247.312 25.12 248.817 23.776 250.993 23.776C252.881 23.776 254.193 24.832 254.513 26.336L254.641 27.776C254.705 29.728 253.297 31.296 251.153 31.296ZM275.948 29.696L275.596 23.392C275.276 18.432 272.652 16.32 269.516 16.32C267.308 16.32 265.452 17.472 264.524 19.264V16.928C264.524 16.448 264.236 16.128 263.628 16.448L261.228 17.6C260.908 17.728 260.716 17.856 260.716 18.08V18.176C260.716 18.752 262.06 18.688 262.06 20.064V29.76C262.06 30.88 260.812 30.88 260.812 31.488V31.616C260.812 31.872 261.068 32.032 261.452 32.032H265.452C265.868 32.032 266.124 31.872 266.124 31.616V31.488C266.124 30.88 264.844 30.88 264.844 29.76V21.984C264.844 19.456 266.476 17.568 268.844 17.568C271.052 17.568 272.62 19.424 272.78 23.328L273.1 29.728C273.164 30.88 271.948 30.88 271.948 31.488V31.616C271.948 31.872 272.204 32.032 272.62 32.032H276.428C276.844 32.032 277.1 31.872 277.1 31.616V31.488C277.1 30.88 276.012 30.88 275.948 29.696ZM293.811 29.76V8.544C293.811 8 293.491 7.808 292.819 8.064L290.227 8.928C289.939 9.056 289.747 9.216 289.747 9.472V9.536C289.747 10.112 291.091 10.08 291.091 11.424V18.4C290.003 17.152 288.403 16.32 286.451 16.32C282.195 16.32 278.963 19.616 278.963 24.288C278.963 29.152 282.451 32.32 286.355 32.32C288.243 32.32 290.131 31.488 291.219 29.888L291.283 31.488C291.315 31.776 291.507 32 291.827 32H294.515C294.835 32 294.995 31.872 294.995 31.648V31.552C294.995 31.008 293.811 30.912 293.811 29.76ZM287.027 31.264C283.827 31.232 281.651 27.712 281.715 23.328C281.747 19.744 283.667 17.344 286.419 17.344C289.043 17.344 291.091 19.776 291.091 21.824V25.024L291.123 26.656H291.091C291.091 29.728 288.851 31.264 287.027 31.264ZM310.399 29.44L309.759 23.072C309.343 18.848 306.975 16.32 303.039 16.32C299.551 16.32 297.375 18.112 297.375 19.808C297.375 20.544 297.855 20.992 298.623 20.992C300.223 20.992 299.711 17.344 303.039 17.344C305.599 17.344 306.623 19.392 306.975 23.168L307.039 24.032C306.175 23.232 304.799 22.752 303.103 22.752C299.775 22.752 297.215 24.416 297.247 27.488C297.247 30.56 299.679 32.32 303.199 32.32C305.535 32.32 307.071 31.424 307.807 30.08C307.935 31.84 308.703 32.192 310.143 32.192C311.327 32.192 312.191 32 312.191 31.52C312.191 30.72 310.591 31.424 310.399 29.44ZM303.903 31.296C301.599 31.296 300.062 29.44 300.062 27.104C300.062 25.12 301.567 23.776 303.743 23.776C305.631 23.776 306.943 24.832 307.263 26.336L307.391 27.776C307.455 29.728 306.047 31.296 303.903 31.296ZM321.402 16.32C319.418 16.32 317.946 17.408 317.242 19.456V16.896C317.242 16.416 317.018 16.16 316.41 16.448L313.978 17.536C313.69 17.696 313.498 17.888 313.498 18.112V18.176C313.498 18.784 314.778 18.816 314.778 20.032V29.76C314.778 30.88 313.594 30.912 313.594 31.488V31.616C313.594 31.872 313.818 32 314.234 32H318.202C318.618 32 318.842 31.872 318.842 31.616V31.488C318.842 30.912 317.498 30.88 317.498 29.76V22.464C317.498 20.064 318.458 18.048 320.218 18.048C322.202 18.048 321.402 20.288 323.066 20.288C323.962 20.288 324.346 19.616 324.346 18.784C324.346 17.44 323.322 16.32 321.402 16.32ZM340.061 29.76V8.544C340.061 8 339.741 7.808 339.069 8.064L336.477 8.928C336.189 9.056 335.997 9.216 335.997 9.472V9.536C335.997 10.112 337.341 10.08 337.341 11.424V18.4C336.253 17.152 334.653 16.32 332.701 16.32C328.445 16.32 325.213 19.616 325.213 24.288C325.213 29.152 328.701 32.32 332.605 32.32C334.493 32.32 336.381 31.488 337.469 29.888L337.533 31.488C337.565 31.776 337.757 32 338.077 32H340.765C341.085 32 341.245 31.872 341.245 31.648V31.552C341.245 31.008 340.061 30.912 340.061 29.76ZM333.277 31.264C330.077 31.232 327.901 27.712 327.965 23.328C327.997 19.744 329.917 17.344 332.669 17.344C335.293 17.344 337.341 19.776 337.341 21.824V25.024L337.373 26.656H337.341C337.341 29.728 335.101 31.264 333.277 31.264ZM349.801 32.288C353.769 32.288 356.265 30.368 356.265 27.968C356.265 21.568 346.505 24.704 346.505 20.096C346.505 18.496 347.945 17.312 349.801 17.312C353.737 17.312 352.937 21.216 354.761 21.216C355.401 21.216 355.913 20.736 355.913 20.096C355.913 18.368 353.641 16.32 349.673 16.32C346.153 16.32 343.657 18.24 343.657 20.704C343.657 27.008 353.449 23.84 353.449 28.544C353.449 30.368 351.849 31.36 349.801 31.36C345.513 31.36 346.536 27.456 344.553 27.456C343.817 27.456 343.305 27.872 343.305 28.64C343.305 30.144 345.545 32.288 349.801 32.288Z" fill="black"/>
<path d="M9.3 82.1L5.55 92H4.185L0.42 82.1H1.71L4.23 88.94L4.86 90.905L5.49 88.955L8.01 82.1H9.3ZM11.4216 83.06C11.1516 83.06 10.9316 82.98 10.7616 82.82C10.6016 82.65 10.5216 82.43 10.5216 82.16C10.5216 81.89 10.6016 81.675 10.7616 81.515C10.9316 81.345 11.1516 81.26 11.4216 81.26C11.6916 81.26 11.9066 81.345 12.0666 81.515C12.2366 81.675 12.3216 81.89 12.3216 82.16C12.3216 82.43 12.2366 82.65 12.0666 82.82C11.9066 82.98 11.6916 83.06 11.4216 83.06ZM12.0216 84.5V92H10.8216V84.5H12.0216ZM15.6459 81.05V90.095C15.6459 90.475 15.7159 90.74 15.8559 90.89C15.9959 91.03 16.2209 91.1 16.5309 91.1C16.7309 91.1 16.8959 91.085 17.0259 91.055C17.1559 91.025 17.3309 90.97 17.5509 90.89L17.3559 91.94C17.1959 92.01 17.0209 92.06 16.8309 92.09C16.6409 92.13 16.4459 92.15 16.2459 92.15C15.6359 92.15 15.1809 91.985 14.8809 91.655C14.5909 91.325 14.4459 90.82 14.4459 90.14V81.05H15.6459ZM19.9309 81.05V90.095C19.9309 90.475 20.0009 90.74 20.1409 90.89C20.2809 91.03 20.5059 91.1 20.8159 91.1C21.0159 91.1 21.1809 91.085 21.3109 91.055C21.4409 91.025 21.6159 90.97 21.8359 90.89L21.6409 91.94C21.4809 92.01 21.3059 92.06 21.1159 92.09C20.9259 92.13 20.7309 92.15 20.5309 92.15C19.9209 92.15 19.4659 91.985 19.1659 91.655C18.8759 91.325 18.7309 90.82 18.7309 90.14V81.05H19.9309ZM27.4559 87.155C27.4559 86.595 27.3059 86.165 27.0059 85.865C26.7059 85.555 26.2809 85.4 25.7309 85.4C25.2109 85.4 24.7709 85.515 24.4109 85.745C24.0509 85.965 23.7859 86.325 23.6159 86.825L22.6409 86.225C22.8409 85.665 23.2109 85.215 23.7509 84.875C24.2909 84.525 24.9609 84.35 25.7609 84.35C26.3009 84.35 26.7909 84.445 27.2309 84.635C27.6709 84.815 28.0159 85.095 28.2659 85.475C28.5259 85.845 28.6559 86.325 28.6559 86.915V90.545C28.6559 90.905 28.8459 91.085 29.2259 91.085C29.4159 91.085 29.6009 91.06 29.7809 91.01L29.7209 91.955C29.5209 92.055 29.2609 92.105 28.9409 92.105C28.6509 92.105 28.3909 92.05 28.1609 91.94C27.9309 91.83 27.7509 91.665 27.6209 91.445C27.4909 91.215 27.4259 90.93 27.4259 90.59V90.44L27.7259 90.485C27.6059 90.875 27.4009 91.195 27.1109 91.445C26.8209 91.685 26.4959 91.865 26.1359 91.985C25.7759 92.095 25.4209 92.15 25.0709 92.15C24.6309 92.15 24.2209 92.075 23.8409 91.925C23.4609 91.775 23.1559 91.55 22.9259 91.25C22.7059 90.94 22.5959 90.56 22.5959 90.11C22.5959 89.55 22.7809 89.09 23.1509 88.73C23.5309 88.36 24.0559 88.11 24.7259 87.98L27.6959 87.395V88.385L25.2809 88.88C24.7909 88.98 24.4259 89.12 24.1859 89.3C23.9459 89.48 23.8259 89.73 23.8259 90.05C23.8259 90.36 23.9459 90.615 24.1859 90.815C24.4359 91.005 24.7859 91.1 25.2359 91.1C25.5259 91.1 25.8009 91.065 26.0609 90.995C26.3309 90.915 26.5709 90.8 26.7809 90.65C26.9909 90.49 27.1559 90.295 27.2759 90.065C27.3959 89.825 27.4559 89.545 27.4559 89.225V87.155ZM42.5075 82.1V83.225H39.0575V92H37.8575V83.225H34.4075V82.1H42.5075ZM46.9465 87.155C46.9465 86.595 46.7965 86.165 46.4965 85.865C46.1965 85.555 45.7715 85.4 45.2215 85.4C44.7015 85.4 44.2615 85.515 43.9015 85.745C43.5415 85.965 43.2765 86.325 43.1065 86.825L42.1315 86.225C42.3315 85.665 42.7015 85.215 43.2415 84.875C43.7815 84.525 44.4515 84.35 45.2515 84.35C45.7915 84.35 46.2815 84.445 46.7215 84.635C47.1615 84.815 47.5065 85.095 47.7565 85.475C48.0165 85.845 48.1465 86.325 48.1465 86.915V90.545C48.1465 90.905 48.3365 91.085 48.7165 91.085C48.9065 91.085 49.0915 91.06 49.2715 91.01L49.2115 91.955C49.0115 92.055 48.7515 92.105 48.4315 92.105C48.1415 92.105 47.8815 92.05 47.6515 91.94C47.4215 91.83 47.2415 91.665 47.1115 91.445C46.9815 91.215 46.9165 90.93 46.9165 90.59V90.44L47.2165 90.485C47.0965 90.875 46.8915 91.195 46.6015 91.445C46.3115 91.685 45.9865 91.865 45.6265 91.985C45.2665 92.095 44.9115 92.15 44.5615 92.15C44.1215 92.15 43.7115 92.075 43.3315 91.925C42.9515 91.775 42.6465 91.55 42.4165 91.25C42.1965 90.94 42.0865 90.56 42.0865 90.11C42.0865 89.55 42.2715 89.09 42.6415 88.73C43.0215 88.36 43.5465 88.11 44.2165 87.98L47.1865 87.395V88.385L44.7715 88.88C44.2815 88.98 43.9165 89.12 43.6765 89.3C43.4365 89.48 43.3165 89.73 43.3165 90.05C43.3165 90.36 43.4365 90.615 43.6765 90.815C43.9265 91.005 44.2765 91.1 44.7265 91.1C45.0165 91.1 45.2915 91.065 45.5515 90.995C45.8215 90.915 46.0615 90.8 46.2715 90.65C46.4815 90.49 46.6465 90.295 46.7665 90.065C46.8865 89.825 46.9465 89.545 46.9465 89.225V87.155ZM50.7626 92V84.5H51.8126L51.8876 85.67C52.1576 85.21 52.5076 84.875 52.9376 84.665C53.3776 84.455 53.8276 84.35 54.2876 84.35C54.8176 84.35 55.3176 84.47 55.7876 84.71C56.2576 84.95 56.6176 85.32 56.8676 85.82C57.0276 85.48 57.2526 85.205 57.5426 84.995C57.8326 84.775 58.1476 84.615 58.4876 84.515C58.8376 84.405 59.1676 84.35 59.4776 84.35C59.9576 84.35 60.4126 84.45 60.8426 84.65C61.2826 84.85 61.6426 85.16 61.9226 85.58C62.2026 86 62.3426 86.54 62.3426 87.2V92H61.1426V87.32C61.1426 86.64 60.9726 86.15 60.6326 85.85C60.2926 85.55 59.8726 85.4 59.3726 85.4C58.9826 85.4 58.6176 85.495 58.2776 85.685C57.9376 85.875 57.6626 86.155 57.4526 86.525C57.2526 86.895 57.1526 87.35 57.1526 87.89V92H55.9526V87.32C55.9526 86.64 55.7826 86.15 55.4426 85.85C55.1026 85.55 54.6826 85.4 54.1826 85.4C53.8526 85.4 53.5126 85.49 53.1626 85.67C52.8226 85.84 52.5376 86.115 52.3076 86.495C52.0776 86.875 51.9626 87.375 51.9626 87.995V92H50.7626ZM69.1395 87.155C69.1395 86.595 68.9895 86.165 68.6895 85.865C68.3895 85.555 67.9645 85.4 67.4145 85.4C66.8945 85.4 66.4545 85.515 66.0945 85.745C65.7345 85.965 65.4695 86.325 65.2995 86.825L64.3245 86.225C64.5245 85.665 64.8945 85.215 65.4345 84.875C65.9745 84.525 66.6445 84.35 67.4445 84.35C67.9845 84.35 68.4745 84.445 68.9145 84.635C69.3545 84.815 69.6995 85.095 69.9495 85.475C70.2095 85.845 70.3395 86.325 70.3395 86.915V90.545C70.3395 90.905 70.5295 91.085 70.9095 91.085C71.0995 91.085 71.2845 91.06 71.4645 91.01L71.4045 91.955C71.2045 92.055 70.9445 92.105 70.6245 92.105C70.3345 92.105 70.0745 92.05 69.8445 91.94C69.6145 91.83 69.4345 91.665 69.3045 91.445C69.1745 91.215 69.1095 90.93 69.1095 90.59V90.44L69.4095 90.485C69.2895 90.875 69.0845 91.195 68.7945 91.445C68.5045 91.685 68.1795 91.865 67.8195 91.985C67.4595 92.095 67.1045 92.15 66.7545 92.15C66.3145 92.15 65.9045 92.075 65.5245 91.925C65.1445 91.775 64.8395 91.55 64.6095 91.25C64.3895 90.94 64.2795 90.56 64.2795 90.11C64.2795 89.55 64.4645 89.09 64.8345 88.73C65.2145 88.36 65.7395 88.11 66.4095 87.98L69.3795 87.395V88.385L66.9645 88.88C66.4745 88.98 66.1095 89.12 65.8695 89.3C65.6295 89.48 65.5095 89.73 65.5095 90.05C65.5095 90.36 65.6295 90.615 65.8695 90.815C66.1195 91.005 66.4695 91.1 66.9195 91.1C67.2095 91.1 67.4845 91.065 67.7445 90.995C68.0145 90.915 68.2545 90.8 68.4645 90.65C68.6745 90.49 68.8395 90.295 68.9595 90.065C69.0795 89.825 69.1395 89.545 69.1395 89.225V87.155ZM72.9555 92V84.5H74.0055L74.1105 86.18L73.9155 86.015C74.0755 85.615 74.2905 85.295 74.5605 85.055C74.8305 84.805 75.1405 84.625 75.4905 84.515C75.8505 84.405 76.2205 84.35 76.6005 84.35C77.1405 84.35 77.6305 84.455 78.0705 84.665C78.5105 84.865 78.8605 85.175 79.1205 85.595C79.3905 86.015 79.5255 86.55 79.5255 87.2V92H78.3255V87.62C78.3255 86.79 78.1455 86.215 77.7855 85.895C77.4355 85.565 77.0005 85.4 76.4805 85.4C76.1205 85.4 75.7605 85.485 75.4005 85.655C75.0405 85.825 74.7405 86.1 74.5005 86.48C74.2705 86.86 74.1555 87.37 74.1555 88.01V92H72.9555ZM86.3227 87.155C86.3227 86.595 86.1727 86.165 85.8727 85.865C85.5727 85.555 85.1477 85.4 84.5977 85.4C84.0777 85.4 83.6377 85.515 83.2777 85.745C82.9177 85.965 82.6527 86.325 82.4827 86.825L81.5077 86.225C81.7077 85.665 82.0777 85.215 82.6177 84.875C83.1577 84.525 83.8277 84.35 84.6277 84.35C85.1677 84.35 85.6577 84.445 86.0977 84.635C86.5377 84.815 86.8827 85.095 87.1327 85.475C87.3927 85.845 87.5227 86.325 87.5227 86.915V90.545C87.5227 90.905 87.7127 91.085 88.0927 91.085C88.2827 91.085 88.4677 91.06 88.6477 91.01L88.5877 91.955C88.3877 92.055 88.1277 92.105 87.8077 92.105C87.5177 92.105 87.2577 92.05 87.0277 91.94C86.7977 91.83 86.6177 91.665 86.4877 91.445C86.3577 91.215 86.2927 90.93 86.2927 90.59V90.44L86.5927 90.485C86.4727 90.875 86.2677 91.195 85.9777 91.445C85.6877 91.685 85.3627 91.865 85.0027 91.985C84.6427 92.095 84.2877 92.15 83.9377 92.15C83.4977 92.15 83.0877 92.075 82.7077 91.925C82.3277 91.775 82.0227 91.55 81.7927 91.25C81.5727 90.94 81.4627 90.56 81.4627 90.11C81.4627 89.55 81.6477 89.09 82.0177 88.73C82.3977 88.36 82.9227 88.11 83.5927 87.98L86.5627 87.395V88.385L84.1477 88.88C83.6577 88.98 83.2927 89.12 83.0527 89.3C82.8127 89.48 82.6927 89.73 82.6927 90.05C82.6927 90.36 82.8127 90.615 83.0527 90.815C83.3027 91.005 83.6527 91.1 84.1027 91.1C84.3927 91.1 84.6677 91.065 84.9277 90.995C85.1977 90.915 85.4377 90.8 85.6477 90.65C85.8577 90.49 86.0227 90.295 86.1427 90.065C86.2627 89.825 86.3227 89.545 86.3227 89.225V87.155ZM90.1388 92V84.5H91.1138L91.2788 85.73C91.4888 85.27 91.7938 84.925 92.1938 84.695C92.6038 84.465 93.0988 84.35 93.6788 84.35C93.8088 84.35 93.9488 84.36 94.0988 84.38C94.2588 84.4 94.3938 84.44 94.5038 84.5L94.2938 85.595C94.1838 85.555 94.0638 85.525 93.9338 85.505C93.8038 85.485 93.6188 85.475 93.3788 85.475C93.0688 85.475 92.7538 85.565 92.4338 85.745C92.1238 85.925 91.8638 86.2 91.6538 86.57C91.4438 86.93 91.3388 87.39 91.3388 87.95V92H90.1388ZM103.528 84.35C104.048 84.35 104.503 84.43 104.893 84.59C105.293 84.75 105.638 84.98 105.928 85.28C106.218 85.58 106.453 85.935 106.633 86.345L105.493 86.885C105.333 86.405 105.088 86.04 104.758 85.79C104.438 85.53 104.018 85.4 103.498 85.4C102.998 85.4 102.568 85.515 102.208 85.745C101.848 85.965 101.573 86.29 101.383 86.72C101.193 87.14 101.098 87.65 101.098 88.25C101.098 88.84 101.193 89.35 101.383 89.78C101.573 90.21 101.848 90.54 102.208 90.77C102.568 90.99 102.998 91.1 103.498 91.1C103.888 91.1 104.223 91.04 104.503 90.92C104.793 90.8 105.028 90.625 105.208 90.395C105.398 90.165 105.528 89.885 105.598 89.555L106.708 89.945C106.538 90.405 106.303 90.8 106.003 91.13C105.713 91.46 105.358 91.715 104.938 91.895C104.528 92.065 104.058 92.15 103.528 92.15C102.828 92.15 102.203 91.995 101.653 91.685C101.103 91.375 100.673 90.93 100.363 90.35C100.053 89.76 99.8975 89.06 99.8975 88.25C99.8975 87.44 100.053 86.745 100.363 86.165C100.673 85.575 101.103 85.125 101.653 84.815C102.203 84.505 102.828 84.35 103.528 84.35ZM111.621 84.35C112.331 84.35 112.956 84.505 113.496 84.815C114.046 85.125 114.476 85.575 114.786 86.165C115.096 86.745 115.251 87.44 115.251 88.25C115.251 89.06 115.096 89.76 114.786 90.35C114.476 90.93 114.046 91.375 113.496 91.685C112.956 91.995 112.331 92.15 111.621 92.15C110.921 92.15 110.296 91.995 109.746 91.685C109.196 91.375 108.766 90.93 108.456 90.35C108.146 89.76 107.991 89.06 107.991 88.25C107.991 87.44 108.146 86.745 108.456 86.165C108.766 85.575 109.196 85.125 109.746 84.815C110.296 84.505 110.921 84.35 111.621 84.35ZM111.621 85.385C111.111 85.385 110.676 85.5 110.316 85.73C109.956 85.96 109.676 86.29 109.476 86.72C109.286 87.14 109.191 87.65 109.191 88.25C109.191 88.84 109.286 89.35 109.476 89.78C109.676 90.21 109.956 90.54 110.316 90.77C110.676 91 111.111 91.115 111.621 91.115C112.131 91.115 112.566 91 112.926 90.77C113.286 90.54 113.561 90.21 113.751 89.78C113.951 89.35 114.051 88.84 114.051 88.25C114.051 87.65 113.951 87.14 113.751 86.72C113.561 86.29 113.286 85.96 112.926 85.73C112.566 85.5 112.131 85.385 111.621 85.385ZM117.21 92V84.5H118.26L118.335 85.67C118.605 85.21 118.955 84.875 119.385 84.665C119.825 84.455 120.275 84.35 120.735 84.35C121.265 84.35 121.765 84.47 122.235 84.71C122.705 84.95 123.065 85.32 123.315 85.82C123.475 85.48 123.7 85.205 123.99 84.995C124.28 84.775 124.595 84.615 124.935 84.515C125.285 84.405 125.615 84.35 125.925 84.35C126.405 84.35 126.86 84.45 127.29 84.65C127.73 84.85 128.09 85.16 128.37 85.58C128.65 86 128.79 86.54 128.79 87.2V92H127.59V87.32C127.59 86.64 127.42 86.15 127.08 85.85C126.74 85.55 126.32 85.4 125.82 85.4C125.43 85.4 125.065 85.495 124.725 85.685C124.385 85.875 124.11 86.155 123.9 86.525C123.7 86.895 123.6 87.35 123.6 87.89V92H122.4V87.32C122.4 86.64 122.23 86.15 121.89 85.85C121.55 85.55 121.13 85.4 120.63 85.4C120.3 85.4 119.96 85.49 119.61 85.67C119.27 85.84 118.985 86.115 118.755 86.495C118.525 86.875 118.41 87.375 118.41 87.995V92H117.21ZM134.882 92.15C134.462 92.15 134.072 92.075 133.712 91.925C133.352 91.775 133.042 91.565 132.782 91.295C132.522 91.025 132.327 90.72 132.197 90.38L132.362 90.17L132.257 92H131.207V81.05H132.407V86.195L132.257 85.97C132.457 85.5 132.792 85.115 133.262 84.815C133.742 84.505 134.287 84.35 134.897 84.35C135.517 84.35 136.087 84.505 136.607 84.815C137.127 85.125 137.542 85.57 137.852 86.15C138.162 86.73 138.317 87.43 138.317 88.25C138.317 89.06 138.157 89.76 137.837 90.35C137.527 90.93 137.112 91.375 136.592 91.685C136.072 91.995 135.502 92.15 134.882 92.15ZM134.762 91.1C135.502 91.1 136.077 90.84 136.487 90.32C136.907 89.8 137.117 89.11 137.117 88.25C137.117 87.39 136.912 86.7 136.502 86.18C136.092 85.66 135.517 85.4 134.777 85.4C134.307 85.4 133.892 85.52 133.532 85.76C133.182 86 132.907 86.335 132.707 86.765C132.507 87.195 132.407 87.7 132.407 88.28C132.407 88.85 132.502 89.35 132.692 89.78C132.892 90.2 133.167 90.525 133.517 90.755C133.877 90.985 134.292 91.1 134.762 91.1ZM140.911 83.06C140.641 83.06 140.421 82.98 140.251 82.82C140.091 82.65 140.011 82.43 140.011 82.16C140.011 81.89 140.091 81.675 140.251 81.515C140.421 81.345 140.641 81.26 140.911 81.26C141.181 81.26 141.396 81.345 141.556 81.515C141.726 81.675 141.811 81.89 141.811 82.16C141.811 82.43 141.726 82.65 141.556 82.82C141.396 82.98 141.181 83.06 140.911 83.06ZM141.511 84.5V92H140.311V84.5H141.511ZM143.996 92V84.5H145.046L145.151 86.18L144.956 86.015C145.116 85.615 145.331 85.295 145.601 85.055C145.871 84.805 146.181 84.625 146.531 84.515C146.891 84.405 147.261 84.35 147.641 84.35C148.181 84.35 148.671 84.455 149.111 84.665C149.551 84.865 149.901 85.175 150.161 85.595C150.431 86.015 150.566 86.55 150.566 87.2V92H149.366V87.62C149.366 86.79 149.186 86.215 148.826 85.895C148.476 85.565 148.041 85.4 147.521 85.4C147.161 85.4 146.801 85.485 146.441 85.655C146.081 85.825 145.781 86.1 145.541 86.48C145.311 86.86 145.196 87.37 145.196 88.01V92H143.996ZM156.118 92.15C155.408 92.15 154.773 91.995 154.213 91.685C153.663 91.375 153.233 90.93 152.923 90.35C152.613 89.76 152.458 89.06 152.458 88.25C152.458 87.44 152.613 86.745 152.923 86.165C153.233 85.575 153.658 85.125 154.198 84.815C154.738 84.505 155.353 84.35 156.043 84.35C156.743 84.35 157.338 84.5 157.828 84.8C158.328 85.1 158.708 85.51 158.968 86.03C159.228 86.54 159.358 87.115 159.358 87.755C159.358 87.925 159.353 88.08 159.343 88.22C159.333 88.36 159.318 88.485 159.298 88.595H153.238V87.53H158.773L158.158 87.65C158.158 86.93 157.958 86.375 157.558 85.985C157.168 85.595 156.653 85.4 156.013 85.4C155.523 85.4 155.098 85.515 154.738 85.745C154.388 85.965 154.113 86.29 153.913 86.72C153.723 87.14 153.628 87.65 153.628 88.25C153.628 88.84 153.728 89.35 153.928 89.78C154.128 90.21 154.408 90.54 154.768 90.77C155.138 90.99 155.578 91.1 156.088 91.1C156.638 91.1 157.083 90.995 157.423 90.785C157.773 90.575 158.053 90.29 158.263 89.93L159.208 90.485C159.018 90.825 158.773 91.12 158.473 91.37C158.183 91.62 157.838 91.815 157.438 91.955C157.048 92.085 156.608 92.15 156.118 92.15ZM164.04 92.15C163.31 92.15 162.635 91.995 162.015 91.685C161.405 91.375 160.935 90.935 160.605 90.365L161.625 89.63C161.845 90.09 162.165 90.45 162.585 90.71C163.015 90.97 163.53 91.1 164.13 91.1C164.66 91.1 165.075 91 165.375 90.8C165.675 90.59 165.825 90.32 165.825 89.99C165.825 89.78 165.755 89.59 165.615 89.42C165.485 89.24 165.23 89.11 164.85 89.03L163.05 88.655C162.32 88.505 161.795 88.255 161.475 87.905C161.165 87.555 161.01 87.12 161.01 86.6C161.01 86.19 161.125 85.815 161.355 85.475C161.595 85.135 161.93 84.865 162.36 84.665C162.8 84.455 163.315 84.35 163.905 84.35C164.645 84.35 165.27 84.495 165.78 84.785C166.29 85.075 166.67 85.485 166.92 86.015L165.915 86.675C165.745 86.235 165.47 85.915 165.09 85.715C164.71 85.505 164.315 85.4 163.905 85.4C163.545 85.4 163.235 85.45 162.975 85.55C162.725 85.65 162.53 85.79 162.39 85.97C162.26 86.14 162.195 86.335 162.195 86.555C162.195 86.775 162.27 86.98 162.42 87.17C162.57 87.35 162.85 87.48 163.26 87.56L165.135 87.95C165.835 88.09 166.325 88.32 166.605 88.64C166.885 88.96 167.025 89.35 167.025 89.81C167.025 90.28 166.9 90.695 166.65 91.055C166.4 91.405 166.05 91.675 165.6 91.865C165.15 92.055 164.63 92.15 164.04 92.15ZM173.763 92V84.5H174.813L174.918 86.18L174.723 86.015C174.883 85.615 175.098 85.295 175.368 85.055C175.638 84.805 175.948 84.625 176.298 84.515C176.658 84.405 177.028 84.35 177.408 84.35C177.948 84.35 178.438 84.455 178.878 84.665C179.318 84.865 179.668 85.175 179.928 85.595C180.198 86.015 180.333 86.55 180.333 87.2V92H179.133V87.62C179.133 86.79 178.953 86.215 178.593 85.895C178.243 85.565 177.808 85.4 177.288 85.4C176.928 85.4 176.568 85.485 176.208 85.655C175.848 85.825 175.548 86.1 175.308 86.48C175.078 86.86 174.963 87.37 174.963 88.01V92H173.763ZM187.13 87.155C187.13 86.595 186.98 86.165 186.68 85.865C186.38 85.555 185.955 85.4 185.405 85.4C184.885 85.4 184.445 85.515 184.085 85.745C183.725 85.965 183.46 86.325 183.29 86.825L182.315 86.225C182.515 85.665 182.885 85.215 183.425 84.875C183.965 84.525 184.635 84.35 185.435 84.35C185.975 84.35 186.465 84.445 186.905 84.635C187.345 84.815 187.69 85.095 187.94 85.475C188.2 85.845 188.33 86.325 188.33 86.915V90.545C188.33 90.905 188.52 91.085 188.9 91.085C189.09 91.085 189.275 91.06 189.455 91.01L189.395 91.955C189.195 92.055 188.935 92.105 188.615 92.105C188.325 92.105 188.065 92.05 187.835 91.94C187.605 91.83 187.425 91.665 187.295 91.445C187.165 91.215 187.1 90.93 187.1 90.59V90.44L187.4 90.485C187.28 90.875 187.075 91.195 186.785 91.445C186.495 91.685 186.17 91.865 185.81 91.985C185.45 92.095 185.095 92.15 184.745 92.15C184.305 92.15 183.895 92.075 183.515 91.925C183.135 91.775 182.83 91.55 182.6 91.25C182.38 90.94 182.27 90.56 182.27 90.11C182.27 89.55 182.455 89.09 182.825 88.73C183.205 88.36 183.73 88.11 184.4 87.98L187.37 87.395V88.385L184.955 88.88C184.465 88.98 184.1 89.12 183.86 89.3C183.62 89.48 183.5 89.73 183.5 90.05C183.5 90.36 183.62 90.615 183.86 90.815C184.11 91.005 184.46 91.1 184.91 91.1C185.2 91.1 185.475 91.065 185.735 90.995C186.005 90.915 186.245 90.8 186.455 90.65C186.665 90.49 186.83 90.295 186.95 90.065C187.07 89.825 187.13 89.545 187.13 89.225V87.155ZM192.423 82.37V89.93C192.423 90.3 192.528 90.575 192.738 90.755C192.948 90.935 193.218 91.025 193.548 91.025C193.838 91.025 194.088 90.975 194.298 90.875C194.508 90.775 194.698 90.64 194.868 90.47L195.288 91.475C195.058 91.685 194.783 91.85 194.463 91.97C194.153 92.09 193.793 92.15 193.383 92.15C193.003 92.15 192.648 92.085 192.318 91.955C191.988 91.815 191.723 91.6 191.523 91.31C191.333 91.01 191.233 90.62 191.223 90.14V82.7L192.423 82.37ZM195.153 84.5V85.535H189.723V84.5H195.153ZM199.352 92.15C198.872 92.15 198.417 92.06 197.987 91.88C197.567 91.7 197.222 91.41 196.952 91.01C196.692 90.6 196.562 90.07 196.562 89.42V84.5H197.762V89.105C197.762 89.865 197.927 90.39 198.257 90.68C198.587 90.96 199.052 91.1 199.652 91.1C199.932 91.1 200.207 91.055 200.477 90.965C200.747 90.865 200.987 90.715 201.197 90.515C201.417 90.305 201.587 90.04 201.707 89.72C201.837 89.4 201.902 89.02 201.902 88.58V84.5H203.102V92H202.052L201.977 90.86C201.717 91.31 201.362 91.64 200.912 91.85C200.472 92.05 199.952 92.15 199.352 92.15ZM205.595 92V84.5H206.57L206.735 85.73C206.945 85.27 207.25 84.925 207.65 84.695C208.06 84.465 208.555 84.35 209.135 84.35C209.265 84.35 209.405 84.36 209.555 84.38C209.715 84.4 209.85 84.44 209.96 84.5L209.75 85.595C209.64 85.555 209.52 85.525 209.39 85.505C209.26 85.485 209.075 85.475 208.835 85.475C208.525 85.475 208.21 85.565 207.89 85.745C207.58 85.925 207.32 86.2 207.11 86.57C206.9 86.93 206.795 87.39 206.795 87.95V92H205.595ZM215.593 87.155C215.593 86.595 215.443 86.165 215.143 85.865C214.843 85.555 214.418 85.4 213.868 85.4C213.348 85.4 212.908 85.515 212.548 85.745C212.188 85.965 211.923 86.325 211.753 86.825L210.778 86.225C210.978 85.665 211.348 85.215 211.888 84.875C212.428 84.525 213.098 84.35 213.898 84.35C214.438 84.35 214.928 84.445 215.368 84.635C215.808 84.815 216.153 85.095 216.403 85.475C216.663 85.845 216.793 86.325 216.793 86.915V90.545C216.793 90.905 216.983 91.085 217.363 91.085C217.553 91.085 217.738 91.06 217.918 91.01L217.858 91.955C217.658 92.055 217.398 92.105 217.078 92.105C216.788 92.105 216.528 92.05 216.298 91.94C216.068 91.83 215.888 91.665 215.758 91.445C215.628 91.215 215.563 90.93 215.563 90.59V90.44L215.863 90.485C215.743 90.875 215.538 91.195 215.248 91.445C214.958 91.685 214.633 91.865 214.273 91.985C213.913 92.095 213.558 92.15 213.208 92.15C212.768 92.15 212.358 92.075 211.978 91.925C211.598 91.775 211.293 91.55 211.063 91.25C210.843 90.94 210.733 90.56 210.733 90.11C210.733 89.55 210.918 89.09 211.288 88.73C211.668 88.36 212.193 88.11 212.863 87.98L215.833 87.395V88.385L213.418 88.88C212.928 88.98 212.563 89.12 212.323 89.3C212.083 89.48 211.963 89.73 211.963 90.05C211.963 90.36 212.083 90.615 212.323 90.815C212.573 91.005 212.923 91.1 213.373 91.1C213.663 91.1 213.938 91.065 214.198 90.995C214.468 90.915 214.708 90.8 214.918 90.65C215.128 90.49 215.293 90.295 215.413 90.065C215.533 89.825 215.593 89.545 215.593 89.225V87.155ZM220.549 81.05V90.095C220.549 90.475 220.619 90.74 220.759 90.89C220.899 91.03 221.124 91.1 221.434 91.1C221.634 91.1 221.799 91.085 221.929 91.055C222.059 91.025 222.234 90.97 222.454 90.89L222.259 91.94C222.099 92.01 221.924 92.06 221.734 92.09C221.544 92.13 221.349 92.15 221.149 92.15C220.539 92.15 220.084 91.985 219.784 91.655C219.494 91.325 219.349 90.82 219.349 90.14V81.05H220.549ZM231.654 92.15C231.234 92.15 230.844 92.075 230.484 91.925C230.124 91.775 229.814 91.565 229.554 91.295C229.294 91.025 229.099 90.72 228.969 90.38L229.134 90.17L229.029 92H227.979V81.05H229.179V86.195L229.029 85.97C229.229 85.5 229.564 85.115 230.034 84.815C230.514 84.505 231.059 84.35 231.669 84.35C232.289 84.35 232.859 84.505 233.379 84.815C233.899 85.125 234.314 85.57 234.624 86.15C234.934 86.73 235.089 87.43 235.089 88.25C235.089 89.06 234.929 89.76 234.609 90.35C234.299 90.93 233.884 91.375 233.364 91.685C232.844 91.995 232.274 92.15 231.654 92.15ZM231.534 91.1C232.274 91.1 232.849 90.84 233.259 90.32C233.679 89.8 233.889 89.11 233.889 88.25C233.889 87.39 233.684 86.7 233.274 86.18C232.864 85.66 232.289 85.4 231.549 85.4C231.079 85.4 230.664 85.52 230.304 85.76C229.954 86 229.679 86.335 229.479 86.765C229.279 87.195 229.179 87.7 229.179 88.28C229.179 88.85 229.274 89.35 229.464 89.78C229.664 90.2 229.939 90.525 230.289 90.755C230.649 90.985 231.064 91.1 231.534 91.1ZM240.218 92.15C239.508 92.15 238.873 91.995 238.313 91.685C237.763 91.375 237.333 90.93 237.023 90.35C236.713 89.76 236.558 89.06 236.558 88.25C236.558 87.44 236.713 86.745 237.023 86.165C237.333 85.575 237.758 85.125 238.298 84.815C238.838 84.505 239.453 84.35 240.143 84.35C240.843 84.35 241.438 84.5 241.928 84.8C242.428 85.1 242.808 85.51 243.068 86.03C243.328 86.54 243.458 87.115 243.458 87.755C243.458 87.925 243.453 88.08 243.443 88.22C243.433 88.36 243.418 88.485 243.398 88.595H237.338V87.53H242.873L242.258 87.65C242.258 86.93 242.058 86.375 241.658 85.985C241.268 85.595 240.753 85.4 240.113 85.4C239.623 85.4 239.198 85.515 238.838 85.745C238.488 85.965 238.213 86.29 238.013 86.72C237.823 87.14 237.728 87.65 237.728 88.25C237.728 88.84 237.828 89.35 238.028 89.78C238.228 90.21 238.508 90.54 238.868 90.77C239.238 90.99 239.678 91.1 240.188 91.1C240.738 91.1 241.183 90.995 241.523 90.785C241.873 90.575 242.153 90.29 242.363 89.93L243.308 90.485C243.118 90.825 242.873 91.12 242.573 91.37C242.283 91.62 241.938 91.815 241.538 91.955C241.148 92.085 240.708 92.15 240.218 92.15ZM249.82 87.155C249.82 86.595 249.67 86.165 249.37 85.865C249.07 85.555 248.645 85.4 248.095 85.4C247.575 85.4 247.135 85.515 246.775 85.745C246.415 85.965 246.15 86.325 245.98 86.825L245.005 86.225C245.205 85.665 245.575 85.215 246.115 84.875C246.655 84.525 247.325 84.35 248.125 84.35C248.665 84.35 249.155 84.445 249.595 84.635C250.035 84.815 250.38 85.095 250.63 85.475C250.89 85.845 251.02 86.325 251.02 86.915V90.545C251.02 90.905 251.21 91.085 251.59 91.085C251.78 91.085 251.965 91.06 252.145 91.01L252.085 91.955C251.885 92.055 251.625 92.105 251.305 92.105C251.015 92.105 250.755 92.05 250.525 91.94C250.295 91.83 250.115 91.665 249.985 91.445C249.855 91.215 249.79 90.93 249.79 90.59V90.44L250.09 90.485C249.97 90.875 249.765 91.195 249.475 91.445C249.185 91.685 248.86 91.865 248.5 91.985C248.14 92.095 247.785 92.15 247.435 92.15C246.995 92.15 246.585 92.075 246.205 91.925C245.825 91.775 245.52 91.55 245.29 91.25C245.07 90.94 244.96 90.56 244.96 90.11C244.96 89.55 245.145 89.09 245.515 88.73C245.895 88.36 246.42 88.11 247.09 87.98L250.06 87.395V88.385L247.645 88.88C247.155 88.98 246.79 89.12 246.55 89.3C246.31 89.48 246.19 89.73 246.19 90.05C246.19 90.36 246.31 90.615 246.55 90.815C246.8 91.005 247.15 91.1 247.6 91.1C247.89 91.1 248.165 91.065 248.425 90.995C248.695 90.915 248.935 90.8 249.145 90.65C249.355 90.49 249.52 90.295 249.64 90.065C249.76 89.825 249.82 89.545 249.82 89.225V87.155ZM256.351 92.15C255.871 92.15 255.416 92.06 254.986 91.88C254.566 91.7 254.221 91.41 253.951 91.01C253.691 90.6 253.561 90.07 253.561 89.42V84.5H254.761V89.105C254.761 89.865 254.926 90.39 255.256 90.68C255.586 90.96 256.051 91.1 256.651 91.1C256.931 91.1 257.206 91.055 257.476 90.965C257.746 90.865 257.986 90.715 258.196 90.515C258.416 90.305 258.586 90.04 258.706 89.72C258.836 89.4 258.901 89.02 258.901 88.58V84.5H260.101V92H259.051L258.976 90.86C258.716 91.31 258.361 91.64 257.911 91.85C257.471 92.05 256.951 92.15 256.351 92.15ZM264.364 82.37V89.93C264.364 90.3 264.469 90.575 264.679 90.755C264.889 90.935 265.159 91.025 265.489 91.025C265.779 91.025 266.029 90.975 266.239 90.875C266.449 90.775 266.639 90.64 266.809 90.47L267.229 91.475C266.999 91.685 266.724 91.85 266.404 91.97C266.094 92.09 265.734 92.15 265.324 92.15C264.944 92.15 264.589 92.085 264.259 91.955C263.929 91.815 263.664 91.6 263.464 91.31C263.274 91.01 263.174 90.62 263.164 90.14V82.7L264.364 82.37ZM267.094 84.5V85.535H261.664V84.5H267.094ZM274.743 84.5L271.218 93.26C271.028 93.75 270.818 94.135 270.588 94.415C270.368 94.705 270.118 94.91 269.838 95.03C269.568 95.16 269.253 95.225 268.893 95.225C268.553 95.225 268.238 95.175 267.948 95.075C267.668 94.985 267.418 94.86 267.198 94.7L267.528 93.65C267.728 93.83 267.938 93.96 268.158 94.04C268.388 94.13 268.613 94.175 268.833 94.175C269.093 94.175 269.338 94.095 269.568 93.935C269.798 93.775 270.008 93.45 270.198 92.96L270.588 91.985L269.838 90.2L267.453 84.5H268.818L270.693 89.39L271.158 90.725L271.698 89.24L273.453 84.5H274.743ZM10.8 107.5H12.135L9.525 115H8.325L6.21 109.03L4.215 115H3.015L0.405 107.5H1.74L3.63 113.605L5.67 107.5H6.87L8.91 113.605L10.8 107.5ZM14.2341 106.06C13.9641 106.06 13.7441 105.98 13.5741 105.82C13.4141 105.65 13.3341 105.43 13.3341 105.16C13.3341 104.89 13.4141 104.675 13.5741 104.515C13.7441 104.345 13.9641 104.26 14.2341 104.26C14.5041 104.26 14.7191 104.345 14.8791 104.515C15.0491 104.675 15.1341 104.89 15.1341 105.16C15.1341 105.43 15.0491 105.65 14.8791 105.82C14.7191 105.98 14.5041 106.06 14.2341 106.06ZM14.8341 107.5V115H13.6341V107.5H14.8341ZM19.0884 105.37V112.93C19.0884 113.3 19.1934 113.575 19.4034 113.755C19.6134 113.935 19.8834 114.025 20.2134 114.025C20.5034 114.025 20.7534 113.975 20.9634 113.875C21.1734 113.775 21.3634 113.64 21.5334 113.47L21.9534 114.475C21.7234 114.685 21.4484 114.85 21.1284 114.97C20.8184 115.09 20.4584 115.15 20.0484 115.15C19.6684 115.15 19.3134 115.085 18.9834 114.955C18.6534 114.815 18.3884 114.6 18.1884 114.31C17.9984 114.01 17.8984 113.62 17.8884 113.14V105.7L19.0884 105.37ZM21.8184 107.5V108.535H16.3884V107.5H21.8184ZM23.3026 115V104.05H24.5026V108.625C24.7626 108.175 25.1076 107.85 25.5376 107.65C25.9676 107.45 26.4376 107.35 26.9476 107.35C27.4876 107.35 27.9776 107.455 28.4176 107.665C28.8576 107.865 29.2076 108.175 29.4676 108.595C29.7376 109.015 29.8726 109.55 29.8726 110.2V115H28.6726V110.62C28.6726 109.79 28.4926 109.215 28.1326 108.895C27.7826 108.565 27.3476 108.4 26.8276 108.4C26.4676 108.4 26.1076 108.485 25.7476 108.655C25.3876 108.825 25.0876 109.105 24.8476 109.495C24.6176 109.875 24.5026 110.385 24.5026 111.025V115H23.3026ZM38.5791 105.37V112.93C38.5791 113.3 38.6841 113.575 38.8941 113.755C39.1041 113.935 39.3741 114.025 39.7041 114.025C39.9941 114.025 40.2441 113.975 40.4541 113.875C40.6641 113.775 40.8541 113.64 41.0241 113.47L41.4441 114.475C41.2141 114.685 40.9391 114.85 40.6191 114.97C40.3091 115.09 39.9491 115.15 39.5391 115.15C39.1591 115.15 38.8041 115.085 38.4741 114.955C38.1441 114.815 37.8791 114.6 37.6791 114.31C37.4891 114.01 37.3891 113.62 37.3791 113.14V105.7L38.5791 105.37ZM41.3091 107.5V108.535H35.8791V107.5H41.3091ZM42.7932 115V104.05H43.9932V108.625C44.2532 108.175 44.5982 107.85 45.0282 107.65C45.4582 107.45 45.9282 107.35 46.4382 107.35C46.9782 107.35 47.4682 107.455 47.9082 107.665C48.3482 107.865 48.6982 108.175 48.9582 108.595C49.2282 109.015 49.3632 109.55 49.3632 110.2V115H48.1632V110.62C48.1632 109.79 47.9832 109.215 47.6232 108.895C47.2732 108.565 46.8382 108.4 46.3182 108.4C45.9582 108.4 45.5982 108.485 45.2382 108.655C44.8782 108.825 44.5782 109.105 44.3382 109.495C44.1082 109.875 43.9932 110.385 43.9932 111.025V115H42.7932ZM54.9154 115.15C54.2054 115.15 53.5704 114.995 53.0104 114.685C52.4604 114.375 52.0304 113.93 51.7204 113.35C51.4104 112.76 51.2554 112.06 51.2554 111.25C51.2554 110.44 51.4104 109.745 51.7204 109.165C52.0304 108.575 52.4554 108.125 52.9954 107.815C53.5354 107.505 54.1504 107.35 54.8404 107.35C55.5404 107.35 56.1354 107.5 56.6254 107.8C57.1254 108.1 57.5054 108.51 57.7654 109.03C58.0254 109.54 58.1554 110.115 58.1554 110.755C58.1554 110.925 58.1504 111.08 58.1404 111.22C58.1304 111.36 58.1154 111.485 58.0954 111.595H52.0354V110.53H57.5704L56.9554 110.65C56.9554 109.93 56.7554 109.375 56.3554 108.985C55.9654 108.595 55.4504 108.4 54.8104 108.4C54.3204 108.4 53.8954 108.515 53.5354 108.745C53.1854 108.965 52.9104 109.29 52.7104 109.72C52.5204 110.14 52.4254 110.65 52.4254 111.25C52.4254 111.84 52.5254 112.35 52.7254 112.78C52.9254 113.21 53.2054 113.54 53.5654 113.77C53.9354 113.99 54.3754 114.1 54.8854 114.1C55.4354 114.1 55.8804 113.995 56.2204 113.785C56.5704 113.575 56.8504 113.29 57.0604 112.93L58.0054 113.485C57.8154 113.825 57.5704 114.12 57.2704 114.37C56.9804 114.62 56.6354 114.815 56.2354 114.955C55.8454 115.085 55.4054 115.15 54.9154 115.15ZM64.9499 115V107.5H65.9999L66.0749 108.67C66.3449 108.21 66.6949 107.875 67.1249 107.665C67.5649 107.455 68.0149 107.35 68.4749 107.35C69.0049 107.35 69.5049 107.47 69.9749 107.71C70.4449 107.95 70.8049 108.32 71.0549 108.82C71.2149 108.48 71.4399 108.205 71.7299 107.995C72.0199 107.775 72.3349 107.615 72.6749 107.515C73.0249 107.405 73.3549 107.35 73.6649 107.35C74.1449 107.35 74.5999 107.45 75.0299 107.65C75.4699 107.85 75.8299 108.16 76.1099 108.58C76.3899 109 76.5299 109.54 76.5299 110.2V115H75.3299V110.32C75.3299 109.64 75.1599 109.15 74.8199 108.85C74.4799 108.55 74.0599 108.4 73.5599 108.4C73.1699 108.4 72.8049 108.495 72.4649 108.685C72.1249 108.875 71.8499 109.155 71.6399 109.525C71.4399 109.895 71.3399 110.35 71.3399 110.89V115H70.1399V110.32C70.1399 109.64 69.9699 109.15 69.6299 108.85C69.2899 108.55 68.8699 108.4 68.3699 108.4C68.0399 108.4 67.6999 108.49 67.3499 108.67C67.0099 108.84 66.7249 109.115 66.4949 109.495C66.2649 109.875 66.1499 110.375 66.1499 110.995V115H64.9499ZM82.0518 107.35C82.7618 107.35 83.3868 107.505 83.9268 107.815C84.4768 108.125 84.9068 108.575 85.2168 109.165C85.5268 109.745 85.6818 110.44 85.6818 111.25C85.6818 112.06 85.5268 112.76 85.2168 113.35C84.9068 113.93 84.4768 114.375 83.9268 114.685C83.3868 114.995 82.7618 115.15 82.0518 115.15C81.3518 115.15 80.7268 114.995 80.1768 114.685C79.6268 114.375 79.1968 113.93 78.8868 113.35C78.5768 112.76 78.4218 112.06 78.4218 111.25C78.4218 110.44 78.5768 109.745 78.8868 109.165C79.1968 108.575 79.6268 108.125 80.1768 107.815C80.7268 107.505 81.3518 107.35 82.0518 107.35ZM82.0518 108.385C81.5418 108.385 81.1068 108.5 80.7468 108.73C80.3868 108.96 80.1068 109.29 79.9068 109.72C79.7168 110.14 79.6218 110.65 79.6218 111.25C79.6218 111.84 79.7168 112.35 79.9068 112.78C80.1068 113.21 80.3868 113.54 80.7468 113.77C81.1068 114 81.5418 114.115 82.0518 114.115C82.5618 114.115 82.9968 114 83.3568 113.77C83.7168 113.54 83.9918 113.21 84.1818 112.78C84.3818 112.35 84.4818 111.84 84.4818 111.25C84.4818 110.65 84.3818 110.14 84.1818 109.72C83.9918 109.29 83.7168 108.96 83.3568 108.73C82.9968 108.5 82.5618 108.385 82.0518 108.385ZM90.5659 115.15C89.9459 115.15 89.3759 114.995 88.8559 114.685C88.3359 114.375 87.9209 113.93 87.6109 113.35C87.3009 112.76 87.1459 112.06 87.1459 111.25C87.1459 110.42 87.3109 109.715 87.6409 109.135C87.9709 108.555 88.4059 108.115 88.9459 107.815C89.4859 107.505 90.0659 107.35 90.6859 107.35C91.3059 107.35 91.8409 107.51 92.2909 107.83C92.7509 108.15 93.0559 108.575 93.2059 109.105L93.0559 109.21V104.05H94.2559V115H93.2059L93.1009 113.185L93.2659 113.095C93.1959 113.535 93.0259 113.91 92.7559 114.22C92.4959 114.52 92.1709 114.75 91.7809 114.91C91.4009 115.07 90.9959 115.15 90.5659 115.15ZM90.6859 114.1C91.1659 114.1 91.5809 113.98 91.9309 113.74C92.2909 113.5 92.5659 113.16 92.7559 112.72C92.9559 112.27 93.0559 111.745 93.0559 111.145C93.0559 110.575 92.9559 110.085 92.7559 109.675C92.5659 109.265 92.2959 108.95 91.9459 108.73C91.6059 108.51 91.2059 108.4 90.7459 108.4C89.9859 108.4 89.3959 108.66 88.9759 109.18C88.5559 109.7 88.3459 110.39 88.3459 111.25C88.3459 112.11 88.5509 112.8 88.9609 113.32C89.3709 113.84 89.9459 114.1 90.6859 114.1ZM99.8802 115.15C99.1702 115.15 98.5352 114.995 97.9752 114.685C97.4252 114.375 96.9952 113.93 96.6852 113.35C96.3752 112.76 96.2202 112.06 96.2202 111.25C96.2202 110.44 96.3752 109.745 96.6852 109.165C96.9952 108.575 97.4202 108.125 97.9602 107.815C98.5002 107.505 99.1152 107.35 99.8052 107.35C100.505 107.35 101.1 107.5 101.59 107.8C102.09 108.1 102.47 108.51 102.73 109.03C102.99 109.54 103.12 110.115 103.12 110.755C103.12 110.925 103.115 111.08 103.105 111.22C103.095 111.36 103.08 111.485 103.06 111.595H97.0002V110.53H102.535L101.92 110.65C101.92 109.93 101.72 109.375 101.32 108.985C100.93 108.595 100.415 108.4 99.7752 108.4C99.2852 108.4 98.8602 108.515 98.5002 108.745C98.1502 108.965 97.8752 109.29 97.6752 109.72C97.4852 110.14 97.3902 110.65 97.3902 111.25C97.3902 111.84 97.4902 112.35 97.6902 112.78C97.8902 113.21 98.1702 113.54 98.5302 113.77C98.9002 113.99 99.3402 114.1 99.8502 114.1C100.4 114.1 100.845 113.995 101.185 113.785C101.535 113.575 101.815 113.29 102.025 112.93L102.97 113.485C102.78 113.825 102.535 114.12 102.235 114.37C101.945 114.62 101.6 114.815 101.2 114.955C100.81 115.085 100.37 115.15 99.8802 115.15ZM105.102 115V107.5H106.077L106.242 108.73C106.452 108.27 106.757 107.925 107.157 107.695C107.567 107.465 108.062 107.35 108.642 107.35C108.772 107.35 108.912 107.36 109.062 107.38C109.222 107.4 109.357 107.44 109.467 107.5L109.257 108.595C109.147 108.555 109.027 108.525 108.897 108.505C108.767 108.485 108.582 108.475 108.342 108.475C108.032 108.475 107.717 108.565 107.397 108.745C107.087 108.925 106.827 109.2 106.617 109.57C106.407 109.93 106.302 110.39 106.302 110.95V115H105.102ZM110.925 115V107.5H111.975L112.08 109.18L111.885 109.015C112.045 108.615 112.26 108.295 112.53 108.055C112.8 107.805 113.11 107.625 113.46 107.515C113.82 107.405 114.19 107.35 114.57 107.35C115.11 107.35 115.6 107.455 116.04 107.665C116.48 107.865 116.83 108.175 117.09 108.595C117.36 109.015 117.495 109.55 117.495 110.2V115H116.295V110.62C116.295 109.79 116.115 109.215 115.755 108.895C115.405 108.565 114.97 108.4 114.45 108.4C114.09 108.4 113.73 108.485 113.37 108.655C113.01 108.825 112.71 109.1 112.47 109.48C112.24 109.86 112.125 110.37 112.125 111.01V115H110.925ZM127.83 107.35C128.35 107.35 128.805 107.43 129.195 107.59C129.595 107.75 129.94 107.98 130.23 108.28C130.52 108.58 130.755 108.935 130.935 109.345L129.795 109.885C129.635 109.405 129.39 109.04 129.06 108.79C128.74 108.53 128.32 108.4 127.8 108.4C127.3 108.4 126.87 108.515 126.51 108.745C126.15 108.965 125.875 109.29 125.685 109.72C125.495 110.14 125.4 110.65 125.4 111.25C125.4 111.84 125.495 112.35 125.685 112.78C125.875 113.21 126.15 113.54 126.51 113.77C126.87 113.99 127.3 114.1 127.8 114.1C128.19 114.1 128.525 114.04 128.805 113.92C129.095 113.8 129.33 113.625 129.51 113.395C129.7 113.165 129.83 112.885 129.9 112.555L131.01 112.945C130.84 113.405 130.605 113.8 130.305 114.13C130.015 114.46 129.66 114.715 129.24 114.895C128.83 115.065 128.36 115.15 127.83 115.15C127.13 115.15 126.505 114.995 125.955 114.685C125.405 114.375 124.975 113.93 124.665 113.35C124.355 112.76 124.2 112.06 124.2 111.25C124.2 110.44 124.355 109.745 124.665 109.165C124.975 108.575 125.405 108.125 125.955 107.815C126.505 107.505 127.13 107.35 127.83 107.35ZM135.923 107.35C136.633 107.35 137.258 107.505 137.798 107.815C138.348 108.125 138.778 108.575 139.088 109.165C139.398 109.745 139.553 110.44 139.553 111.25C139.553 112.06 139.398 112.76 139.088 113.35C138.778 113.93 138.348 114.375 137.798 114.685C137.258 114.995 136.633 115.15 135.923 115.15C135.223 115.15 134.598 114.995 134.048 114.685C133.498 114.375 133.068 113.93 132.758 113.35C132.448 112.76 132.293 112.06 132.293 111.25C132.293 110.44 132.448 109.745 132.758 109.165C133.068 108.575 133.498 108.125 134.048 107.815C134.598 107.505 135.223 107.35 135.923 107.35ZM135.923 108.385C135.413 108.385 134.978 108.5 134.618 108.73C134.258 108.96 133.978 109.29 133.778 109.72C133.588 110.14 133.493 110.65 133.493 111.25C133.493 111.84 133.588 112.35 133.778 112.78C133.978 113.21 134.258 113.54 134.618 113.77C134.978 114 135.413 114.115 135.923 114.115C136.433 114.115 136.868 114 137.228 113.77C137.588 113.54 137.863 113.21 138.053 112.78C138.253 112.35 138.353 111.84 138.353 111.25C138.353 110.65 138.253 110.14 138.053 109.72C137.863 109.29 137.588 108.96 137.228 108.73C136.868 108.5 136.433 108.385 135.923 108.385ZM141.513 115V107.5H142.563L142.638 108.67C142.908 108.21 143.258 107.875 143.688 107.665C144.128 107.455 144.578 107.35 145.038 107.35C145.568 107.35 146.068 107.47 146.538 107.71C147.008 107.95 147.368 108.32 147.618 108.82C147.778 108.48 148.003 108.205 148.293 107.995C148.583 107.775 148.898 107.615 149.238 107.515C149.588 107.405 149.918 107.35 150.228 107.35C150.708 107.35 151.163 107.45 151.593 107.65C152.033 107.85 152.393 108.16 152.673 108.58C152.953 109 153.093 109.54 153.093 110.2V115H151.893V110.32C151.893 109.64 151.723 109.15 151.383 108.85C151.043 108.55 150.623 108.4 150.123 108.4C149.733 108.4 149.368 108.495 149.028 108.685C148.688 108.875 148.413 109.155 148.203 109.525C148.003 109.895 147.903 110.35 147.903 110.89V115H146.703V110.32C146.703 109.64 146.533 109.15 146.193 108.85C145.853 108.55 145.433 108.4 144.933 108.4C144.603 108.4 144.263 108.49 143.913 108.67C143.573 108.84 143.288 109.115 143.058 109.495C142.828 109.875 142.713 110.375 142.713 110.995V115H141.513ZM158.452 103.975C158.712 103.975 158.957 104.005 159.187 104.065C159.417 104.125 159.597 104.21 159.727 104.32L159.412 105.295C159.292 105.215 159.162 105.16 159.022 105.13C158.882 105.09 158.727 105.07 158.557 105.07C158.127 105.07 157.792 105.175 157.552 105.385C157.312 105.585 157.192 105.91 157.192 106.36V107.5V107.89V115H155.992V106.24C155.992 105.91 156.042 105.605 156.142 105.325C156.242 105.045 156.392 104.805 156.592 104.605C156.802 104.405 157.062 104.25 157.372 104.14C157.682 104.03 158.042 103.975 158.452 103.975ZM159.697 107.5V108.535H154.492V107.5H159.697ZM163.896 107.35C164.606 107.35 165.231 107.505 165.771 107.815C166.321 108.125 166.751 108.575 167.061 109.165C167.371 109.745 167.526 110.44 167.526 111.25C167.526 112.06 167.371 112.76 167.061 113.35C166.751 113.93 166.321 114.375 165.771 114.685C165.231 114.995 164.606 115.15 163.896 115.15C163.196 115.15 162.571 114.995 162.021 114.685C161.471 114.375 161.041 113.93 160.731 113.35C160.421 112.76 160.266 112.06 160.266 111.25C160.266 110.44 160.421 109.745 160.731 109.165C161.041 108.575 161.471 108.125 162.021 107.815C162.571 107.505 163.196 107.35 163.896 107.35ZM163.896 108.385C163.386 108.385 162.951 108.5 162.591 108.73C162.231 108.96 161.951 109.29 161.751 109.72C161.561 110.14 161.466 110.65 161.466 111.25C161.466 111.84 161.561 112.35 161.751 112.78C161.951 113.21 162.231 113.54 162.591 113.77C162.951 114 163.386 114.115 163.896 114.115C164.406 114.115 164.841 114 165.201 113.77C165.561 113.54 165.836 113.21 166.026 112.78C166.226 112.35 166.326 111.84 166.326 111.25C166.326 110.65 166.226 110.14 166.026 109.72C165.836 109.29 165.561 108.96 165.201 108.73C164.841 108.5 164.406 108.385 163.896 108.385ZM169.485 115V107.5H170.46L170.625 108.73C170.835 108.27 171.14 107.925 171.54 107.695C171.95 107.465 172.445 107.35 173.025 107.35C173.155 107.35 173.295 107.36 173.445 107.38C173.605 107.4 173.74 107.44 173.85 107.5L173.64 108.595C173.53 108.555 173.41 108.525 173.28 108.505C173.15 108.485 172.965 108.475 172.725 108.475C172.415 108.475 172.1 108.565 171.78 108.745C171.47 108.925 171.21 109.2 171 109.57C170.79 109.93 170.685 110.39 170.685 110.95V115H169.485ZM176.624 105.37V112.93C176.624 113.3 176.729 113.575 176.939 113.755C177.149 113.935 177.419 114.025 177.749 114.025C178.039 114.025 178.289 113.975 178.499 113.875C178.709 113.775 178.899 113.64 179.069 113.47L179.489 114.475C179.259 114.685 178.984 114.85 178.664 114.97C178.354 115.09 177.994 115.15 177.584 115.15C177.204 115.15 176.849 115.085 176.519 114.955C176.189 114.815 175.924 114.6 175.724 114.31C175.534 114.01 175.434 113.62 175.424 113.14V105.7L176.624 105.37ZM179.354 107.5V108.535H173.924V107.5H179.354ZM183.538 115.15C182.808 115.15 182.133 114.995 181.513 114.685C180.903 114.375 180.433 113.935 180.103 113.365L181.123 112.63C181.343 113.09 181.663 113.45 182.083 113.71C182.513 113.97 183.028 114.1 183.628 114.1C184.158 114.1 184.573 114 184.873 113.8C185.173 113.59 185.323 113.32 185.323 112.99C185.323 112.78 185.253 112.59 185.113 112.42C184.983 112.24 184.728 112.11 184.348 112.03L182.548 111.655C181.818 111.505 181.293 111.255 180.973 110.905C180.663 110.555 180.508 110.12 180.508 109.6C180.508 109.19 180.623 108.815 180.853 108.475C181.093 108.135 181.428 107.865 181.858 107.665C182.298 107.455 182.813 107.35 183.403 107.35C184.143 107.35 184.768 107.495 185.278 107.785C185.788 108.075 186.168 108.485 186.418 109.015L185.413 109.675C185.243 109.235 184.968 108.915 184.588 108.715C184.208 108.505 183.813 108.4 183.403 108.4C183.043 108.4 182.733 108.45 182.473 108.55C182.223 108.65 182.028 108.79 181.888 108.97C181.758 109.14 181.693 109.335 181.693 109.555C181.693 109.775 181.768 109.98 181.918 110.17C182.068 110.35 182.348 110.48 182.758 110.56L184.633 110.95C185.333 111.09 185.823 111.32 186.103 111.64C186.383 111.96 186.523 112.35 186.523 112.81C186.523 113.28 186.398 113.695 186.148 114.055C185.898 114.405 185.548 114.675 185.098 114.865C184.648 115.055 184.128 115.15 183.538 115.15ZM196.365 107.35C197.075 107.35 197.7 107.505 198.24 107.815C198.79 108.125 199.22 108.575 199.53 109.165C199.84 109.745 199.995 110.44 199.995 111.25C199.995 112.06 199.84 112.76 199.53 113.35C199.22 113.93 198.79 114.375 198.24 114.685C197.7 114.995 197.075 115.15 196.365 115.15C195.665 115.15 195.04 114.995 194.49 114.685C193.94 114.375 193.51 113.93 193.2 113.35C192.89 112.76 192.735 112.06 192.735 111.25C192.735 110.44 192.89 109.745 193.2 109.165C193.51 108.575 193.94 108.125 194.49 107.815C195.04 107.505 195.665 107.35 196.365 107.35ZM196.365 108.385C195.855 108.385 195.42 108.5 195.06 108.73C194.7 108.96 194.42 109.29 194.22 109.72C194.03 110.14 193.935 110.65 193.935 111.25C193.935 111.84 194.03 112.35 194.22 112.78C194.42 113.21 194.7 113.54 195.06 113.77C195.42 114 195.855 114.115 196.365 114.115C196.875 114.115 197.31 114 197.67 113.77C198.03 113.54 198.305 113.21 198.495 112.78C198.695 112.35 198.795 111.84 198.795 111.25C198.795 110.65 198.695 110.14 198.495 109.72C198.305 109.29 198.03 108.96 197.67 108.73C197.31 108.5 196.875 108.385 196.365 108.385ZM204.868 103.975C205.128 103.975 205.373 104.005 205.603 104.065C205.833 104.125 206.013 104.21 206.143 104.32L205.828 105.295C205.708 105.215 205.578 105.16 205.438 105.13C205.298 105.09 205.143 105.07 204.973 105.07C204.543 105.07 204.208 105.175 203.968 105.385C203.728 105.585 203.608 105.91 203.608 106.36V107.5V107.89V115H202.408V106.24C202.408 105.91 202.458 105.605 202.558 105.325C202.658 105.045 202.808 104.805 203.008 104.605C203.218 104.405 203.478 104.25 203.788 104.14C204.098 104.03 204.458 103.975 204.868 103.975ZM206.113 107.5V108.535H200.908V107.5H206.113ZM216.003 110.155C216.003 109.595 215.853 109.165 215.553 108.865C215.253 108.555 214.828 108.4 214.278 108.4C213.758 108.4 213.318 108.515 212.958 108.745C212.598 108.965 212.333 109.325 212.163 109.825L211.188 109.225C211.388 108.665 211.758 108.215 212.298 107.875C212.838 107.525 213.508 107.35 214.308 107.35C214.848 107.35 215.338 107.445 215.778 107.635C216.218 107.815 216.563 108.095 216.813 108.475C217.073 108.845 217.203 109.325 217.203 109.915V113.545C217.203 113.905 217.393 114.085 217.773 114.085C217.963 114.085 218.148 114.06 218.328 114.01L218.268 114.955C218.068 115.055 217.808 115.105 217.488 115.105C217.198 115.105 216.938 115.05 216.708 114.94C216.478 114.83 216.298 114.665 216.168 114.445C216.038 114.215 215.973 113.93 215.973 113.59V113.44L216.273 113.485C216.153 113.875 215.948 114.195 215.658 114.445C215.368 114.685 215.043 114.865 214.683 114.985C214.323 115.095 213.968 115.15 213.618 115.15C213.178 115.15 212.768 115.075 212.388 114.925C212.008 114.775 211.703 114.55 211.473 114.25C211.253 113.94 211.143 113.56 211.143 113.11C211.143 112.55 211.328 112.09 211.698 111.73C212.078 111.36 212.603 111.11 213.273 110.98L216.243 110.395V111.385L213.828 111.88C213.338 111.98 212.973 112.12 212.733 112.3C212.493 112.48 212.373 112.73 212.373 113.05C212.373 113.36 212.493 113.615 212.733 113.815C212.983 114.005 213.333 114.1 213.783 114.1C214.073 114.1 214.348 114.065 214.608 113.995C214.878 113.915 215.118 113.8 215.328 113.65C215.538 113.49 215.703 113.295 215.823 113.065C215.943 112.825 216.003 112.545 216.003 112.225V110.155ZM219.819 115V107.5H220.869L220.974 109.18L220.779 109.015C220.939 108.615 221.154 108.295 221.424 108.055C221.694 107.805 222.004 107.625 222.354 107.515C222.714 107.405 223.084 107.35 223.464 107.35C224.004 107.35 224.494 107.455 224.934 107.665C225.374 107.865 225.724 108.175 225.984 108.595C226.254 109.015 226.389 109.55 226.389 110.2V115H225.189V110.62C225.189 109.79 225.009 109.215 224.649 108.895C224.299 108.565 223.864 108.4 223.344 108.4C222.984 108.4 222.624 108.485 222.264 108.655C221.904 108.825 221.604 109.1 221.364 109.48C221.134 109.86 221.019 110.37 221.019 111.01V115H219.819ZM4.53 138.15C3.82 138.15 3.185 137.995 2.625 137.685C2.075 137.375 1.645 136.93 1.335 136.35C1.025 135.76 0.87 135.06 0.87 134.25C0.87 133.44 1.025 132.745 1.335 132.165C1.645 131.575 2.07 131.125 2.61 130.815C3.15 130.505 3.765 130.35 4.455 130.35C5.155 130.35 5.75 130.5 6.24 130.8C6.74 131.1 7.12 131.51 7.38 132.03C7.64 132.54 7.77 133.115 7.77 133.755C7.77 133.925 7.765 134.08 7.755 134.22C7.745 134.36 7.73 134.485 7.71 134.595H1.65V133.53H7.185L6.57 133.65C6.57 132.93 6.37 132.375 5.97 131.985C5.58 131.595 5.065 131.4 4.425 131.4C3.935 131.4 3.51 131.515 3.15 131.745C2.8 131.965 2.525 132.29 2.325 132.72C2.135 133.14 2.04 133.65 2.04 134.25C2.04 134.84 2.14 135.35 2.34 135.78C2.54 136.21 2.82 136.54 3.18 136.77C3.55 136.99 3.99 137.1 4.5 137.1C5.05 137.1 5.495 136.995 5.835 136.785C6.185 136.575 6.465 136.29 6.675 135.93L7.62 136.485C7.43 136.825 7.185 137.12 6.885 137.37C6.595 137.62 6.25 137.815 5.85 137.955C5.46 138.085 5.02 138.15 4.53 138.15ZM10.1939 130.5L12.4289 133.635L12.5039 133.74L15.5789 138H14.1089L11.7839 134.745L11.6489 134.58L8.69391 130.5H10.1939ZM15.5339 130.5L12.5639 134.505H12.4889L9.90891 138H8.51391L11.7839 133.695H11.8739L14.1239 130.5H15.5339ZM19.984 130.35C20.504 130.35 20.959 130.43 21.349 130.59C21.749 130.75 22.094 130.98 22.384 131.28C22.674 131.58 22.909 131.935 23.089 132.345L21.949 132.885C21.789 132.405 21.544 132.04 21.214 131.79C20.894 131.53 20.474 131.4 19.954 131.4C19.454 131.4 19.024 131.515 18.664 131.745C18.304 131.965 18.029 132.29 17.839 132.72C17.649 133.14 17.554 133.65 17.554 134.25C17.554 134.84 17.649 135.35 17.839 135.78C18.029 136.21 18.304 136.54 18.664 136.77C19.024 136.99 19.454 137.1 19.954 137.1C20.344 137.1 20.679 137.04 20.959 136.92C21.249 136.8 21.484 136.625 21.664 136.395C21.854 136.165 21.984 135.885 22.054 135.555L23.164 135.945C22.994 136.405 22.759 136.8 22.459 137.13C22.169 137.46 21.814 137.715 21.394 137.895C20.984 138.065 20.514 138.15 19.984 138.15C19.284 138.15 18.659 137.995 18.109 137.685C17.559 137.375 17.129 136.93 16.819 136.35C16.509 135.76 16.354 135.06 16.354 134.25C16.354 133.44 16.509 132.745 16.819 132.165C17.129 131.575 17.559 131.125 18.109 130.815C18.659 130.505 19.284 130.35 19.984 130.35ZM28.1075 138.15C27.3975 138.15 26.7625 137.995 26.2025 137.685C25.6525 137.375 25.2225 136.93 24.9125 136.35C24.6025 135.76 24.4475 135.06 24.4475 134.25C24.4475 133.44 24.6025 132.745 24.9125 132.165C25.2225 131.575 25.6475 131.125 26.1875 130.815C26.7275 130.505 27.3425 130.35 28.0325 130.35C28.7325 130.35 29.3275 130.5 29.8175 130.8C30.3175 131.1 30.6975 131.51 30.9575 132.03C31.2175 132.54 31.3475 133.115 31.3475 133.755C31.3475 133.925 31.3425 134.08 31.3325 134.22C31.3225 134.36 31.3075 134.485 31.2875 134.595H25.2275V133.53H30.7625L30.1475 133.65C30.1475 132.93 29.9475 132.375 29.5475 131.985C29.1575 131.595 28.6425 131.4 28.0025 131.4C27.5125 131.4 27.0875 131.515 26.7275 131.745C26.3775 131.965 26.1025 132.29 25.9025 132.72C25.7125 133.14 25.6175 133.65 25.6175 134.25C25.6175 134.84 25.7175 135.35 25.9175 135.78C26.1175 136.21 26.3975 136.54 26.7575 136.77C27.1275 136.99 27.5675 137.1 28.0775 137.1C28.6275 137.1 29.0725 136.995 29.4125 136.785C29.7625 136.575 30.0425 136.29 30.2525 135.93L31.1975 136.485C31.0075 136.825 30.7625 137.12 30.4625 137.37C30.1725 137.62 29.8275 137.815 29.4275 137.955C29.0375 138.085 28.5975 138.15 28.1075 138.15ZM33.3298 141.15V130.5H34.3798L34.4848 132.33L34.3198 132.12C34.4498 131.77 34.6448 131.465 34.9048 131.205C35.1648 130.935 35.4798 130.725 35.8498 130.575C36.2198 130.425 36.6198 130.35 37.0498 130.35C37.6598 130.35 38.2198 130.505 38.7298 130.815C39.2498 131.125 39.6648 131.57 39.9748 132.15C40.2848 132.73 40.4398 133.43 40.4398 134.25C40.4398 135.06 40.2798 135.76 39.9598 136.35C39.6498 136.93 39.2348 137.375 38.7148 137.685C38.1948 137.995 37.6248 138.15 37.0048 138.15C36.3848 138.15 35.8398 138 35.3698 137.7C34.9098 137.39 34.5798 137 34.3798 136.53L34.5298 136.305V141.15H33.3298ZM36.8848 137.1C37.6248 137.1 38.1998 136.84 38.6098 136.32C39.0298 135.8 39.2398 135.11 39.2398 134.25C39.2398 133.39 39.0348 132.7 38.6248 132.18C38.2248 131.66 37.6598 131.4 36.9298 131.4C36.4498 131.4 36.0298 131.52 35.6698 131.76C35.3098 131.99 35.0298 132.32 34.8298 132.75C34.6298 133.17 34.5298 133.67 34.5298 134.25C34.5298 134.82 34.6248 135.32 34.8148 135.75C35.0148 136.18 35.2898 136.515 35.6398 136.755C35.9998 136.985 36.4148 137.1 36.8848 137.1ZM44.0722 128.37V135.93C44.0722 136.3 44.1772 136.575 44.3872 136.755C44.5972 136.935 44.8672 137.025 45.1972 137.025C45.4872 137.025 45.7372 136.975 45.9472 136.875C46.1572 136.775 46.3472 136.64 46.5172 136.47L46.9372 137.475C46.7072 137.685 46.4322 137.85 46.1122 137.97C45.8022 138.09 45.4422 138.15 45.0322 138.15C44.6522 138.15 44.2972 138.085 43.9672 137.955C43.6372 137.815 43.3722 137.6 43.1722 137.31C42.9822 137.01 42.8822 136.62 42.8722 136.14V128.7L44.0722 128.37ZM46.8022 130.5V131.535H41.3722V130.5H46.8022ZM48.8864 129.06C48.6164 129.06 48.3964 128.98 48.2264 128.82C48.0664 128.65 47.9864 128.43 47.9864 128.16C47.9864 127.89 48.0664 127.675 48.2264 127.515C48.3964 127.345 48.6164 127.26 48.8864 127.26C49.1564 127.26 49.3714 127.345 49.5314 127.515C49.7014 127.675 49.7864 127.89 49.7864 128.16C49.7864 128.43 49.7014 128.65 49.5314 128.82C49.3714 128.98 49.1564 129.06 48.8864 129.06ZM49.4864 130.5V138H48.2864V130.5H49.4864ZM55.0758 130.35C55.7858 130.35 56.4108 130.505 56.9508 130.815C57.5008 131.125 57.9308 131.575 58.2408 132.165C58.5508 132.745 58.7058 133.44 58.7058 134.25C58.7058 135.06 58.5508 135.76 58.2408 136.35C57.9308 136.93 57.5008 137.375 56.9508 137.685C56.4108 137.995 55.7858 138.15 55.0758 138.15C54.3758 138.15 53.7508 137.995 53.2008 137.685C52.6508 137.375 52.2208 136.93 51.9108 136.35C51.6008 135.76 51.4458 135.06 51.4458 134.25C51.4458 133.44 51.6008 132.745 51.9108 132.165C52.2208 131.575 52.6508 131.125 53.2008 130.815C53.7508 130.505 54.3758 130.35 55.0758 130.35ZM55.0758 131.385C54.5658 131.385 54.1308 131.5 53.7708 131.73C53.4108 131.96 53.1308 132.29 52.9308 132.72C52.7408 133.14 52.6458 133.65 52.6458 134.25C52.6458 134.84 52.7408 135.35 52.9308 135.78C53.1308 136.21 53.4108 136.54 53.7708 136.77C54.1308 137 54.5658 137.115 55.0758 137.115C55.5858 137.115 56.0208 137 56.3808 136.77C56.7408 136.54 57.0158 136.21 57.2058 135.78C57.4058 135.35 57.5058 134.84 57.5058 134.25C57.5058 133.65 57.4058 133.14 57.2058 132.72C57.0158 132.29 56.7408 131.96 56.3808 131.73C56.0208 131.5 55.5858 131.385 55.0758 131.385ZM60.6649 138V130.5H61.7149L61.8199 132.18L61.6249 132.015C61.7849 131.615 61.9999 131.295 62.2699 131.055C62.5399 130.805 62.8499 130.625 63.1999 130.515C63.5599 130.405 63.9299 130.35 64.3099 130.35C64.8499 130.35 65.3399 130.455 65.7799 130.665C66.2199 130.865 66.5699 131.175 66.8299 131.595C67.0999 132.015 67.2349 132.55 67.2349 133.2V138H66.0349V133.62C66.0349 132.79 65.8549 132.215 65.4949 131.895C65.1449 131.565 64.7099 131.4 64.1899 131.4C63.8299 131.4 63.4699 131.485 63.1099 131.655C62.7499 131.825 62.4499 132.1 62.2099 132.48C61.9799 132.86 61.8649 133.37 61.8649 134.01V138H60.6649ZM74.032 133.155C74.032 132.595 73.882 132.165 73.582 131.865C73.282 131.555 72.857 131.4 72.307 131.4C71.787 131.4 71.347 131.515 70.987 131.745C70.627 131.965 70.362 132.325 70.192 132.825L69.217 132.225C69.417 131.665 69.787 131.215 70.327 130.875C70.867 130.525 71.537 130.35 72.337 130.35C72.877 130.35 73.367 130.445 73.807 130.635C74.247 130.815 74.592 131.095 74.842 131.475C75.102 131.845 75.232 132.325 75.232 132.915V136.545C75.232 136.905 75.422 137.085 75.802 137.085C75.992 137.085 76.177 137.06 76.357 137.01L76.297 137.955C76.097 138.055 75.837 138.105 75.517 138.105C75.227 138.105 74.967 138.05 74.737 137.94C74.507 137.83 74.327 137.665 74.197 137.445C74.067 137.215 74.002 136.93 74.002 136.59V136.44L74.302 136.485C74.182 136.875 73.977 137.195 73.687 137.445C73.397 137.685 73.072 137.865 72.712 137.985C72.352 138.095 71.997 138.15 71.647 138.15C71.207 138.15 70.797 138.075 70.417 137.925C70.037 137.775 69.732 137.55 69.502 137.25C69.282 136.94 69.172 136.56 69.172 136.11C69.172 135.55 69.357 135.09 69.727 134.73C70.107 134.36 70.632 134.11 71.302 133.98L74.272 133.395V134.385L71.857 134.88C71.367 134.98 71.002 135.12 70.762 135.3C70.522 135.48 70.402 135.73 70.402 136.05C70.402 136.36 70.522 136.615 70.762 136.815C71.012 137.005 71.362 137.1 71.812 137.1C72.102 137.1 72.377 137.065 72.637 136.995C72.907 136.915 73.147 136.8 73.357 136.65C73.567 136.49 73.732 136.295 73.852 136.065C73.972 135.825 74.032 135.545 74.032 135.225V133.155ZM78.9881 127.05V136.095C78.9881 136.475 79.0581 136.74 79.1981 136.89C79.3381 137.03 79.5631 137.1 79.8731 137.1C80.0731 137.1 80.2381 137.085 80.3681 137.055C80.4981 137.025 80.6731 136.97 80.8931 136.89L80.6981 137.94C80.5381 138.01 80.3631 138.06 80.1731 138.09C79.9831 138.13 79.7881 138.15 79.5881 138.15C78.9781 138.15 78.5231 137.985 78.2231 137.655C77.9331 137.325 77.7881 136.82 77.7881 136.14V127.05H78.9881ZM83.2731 127.05V136.095C83.2731 136.475 83.3431 136.74 83.4831 136.89C83.6231 137.03 83.8481 137.1 84.1581 137.1C84.3581 137.1 84.5231 137.085 84.6531 137.055C84.7831 137.025 84.9581 136.97 85.1781 136.89L84.9831 137.94C84.8231 138.01 84.6481 138.06 84.4581 138.09C84.2681 138.13 84.0731 138.15 83.8731 138.15C83.2631 138.15 82.8081 137.985 82.5081 137.655C82.2181 137.325 82.0731 136.82 82.0731 136.14V127.05H83.2731ZM92.2022 130.5L88.6772 139.26C88.4872 139.75 88.2772 140.135 88.0472 140.415C87.8272 140.705 87.5772 140.91 87.2972 141.03C87.0272 141.16 86.7122 141.225 86.3522 141.225C86.0122 141.225 85.6972 141.175 85.4072 141.075C85.1272 140.985 84.8772 140.86 84.6572 140.7L84.9872 139.65C85.1872 139.83 85.3972 139.96 85.6172 140.04C85.8472 140.13 86.0722 140.175 86.2922 140.175C86.5522 140.175 86.7972 140.095 87.0272 139.935C87.2572 139.775 87.4672 139.45 87.6572 138.96L88.0472 137.985L87.2972 136.2L84.9122 130.5H86.2772L88.1522 135.39L88.6172 136.725L89.1572 135.24L90.9122 130.5H92.2022ZM102.283 133.155C102.283 132.595 102.133 132.165 101.833 131.865C101.533 131.555 101.108 131.4 100.558 131.4C100.038 131.4 99.598 131.515 99.238 131.745C98.878 131.965 98.613 132.325 98.443 132.825L97.468 132.225C97.668 131.665 98.038 131.215 98.578 130.875C99.118 130.525 99.788 130.35 100.588 130.35C101.128 130.35 101.618 130.445 102.058 130.635C102.498 130.815 102.843 131.095 103.093 131.475C103.353 131.845 103.483 132.325 103.483 132.915V136.545C103.483 136.905 103.673 137.085 104.053 137.085C104.243 137.085 104.428 137.06 104.608 137.01L104.548 137.955C104.348 138.055 104.088 138.105 103.768 138.105C103.478 138.105 103.218 138.05 102.988 137.94C102.758 137.83 102.578 137.665 102.448 137.445C102.318 137.215 102.253 136.93 102.253 136.59V136.44L102.553 136.485C102.433 136.875 102.228 137.195 101.938 137.445C101.648 137.685 101.323 137.865 100.963 137.985C100.603 138.095 100.248 138.15 99.898 138.15C99.458 138.15 99.048 138.075 98.668 137.925C98.288 137.775 97.983 137.55 97.753 137.25C97.533 136.94 97.423 136.56 97.423 136.11C97.423 135.55 97.608 135.09 97.978 134.73C98.358 134.36 98.883 134.11 99.553 133.98L102.523 133.395V134.385L100.108 134.88C99.618 134.98 99.253 135.12 99.013 135.3C98.773 135.48 98.653 135.73 98.653 136.05C98.653 136.36 98.773 136.615 99.013 136.815C99.263 137.005 99.613 137.1 100.063 137.1C100.353 137.1 100.628 137.065 100.888 136.995C101.158 136.915 101.398 136.8 101.608 136.65C101.818 136.49 101.983 136.295 102.103 136.065C102.223 135.825 102.283 135.545 102.283 135.225V133.155ZM106.099 141.15V130.5H107.149L107.254 132.33L107.089 132.12C107.219 131.77 107.414 131.465 107.674 131.205C107.934 130.935 108.249 130.725 108.619 130.575C108.989 130.425 109.389 130.35 109.819 130.35C110.429 130.35 110.989 130.505 111.499 130.815C112.019 131.125 112.434 131.57 112.744 132.15C113.054 132.73 113.209 133.43 113.209 134.25C113.209 135.06 113.049 135.76 112.729 136.35C112.419 136.93 112.004 137.375 111.484 137.685C110.964 137.995 110.394 138.15 109.774 138.15C109.154 138.15 108.609 138 108.139 137.7C107.679 137.39 107.349 137 107.149 136.53L107.299 136.305V141.15H106.099ZM109.654 137.1C110.394 137.1 110.969 136.84 111.379 136.32C111.799 135.8 112.009 135.11 112.009 134.25C112.009 133.39 111.804 132.7 111.394 132.18C110.994 131.66 110.429 131.4 109.699 131.4C109.219 131.4 108.799 131.52 108.439 131.76C108.079 131.99 107.799 132.32 107.599 132.75C107.399 133.17 107.299 133.67 107.299 134.25C107.299 134.82 107.394 135.32 107.584 135.75C107.784 136.18 108.059 136.515 108.409 136.755C108.769 136.985 109.184 137.1 109.654 137.1ZM115.203 141.15V130.5H116.253L116.358 132.33L116.193 132.12C116.323 131.77 116.518 131.465 116.778 131.205C117.038 130.935 117.353 130.725 117.723 130.575C118.093 130.425 118.493 130.35 118.923 130.35C119.533 130.35 120.093 130.505 120.603 130.815C121.123 131.125 121.538 131.57 121.848 132.15C122.158 132.73 122.313 133.43 122.313 134.25C122.313 135.06 122.153 135.76 121.833 136.35C121.523 136.93 121.108 137.375 120.588 137.685C120.068 137.995 119.498 138.15 118.878 138.15C118.258 138.15 117.713 138 117.243 137.7C116.783 137.39 116.453 137 116.253 136.53L116.403 136.305V141.15H115.203ZM118.758 137.1C119.498 137.1 120.073 136.84 120.483 136.32C120.903 135.8 121.113 135.11 121.113 134.25C121.113 133.39 120.908 132.7 120.498 132.18C120.098 131.66 119.533 131.4 118.803 131.4C118.323 131.4 117.903 131.52 117.543 131.76C117.183 131.99 116.903 132.32 116.703 132.75C116.503 133.17 116.403 133.67 116.403 134.25C116.403 134.82 116.498 135.32 116.688 135.75C116.888 136.18 117.163 136.515 117.513 136.755C117.873 136.985 118.288 137.1 118.758 137.1ZM127.413 130.35C128.123 130.35 128.748 130.505 129.288 130.815C129.838 131.125 130.268 131.575 130.578 132.165C130.888 132.745 131.043 133.44 131.043 134.25C131.043 135.06 130.888 135.76 130.578 136.35C130.268 136.93 129.838 137.375 129.288 137.685C128.748 137.995 128.123 138.15 127.413 138.15C126.713 138.15 126.088 137.995 125.538 137.685C124.988 137.375 124.558 136.93 124.248 136.35C123.938 135.76 123.783 135.06 123.783 134.25C123.783 133.44 123.938 132.745 124.248 132.165C124.558 131.575 124.988 131.125 125.538 130.815C126.088 130.505 126.713 130.35 127.413 130.35ZM127.413 131.385C126.903 131.385 126.468 131.5 126.108 131.73C125.748 131.96 125.468 132.29 125.268 132.72C125.078 133.14 124.983 133.65 124.983 134.25C124.983 134.84 125.078 135.35 125.268 135.78C125.468 136.21 125.748 136.54 126.108 136.77C126.468 137 126.903 137.115 127.413 137.115C127.923 137.115 128.358 137 128.718 136.77C129.078 136.54 129.353 136.21 129.543 135.78C129.743 135.35 129.843 134.84 129.843 134.25C129.843 133.65 129.743 133.14 129.543 132.72C129.353 132.29 129.078 131.96 128.718 131.73C128.358 131.5 127.923 131.385 127.413 131.385ZM133.602 129.06C133.332 129.06 133.112 128.98 132.942 128.82C132.782 128.65 132.702 128.43 132.702 128.16C132.702 127.89 132.782 127.675 132.942 127.515C133.112 127.345 133.332 127.26 133.602 127.26C133.872 127.26 134.087 127.345 134.247 127.515C134.417 127.675 134.502 127.89 134.502 128.16C134.502 128.43 134.417 128.65 134.247 128.82C134.087 128.98 133.872 129.06 133.602 129.06ZM134.202 130.5V138H133.002V130.5H134.202ZM136.686 138V130.5H137.736L137.841 132.18L137.646 132.015C137.806 131.615 138.021 131.295 138.291 131.055C138.561 130.805 138.871 130.625 139.221 130.515C139.581 130.405 139.951 130.35 140.331 130.35C140.871 130.35 141.361 130.455 141.801 130.665C142.241 130.865 142.591 131.175 142.851 131.595C143.121 132.015 143.256 132.55 143.256 133.2V138H142.056V133.62C142.056 132.79 141.876 132.215 141.516 131.895C141.166 131.565 140.731 131.4 140.211 131.4C139.851 131.4 139.491 131.485 139.131 131.655C138.771 131.825 138.471 132.1 138.231 132.48C138.001 132.86 137.886 133.37 137.886 134.01V138H136.686ZM147.341 128.37V135.93C147.341 136.3 147.446 136.575 147.656 136.755C147.866 136.935 148.136 137.025 148.466 137.025C148.756 137.025 149.006 136.975 149.216 136.875C149.426 136.775 149.616 136.64 149.786 136.47L150.206 137.475C149.976 137.685 149.701 137.85 149.381 137.97C149.071 138.09 148.711 138.15 148.301 138.15C147.921 138.15 147.566 138.085 147.236 137.955C146.906 137.815 146.641 137.6 146.441 137.31C146.251 137.01 146.151 136.62 146.141 136.14V128.7L147.341 128.37ZM150.071 130.5V131.535H144.641V130.5H150.071ZM154.69 138.15C153.98 138.15 153.345 137.995 152.785 137.685C152.235 137.375 151.805 136.93 151.495 136.35C151.185 135.76 151.03 135.06 151.03 134.25C151.03 133.44 151.185 132.745 151.495 132.165C151.805 131.575 152.23 131.125 152.77 130.815C153.31 130.505 153.925 130.35 154.615 130.35C155.315 130.35 155.91 130.5 156.4 130.8C156.9 131.1 157.28 131.51 157.54 132.03C157.8 132.54 157.93 133.115 157.93 133.755C157.93 133.925 157.925 134.08 157.915 134.22C157.905 134.36 157.89 134.485 157.87 134.595H151.81V133.53H157.345L156.73 133.65C156.73 132.93 156.53 132.375 156.13 131.985C155.74 131.595 155.225 131.4 154.585 131.4C154.095 131.4 153.67 131.515 153.31 131.745C152.96 131.965 152.685 132.29 152.485 132.72C152.295 133.14 152.2 133.65 152.2 134.25C152.2 134.84 152.3 135.35 152.5 135.78C152.7 136.21 152.98 136.54 153.34 136.77C153.71 136.99 154.15 137.1 154.66 137.1C155.21 137.1 155.655 136.995 155.995 136.785C156.345 136.575 156.625 136.29 156.835 135.93L157.78 136.485C157.59 136.825 157.345 137.12 157.045 137.37C156.755 137.62 156.41 137.815 156.01 137.955C155.62 138.085 155.18 138.15 154.69 138.15ZM162.837 138.15C162.217 138.15 161.647 137.995 161.127 137.685C160.607 137.375 160.192 136.93 159.882 136.35C159.572 135.76 159.417 135.06 159.417 134.25C159.417 133.42 159.582 132.715 159.912 132.135C160.242 131.555 160.677 131.115 161.217 130.815C161.757 130.505 162.337 130.35 162.957 130.35C163.577 130.35 164.112 130.51 164.562 130.83C165.022 131.15 165.327 131.575 165.477 132.105L165.327 132.21V127.05H166.527V138H165.477L165.372 136.185L165.537 136.095C165.467 136.535 165.297 136.91 165.027 137.22C164.767 137.52 164.442 137.75 164.052 137.91C163.672 138.07 163.267 138.15 162.837 138.15ZM162.957 137.1C163.437 137.1 163.852 136.98 164.202 136.74C164.562 136.5 164.837 136.16 165.027 135.72C165.227 135.27 165.327 134.745 165.327 134.145C165.327 133.575 165.227 133.085 165.027 132.675C164.837 132.265 164.567 131.95 164.217 131.73C163.877 131.51 163.477 131.4 163.017 131.4C162.257 131.4 161.667 131.66 161.247 132.18C160.827 132.7 160.617 133.39 160.617 134.25C160.617 135.11 160.822 135.8 161.232 136.32C161.642 136.84 162.217 137.1 162.957 137.1ZM173.829 138V127.05H175.029V131.625C175.289 131.175 175.634 130.85 176.064 130.65C176.494 130.45 176.964 130.35 177.474 130.35C178.014 130.35 178.504 130.455 178.944 130.665C179.384 130.865 179.734 131.175 179.994 131.595C180.264 132.015 180.399 132.55 180.399 133.2V138H179.199V133.62C179.199 132.79 179.019 132.215 178.659 131.895C178.309 131.565 177.874 131.4 177.354 131.4C176.994 131.4 176.634 131.485 176.274 131.655C175.914 131.825 175.614 132.105 175.374 132.495C175.144 132.875 175.029 133.385 175.029 134.025V138H173.829ZM185.921 130.35C186.631 130.35 187.256 130.505 187.796 130.815C188.346 131.125 188.776 131.575 189.086 132.165C189.396 132.745 189.551 133.44 189.551 134.25C189.551 135.06 189.396 135.76 189.086 136.35C188.776 136.93 188.346 137.375 187.796 137.685C187.256 137.995 186.631 138.15 185.921 138.15C185.221 138.15 184.596 137.995 184.046 137.685C183.496 137.375 183.066 136.93 182.756 136.35C182.446 135.76 182.291 135.06 182.291 134.25C182.291 133.44 182.446 132.745 182.756 132.165C183.066 131.575 183.496 131.125 184.046 130.815C184.596 130.505 185.221 130.35 185.921 130.35ZM185.921 131.385C185.411 131.385 184.976 131.5 184.616 131.73C184.256 131.96 183.976 132.29 183.776 132.72C183.586 133.14 183.491 133.65 183.491 134.25C183.491 134.84 183.586 135.35 183.776 135.78C183.976 136.21 184.256 136.54 184.616 136.77C184.976 137 185.411 137.115 185.921 137.115C186.431 137.115 186.866 137 187.226 136.77C187.586 136.54 187.861 136.21 188.051 135.78C188.251 135.35 188.351 134.84 188.351 134.25C188.351 133.65 188.251 133.14 188.051 132.72C187.861 132.29 187.586 131.96 187.226 131.73C186.866 131.5 186.431 131.385 185.921 131.385ZM191.51 138V130.5H192.56L192.635 131.67C192.905 131.21 193.255 130.875 193.685 130.665C194.125 130.455 194.575 130.35 195.035 130.35C195.565 130.35 196.065 130.47 196.535 130.71C197.005 130.95 197.365 131.32 197.615 131.82C197.775 131.48 198 131.205 198.29 130.995C198.58 130.775 198.895 130.615 199.235 130.515C199.585 130.405 199.915 130.35 200.225 130.35C200.705 130.35 201.16 130.45 201.59 130.65C202.03 130.85 202.39 131.16 202.67 131.58C202.95 132 203.09 132.54 203.09 133.2V138H201.89V133.32C201.89 132.64 201.72 132.15 201.38 131.85C201.04 131.55 200.62 131.4 200.12 131.4C199.73 131.4 199.365 131.495 199.025 131.685C198.685 131.875 198.41 132.155 198.2 132.525C198 132.895 197.9 133.35 197.9 133.89V138H196.7V133.32C196.7 132.64 196.53 132.15 196.19 131.85C195.85 131.55 195.43 131.4 194.93 131.4C194.6 131.4 194.26 131.49 193.91 131.67C193.57 131.84 193.285 132.115 193.055 132.495C192.825 132.875 192.71 133.375 192.71 133.995V138H191.51ZM208.642 138.15C207.932 138.15 207.297 137.995 206.737 137.685C206.187 137.375 205.757 136.93 205.447 136.35C205.137 135.76 204.982 135.06 204.982 134.25C204.982 133.44 205.137 132.745 205.447 132.165C205.757 131.575 206.182 131.125 206.722 130.815C207.262 130.505 207.877 130.35 208.567 130.35C209.267 130.35 209.862 130.5 210.352 130.8C210.852 131.1 211.232 131.51 211.492 132.03C211.752 132.54 211.882 133.115 211.882 133.755C211.882 133.925 211.877 134.08 211.867 134.22C211.857 134.36 211.842 134.485 211.822 134.595H205.762V133.53H211.297L210.682 133.65C210.682 132.93 210.482 132.375 210.082 131.985C209.692 131.595 209.177 131.4 208.537 131.4C208.047 131.4 207.622 131.515 207.262 131.745C206.912 131.965 206.637 132.29 206.437 132.72C206.247 133.14 206.152 133.65 206.152 134.25C206.152 134.84 206.252 135.35 206.452 135.78C206.652 136.21 206.932 136.54 207.292 136.77C207.662 136.99 208.102 137.1 208.612 137.1C209.162 137.1 209.607 136.995 209.947 136.785C210.297 136.575 210.577 136.29 210.787 135.93L211.732 136.485C211.542 136.825 211.297 137.12 210.997 137.37C210.707 137.62 210.362 137.815 209.962 137.955C209.572 138.085 209.132 138.15 208.642 138.15ZM214.464 136.2C214.754 136.2 214.989 136.29 215.169 136.47C215.349 136.65 215.439 136.885 215.439 137.175C215.439 137.465 215.349 137.7 215.169 137.88C214.989 138.06 214.754 138.15 214.464 138.15C214.174 138.15 213.939 138.06 213.759 137.88C213.579 137.7 213.489 137.465 213.489 137.175C213.489 136.885 213.579 136.65 213.759 136.47C213.939 136.29 214.174 136.2 214.464 136.2Z" fill="black"/>
</svg>
