<svg width="347" height="154" viewBox="0 0 347 154" fill="none" xmlns="http://www.w3.org/2000/svg">
<path d="M106.889 125.652C116.087 125.652 124.11 120.825 124.11 112.541C124.11 93.2972 96.9737 103.082 96.9737 88.9919C96.9737 84.8171 99.9091 81.2293 105.65 81.2293C116.608 81.2293 113.804 92.384 119.935 92.384C122.218 92.384 123.327 91.0794 123.327 89.0572C123.393 84.0995 117 78.0982 105.845 78.0982C95.0819 78.0982 89.0154 83.8386 89.0154 91.1446C89.0154 110.714 116.152 99.69 116.152 114.693C116.152 119.39 112.499 122.521 107.215 122.521C95.0167 122.521 97.1694 110.975 91.2332 110.779C89.1458 110.714 88.0369 112.215 88.0369 114.041C88.0369 118.672 94.0382 125.652 106.889 125.652ZM134.441 88.2744C137.638 88.2744 139.725 86.2522 139.725 83.382C139.725 80.577 137.638 78.4896 134.441 78.4896C131.18 78.4896 129.027 80.577 129.027 83.382C129.027 86.2522 131.18 88.2744 134.441 88.2744ZM129.614 125H139.529C140.377 125 140.964 124.609 140.964 124.022V123.761C140.964 122.325 138.29 122.065 138.29 119.521V94.4062C138.29 93.3625 137.442 92.5797 135.942 93.2972L129.418 96.5588C128.701 96.9502 128.244 97.2112 128.244 97.733V97.9287C128.244 99.1029 130.658 99.7552 130.658 102.43V119.521C130.658 122.065 128.244 122.325 128.244 123.761V124.022C128.244 124.609 128.766 125 129.614 125ZM146.486 125H156.402C157.25 125 157.837 124.609 157.837 124.022V123.826C157.837 122.325 155.162 122.13 155.162 119.586V77.1849C155.162 76.2065 154.314 75.4237 152.814 76.1412L146.225 79.4028C145.573 79.729 145.116 79.9899 145.116 80.577V80.7727C145.116 81.9469 147.53 82.4687 147.53 85.2085V119.586C147.53 122.13 145.116 122.325 145.116 123.826V124.022C145.116 124.609 145.638 125 146.486 125ZM188.355 115.411C187.05 118.02 184.114 120.173 180.005 120.173C175.373 120.173 172.047 117.433 170.416 112.997L186.202 107.192C188.224 106.474 189.529 105.104 189.529 102.625C189.529 98.0592 185.745 93.0363 177.33 93.0363C168.72 93.0363 161.74 99.7552 161.74 109.083C161.74 119.194 168.459 125.652 177.2 125.652C185.484 125.652 189.855 119.912 190.442 116.063C190.572 114.759 189.072 114.498 188.355 115.411ZM176.026 95.5151C179.809 95.5151 182.223 100.212 182.223 102.886C182.223 104.191 181.701 105.104 180.527 105.626L169.698 110.323C169.437 109.018 169.307 107.648 169.307 106.148C169.307 99.8857 171.916 95.5151 176.026 95.5151ZM226.656 119.521L225.874 107.192C225.221 96.9502 219.611 93.0363 213.48 93.0363C208.979 93.0363 205.391 95.189 203.564 98.7115V94.4714C203.564 93.3625 202.912 92.5797 201.542 93.2972L195.215 96.3632C194.497 96.6893 194.04 97.0155 194.04 97.5373V97.733C194.04 99.1681 196.976 99.2334 196.976 102.104V119.586C196.976 122.13 194.367 122.391 194.367 123.826V124.087C194.367 124.674 194.888 125.065 195.736 125.065H205.847C206.761 125.065 207.283 124.674 207.283 124.087V123.826C207.283 122.391 204.608 122.13 204.608 119.586V104.256C204.608 99.5595 207.283 96.1675 211.457 96.1675C215.437 96.1675 217.981 99.4943 218.307 106.931L218.959 119.521C219.09 122.13 216.611 122.391 216.611 123.826V124.087C216.611 124.674 217.133 125.065 218.046 125.065H227.57C228.418 125.065 229.005 124.674 229.005 124.087V123.826C229.005 122.391 226.787 122.13 226.656 119.521ZM248.502 125.652C256.526 125.652 260.896 120.564 261.548 115.476C261.744 114.106 260.113 113.911 259.461 114.889C258.026 117.694 255.286 120.238 251.046 120.238C244.066 120.238 239.435 114.498 239.435 105.561C239.435 99.9509 242.37 95.5151 246.936 95.5151C253.46 95.5151 253.264 104.191 257.961 104.452C260.374 104.517 261.287 103.147 261.287 101.647C261.287 97.2764 255.482 92.9711 248.176 93.0363C239.304 93.1015 231.737 99.2986 231.737 109.214C231.737 118.346 239.043 125.652 248.502 125.652ZM291.745 115.411C290.44 118.02 287.505 120.173 283.395 120.173C278.764 120.173 275.437 117.433 273.806 112.997L289.592 107.192C291.614 106.474 292.919 105.104 292.919 102.625C292.919 98.0592 289.135 93.0363 280.72 93.0363C272.11 93.0363 265.13 99.7552 265.13 109.083C265.13 119.194 271.849 125.652 280.59 125.652C288.874 125.652 293.245 119.912 293.832 116.063C293.963 114.759 292.462 114.498 291.745 115.411ZM279.416 95.5151C283.199 95.5151 285.613 100.212 285.613 102.886C285.613 104.191 285.091 105.104 283.917 105.626L273.088 110.323C272.827 109.018 272.697 107.648 272.697 106.148C272.697 99.8857 275.306 95.5151 279.416 95.5151ZM303.171 125.652C305.911 125.652 308.194 124.087 308.194 121.021C308.194 117.89 305.911 116.324 303.171 116.324C300.366 116.324 298.083 117.89 298.083 121.021C298.083 124.087 300.366 125.652 303.171 125.652Z" fill="black"/>
<path d="M1.3492 101.171C1.09802 101.171 0.91534 101.137 0.801165 101.069C0.686991 101 0.629903 100.897 0.629903 100.76C0.652738 100.463 1.02951 100.246 1.76023 100.109C2.81064 99.9039 3.56419 99.6299 4.02089 99.2874C4.50043 98.9449 4.85437 98.3968 5.08272 97.6433L9.80955 82.1612C10.1064 81.2706 10.1178 80.6769 9.8438 80.38C9.56978 80.0604 8.97608 79.8206 8.06268 79.6607C7.74299 79.6151 7.52606 79.5466 7.41188 79.4552C7.29771 79.3411 7.24062 79.204 7.24062 79.0442C7.26345 78.9072 7.37763 78.8044 7.58314 78.7359C7.81149 78.6446 8.09693 78.5989 8.43945 78.5989C8.6678 78.5989 9.02175 78.6218 9.50128 78.6674C9.98081 78.6903 10.506 78.7131 11.0769 78.7359C11.6478 78.7359 12.173 78.7359 12.6525 78.7359H18.2014C19.366 78.7359 20.268 78.7017 20.9073 78.6332C21.5695 78.5647 22.0377 78.5076 22.3117 78.4619C22.6085 78.3934 22.7912 78.3592 22.8597 78.3592C22.9739 78.3592 23.0767 78.4162 23.168 78.5304C23.2822 78.6446 23.3393 78.7702 23.3393 78.9072C23.3393 79.0899 23.2593 79.3867 23.0995 79.7978C22.9625 80.1859 22.8141 80.6541 22.6542 81.2021C22.5172 81.7501 22.4144 82.3324 22.3459 82.949C22.3231 83.1773 22.2432 83.3486 22.1062 83.4628C21.992 83.5541 21.8778 83.5998 21.7636 83.5998C21.6495 83.5998 21.5467 83.5313 21.4554 83.3943C21.3869 83.2572 21.3526 83.0632 21.3526 82.812C21.3526 81.6931 21.2156 80.9052 20.9416 80.4486C20.6676 79.9919 20.0853 79.7635 19.1947 79.7635H15.5297C14.9817 79.7635 14.5706 79.8777 14.2966 80.106C14.0226 80.3115 13.7942 80.7112 13.6116 81.3049L11.5564 87.9841C11.4422 88.3723 11.4194 88.6463 11.4879 88.8061C11.5793 88.9431 11.7962 89.0002 12.1387 88.9774L15.975 88.9089C16.5687 88.8861 17.0482 88.7376 17.4136 88.4636C17.8018 88.1896 18.1443 87.8357 18.4412 87.4018C18.601 87.2191 18.7723 87.025 18.9549 86.8195C19.1376 86.5911 19.3203 86.477 19.503 86.477C19.6857 86.477 19.7884 86.5683 19.8113 86.751C19.8341 86.9108 19.7884 87.1164 19.6742 87.3675C19.4687 87.8014 19.2861 88.2124 19.1262 88.6006C18.9664 88.966 18.8294 89.3313 18.7152 89.6967C18.5782 90.0849 18.4526 90.4845 18.3384 90.8955C18.2242 91.3066 18.1101 91.7633 17.9959 92.2656C17.9502 92.494 17.8817 92.6881 17.7904 92.8479C17.7219 93.0078 17.6305 93.0877 17.5163 93.0877C17.3337 93.0877 17.1967 92.9735 17.1053 92.7452C17.0368 92.5168 17.0026 92.3227 17.0026 92.1629C17.0254 91.455 16.9226 90.9412 16.6943 90.6215C16.4888 90.3018 16.1919 90.142 15.8037 90.142L12.036 90.0735C11.6934 90.0735 11.3966 90.1306 11.1454 90.2447C10.8942 90.3589 10.7001 90.6329 10.5631 91.0668L8.85048 97.198C8.55363 98.2712 8.50796 99.0134 8.71347 99.4244C8.94182 99.8126 9.44419 100.007 10.2206 100.007H14.6734C15.2214 100.007 15.7238 99.9153 16.1805 99.7327C16.6372 99.55 17.0482 99.333 17.4136 99.0819C17.8018 98.8078 18.1671 98.4539 18.5097 98.02C18.8522 97.5633 19.1947 97.0724 19.5372 96.5472C19.6286 96.4102 19.7199 96.2846 19.8113 96.1704C19.9026 96.0562 20.0168 95.9991 20.1538 95.9991C20.268 95.9991 20.3365 96.0791 20.3593 96.2389C20.405 96.3759 20.4278 96.5358 20.4278 96.7184C20.4278 96.9468 20.3365 97.3007 20.1538 97.7803C19.9939 98.2598 19.7998 98.7622 19.5715 99.2874C19.3431 99.7897 19.1148 100.201 18.8864 100.52C18.7723 100.726 18.6238 100.886 18.4412 101C18.2813 101.114 18.0758 101.171 17.8246 101.171C17.1396 101.171 16.386 101.16 15.564 101.137C14.7419 101.137 13.897 101.126 13.0293 101.103C12.1844 101.08 11.3281 101.057 10.4603 101.034C9.61545 101.011 8.78198 101 7.95992 101C7.1607 100.977 6.41856 100.966 5.73351 100.966C5.20831 100.966 4.70594 100.977 4.22641 101C3.76971 101.046 3.31301 101.08 2.85631 101.103C2.39961 101.148 1.89724 101.171 1.3492 101.171ZM24.5105 101.514C24.3507 101.514 24.1794 101.457 23.9967 101.343C23.8141 101.228 23.6428 101.08 23.483 100.897C23.3459 100.692 23.2432 100.475 23.1747 100.246C23.1062 99.9953 23.129 99.7669 23.2432 99.5614L27.011 90.2105C27.3763 89.3656 27.3535 88.9431 26.9424 88.9431C26.7598 88.9431 26.5314 88.966 26.2574 89.0117C25.9834 89.0573 25.6865 89.1829 25.3668 89.3884C25.0471 89.5939 24.7046 89.9251 24.3393 90.3818C24.2479 90.4731 24.1337 90.5188 23.9967 90.5188C23.8826 90.4959 23.8026 90.4046 23.757 90.2447C23.757 90.0849 23.8026 89.8908 23.894 89.6624C24.0082 89.4113 24.1337 89.1715 24.2708 88.9431C24.4306 88.692 24.5676 88.4979 24.6818 88.3609C25.0928 87.8357 25.618 87.4132 26.2574 87.0935C26.9196 86.7738 27.696 86.6026 28.5866 86.5797C28.9519 86.5797 29.2488 86.6825 29.4771 86.888C29.7283 87.0707 29.8996 87.3105 29.9909 87.6073C30.0823 87.9042 30.0594 88.2238 29.9224 88.5664L27.833 93.944C27.7645 94.1038 27.7988 94.1952 27.9358 94.218C28.0728 94.2409 28.1755 94.1838 28.244 94.0468C29.1346 92.5168 30.0366 91.1924 30.95 90.0735C31.8634 88.9546 32.7539 88.0983 33.6217 87.5045C34.5122 86.888 35.3457 86.5797 36.1221 86.5797C36.7386 86.5797 37.2296 86.7852 37.5949 87.1963C37.9831 87.5845 38.2115 88.0868 38.28 88.7034C38.3485 89.2971 38.2343 89.9593 37.9375 90.69L34.9918 97.6433C34.6492 98.4197 34.6949 98.8078 35.1288 98.8078C35.3571 98.8078 35.6426 98.7165 35.9851 98.5338C36.3504 98.3511 36.7044 98.1342 37.0469 97.883C37.4123 97.6318 37.732 97.3921 38.006 97.1637C38.3028 96.9354 38.4969 96.7755 38.5883 96.6842C38.6568 96.6385 38.7139 96.5929 38.7595 96.5472C38.8052 96.5015 38.8509 96.4787 38.8965 96.4787C38.965 96.4787 39.0335 96.5129 39.1021 96.5814C39.1706 96.6499 39.2048 96.7299 39.2048 96.8212C39.2048 97.0952 39.1249 97.3464 38.965 97.5748C38.3257 98.3055 37.6406 98.9677 36.9099 99.5614C36.1792 100.155 35.4256 100.623 34.6492 100.966C33.8729 101.308 33.1079 101.48 32.3543 101.48C32.126 101.48 31.8862 101.4 31.635 101.24C31.4067 101.08 31.224 100.874 31.087 100.623C30.9728 100.372 30.9728 100.121 31.087 99.8697C31.772 98.2712 32.4685 96.6956 33.1764 95.1428C33.9071 93.5901 34.5807 92.0144 35.1973 90.416C35.4941 89.6625 35.5969 89.1258 35.5056 88.8061C35.4142 88.4865 35.2201 88.3152 34.9233 88.2924C34.6492 88.2924 34.341 88.4179 33.9984 88.6691C33.6559 88.9203 33.2677 89.2743 32.8339 89.731C32.4228 90.1877 31.989 90.7129 31.5323 91.3066C31.2811 91.6263 30.9386 92.1058 30.5047 92.7452C30.0937 93.3845 29.6256 94.1153 29.1003 94.9373C28.5751 95.7594 28.0385 96.6157 27.4905 97.5063C26.9653 98.3968 26.4629 99.2531 25.9834 100.075C25.7322 100.532 25.481 100.886 25.2298 101.137C25.0015 101.388 24.7617 101.514 24.5105 101.514ZM43.1355 101.48C42.9072 101.48 42.656 101.388 42.382 101.206C42.1308 101.023 41.9139 100.817 41.7312 100.589C41.5714 100.338 41.4914 100.121 41.4914 99.9382C41.4914 99.6185 41.5257 99.3445 41.5942 99.1161C41.6855 98.8649 41.7997 98.5567 41.9367 98.1913L45.1907 89.2172C45.2592 88.9888 45.2478 88.8404 45.1564 88.7719C45.0651 88.6805 44.9509 88.6349 44.8139 88.6349L43.3753 88.5664C43.0328 88.5435 42.8273 88.475 42.7588 88.3609C42.6903 88.2238 42.656 88.1097 42.656 88.0183C42.656 87.9727 42.7131 87.8813 42.8273 87.7443C42.9643 87.5845 43.1355 87.436 43.3411 87.299C43.5466 87.1392 43.7635 87.0593 43.9919 87.0593H45.3962C45.6702 87.0593 45.8529 87.0136 45.9442 86.9223C46.0584 86.8309 46.184 86.6482 46.321 86.3742L47.1773 84.5931C47.3143 84.3647 47.5084 84.1136 47.7596 83.8395C48.0336 83.5655 48.3191 83.3372 48.6159 83.1545C48.9128 82.949 49.1411 82.8462 49.301 82.8462C49.5522 82.8462 49.712 82.9946 49.7805 83.2915C49.849 83.5655 49.8376 83.8395 49.7463 84.1136L48.89 86.5112C48.8214 86.7396 48.8214 86.888 48.89 86.9565C48.9813 87.0022 49.1297 87.025 49.3352 87.025C49.7463 87.025 50.1687 87.0593 50.6026 87.1278C51.0364 87.1963 51.4246 87.2534 51.7672 87.299C52.1782 87.3675 52.4294 87.4475 52.5207 87.5388C52.612 87.6301 52.6577 87.7443 52.6577 87.8813C52.6577 87.927 52.6006 88.0183 52.4865 88.1553C52.3951 88.2695 52.201 88.338 51.9042 88.3609C51.4703 88.3837 51.0479 88.4179 50.6368 88.4636C50.2486 88.4865 49.8148 88.5093 49.3352 88.5321C48.947 88.555 48.6616 88.612 48.4789 88.7034C48.3191 88.7947 48.2049 88.9317 48.1364 89.1144L45.2592 97.061C45.145 97.4035 45.0879 97.6889 45.0879 97.9173C45.0879 98.1228 45.145 98.2712 45.2592 98.3626C45.3734 98.4539 45.5332 98.4996 45.7387 98.4996C46.0584 98.4996 46.4124 98.374 46.8006 98.1228C47.1887 97.8716 47.5655 97.5862 47.9309 97.2665C48.3191 96.924 48.6388 96.6271 48.89 96.3759C49.0726 96.1932 49.2325 96.1133 49.3695 96.1362C49.5065 96.1362 49.575 96.1818 49.575 96.2732C49.6207 96.3873 49.6093 96.5358 49.5407 96.7184C49.4951 96.8783 49.4152 97.0496 49.301 97.2322C49.027 97.5976 48.6959 97.9858 48.3077 98.3968C47.9195 98.785 47.4856 99.1732 47.0061 99.5614C46.5494 99.9268 46.0813 100.258 45.6017 100.555C45.1222 100.829 44.6655 101.046 44.2316 101.206C43.8206 101.388 43.4552 101.48 43.1355 101.48ZM55.4787 101.514C54.9535 101.514 54.4055 101.331 53.8346 100.966C53.2866 100.6 52.8185 100.121 52.4303 99.5271C52.0649 98.9334 51.8822 98.3397 51.8822 97.746C51.8822 96.4901 52.122 95.2113 52.6015 93.9097C53.1039 92.6082 53.7775 91.4093 54.6224 90.3132C55.4673 89.1943 56.4264 88.2924 57.4996 87.6073C58.5957 86.9223 59.7374 86.5797 60.9249 86.5797C61.9068 86.5797 62.6489 86.7852 63.1513 87.1963C63.6536 87.5845 63.9048 88.0868 63.9048 88.7034C63.9048 89.4341 63.6651 90.0735 63.1855 90.6215C62.7288 91.1467 62.1123 91.6034 61.3359 91.9916C60.5595 92.3798 59.7032 92.6995 58.767 92.9507C57.8536 93.2019 56.9287 93.4188 55.9925 93.6015C55.8783 93.6243 55.787 93.6586 55.7185 93.7042C55.65 93.7271 55.5929 93.7956 55.5472 93.9097C55.4331 94.2979 55.3189 94.7204 55.2047 95.1771C55.0905 95.6338 55.022 96.0562 54.9992 96.4444C54.9992 97.2437 55.1705 97.8944 55.513 98.3968C55.8783 98.8764 56.415 99.1161 57.1228 99.1161C57.8764 99.1161 58.5272 98.9334 59.0752 98.5681C59.6233 98.1799 60.1142 97.7574 60.5481 97.3007C60.7764 97.0496 60.9705 96.924 61.1304 96.924C61.3587 96.924 61.4729 97.0381 61.4729 97.2665C61.4729 97.3122 61.4729 97.3692 61.4729 97.4377C61.4729 97.5063 61.4501 97.5633 61.4044 97.609C60.9477 98.3854 60.4225 99.0704 59.8288 99.6642C59.2351 100.235 58.5729 100.68 57.8421 101C57.1343 101.343 56.3465 101.514 55.4787 101.514ZM56.2323 92.6424C56.5748 92.5967 57.0315 92.494 57.6024 92.3341C58.1732 92.1743 58.7441 91.9345 59.315 91.6148C59.9087 91.2951 60.4111 90.8955 60.8221 90.416C61.2331 89.9365 61.4386 89.3542 61.4386 88.6691C61.4386 88.3951 61.3587 88.1439 61.1989 87.9156C61.039 87.6872 60.8107 87.5731 60.5138 87.5731C60.0571 87.5731 59.5776 87.7557 59.0752 88.1211C58.5729 88.4865 58.0933 88.9317 57.6366 89.4569C57.1799 89.9821 56.8032 90.5188 56.5063 91.0668C56.2094 91.6148 56.0382 92.0715 55.9925 92.4369C55.9925 92.5967 56.0724 92.6652 56.2323 92.6424ZM66.1473 101.548C65.9874 101.548 65.8048 101.502 65.5992 101.411C65.4166 101.32 65.2453 101.183 65.0855 101C64.9484 100.84 64.8799 100.669 64.8799 100.486C64.8799 100.235 64.937 99.9496 65.0512 99.6299C65.1654 99.2874 65.3138 98.8649 65.4965 98.3626L68.7505 89.9022C68.8646 89.6282 68.8989 89.3884 68.8532 89.1829C68.8304 88.9546 68.7048 88.8404 68.4764 88.8404C68.1111 88.8404 67.78 88.8975 67.4831 89.0117C67.1863 89.1258 66.9237 89.2628 66.6953 89.4227C66.5583 89.514 66.4213 89.5369 66.2843 89.4912C66.1473 89.4455 66.0788 89.3313 66.0788 89.1487C66.0559 88.8746 66.1701 88.5778 66.4213 88.2581C66.6953 87.9384 67.0378 87.653 67.4489 87.4018C67.7914 87.1506 68.191 86.9565 68.6477 86.8195C69.1044 86.6597 69.5611 86.5797 70.0178 86.5797C70.6572 86.5797 71.0796 86.751 71.2851 87.0935C71.4907 87.4132 71.5477 87.8585 71.4564 88.4294C71.3879 88.9774 71.2052 89.6054 70.9084 90.3132L69.4355 93.9097C69.3442 94.0696 69.367 94.1724 69.504 94.218C69.6639 94.2637 69.778 94.218 69.8465 94.081C70.7143 92.5511 71.582 91.2266 72.4497 90.1077C73.3403 88.966 74.1738 88.0754 74.9502 87.436C75.7494 86.7967 76.4687 86.477 77.1081 86.477C77.7474 86.477 78.2041 86.6597 78.4782 87.025C78.775 87.3904 78.9234 87.8357 78.9234 88.3609C78.9234 88.8404 78.8207 89.3199 78.6152 89.7995C78.4325 90.279 78.1813 90.6786 77.8616 90.9983C77.5648 91.2951 77.2565 91.4436 76.9368 91.4436C76.7084 91.4436 76.5372 91.3294 76.423 91.1011C76.3317 90.8727 76.2632 90.553 76.2175 90.142C76.1947 89.7995 76.1262 89.514 76.012 89.2857C75.9206 89.0345 75.7494 88.9089 75.4982 88.9089C75.2013 88.9089 74.8588 89.103 74.4706 89.4912C74.0824 89.8565 73.6143 90.4388 73.0663 91.2381C72.8379 91.5578 72.5296 92.0144 72.1415 92.6082C71.7533 93.179 71.3422 93.8184 70.9084 94.5263C70.4745 95.2342 70.0406 95.9421 69.6068 96.6499C69.1729 97.3578 68.7961 97.9972 68.4764 98.5681C67.9284 99.55 67.4831 100.292 67.1406 100.794C66.7981 101.297 66.467 101.548 66.1473 101.548Z" fill="black"/>
<path d="M238.411 66.137C238.183 66.137 238 66.1028 237.863 66.0343C237.703 65.9886 237.635 65.8858 237.657 65.726C237.68 65.5661 237.772 65.4405 237.931 65.3492C238.091 65.2579 238.343 65.1665 238.685 65.0752C239.644 64.8468 240.341 64.5271 240.774 64.1161C241.208 63.6823 241.528 63.157 241.734 62.5405L246.632 48.1545C246.883 47.4238 246.997 46.8072 246.974 46.3049C246.951 45.8025 246.746 45.4143 246.358 45.1403C245.969 44.8663 245.341 44.695 244.474 44.6265C244.108 44.5808 243.811 44.5123 243.583 44.421C243.355 44.3068 243.241 44.1584 243.241 43.9757C243.241 43.7702 243.355 43.6332 243.583 43.5647C243.834 43.4962 244.028 43.4619 244.165 43.4619C244.759 43.4619 245.353 43.4733 245.947 43.4962C246.54 43.519 247.123 43.5532 247.693 43.5989C248.264 43.6218 248.79 43.6332 249.269 43.6332C249.497 43.6332 249.691 43.6903 249.851 43.8044C250.034 43.9186 250.171 44.067 250.262 44.2497L257.729 60.2798C257.775 60.3712 257.855 60.4968 257.969 60.6566C258.106 60.7936 258.22 60.8621 258.312 60.8621C258.449 60.8621 258.597 60.6566 258.757 60.2456C258.848 60.0172 258.985 59.6176 259.168 59.0468C259.374 58.4531 259.602 57.7566 259.853 56.9574C260.104 56.1353 260.355 55.2676 260.607 54.3542C260.881 53.4408 261.143 52.5616 261.394 51.7167C261.646 50.8718 261.863 50.1183 262.045 49.4561C262.228 48.771 262.353 48.2572 262.422 47.9147C262.65 46.8872 262.548 46.1564 262.114 45.7226C261.68 45.2659 260.892 44.9462 259.75 44.7635C259.202 44.6722 258.928 44.4666 258.928 44.147C258.928 44.0099 259.042 43.9072 259.271 43.8387C259.522 43.7473 259.762 43.7017 259.99 43.7017C260.698 43.7017 261.36 43.7359 261.977 43.8044C262.593 43.8501 263.176 43.8729 263.724 43.8729C264.18 43.8729 264.591 43.8501 264.957 43.8044C265.322 43.7588 265.722 43.7245 266.155 43.7017C266.612 43.656 267.149 43.6332 267.765 43.6332C268.268 43.6332 268.519 43.7702 268.519 44.0442C268.519 44.204 268.393 44.3525 268.142 44.4895C267.914 44.6037 267.628 44.6836 267.286 44.7292C266.715 44.7978 266.258 44.9119 265.916 45.0718C265.573 45.2088 265.276 45.4714 265.025 45.8596C264.797 46.2249 264.546 46.7616 264.272 47.4694C264.203 47.7206 264.055 48.1773 263.826 48.8395C263.598 49.5018 263.324 50.301 263.004 51.2372C262.685 52.1734 262.353 53.1668 262.011 54.2172C261.668 55.2676 261.326 56.2837 260.983 57.2656C260.664 58.2475 260.378 59.1381 260.127 59.9373C259.876 60.7137 259.693 61.296 259.579 61.6842C259.442 62.1409 259.385 62.5063 259.408 62.7803C259.453 63.0543 259.568 63.3626 259.75 63.7051C259.864 63.9791 260.013 64.2075 260.196 64.3901C260.401 64.55 260.595 64.7098 260.778 64.8697C260.961 65.0067 261.109 65.1323 261.223 65.2464C261.36 65.3606 261.429 65.509 261.429 65.6917C261.429 65.8287 261.383 65.9201 261.292 65.9657C261.223 65.9886 261.132 66 261.018 66C260.538 66 260.116 66.0114 259.75 66.0343C259.385 66.0799 259.065 66.1142 258.791 66.137C258.517 66.1827 258.243 66.2055 257.969 66.2055C257.512 66.2055 257.159 66.1142 256.907 65.9315C256.656 65.7488 256.428 65.4291 256.222 64.9724C255.88 64.2417 255.503 63.4197 255.092 62.5063C254.704 61.5929 254.293 60.6224 253.859 59.5948C253.425 58.5672 252.98 57.5397 252.523 56.5121C252.066 55.4617 251.621 54.4569 251.187 53.4979C250.753 52.516 250.342 51.614 249.954 50.7919C249.589 49.947 249.235 49.2277 248.892 48.634C248.801 48.4513 248.687 48.2915 248.55 48.1545C248.436 48.0175 248.333 47.949 248.241 47.949C248.127 47.949 248.002 48.0517 247.865 48.2572C247.728 48.4399 247.614 48.6797 247.522 48.9765C247.271 49.7986 246.963 50.7577 246.597 51.8538C246.255 52.927 245.901 54.0802 245.536 55.3132C245.17 56.5463 244.805 57.7908 244.439 59.0468C244.097 60.2798 243.789 61.4444 243.515 62.5405C243.355 63.2484 243.435 63.8078 243.754 64.2189C244.097 64.6071 244.713 64.9039 245.604 65.1094C245.901 65.1779 246.129 65.2579 246.289 65.3492C246.449 65.4177 246.529 65.5433 246.529 65.726C246.506 65.863 246.392 65.9657 246.186 66.0343C245.981 66.1028 245.752 66.137 245.501 66.137C244.908 66.137 244.428 66.1142 244.063 66.0685C243.72 66.0457 243.4 66.0228 243.104 66C242.83 66 242.51 66 242.145 66C241.665 66 241.208 66.0114 240.774 66.0343C240.363 66.0571 239.964 66.0799 239.576 66.1028C239.21 66.1256 238.822 66.137 238.411 66.137ZM268.807 66.4795C268.145 66.4795 267.517 66.2969 266.923 65.9315C266.352 65.5433 265.884 65.0295 265.519 64.3901C265.176 63.7279 265.005 63.02 265.005 62.2665C265.005 61.1932 265.222 60.0401 265.656 58.807C266.09 57.5739 266.706 56.4093 267.506 55.3132C268.305 54.2172 269.241 53.3266 270.314 52.6416C271.387 51.9337 272.563 51.5797 273.842 51.5797C275.121 51.5797 276.126 51.9908 276.856 52.8128C277.587 53.612 277.952 54.651 277.952 55.9298C277.952 56.9574 277.736 58.0877 277.302 59.3208C276.891 60.531 276.286 61.6842 275.486 62.7803C274.687 63.8535 273.728 64.7441 272.609 65.452C271.49 66.137 270.223 66.4795 268.807 66.4795ZM269.389 65.3492C269.892 65.3492 270.406 65.1094 270.931 64.6299C271.456 64.1275 271.958 63.4767 272.438 62.6775C272.94 61.8783 273.374 60.9991 273.739 60.0401C274.128 59.081 274.436 58.1219 274.664 57.1629C274.893 56.2038 275.007 55.3361 275.007 54.5597C275.007 53.9888 274.904 53.5435 274.699 53.2238C274.516 52.8813 274.162 52.7101 273.637 52.7101C273.157 52.7101 272.655 52.9384 272.13 53.3951C271.604 53.8518 271.091 54.4684 270.588 55.2447C270.109 55.9983 269.675 56.8432 269.287 57.7794C268.898 58.6928 268.59 59.6405 268.362 60.6224C268.133 61.6043 268.019 62.5405 268.019 63.4311C268.019 64.0933 268.133 64.5842 268.362 64.9039C268.613 65.2008 268.956 65.3492 269.389 65.3492ZM281.008 66.4795C280.574 66.4795 280.197 66.3197 279.878 66C279.558 65.7031 279.398 65.3949 279.398 65.0752C279.398 64.9838 279.409 64.8925 279.432 64.8012C279.455 64.687 279.489 64.5728 279.535 64.4586C280.38 62.7232 281.111 61.0677 281.727 59.492C282.344 57.8936 282.903 56.455 283.406 55.1762C283.497 54.9479 283.44 54.8337 283.234 54.8337C283.12 54.8337 282.903 54.8908 282.584 55.005C282.287 55.1191 281.967 55.279 281.624 55.4845C281.305 55.6672 281.019 55.8499 280.768 56.0325C280.585 56.1467 280.426 56.181 280.289 56.1353C280.174 56.0668 280.117 55.964 280.117 55.827C280.117 55.69 280.22 55.4959 280.426 55.2447C280.654 54.9936 280.951 54.7081 281.316 54.3884C281.704 54.0687 282.138 53.7376 282.618 53.3951C283.097 53.0526 283.588 52.7329 284.091 52.436C284.616 52.1164 285.13 51.8538 285.632 51.6482C285.883 51.5341 286.134 51.5569 286.386 51.7167C286.66 51.8538 286.865 52.0478 287.002 52.299C287.162 52.5274 287.208 52.7215 287.139 52.8813L283.097 62.6433C283.029 62.7803 282.972 62.9287 282.926 63.0885C282.903 63.2256 282.892 63.3511 282.892 63.4653C282.892 63.6023 282.937 63.6937 283.029 63.7393C283.143 63.785 283.246 63.8078 283.337 63.8078C283.611 63.8078 283.954 63.6708 284.365 63.3968C284.799 63.1 285.244 62.746 285.7 62.335C286.18 61.9011 286.614 61.4901 287.002 61.1019C287.048 61.0334 287.093 60.9991 287.139 60.9991C287.208 60.9991 287.276 61.0334 287.345 61.1019C287.413 61.1476 287.447 61.2161 287.447 61.3074C287.447 61.6728 287.219 62.1523 286.762 62.746C286.306 63.3169 285.735 63.8878 285.05 64.4586C284.365 65.0295 283.657 65.509 282.926 65.8972C282.218 66.2854 281.579 66.4795 281.008 66.4795ZM287.687 48.5313C287.276 48.5313 286.934 48.3828 286.66 48.086C286.408 47.7663 286.283 47.4009 286.283 46.9899C286.283 46.3734 286.5 45.8253 286.934 45.3458C287.367 44.8434 287.904 44.5922 288.543 44.5922C288.977 44.5922 289.308 44.7749 289.537 45.1403C289.788 45.5056 289.914 45.8938 289.914 46.3049C289.914 46.8757 289.697 47.3895 289.263 47.8462C288.829 48.3029 288.304 48.5313 287.687 48.5313ZM290.415 66.4795C289.753 66.4795 289.205 66.3083 288.771 65.9657C288.314 65.6232 288.086 65.1894 288.086 64.6642C288.086 64.1161 288.211 63.6937 288.463 63.3968C288.714 63.0771 288.965 62.9173 289.216 62.9173C289.376 62.9173 289.547 62.9972 289.73 63.157C289.935 63.3169 290.152 63.4996 290.381 63.7051C290.655 63.9334 290.963 64.1732 291.306 64.4244C291.671 64.6756 292.093 64.8012 292.573 64.8012C293.098 64.8012 293.509 64.6185 293.806 64.2531C294.103 63.8878 294.263 63.4767 294.286 63.02C294.286 62.5633 294.171 62.0496 293.943 61.4787C293.715 60.885 293.429 60.3141 293.087 59.7661C292.744 59.218 292.459 58.67 292.23 58.1219C292.002 57.5511 291.888 57.0487 291.888 56.6148C291.888 55.9526 292.071 55.3247 292.436 54.731C292.824 54.1372 293.292 53.6006 293.84 53.1211C294.411 52.6416 294.971 52.2648 295.519 51.9908C296.067 51.7167 296.501 51.5797 296.82 51.5797C297.231 51.5797 297.619 51.6825 297.985 51.888C298.373 52.0935 298.693 52.3219 298.944 52.5731C299.195 52.8242 299.321 53.0526 299.321 53.2581C299.321 53.4408 299.229 53.6577 299.047 53.9089C298.887 54.1601 298.693 54.3884 298.464 54.5939C298.236 54.7766 298.03 54.868 297.848 54.868C297.688 54.868 297.528 54.7995 297.368 54.6624C297.231 54.5026 297.083 54.3313 296.923 54.1487C296.763 53.966 296.558 53.8061 296.306 53.6691C296.078 53.5093 295.804 53.4294 295.484 53.4294C295.142 53.4294 294.845 53.5664 294.594 53.8404C294.365 54.1144 294.251 54.4569 294.251 54.868C294.251 55.0506 294.32 55.3247 294.457 55.69C294.617 56.0554 294.799 56.4322 295.005 56.8204C295.21 57.2085 295.416 57.5739 295.621 57.9164C296.01 58.5101 296.329 59.1381 296.58 59.8003C296.832 60.4397 296.957 61.0334 296.957 61.5814C296.957 62.198 296.752 62.8031 296.341 63.3968C295.952 63.9677 295.439 64.4929 294.799 64.9724C294.16 65.4291 293.452 65.7945 292.676 66.0685C291.922 66.3425 291.169 66.4795 290.415 66.4795ZM302.918 66.5138C302.393 66.5138 301.845 66.3311 301.274 65.9657C300.726 65.6004 300.258 65.1209 299.87 64.5271C299.505 63.9334 299.322 63.3397 299.322 62.746C299.322 61.4901 299.562 60.2113 300.041 58.9097C300.544 57.6082 301.217 56.4093 302.062 55.3132C302.907 54.1943 303.866 53.2924 304.939 52.6073C306.035 51.9223 307.177 51.5797 308.365 51.5797C309.347 51.5797 310.089 51.7852 310.591 52.1963C311.093 52.5845 311.345 53.0868 311.345 53.7034C311.345 54.4341 311.105 55.0735 310.625 55.6215C310.169 56.1467 309.552 56.6034 308.776 56.9916C307.999 57.3798 307.143 57.6995 306.207 57.9507C305.293 58.2019 304.369 58.4188 303.432 58.6015C303.318 58.6243 303.227 58.6586 303.158 58.7042C303.09 58.7271 303.033 58.7956 302.987 58.9097C302.873 59.2979 302.759 59.7204 302.644 60.1771C302.53 60.6338 302.462 61.0562 302.439 61.4444C302.439 62.2437 302.61 62.8944 302.953 63.3968C303.318 63.8764 303.855 64.1161 304.563 64.1161C305.316 64.1161 305.967 63.9334 306.515 63.5681C307.063 63.1799 307.554 62.7574 307.988 62.3007C308.216 62.0496 308.41 61.924 308.57 61.924C308.798 61.924 308.913 62.0381 308.913 62.2665C308.913 62.3122 308.913 62.3692 308.913 62.4377C308.913 62.5063 308.89 62.5633 308.844 62.609C308.387 63.3854 307.862 64.0704 307.269 64.6642C306.675 65.235 306.013 65.6803 305.282 66C304.574 66.3425 303.786 66.5138 302.918 66.5138ZM303.672 57.6424C304.015 57.5967 304.471 57.494 305.042 57.3341C305.613 57.1743 306.184 56.9345 306.755 56.6148C307.348 56.2951 307.851 55.8955 308.262 55.416C308.673 54.9365 308.878 54.3542 308.878 53.6691C308.878 53.3951 308.798 53.1439 308.639 52.9156C308.479 52.6872 308.25 52.5731 307.954 52.5731C307.497 52.5731 307.017 52.7557 306.515 53.1211C306.013 53.4865 305.533 53.9317 305.076 54.4569C304.62 54.9821 304.243 55.5188 303.946 56.0668C303.649 56.6148 303.478 57.0715 303.432 57.4369C303.432 57.5967 303.512 57.6652 303.672 57.6424ZM313.005 66.685C312.502 66.685 312.08 66.491 311.737 66.1028C311.395 65.7146 311.224 65.2693 311.224 64.7669C311.224 64.2874 311.349 63.8535 311.6 63.4653C311.852 63.0543 312.171 62.7346 312.559 62.5063C312.948 62.2551 313.382 62.1295 313.861 62.1295C314.409 62.1295 314.843 62.335 315.163 62.746C315.505 63.157 315.676 63.6137 315.676 64.1161C315.676 64.5728 315.551 64.9953 315.3 65.3835C315.071 65.7717 314.752 66.0799 314.341 66.3083C313.952 66.5595 313.507 66.685 313.005 66.685Z" fill="black"/>
<path d="M27.8924 65H57.9644C59.1385 65 59.5952 64.4129 59.8561 63.304L61.3564 56.0632C61.4869 55.2804 61.0955 54.5629 60.3779 54.5629H59.9213C57.1163 54.5629 55.8117 61.7384 51.963 61.7384H39.6342C37.5467 61.7384 36.6987 59.9771 36.6987 58.2811L36.764 43.0168H46.8097C49.6147 43.0168 49.8756 47.1264 51.3759 47.1264H51.7673C52.3544 47.1264 52.7458 46.6046 52.7458 45.887V36.6241C52.7458 35.8413 52.3544 35.3847 51.7673 35.3847H51.3759C49.8756 35.3847 49.6147 39.69 46.8097 39.69H36.764V24.4909C36.764 22.6644 37.6772 21.9469 38.9818 21.9469H49.9408C53.7243 21.9469 55.5508 28.8615 58.1601 28.8615H58.4862C59.269 28.8615 59.7256 28.3396 59.5299 27.3611L57.9644 20.3161C57.7687 19.2071 57.312 18.6853 56.1379 18.6853H27.7619C26.9792 18.6853 26.4573 19.0114 26.4573 19.5985V19.7942C26.4573 21.1641 28.9361 21.4903 28.9361 24.1648V59.5205C28.9361 62.195 26.4573 62.456 26.4573 63.8911V64.0868C26.4573 64.6738 27.0444 65 27.8924 65ZM78.0833 65.5871C86.4983 65.5871 91.7821 61.6079 91.7821 56.5198C91.7821 43.6039 72.7995 49.2791 72.7995 40.4075C72.7995 37.6026 75.0827 35.3847 78.279 35.3847C85.1284 35.3847 83.3671 43.6039 87.9334 43.6039C89.6294 43.6039 90.934 42.4297 90.934 40.7989C90.934 37.0155 86.0416 33.0363 77.8876 33.0363C70.386 33.0363 65.1022 37.0155 65.1022 42.2993C65.1022 55.3457 84.0847 49.54 84.0847 58.3463C84.0847 61.6732 81.5406 63.3692 78.0833 63.3692C70.4512 63.3692 72.6038 55.0847 67.7114 55.0847C65.8197 55.0847 64.4498 56.0632 64.4498 58.0854C64.4498 61.6732 69.5379 65.5871 78.0833 65.5871ZM111.655 65.6523C119.679 65.6523 124.049 60.5642 124.702 55.4761C124.897 54.1063 123.267 53.9106 122.614 54.889C121.179 57.694 118.44 60.2381 114.199 60.2381C107.22 60.2381 102.588 54.4976 102.588 45.5609C102.588 39.9509 105.524 35.5151 110.09 35.5151C116.613 35.5151 116.417 44.191 121.114 44.4519C123.528 44.5172 124.441 43.1473 124.441 41.6469C124.441 37.2764 118.635 32.9711 111.329 33.0363C102.458 33.1015 94.8908 39.2986 94.8908 49.2139C94.8908 58.3463 102.197 65.6523 111.655 65.6523ZM156.659 59.1291L155.355 46.6046C154.441 38.1896 149.158 33.0363 140.938 33.0363C133.959 33.0363 128.871 36.2327 128.871 40.3423C128.871 42.1688 130.11 43.343 132.067 43.343C136.177 43.343 134.872 35.4499 140.938 35.4499C145.505 35.4499 147.07 39.3638 147.788 46.9307L147.918 48.2354C146.157 46.8655 143.548 46.0175 140.351 46.0175C133.763 46.0175 128.414 49.4096 128.479 55.8023C128.479 62.195 133.567 65.6523 140.678 65.6523C145.309 65.6523 148.244 63.8911 149.745 61.4775C150.006 64.6738 151.636 65.3914 154.963 65.3914C157.768 65.3914 160.247 65 160.247 63.7606C160.247 62.0646 157.116 63.3692 156.659 59.1291ZM142.83 63.1735C138.786 63.1735 136.177 59.3248 136.177 54.889C136.177 50.9751 138.721 48.4963 142.308 48.4963C145.766 48.4963 148.244 50.8447 148.505 54.5629L148.701 56.5851C148.897 60.1076 146.483 63.1735 142.83 63.1735ZM180.957 33.0363C176.652 33.0363 173.064 34.8628 171.238 37.9939L171.303 34.4062C171.303 33.2972 170.716 32.5797 169.15 33.3625L163.149 36.2979C162.431 36.6241 161.975 37.0807 161.975 37.6678V37.9287C161.975 39.4291 164.78 39.5595 164.78 42.0383V74.002C164.78 76.6113 162.301 76.8722 162.301 78.3073V78.503C162.301 79.1553 162.888 79.4815 163.736 79.4815H173.651C174.499 79.4815 175.086 79.1553 175.086 78.503V78.3073C175.086 76.8722 172.412 76.6113 172.412 74.002V62.195C174.565 64.4129 177.435 65.6523 181.022 65.6523C189.242 65.6523 196.091 58.7377 196.091 48.8225C196.091 38.9072 188.785 33.0363 180.957 33.0363ZM180.109 63.1735C176.13 63.1735 172.412 58.6725 172.412 53.9106V41.8426C172.868 38.1896 175.739 35.5151 179.066 35.5151C184.675 35.5151 188.394 41.9079 188.394 51.236C188.394 58.8682 185.263 63.1735 180.109 63.1735ZM226.755 55.4109C225.451 58.0202 222.515 60.1728 218.406 60.1728C213.774 60.1728 210.447 57.4331 208.816 52.9973L224.603 47.1917C226.625 46.4741 227.929 45.1042 227.929 42.6254C227.929 38.0592 224.146 33.0363 215.731 33.0363C207.12 33.0363 200.141 39.7552 200.141 49.0834C200.141 59.1944 206.859 65.6523 215.601 65.6523C223.885 65.6523 228.256 59.9119 228.843 56.0632C228.973 54.7586 227.473 54.4976 226.755 55.4109ZM214.426 35.5151C218.21 35.5151 220.623 40.2118 220.623 42.8864C220.623 44.191 220.102 45.1042 218.927 45.6261L208.099 50.3228C207.838 49.0182 207.707 47.6483 207.707 46.148C207.707 39.8857 210.317 35.5151 214.426 35.5151Z" fill="black"/>
</svg>
