<svg width="182" height="15" viewBox="0 0 182 15" fill="none" xmlns="http://www.w3.org/2000/svg">
<path d="M4.74492 14.9828L0 0H6.00804L8.41185 9.25003L10.5618 0H16.4654L11.5114 14.9828H4.74492Z" fill="white"/>
<path d="M17.3284 0H22.8108V14.9828H17.3284V0Z" fill="white"/>
<path d="M24.6652 0H29.9357V10.6875H34.8478V14.9828H24.6652V0Z" fill="white"/>
<path d="M36.0721 0H41.3426V10.6875H46.2547V14.9828H36.0721V0Z" fill="white"/>
<path d="M57.2585 13.4237H52.5554L52.1762 14.9828H46.4847L51.355 0H58.2708L63.7533 14.9828H57.7035L57.2615 13.4237H57.2585ZM54.7084 4.37459L53.2542 10.4271H56.4164L54.7084 4.37459Z" fill="white"/>
<path d="M76.7369 4.89524V14.9828H71.4664V4.89524H67.7338V0H80.4665V4.89524H76.7339H76.7369Z" fill="white"/>
<path d="M90.0609 13.4237H85.3578L84.9785 14.9828H79.287L84.1573 0H91.0732L96.5556 14.9828H90.5058L90.0638 13.4237H90.0609ZM87.5107 4.37459L86.0565 10.4271H89.2188L87.5107 4.37459Z" fill="white"/>
<path d="M101.972 8.21156V14.9828H97.2066V0H102.181L106.252 6.93257L110.447 0H115.338V14.9828H110.235V8.17194L106.081 14.9857H105.977L101.972 8.21439V8.21156Z" fill="white"/>
<path d="M126.766 13.4237H122.063L121.684 14.9828H115.992L120.863 0H127.778L133.261 14.9828H127.211L126.769 13.4237H126.766ZM124.216 4.37459L122.762 10.4271H125.924L124.216 4.37459Z" fill="white"/>
<path d="M139.054 8.23136V14.9828H133.909V0H137.871L143.5 6.5534V0H148.645V14.9828H144.808L139.054 8.23136Z" fill="white"/>
<path d="M160.073 13.4237H155.37L154.991 14.9828H149.299L154.17 0H161.085L166.568 14.9828H160.518L160.076 13.4237H160.073ZM157.523 4.37459L156.069 10.4271H159.231L157.523 4.37459Z" fill="white"/>
<path d="M167.219 14.9828V0H174.385C175.326 0 176.204 0.124503 177.022 0.37068C177.837 0.616857 178.539 0.973389 179.13 1.44028C179.722 1.90716 180.184 2.49289 180.522 3.19747C180.859 3.90205 181.027 4.71698 181.027 5.63377C181.027 6.55057 180.82 7.3655 180.405 8.10969C179.99 8.85671 179.438 9.47357 178.751 9.96875L181.997 14.9828H175.652L173.585 11.0864H172.489V14.9828H167.219ZM173.46 8.23136C174.203 8.23136 174.741 8.08422 175.072 7.79277C175.404 7.49849 175.568 6.99482 175.568 6.27327C175.568 5.59416 175.395 5.09332 175.051 4.7764C174.708 4.45665 174.176 4.29819 173.46 4.29819H172.489V8.23419H173.46V8.23136Z" fill="white"/>
</svg>
